<svg width="37" height="36" viewBox="0 0 37 36" fill="none" xmlns="http://www.w3.org/2000/svg">
<path fill-rule="evenodd" clip-rule="evenodd" d="M6.16683 3H30.8335C32.5364 3 33.9168 4.34315 33.9168 6V30C33.9168 31.6569 32.5364 33 30.8335 33H6.16683C4.46395 33 3.0835 31.6569 3.0835 30V6C3.0835 4.34315 4.46395 3 6.16683 3ZM6.16683 6V30H30.8335V6H6.16683ZM17.1636 18.0066H20.0418V27H23.1252V18.0066H26.1814V15.0066H23.1252V13.5C23.1252 12.6716 23.8154 12 24.6668 12H26.2085V9H24.6668C22.1125 9 20.0418 11.0147 20.0418 13.5V15.0066H17.1636V18.0066Z" fill="black"/>
</svg>
