<svg width="37" height="36" viewBox="0 0 37 36" fill="none" xmlns="http://www.w3.org/2000/svg">
<path fill-rule="evenodd" clip-rule="evenodd" d="M32.5594 6.76241L34.7405 7.01024L33.7601 8.922C33.282 9.85429 32.8034 10.7866 32.3244 11.7189C32.2675 11.9163 32.1677 12.0894 32.0201 12.3148C31.9584 12.409 31.7476 12.7085 31.7377 12.7229C31.6821 12.8041 31.6409 12.8682 31.6113 12.9195V16.5023C31.6113 25.6703 22.4923 31.4961 13.8806 31.4961C12.1184 31.4961 10.7796 31.414 9.24653 31.0885C6.7236 30.5528 4.84604 29.488 3.98687 27.627L3.10232 25.711L5.25199 25.5187C7.19667 25.3446 8.88277 24.9842 10.1776 24.5015C6.62281 23.9453 4.63071 22.4262 4.63071 19.5733V18.0733H6.17238C6.5111 18.0733 6.81653 18.0466 7.08958 17.9975C4.42166 16.4455 3.08538 13.9557 3.08538 10.5023C3.08509 10.3551 3.08509 10.3551 3.08418 10.1977C3.07416 8.45704 3.17025 7.52695 3.66 6.33989C3.97388 5.57911 4.42757 4.87483 5.03817 4.2295L6.20153 3L7.3326 4.2577C11.06 8.40241 14.7446 10.9169 18.5066 11.2211C18.5227 7.39657 21.4934 4.50228 25.4443 4.50228C27.2862 4.50228 28.957 5.18252 30.27 6.40909C30.9886 6.55276 31.7518 6.67064 32.5594 6.76241ZM29.151 9.24299L28.6784 9.13887L28.352 8.79038C27.5628 7.94779 26.5722 7.50225 25.4444 7.50225C23.1889 7.50225 21.5899 9.06583 21.5899 11.2523C21.5899 11.6096 21.5804 11.8341 21.5346 12.1292C21.3521 13.3067 20.6733 14.2523 19.2773 14.2523C14.6554 14.2523 10.4856 11.8431 6.41951 7.72839C6.20989 8.34838 6.16059 8.98568 6.16747 10.1809C6.1684 10.3407 6.1684 10.3407 6.16872 10.5023C6.16872 13.5743 7.44786 15.2546 10.4765 16.1912L11.5512 16.5236V17.6208C11.5512 18.9513 10.2557 20.2037 8.36014 20.7647C9.22907 21.4061 11.0061 21.7523 13.8812 21.7523H15.4228V23.2523C15.4228 25.4014 12.8848 27.0841 9.05091 27.9628C10.3012 28.3355 11.9661 28.4961 13.8806 28.4961C20.9945 28.4961 28.528 23.6832 28.528 16.5023V12.7523C28.528 12.3116 28.6592 11.9291 28.8774 11.5314C28.9626 11.3759 29.0565 11.2276 29.1724 11.0585C29.1942 11.0267 29.2752 10.9114 29.3394 10.8192L29.4616 10.5814C29.6596 10.1961 29.8575 9.81088 30.0553 9.42563C29.7479 9.36896 29.4464 9.30809 29.151 9.24299Z" fill="black"/>
</svg>
