<?xml version="1.0" encoding="utf-8"?>
<!-- Generator: Adobe Illustrator 24.1.1, SVG Export Plug-In . SVG Version: 6.00 Build 0)  -->
<svg version="1.1" id="twitter" xmlns="http://www.w3.org/2000/svg" xmlns:xlink="http://www.w3.org/1999/xlink" x="0px" y="0px"
	 viewBox="0 0 37 36" style="enable-background:new 0 0 37 36;" xml:space="preserve">
<style type="text/css">
	.sttw0{fill-rule:evenodd;clip-rule:evenodd;}
</style>
<path class="sttw0" d="M32.6,6.8L34.7,7l-1,1.9c-0.5,0.9-1,1.9-1.4,2.8c-0.1,0.2-0.2,0.4-0.3,0.6c-0.1,0.1-0.3,0.4-0.3,0.4
	c-0.1,0.1-0.1,0.1-0.1,0.2v3.6c0,9.2-9.1,15-17.7,15c-1.8,0-3.1-0.1-4.6-0.4c-2.5-0.5-4.4-1.6-5.3-3.5l-0.9-1.9l2.1-0.2
	c1.9-0.2,3.6-0.5,4.9-1c-3.6-0.6-5.5-2.1-5.5-4.9v-1.5h1.5c0.3,0,0.6,0,0.9-0.1c-2.7-1.6-4-4-4-7.5c0-0.1,0-0.1,0-0.3
	c0-1.7,0.1-2.7,0.6-3.9C4,5.6,4.4,4.9,5,4.2L6.2,3l1.1,1.3c3.7,4.1,7.4,6.7,11.2,7c0-3.8,3-6.7,6.9-6.7c1.8,0,3.5,0.7,4.8,1.9
	C31,6.6,31.8,6.7,32.6,6.8z M29.2,9.2l-0.5-0.1l-0.3-0.3c-0.8-0.8-1.8-1.3-2.9-1.3c-2.3,0-3.9,1.6-3.9,3.8c0,0.4,0,0.6-0.1,0.9
	c-0.2,1.2-0.9,2.1-2.3,2.1c-4.6,0-8.8-2.4-12.9-6.5C6.2,8.3,6.2,9,6.2,10.2c0,0.2,0,0.2,0,0.3c0,3.1,1.3,4.8,4.3,5.7l1.1,0.3v1.1
	c0,1.3-1.3,2.6-3.2,3.1c0.9,0.6,2.6,1,5.5,1h1.5v1.5c0,2.1-2.5,3.8-6.4,4.7c1.3,0.4,2.9,0.5,4.8,0.5c7.1,0,14.6-4.8,14.6-12v-3.8
	c0-0.4,0.1-0.8,0.3-1.2c0.1-0.2,0.2-0.3,0.3-0.5c0,0,0.1-0.1,0.2-0.2l0.1-0.2c0.2-0.4,0.4-0.8,0.6-1.2C29.7,9.4,29.4,9.3,29.2,9.2z"
	/>
</svg>
