<?xml version="1.0" encoding="utf-8"?>
<!-- Generator: Adobe Illustrator 24.1.1, SVG Export Plug-In . SVG Version: 6.00 Build 0)  -->
<svg version="1.1" id="about1" xmlns="http://www.w3.org/2000/svg" xmlns:xlink="http://www.w3.org/1999/xlink" x="0px" y="0px"
	 viewBox="0 0 79.4 88.5" style="enable-background:new 0 0 79.4 88.5;" xml:space="preserve">
<style type="text/css">
	.sta10{fill:#231202;}
	.sta11{fill:#F1BB00;}
	.sta12{fill:#191919;}
	.sta13{fill:#2180F2;}
	.sta14{fill:#2D8BEA;}
	.sta15{fill:#1772CC;}
	.sta16{fill:#D87600;}
	.sta17{fill:#EFB185;}
	.sta18{fill:#E6A376;}
	.sta19{fill:#8D5B8B;}
	.sta110{fill:#AA6FAD;}
	.sta111{fill:#301806;}
	.sta112{fill:#E8A476;}
	.sta113{fill:#DB9669;}
	.sta114{fill:#F1B287;}
	.sta115{fill:#A3805A;}
	.sta116{fill:#DDB786;}
	.sta117{fill:#826243;}
	.sta118{fill:#BF9B71;}
	.sta119{fill:#FDDBAA;}
	.sta120{fill:#DDB787;}
	.sta121{fill:#B18349;}
	.sta122{fill:#E7C18E;}
</style>
<path class="sta10" d="M21.2,8.3c0,0-4.3,4.1-2,8.5c1.5-0.7,2.4-2.3,2.4-3.9c-0.2-1.4,0-2.8,0.5-4.2L21.2,8.3z"/>
<path class="sta11" d="M23.4,7.5c0.2,0.7-0.2,1.5-0.9,1.7c-0.7,0.2-1.4-0.1-1.7-0.8c-0.3-0.7,0.1-1.5,0.8-1.7
	C22.3,6.4,23.1,6.7,23.4,7.5C23.4,7.5,23.4,7.5,23.4,7.5z"/>
<path class="sta12" d="M1.1,42.3c-1.1,0.4-1.7,2.2-0.5,5.2S4,55,5.5,53.7S5.7,40.6,1.1,42.3z"/>
<path class="sta13" d="M10.7,60.4L1.9,49.2c0,0-0.9-4.5,3.1-5.2l7.1,7l-1,9.6L10.7,60.4z"/>
<path class="sta13" d="M10.7,60.4L1.9,49.2c0,0-0.9-4.5,3.1-5.2l7.1,7l-1,9.6L10.7,60.4z"/>
<path class="sta12" d="M30.5,62c0,0-2,3.4,0.2,4.3s8.9,4.7,9.2,2.8s-2.1-3-3.2-4.1c-0.6-0.5-1-1.1-1.3-1.8L30.5,62z"/>
<path class="sta14" d="M39.9,47.8c-0.6-3.4-13.1-12.9-13.1-12.9l-8.2,6.5l14.3,8.5L30,61c0.3,4.7,5.2,2.5,5.2,2.5
	c1.7-3.8,3.1-7.7,4.2-11.7C39.9,50.5,40,49.1,39.9,47.8z"/>
<path class="sta13" d="M32.8,49.9L30,61c0.2,2.7,1.8,3.1,3.2,3c1.9-3.4,3.3-7,4.2-10.7c0,0,0.7-3.1,0.5-3.8c-1-3-11.8-11.4-13.6-12.8
	l-5.9,4.6L32.8,49.9z"/>
<path class="sta15" d="M5,44c-0.6,0.1-1.2,0.3-1.7,0.7c2.2,2.8,6.7,8.1,8.4,10.1l0.4-3.8L5,44z"/>
<path class="sta13" d="M15.9,33.1c0,0-5.4,2-5.9,9.4c0,0-0.6,14.7,1,18.1c0,0,4.5,5,9.5-17.1c0,0,4.9-4.9,5.4-8.1
	C26,35.5,22.3,36.8,15.9,33.1z"/>
<path class="sta15" d="M20.5,43.5c0,0,0.5-0.4,1.2-1c0,0-4.2,0.2-4.8,2.8S14,59.1,12.1,61.1C13.7,61.2,17,59.2,20.5,43.5z"/>
<path class="sta16" d="M31.8,38.1c0.6-0.9,1.7-1.3,2.8-1.1C34.1,38,32.8,38.5,31.8,38.1z"/>
<path class="sta17" d="M34,36.2c0.5,0.9,1,1.9,1.3,2.8c0.1,0.6,0.4,2.9-1,4.3c-0.7,0.8-0.9-0.5-0.8-2c0.2-0.8-0.1-1.5-0.6-2.1
	c-0.6-0.7-1-1.5-1.4-2.4C31.4,36.2,34,36.2,34,36.2z"/>
<path class="sta18" d="M31.6,36.9c0.4,0.8,0.7,1.7,0.9,2.6c0,1,1.1,1.1,1.1,1.8c0,1.2,0.1,2.2,0.4,2.3c0-0.9,1.1-1.4,0.3-3.7
	c-0.5-1.2-1.3-2.3-2.1-3.3C31.7,36.7,31.5,36.7,31.6,36.9z"/>
<path class="sta17" d="M32.3,36.5c0,0-0.1,2.9,0,3.8s0.5,1.5,0.7,1.3s0-2.8,0.9-2.6C34.4,39.1,32.4,36.9,32.3,36.5z"/>
<path class="sta19" d="M28.8,12.1c0,0,3-0.2,3.3,5.7c0.3,6,0,8.2,0.5,10.3s1.8,8.8,1.8,8.8c-1-0.1-2.1,0.3-2.8,1.1c0,0-3.6-8.6-4-12.3
	S25.6,13.3,28.8,12.1z"/>
<path class="sta110" d="M32.7,28.1c-0.5-2.1-0.3-4.4-0.5-10.3C32,13,30.6,12.3,29.6,12c-3,1.4-0.7,10.7-0.3,14.2
	c0.3,2.7,2.3,8.5,3.2,11.2c0.6-0.3,1.3-0.5,2-0.4C34.5,37,33.3,30.3,32.7,28.1z"/>
<path class="sta110" d="M15.3,16c0,0,3.3-4.5,14.1-4c0,0,1.8-0.4,0.8,5c0,1.1,0.4,2.1,0.9,3c0.5,0.8,1.5,3.8-2.2,6.5
	c0,0-2.4,5-1.4,8.3c0.9,3-8,4.8-12.1,2.5c-1.3-1.2-1.7-3.1-0.9-4.8c1-2.4,3.1-4.7,2.7-9.6S14.1,18.3,15.3,16z"/>
<path class="sta19" d="M15.3,16c-1.1,2.3,1.4,2.1,1.9,6.9s-2.3,8.1-3.3,10.5c-0.7,1.7,0.4,2.3,1,3.1c2.1-3.9,3.9-7.9,5.3-12.1
	c2.6-7.6-1.3-10.9-1.3-10.9C17.5,14.2,16.3,15,15.3,16z"/>
<path class="sta111" d="M30.2,3.6c-1.7,3.3-3.1,6.7-4.2,10.2c-0.2,0.7-1.4-0.1,0-0.1c0,0,6.7-4,5.7-9.5c-0.7-2.9-3.6-4.7-6.5-4.1
	c-0.4,0.1-0.9,0.3-1.3,0.5L30.2,3.6z"/>
<path class="sta112" d="M29.8,10.6c0,0-2.3,1.7-1.9,4.2c0.1,0.7,0.1,3.3-3.5,1.5c0,0-3.6-2.9-2.1-3.9c1-0.6,2-1.6,1.7-6.1L29.8,10.6z"
	/>
<path class="sta113" d="M22.3,12.4c-0.1,0.1-0.2,0.2-0.3,0.4c2.2,0.9,4.6,0.7,6.6-0.5L24.7,7l0,0c0,0-0.3,0.1-0.7,0.3
	C24.1,10.9,23.2,11.9,22.3,12.4z"/>
<path class="sta114" d="M30.7,3.1c0,0,1,0.6,0.4,3.7c-0.1,0.3,0.4,0.9,0.4,1.8s-0.6,4.4-2.7,4.3c-2.8-0.4-5-2.6-5.3-5.4
	C23,3.7,26.9-0.1,30.7,3.1z"/>
<path class="sta10" d="M30.3,4.3c0,0-5.4-1.3-6.5,5.7l0,0c-2.4-1.2-2.8-4-2.7-6c0.1-1,1.5-5.2,6.3-3.6C27.5,0.4,30.4,2.3,30.3,4.3z"/>
<path class="sta111" d="M30.3,4.3c0,0,1.3,0.3,1.3,2.7c0,0,2-7.8-6.2-7C25.4,0.1,29.9,1.3,30.3,4.3z"/>
<path class="sta114" d="M25.1,8.4c0,0-0.2-1.8-1.3-1.5C23.4,7,23,7.3,23.3,8.3s1.1,2,1.9,2.1L25.1,8.4z"/>
<path class="sta114" d="M19.6,34.3c0,0,2.2,0.7,2.7,0.5s1.1,0.4,0.4,0.6c-0.5,0.2-1,0.2-1.5,0.2c0.8,0.4,1.6,0.6,2.5,0.6
	c0.8-0.2,0,2-1.4,2s-2.8,0.3-4.5-2.6C18.3,34.9,18.9,34.4,19.6,34.3z"/>
<path class="sta110" d="M18,15c0,0,2.2,1,0.6,4.4s-4.3,9-4.3,9l-0.2,1l6.1,4.9c0,0-2.1,0.6-1.8,2.6c0,0-9.6-4-9.4-8
	C9,28.8,14.6,13,18,15z"/>
<path class="sta19" d="M9,28.8c-0.2,4,9.4,8,9.4,8c-0.1-0.5,0-1.1,0.3-1.6c-2.4-1.7-6.5-4.5-7.7-5.9c-1.5-1.8,5.8-12.6,7-14.3
	C14.6,13,9,28.8,9,28.8z"/>
<polygon class="sta115" points="28.9,52.2 28.9,69.4 44.2,78.3 44.2,61.1 "/>
<polygon class="sta116" points="28.9,52.2 28.9,69.4 44.2,78.3 44.2,61.1 "/>
<polygon class="sta117" points="35.1,55.8 35.1,59.2 38,60.9 38,57.6 "/>
<polygon class="sta118" points="44.2,61.1 44.2,78.3 59.6,69.4 59.6,52.2 "/>
<polygon class="sta119" points="28.9,52.2 44.2,61.1 59.6,52.2 44.3,43.3 "/>
<polygon class="sta120" points="59.6,69.4 44.2,61.1 59.6,52.2 "/>
<polygon class="sta121" points="44.2,61.1 49.5,65.9 64.5,56.9 59.6,52.2 "/>
<polygon class="sta121" points="59.6,52.2 63.7,49.8 48.4,40.8 44.3,43.3 "/>
<polygon class="sta118" points="44.3,43.3 39.8,38.5 24.6,47.2 28.9,52.2 "/>
<polygon class="sta122" points="44.2,61.1 40.1,65.3 24.6,56.5 28.9,52.2 "/>
<polygon class="sta115" points="79.4,67.1 79.3,81.2 66.8,88.5 66.9,74.3 "/>
<polygon class="sta116" points="79.4,67.1 79.3,81.2 66.8,88.5 66.9,74.3 "/>
<polygon class="sta117" points="74.3,70 74.3,72.8 71.9,74.2 71.9,71.5 "/>
<polygon class="sta118" points="66.9,74.3 66.8,88.5 54.2,81.2 54.2,67.1 "/>
<polygon class="sta119" points="79.4,67.1 66.9,74.3 54.2,67.1 66.8,59.8 "/>
<polygon class="sta120" points="54.2,81.2 66.9,74.3 54.2,67.1 "/>
</svg>
