<?xml version="1.0" encoding="utf-8"?>
<!-- Generator: Adobe Illustrator 24.1.1, SVG Export Plug-In . SVG Version: 6.00 Build 0)  -->
<svg version="1.1" id="about2" xmlns="http://www.w3.org/2000/svg" xmlns:xlink="http://www.w3.org/1999/xlink" x="0px" y="0px"
	 viewBox="0 0 71.5 97" style="enable-background:new 0 0 71.5 97;" xml:space="preserve">
<style type="text/css">
	.sta20{fill:#E2E7E8;}
	.sta21{fill:#BF9E73;}
	.sta22{fill:#686048;}
	.sta23{fill:#746C50;}
	.sta24{fill:#484332;}
	.sta25{fill:#3A3528;}
	.sta26{fill:#FF9B2D;}
	.sta27{fill:#7C9920;}
	.sta28{fill:#EA821B;}
	.sta29{fill:#F4DD26;}
	.sta210{fill:#5B462E;}
	.sta211{fill:#E5C613;}
	.sta212{fill:#B79266;}
	.sta213{fill:#DDB786;}
	.sta214{fill:#A3805A;}
	.sta215{fill:#9BB5BC;}
	.sta216{fill:#EFB185;}
	.sta217{fill:#E5A67C;}
	.sta218{fill:#CADFE8;}
	.sta219{fill:#B4CBD3;}
	.sta220{fill:#111114;}
	.sta221{fill:#0A0A0A;}
	.sta222{fill:#1772CC;}
	.sta223{fill:#2180F2;}
	.sta224{fill:#DD9569;}
	.sta225{fill:#F2B78F;}
	.sta226{fill:#E6A376;}
	.sta227{fill:#341C09;}
	.sta228{fill:#221101;}
	.sta229{fill:#DFEEF4;}
	.sta230{fill:#E8B679;}
	.sta231{fill:#DCA764;}
	.sta232{fill:#CC9558;}
	.sta233{fill:#FCE1BE;}
	.sta234{fill:#89B7C9;}
	.sta235{opacity:0.1;}
	.sta236{fill:#DFE5F3;}
	.sta237{fill:#9FB0BC;}
	.sta238{fill:#388852;}
	.sta239{fill:#2C7741;}
	.sta240{fill:#598A96;}
	.sta241{fill:#70A3B2;}
	.sta242{fill:#256272;}
	.sta243{fill:#3EA2BD;}
	.sta244{fill:#2CC2E5;}
	.sta245{fill:#52D9FE;}
	.sta246{fill:#133B7B;}
	.sta247{fill:#0D2955;}
	.sta248{fill:#154189;}
	.sta249{fill:#184C9F;}
	.sta250{fill:#94C4D3;}
	.sta251{fill:#6194A3;}
	.sta252{fill:#BAD1DE;}
	.sta253{fill:#C6DBE5;}
	.sta254{fill:#F9C5A2;}
	.sta255{fill:#EAB48F;}
</style>
<path class="sta20" d="M61,61.6c14,8.1,14.1,21.2,0.2,29.3s-36.6,8.1-50.6,0s-14.1-21.2-0.2-29.3S47,53.5,61,61.6z"/>
<polygon class="sta21" points="42,53.9 38.4,49.5 32.4,48.3 49.5,38.3 52.3,41.3 59.2,44 "/>
<g>
	<polygon class="sta22" points="46.7,42.5 48,41.7 48,54.6 46.7,55.4 	"/>
	<polygon class="sta23" points="42,39.8 43.3,39 48,41.7 46.7,42.5 	"/>
	<polygon class="sta24" points="46.7,42.5 46.7,55.4 41.9,52.7 42,39.8 	"/>
	<polygon class="sta25" points="45,49 46.7,55.4 41.9,52.7 42,39.8 	"/>
</g>
<path class="sta26" d="M41.1,51.9c0,0,6.6,2.3,9.8-3.9c0,0,0.2-1.4-1.6-0.6S45.5,51.6,41.1,51.9z"/>
<path class="sta27" d="M52.9,42.8c0,0-5,4.2-2.5,4.7C51.6,47.7,49.5,46.5,52.9,42.8z"/>
<path class="sta27" d="M52.9,44.3c0,0-2,4.7-2.9,2.9C49.5,46.4,50.9,47.6,52.9,44.3z"/>
<path class="sta27" d="M54.2,46c0,0-3.8,3.4-3.9,1.4C50.2,46.5,51,48.2,54.2,46z"/>
<path class="sta28" d="M41.6,55.9c0,0,6.7-1.8,5.9-8.7c0,0-0.6-1.3-1.7,0.4S45,53.2,41.6,55.9z"/>
<path class="sta27" d="M46.2,41.7c0,0-1.8,6.3,0.6,5.3C47.9,46.6,45.5,46.7,46.2,41.7z"/>
<path class="sta27" d="M47.1,43c0,0,1,5-0.8,4.1C45.4,46.6,47.3,46.9,47.1,43z"/>
<path class="sta27" d="M49,43.7c0,0-1.2,4.9-2.4,3.3C46,46.3,47.6,47.3,49,43.7z"/>
<path class="sta29" d="M35.3,43.6c0.3,2.7,4.7,7.6,9.5,5.6c0.4-0.2,1-0.7-0.1-1.6s-4.3,1-7.3-4.6C37.3,43.1,35,40.5,35.3,43.6z"/>
<path class="sta210" d="M45,47.9c0,0-0.7,0.2-0.5,0.5c0.1,0.2,0.3,0.5,0.5,0.7c0.2-0.2,0.4-0.3,0.6-0.4c0.3-0.1,1.8-0.3,1.8-0.3L47,48
	l-1.7,0.1L45,47.9z"/>
<path class="sta211" d="M34,48.4c1.3,2.5,7.2,5.3,10.8,1.7c0.3-0.3,0.7-1-0.7-1.4s-3.6,2.6-8.5-1.5C35.6,47.1,32.5,45.6,34,48.4z"/>
<path class="sta210" d="M44.5,48.8c0,0-0.6,0.4-0.3,0.7c0.2,0.2,0.4,0.3,0.7,0.5c0.1-0.2,0.2-0.5,0.4-0.6c0.2-0.2,1.6-0.9,1.6-0.9
	l-0.4-0.3L45,48.9L44.5,48.8z"/>
<path class="sta29" d="M35,52.4c2,1.9,8.5,2.8,10.8-1.8c0.2-0.3,0.3-1.2-1.1-1.2s-2.6,3.5-8.5,1.2C36.2,50.7,32.8,50.2,35,52.4z"/>
<path class="sta210" d="M45.2,49.5c0,0-0.4,0.6-0.1,0.7c0.3,0.1,0.5,0.2,0.8,0.2c0-0.3,0.1-0.5,0.2-0.7c0.2-0.2,1.2-1.3,1.2-1.3
	l-0.5-0.2l-1.2,1.2L45.2,49.5z"/>
<polygon class="sta212" points="42.1,76.1 32.4,70.4 32.4,48.3 38.4,49.5 42,53.9 "/>
<polygon class="sta213" points="42.1,76.1 38.4,69.6 32.4,70.4 "/>
<polygon class="sta214" points="38,69.6 38.4,49.5 42,53.9 42.1,76.1 "/>
<polygon class="sta213" points="59.2,44 59.3,66.1 42.1,76.1 42,53.9 "/>
<path class="sta215" d="M35,32.8c-1.5-0.2-3,0.8-3.2,2.4c0,0,0,0,0,0.1c1.4,0.3,2.9-0.6,3.2-2C35,33,35,32.9,35,32.8z"/>
<path class="sta216" d="M31.9,33.7c0.4,0.9,0.8,1.8,1.1,2.8c0.1,0.6,1.3,1.6,2,1.8s2.7,0.6,2.3-0.5c-0.3-0.7-0.6-1.4-0.9-2.2
	c-0.2-0.8-0.7-1.6-1.3-2.1l-1.7-1.2L31.9,33.7z"/>
<path class="sta217" d="M35.2,33.6c0.7,0.5,1.2,1.2,1.7,1.9c0.3,0.7,0.5,1.4,0.3,1.5c-0.5,0.2-0.8-0.5-1-1s-1-0.7-1.4-0.9
	S32.7,34,33.2,33l0.7-0.4L35.2,33.6z"/>
<path class="sta218" d="M24.5,11c0,0,2-0.3,3.5,6.4s1.5,7.2,1.5,7.2l5.5,8.2c-1.5-0.2-2.9,0.9-3.2,2.4c0,0-4.5-4.7-5.1-6.4
	S18.2,11.9,24.5,11z"/>
<path class="sta219" d="M31.7,35.2c0.1-0.6,0.4-1.2,0.9-1.6c-3.4-3.1-6-9.1-6-9.1l-1.1,1.4c0.6,1.4,1.1,2.5,1.2,2.9
	C27.2,30.4,31.7,35.2,31.7,35.2z"/>
<path class="sta220" d="M20.2,70c0,0-0.8,1.9,0,2.4s0.9,1,2.3,0.9s1.1,0.3,1.6,0.8s5.1,2.5,6,1.5s-1.6-2.1-2.5-2.7s-3-2.9-3-3.5
	S20.2,70,20.2,70z"/>
<path class="sta221" d="M20.2,72.4c0.8,0.5,0.9,1,2.3,0.9s1.1,0.3,1.6,0.8s5.1,2.5,6,1.5c0.2-0.3,0.2-0.7-0.1-1l-1.4,0.3
	c-1.4,0.2-3.1-1.3-3.8-1.9s-1.5-0.4-2.7-0.6s-1-2-1-2l-0.9-0.3C20,70.5,19.5,72,20.2,72.4z"/>
<path class="sta220" d="M11.9,76.2c0,0-0.4,2.3,0.5,3.5s2.8,3.3,3.6,3.3c0.8-0.1,1-0.5,1-0.5c0.2-1.2,0.1-2.5-0.3-3.7
	c-0.3-0.8-0.5-1.7-0.7-2.6H11.9z"/>
<path class="sta221" d="M12.4,79.7c0.8,1.1,2.3,2.8,3.3,3.2c-1.2-1.6,0.6-1.3-0.8-2c-1.9-1-0.7-1.9-1.5-2.1s-0.2-2.3-0.2-2.3l-0.5-0.2
	h-0.8C11.9,76.2,11.6,78.4,12.4,79.7z"/>
<path class="sta222" d="M22,39.3c0,0,3.9-0.4,5.2-3.3c0.2,4.6,0,9.2-0.4,13.8c-0.8,7.4-1.4,20.5-1.4,20.5c-1.4,1.4-3.7,1.4-5.1,0
	c0,0-0.7-8.6,0-13.4c0,0-0.5-8.3,0.3-12.5S22,39.3,22,39.3z"/>
<path class="sta223" d="M25.3,70.2c0,0,0.6-13,1.4-20.5c0.5-4.8,0.6-9.7,0.4-14.5c-0.9,1.9-2.5,3.3-4.5,3.9c0.1,2.8,0.4,11.2,0.3,13.9
	s-0.5,13.6-0.8,18.1C23.4,71.4,24.5,71,25.3,70.2z"/>
<path class="sta222" d="M12.8,38.9c0,0-0.4,4.3-0.5,11.1c0.1,3.4-0.2,6.9-0.7,10.3c-0.4,5.2-0.5,10.4-0.4,15.6c0,0,2.1,3.3,5.5,0
	c0,0,0.6-11.6,1.1-14.2s3.8-15.4,5.1-20c0.6-2,0.7-2.8,0.7-2.8S18,42.9,12.8,38.9z"/>
<path class="sta223" d="M16.7,75.8c0,0,0.6-11.6,1.1-14.2s3.8-15.4,5.1-20c0.4-1.3,1-2.5,1.9-3.6c0,0-3.7,2.6-6.9,2.6
	c-0.1,1-1.5,10.4-1.8,14.5s-3.1,18.5-2.4,22.1C14.8,77.2,15.9,76.7,16.7,75.8z"/>
<path class="sta218" d="M16.5,12c0,0-5.8,3.5-5.9,3.9c-0.1,0.5-1.6,1.7,1,6.8c0,0,3.4,5.5,2.3,11.3c-0.3,1.7-0.7,3.5-1.3,5.2
	c0,0,2.9,3.7,10.2,0.5c1.9-1,3.5-2.7,4.5-4.6c-0.7-3.5-0.8-7-0.5-10.6c0.5-5.8,0.5-13.2-2.8-13.9C24,10.5,23.1,9.6,16.5,12z"/>
<path class="sta216" d="M15.5,7.9c0,0,2,2.7,0.7,4.6c-0.7,1.1,1.4,3.4,4.6,3c0,0,1.4-0.5,1.2-1c-0.3-1-0.1-2,0.5-2.8
	C23,10.8,15.5,7.9,15.5,7.9z"/>
<path class="sta224" d="M16.2,12.5c-0.1,0.1-0.1,0.3-0.1,0.4c1-0.9,2.2-1.4,3.5-1.6l-3.3-3.2l-0.3-0.1l-0.1,0.3
	C16.3,9.2,17.2,11.1,16.2,12.5z"/>
<path class="sta225" d="M22,14.6c-0.4-1.9,0-1.9,0.5-2.8c0.1-0.3-0.4-0.7-1.1-1.1c-0.2,0.2-0.4,0.4-0.5,0.6c-0.8,1.3-1.1,2.9-0.8,4.4
	c0.2,0,0.4,0,0.7-0.1C21.2,15.5,22.2,15.1,22,14.6z"/>
<path class="sta216" d="M14.7,6.4c0,0,1,3.6,3.7,5.1c2.3,1.3,5,2.1,5.3-0.6c0.2-2.1,0.9-7.6-1.1-8.6c-2.5-1.2-3.5-2.9-6.3-1.7
	C16.4,0.6,13.3,2.3,14.7,6.4z"/>
<path class="sta226" d="M14.7,6.4c0.5,2.1,1.8,4,3.7,5.2c0.7,0.4,1.4,0.8,2.2,1c-0.9-0.5-1.7-1.2-2.4-2c-1-1,1.3-0.8-0.4-3.4
	c-0.6-0.9,2.1,0.1,2.7,0.1c3.4-0.3,3-2.3,3-3.1c-0.1-0.3-0.2-0.7-0.4-1l-0.4-0.6c0-0.1-0.1-0.1-0.1-0.2c-0.4-0.4-0.8-0.8-1.2-1.1
	c-1.5,0.1-5.7,0.5-5.7,0.6s-0.7,1-1.3,2C14.3,4.7,14.4,5.6,14.7,6.4z"/>
<path class="sta227" d="M16.5,9.8c-1.8-1.5-2.6-3.8-2.3-6.1c0.3-1.8,1.7-3.3,3.6-3.6c2.4-0.6,4.8,0.6,5.8,2.9c0.4,1,0.3,3.6-3.6,2.9
	c-0.6-0.1-1.8-0.8-2.3-0.3c-0.5,0.6-0.5,1.4-0.2,2.1c0.3,0.7-0.3,0.8-0.4,0.6s-1-2-1.6-1.2S16.4,9.7,16.5,9.8z"/>
<path class="sta228" d="M16.5,9.8c-0.1-0.1-1.6-2.1-1-2.8c0.6-0.7,1.5,1,1.6,1.2s0.7,0,0.4-0.6c-0.4-0.7-0.3-1.5,0.2-2.1
	c0.4-0.5,1.5,0.1,2.1,0.3c-0.9-0.4-1.6-1.1-2.1-2c-0.4-1.1-1.4-1.9-2.5-2.2c-0.5,0.6-0.9,1.4-1,2.2C13.9,6,14.7,8.3,16.5,9.8z"/>
<path class="sta229" d="M27.3,35c-0.7-3.5-0.8-7-0.5-10.6c0.4-4.8,0.5-10.8-1.4-13c-1.2,1.1-2.1,2.6-2.4,4.2c-0.3,2.5-3,4.1-4.3,4.5
	s-1.9,2.7-0.9,6.1c0.8,2.8,0.4,10.4-0.3,14.7c1.8-0.1,3.6-0.5,5.3-1.3C24.7,38.6,26.3,37,27.3,35z"/>
<polygon class="sta230" points="40.4,27.1 40.3,39.1 28,46.3 28,34.3 "/>
<polygon class="sta231" points="28,34.3 28,46.3 15.5,39.1 15.5,27.1 "/>
<polygon class="sta232" points="28,34.3 28,34.3 15.5,39.1 15.5,27.1 "/>
<polygon class="sta233" points="40.4,27.1 28,34.3 15.5,27.1 27.9,19.9 "/>
<polygon class="sta231" points="39.3,27.2 28,33.7 16.6,27.2 27.9,20.6 "/>
<g>
	<polygon class="sta22" points="31.2,19 32.3,18.4 32.2,28.6 31.2,29.2 	"/>
	<polygon class="sta23" points="27.5,16.8 28.5,16.2 32.3,18.4 31.2,19 	"/>
	<polygon class="sta24" points="31.2,19 31.2,29.2 27.5,27 27.5,16.8 	"/>
	<polygon class="sta25" points="31.2,24.7 31.2,29.2 27.5,27 27.5,16.8 	"/>
</g>
<g>
	<polygon class="sta22" points="28.7,20.6 29.7,20 29.7,30.3 28.6,30.9 	"/>
	<polygon class="sta23" points="24.9,18.4 25.9,17.8 29.7,20 28.7,20.6 	"/>
	<polygon class="sta24" points="28.7,20.6 28.6,30.9 24.9,28.7 24.9,18.4 	"/>
	<polygon class="sta25" points="27.3,25.8 28.6,30.9 24.9,28.7 24.9,18.4 	"/>
</g>
<polygon class="sta234" points="16.6,27.2 23,23.5 29.7,27.1 23.6,31.2 "/>
<g class="sta235">
	<path d="M23.1,27.5c0.7,0.4,0.7,1.1,0,1.5c-0.8,0.4-1.8,0.4-2.6,0c-0.4-0.1-0.6-0.6-0.5-1c0.1-0.2,0.3-0.4,0.5-0.5
		C21.4,27.1,22.3,27,23.1,27.5z"/>
</g>
<path class="sta236" d="M22.8,27.3c0.5,0.3,0.5,0.8,0,1.1c-0.6,0.3-1.4,0.3-2,0c-0.3-0.1-0.5-0.5-0.4-0.8c0.1-0.2,0.2-0.3,0.4-0.4
	C21.5,27,22.2,27,22.8,27.3z"/>
<polygon class="sta236" points="20.1,25.7 20.5,28 23.3,28 23.7,25.6 "/>
<path class="sta237" d="M23.1,24.9c0.7,0.4,0.7,1.1,0,1.5c-0.8,0.4-1.8,0.4-2.6,0c-0.4-0.1-0.6-0.6-0.5-1c0.1-0.2,0.3-0.4,0.5-0.5
	C21.4,24.5,22.3,24.5,23.1,24.9z"/>
<path class="sta238" d="M22.8,25.1c0.3,0.1,0.5,0.4,0.4,0.7c-0.1,0.2-0.2,0.3-0.4,0.4c-0.6,0.3-1.3,0.3-1.9,0
	c-0.3-0.1-0.5-0.4-0.4-0.7c0.1-0.2,0.2-0.3,0.4-0.4C21.5,24.8,22.2,24.8,22.8,25.1z"/>
<path class="sta238" d="M20.5,25.8c0,0-1.3-1.7,0-4.7c0,0,1.2,1.5,0.5,5.2C20.8,26.2,20.6,26,20.5,25.8z"/>
<path class="sta239" d="M20.5,21.1c0,1.2,0.1,3.2,0.3,5c0.1,0.1,0.1,0.1,0.2,0.2C21.6,22.8,20.6,21.3,20.5,21.1z"/>
<path class="sta238" d="M21.2,25.6c0,0-1.1-1.9,0.7-4.7c0,0,0.9,1.6-0.3,5.2C21.4,26,21.2,25.8,21.2,25.6z"/>
<path class="sta239" d="M21.8,20.9c-0.1,1.2-0.4,3.2-0.5,5c0.1,0.1,0.1,0.1,0.2,0.2C22.6,22.7,21.9,21.1,21.8,20.9z"/>
<path class="sta238" d="M21.2,26.3c0,0-1.6-0.6-2-3.1c0,0,1.4,0.5,2.5,3.3C21.6,26.4,21.4,26.4,21.2,26.3z"/>
<path class="sta239" d="M19.3,23.2c0.5,0.8,1.4,2.1,2.3,3.3c0.1,0,0.1,0,0.2,0C20.7,23.8,19.4,23.2,19.3,23.2z"/>
<path class="sta238" d="M22,26.1c-0.6-0.9-0.6-1.9-0.2-2.9c0,0,0.7,0.9,0.5,3.1C22.2,26.3,22.1,26.2,22,26.1z"/>
<path class="sta239" d="M21.8,23.2c0,0.7,0.1,1.9,0.3,3c0,0,0.1,0.1,0.1,0.1C22.5,24.2,21.9,23.3,21.8,23.2z"/>
<path class="sta238" d="M22.3,25.4c0,0-0.8-1.5,0.6-3.7c0,0,0.7,1.3-0.3,4.1C22.5,25.8,22.4,25.6,22.3,25.4z"/>
<path class="sta239" d="M23,21.8c-0.1,0.9-0.4,2.5-0.5,3.9c0,0.1,0.1,0.1,0.1,0.1C23.6,23.2,23,21.9,23,21.8z"/>
<path class="sta238" d="M22.5,25.7c0-1,0.5-1.9,1.4-2.4c0,0,0.2,1.1-1.3,2.8C22.6,26,22.5,25.9,22.5,25.7z"/>
<path class="sta239" d="M23.9,23.3C23.6,23.9,23,25,22.6,26c0,0.1,0,0.1,0.1,0.1C24,24.5,23.9,23.4,23.9,23.3z"/>
<polygon class="sta240" points="25.9,29.7 25.9,32.5 23.6,31.2 "/>
<polygon class="sta234" points="25.8,30.3 25.9,32.5 28,33.7 29.9,32.7 "/>
<polygon class="sta241" points="25.8,30.3 28,33.7 25.9,32.5 "/>
<path class="sta242" d="M34.9,23.6c0,0.1,0,0.1,0,0.2l0,0c0,0.1,0,0.1-0.1,0.1l0,0c0,0.1-0.1,0.1-0.1,0.1l-0.1,0.1l-0.1,0.1
	c-0.1,0.1-0.2,0.1-0.3,0.1h-0.1h-0.2h-0.2l0,0h-0.3l0,0h-0.3l0,0H33l0,0l-0.2-0.1l0,0l-0.2-0.1c-0.3-0.1-0.4-0.4-0.5-0.6v4.8
	c0,0.3,0.2,0.5,0.5,0.6l0.2,0.1l0,0l0,0h0.1H33h0.1h0.2h0.7H34h0h0.2h0.1l0,0c0.1,0,0.2-0.1,0.3-0.1l0,0c0,0,0,0,0.1,0l0.1-0.1l0,0
	l0.1-0.1l0,0l0,0l0,0c0,0,0-0.1,0-0.1l0,0l0,0c0,0,0,0,0,0s0-0.1,0-0.1L34.9,23.6L34.9,23.6z"/>
<path class="sta243" d="M34.4,22.9c0.3,0.1,0.5,0.5,0.4,0.9c-0.1,0.2-0.2,0.3-0.4,0.4c-0.7,0.4-1.5,0.4-2.2,0
	c-0.3-0.1-0.5-0.5-0.4-0.9c0.1-0.2,0.2-0.3,0.4-0.4C32.9,22.6,33.7,22.6,34.4,22.9z"/>
<path class="sta242" d="M34,20.5L34,20.5c0,0-0.1,0.1-0.1,0.1c-0.1,0-0.1,0.1-0.2,0.1l0,0c-0.1,0-0.2,0-0.2,0l0,0c-0.1,0-0.2,0-0.2,0
	l0,0c-0.1,0-0.2,0-0.2-0.1c-0.1,0-0.2-0.1-0.2-0.3v3.1c0,0.1,0.1,0.2,0.2,0.3l0.1,0h0.1h0.6l0.1-0.1l0,0l0.1-0.1l0,0l0,0l0,0l0,0
	l0,0l0,0L34,20.5L34,20.5C34,20.5,34,20.5,34,20.5z"/>
<path class="sta243" d="M33.8,20.1c0.1,0.1,0.2,0.2,0.2,0.4c0,0.1-0.1,0.1-0.2,0.2c-0.3,0.2-0.6,0.2-0.9,0c-0.3-0.1-0.3-0.4,0-0.5
	C33.2,20,33.5,20,33.8,20.1z"/>
<path class="sta244" d="M37,25.8c0,0,0,0.1,0,0.1l0,0c0,0,0,0.1,0,0.1l0,0l-0.1,0.1l-0.1,0h-0.1c-0.1,0-0.1,0.1-0.2,0.1h-0.1h-0.1
	h-0.1l0,0H36l0,0h-0.2l0,0h-0.2l0,0l-0.2,0l0,0l-0.2-0.1C35.1,26,35,25.9,35,25.7v3.5c0,0.2,0.1,0.4,0.3,0.5l0.2,0.1l0,0h0.1l0,0
	h0.1h0.1h0.6h0.1h0.1c0.1,0,0.2-0.1,0.2-0.1l0,0l0,0l0.1-0.1l0,0l0.1-0.1l0,0l0,0l0,0v-0.1l0,0l0,0v-0.1l0,0L37,25.8L37,25.8z"/>
<path class="sta245" d="M36.7,25.3c0.4,0.3,0.4,0.7,0,0.9c-0.5,0.3-1.1,0.3-1.6,0c-0.3-0.1-0.4-0.4-0.3-0.6c0-0.1,0.2-0.2,0.3-0.3
	C35.6,25.1,36.2,25.1,36.7,25.3z"/>
<path class="sta244" d="M36.3,23.6L36.3,23.6C36.3,23.6,36.3,23.6,36.3,23.6c-0.1,0.1-0.2,0.1-0.3,0.1l0,0c-0.1,0-0.1,0-0.2,0l0,0
	h-0.2l0,0c-0.1,0-0.1,0-0.2-0.1c-0.1,0-0.1-0.1-0.1-0.2v2.3c0,0.1,0.1,0.2,0.1,0.2h0.1h0.1h0.5h0.1l0,0h0.1l0,0l0,0
	c0,0-1851.8-0.1,0-0.1v-2.4l0,0C36.3,23.5,36.3,23.5,36.3,23.6z"/>
<path class="sta243" d="M36.2,23.3c0.1,0,0.2,0.2,0.1,0.3c0,0.1-0.1,0.1-0.1,0.1c-0.2,0.1-0.5,0.1-0.7,0c-0.2-0.1-0.2-0.3,0-0.4
	C35.8,23.2,36,23.1,36.2,23.3z"/>
<g>
	<polygon class="sta246" points="34.9,28 34.9,29.7 29.9,32.7 29.9,30.9 	"/>
	<polygon class="sta247" points="29.9,30.9 29.9,32.7 25.8,30.3 25.9,28.6 	"/>
	<polygon class="sta248" points="34.9,28 29.9,30.9 25.9,28.6 30.9,25.7 	"/>
</g>
<polygon class="sta249" points="26,29.1 29.9,31.3 29.9,32.4 26.1,30.2 "/>
<polygon class="sta248" points="29.9,31.3 34.9,28.4 34.9,29.4 29.9,32.4 "/>
<g>
	<polygon class="sta250" points="34.3,26.4 34.3,28.2 29.2,31.1 29.2,29.4 	"/>
	<polygon class="sta251" points="29.2,29.4 29.2,31.1 25.2,28.8 25.2,27.1 	"/>
	<polygon class="sta252" points="34.3,26.4 29.2,29.4 25.2,27.1 30.2,24.1 	"/>
</g>
<polygon class="sta252" points="25.4,27.5 29.2,29.7 29.2,30.9 25.4,28.6 "/>
<polygon class="sta253" points="29.2,29.7 34.3,26.8 34.3,27.9 29.2,30.9 "/>
<polygon class="sta233" points="39.3,27.2 33.6,30.5 33.8,30.9 39.8,27.5 "/>
<polygon class="sta230" points="37.1,29 37.1,30.5 34.9,31 35,30.2 "/>
<path class="sta254" d="M22.5,37.7c0.8,0.4,1.4,1,2,1.6c0.4,0.7,0.8,1.3,0.6,1.4C24.6,41,24.2,40.4,24,40s-1.1-0.6-1.6-0.6
	s-2.2-0.9-2-1.9l0.6-0.5L22.5,37.7z"/>
<path class="sta215" d="M22.5,37c-1.5-0.2-3,0.8-3.2,2.4c0,0,0,0,0,0c1.4,0.3,2.9-0.6,3.2-2C22.5,37.3,22.5,37.1,22.5,37z"/>
<path class="sta254" d="M19.5,38c0.4,0.9,0.8,1.8,1.1,2.8c0.1,0.6,1.3,1.6,2,1.8s2.7,0.6,2.4-0.5s-1-1.6-1.1-2.3c-0.1-0.8-0.5-1.4-1-2
	l-1.7-1.2L19.5,38z"/>
<path class="sta255" d="M20.6,40.8c0.1,0.6,1.3,1.6,2,1.8s2.3,0.5,2.4-0.2c-0.3-0.1-0.9-0.2-1.6-0.4c-1.8-0.5-3-3.4-3.4-4.4L19.5,38
	C19.9,38.9,20.3,39.8,20.6,40.8z"/>
<path class="sta218" d="M12.1,15.3c0,0,2.1-0.3,3.5,6.4s1.4,7.2,1.4,7.2l5.5,8.2c-1.5-0.1-2.9,0.9-3.2,2.4c0,0-4.6-4.7-5.1-6.4
	S5.8,16.1,12.1,15.3z"/>
<path class="sta229" d="M22.5,37l-5.5-8.2c0,0,0-0.4-1.4-7.2s-3.5-6.4-3.5-6.4c-0.2,0-0.4,0.1-0.6,0.1c0.6,2.6,2.3,3,4.6,14.1
	c0.7,3.3,4.1,6.1,5.1,7.7C21.6,37,22.1,37,22.5,37z"/>
<path class="sta219" d="M19.3,39.4c0.1-0.4,0.3-0.8,0.5-1.2l-4.3-5c-0.5-0.6-2.9-5-4.3-7.7c1.2,3.5,2.8,6.7,3.1,7.4
	C14.8,34.7,19.3,39.4,19.3,39.4z"/>
<polygon class="sta230" points="60.6,73.4 60.6,85.3 48.2,92.5 48.3,80.6 "/>
<polygon class="sta231" points="48.3,80.6 48.2,92.5 35.7,85.3 35.8,73.4 "/>
<polygon class="sta232" points="48.3,80.6 48.3,80.6 35.7,85.3 35.8,73.4 "/>
<polygon class="sta233" points="60.6,73.4 48.3,80.6 35.8,73.4 48.2,66.2 "/>
<polygon class="sta231" points="59.5,73.4 48.2,80 36.9,73.4 48.2,66.9 "/>
<g>
	<polygon class="sta22" points="50.8,67.2 51.8,66.6 51.8,76.9 50.8,77.5 	"/>
	<polygon class="sta23" points="47,65.1 48.1,64.5 51.8,66.6 50.8,67.2 	"/>
	<polygon class="sta24" points="50.8,67.2 50.8,77.5 47,75.3 47,65.1 	"/>
	<polygon class="sta25" points="50.8,73 50.8,77.5 47,75.3 47,65.1 	"/>
</g>
<g>
	<polygon class="sta22" points="48.4,69.7 49.4,69.1 49.4,79.3 48.3,79.9 	"/>
	<polygon class="sta23" points="44.6,67.5 45.6,66.9 49.4,69.1 48.4,69.7 	"/>
	<polygon class="sta24" points="48.4,69.7 48.3,79.9 44.6,77.8 44.6,67.5 	"/>
	<polygon class="sta25" points="47,74.9 48.3,79.9 44.6,77.8 44.6,67.5 	"/>
</g>
<polygon class="sta234" points="36.9,73.4 43.2,69.7 50,73.3 43.8,77.4 "/>
<polygon class="sta240" points="46.1,75.9 46.1,78.8 43.8,77.4 "/>
<polygon class="sta234" points="46.1,76.6 46.1,78.8 48.2,80 50.1,78.9 "/>
<polygon class="sta241" points="46.1,76.6 48.2,80 46.1,78.8 "/>
<path class="sta242" d="M55.3,70c0,0.1,0,0.1,0,0.2l0,0l-0.1,0.1l0,0l-0.1,0.1L55,70.5l-0.1,0.1c-0.1,0.1-0.2,0.1-0.3,0.1h-0.1h-0.2
	c-0.1,0-0.1,0-0.2,0h-0.6c-0.1,0-0.2,0-0.3,0l0,0H53l0,0c-0.1,0-0.2-0.1-0.2-0.1c-0.3-0.1-0.4-0.4-0.5-0.6v4.8
	c0,0.3,0.2,0.5,0.5,0.6l0.2,0.1h0h0.1h0.1h0.1h0.2h0.7h0.1h0.1h0.2h0.1l0,0c0.1,0,0.2-0.1,0.3-0.1l0,0c0,0,0,0,0.1,0l0.1-0.1l0,0
	c0,0,0.1-0.1,0.1-0.1l0,0l0,0l0,0v-0.1l0,0l0,0c0,0,0,0,0-0.1c0,0,0-0.1,0-0.1l0,0v-5H55.3z"/>
<path class="sta243" d="M54.8,69.3c0.6,0.3,0.6,0.9,0,1.3c-0.7,0.3-1.5,0.3-2.2,0c-0.6-0.3-0.6-0.9,0-1.3C53.4,69,54.2,69,54.8,69.3z"
	/>
<path class="sta242" d="M54.4,66.9L54.4,66.9c0,0-0.1,0.1-0.1,0.1c-0.1,0-0.1,0.1-0.2,0.1l0,0h-0.2l0,0c-0.1,0-0.2,0-0.2,0l0,0
	c-0.1,0-0.1,0-0.2-0.1c-0.1,0-0.2-0.2-0.2-0.3v3.1c0,0.1,0.1,0.2,0.2,0.3h0.1h0.1H54h0.1l0.1-0.1l0,0c0,0,0.1,0,0.1-0.1l0,0l0,0l0,0
	l0,0l0,0v-3.2l0,0C54.3,66.8,54.4,66.9,54.4,66.9z"/>
<path class="sta243" d="M54.2,66.5c0.1,0,0.2,0.2,0.2,0.3c0,0.1-0.1,0.2-0.2,0.2c-0.3,0.1-0.6,0.1-0.9,0c-0.3-0.2-0.3-0.4,0-0.5
	C53.6,66.4,53.9,66.4,54.2,66.5z"/>
<path class="sta244" d="M57.5,72.2c0,0,0,0.1,0,0.1l0,0l-0.1,0.1l0,0l-0.1,0.1l-0.1,0.1h-0.1l-0.2,0.1h-0.1h-0.1h-0.1h-0.5h-0.2l0,0
	h-0.2l0,0l-0.2-0.1c-0.2-0.1-0.3-0.3-0.3-0.5v3.6c0,0.2,0.1,0.4,0.3,0.5l0.2,0.1l0,0h0.1H56h0.1h0.7h0.1h0.1l0,0l0.2-0.1l0,0h0.1
	l0.1-0.1l0,0l0.1-0.1l0,0l0,0l0,0v-0.1l0,0l0,0c0,0,0,0,0-0.1l0,0L57.5,72.2L57.5,72.2z"/>
<path class="sta245" d="M57.1,71.7c0.5,0.3,0.5,0.7,0,0.9c-0.5,0.3-1.1,0.3-1.6,0c-0.4-0.3-0.5-0.7,0-0.9C56,71.5,56.6,71.5,57.1,71.7
	z"/>
<path class="sta244" d="M56.8,70L56.8,70L56.8,70l-0.3,0.1l0,0h-0.2l0,0h-0.2l0,0c-0.1,0-0.1,0-0.2-0.1c-0.1,0-0.1-0.1-0.1-0.2v2.3
	c0,0.1,0,0.1,0.2,0.2h0.1h0.1h0.4h0.1l0,0h0.1l0,0l0,0l0,0l0,0l0,0v-2.4l0,0C56.8,69.9,56.8,70,56.8,70z"/>
<path class="sta243" d="M56.7,69.7c0.1,0,0.2,0.2,0.1,0.3c0,0.1-0.1,0.1-0.1,0.1c-0.2,0.1-0.5,0.1-0.7-0.1c-0.2-0.1-0.2-0.3,0-0.4
	C56.2,69.5,56.5,69.5,56.7,69.7z"/>
<g>
	<polygon class="sta246" points="48.3,71.8 48.3,73.6 43.2,76.5 43.2,74.8 	"/>
	<polygon class="sta247" points="43.2,74.8 43.2,76.5 39.2,74.2 39.2,72.4 	"/>
	<polygon class="sta248" points="48.3,71.8 43.2,74.8 39.2,72.4 44.3,69.5 	"/>
</g>
<polygon class="sta249" points="39.4,72.9 43.2,75.1 43.2,76.3 39.4,74 "/>
<polygon class="sta248" points="43.2,75.1 48.3,72.2 48.3,73.3 43.2,76.3 "/>
<g>
	<polygon class="sta250" points="47.6,70.3 47.6,72 42.5,75 42.6,73.2 	"/>
	<polygon class="sta251" points="42.6,73.2 42.5,75 38.5,72.7 38.5,70.9 	"/>
	<polygon class="sta252" points="47.6,70.3 42.6,73.2 38.5,70.9 43.6,68 	"/>
</g>
<polygon class="sta252" points="38.7,71.4 42.5,73.6 42.6,74.7 38.8,72.5 "/>
<polygon class="sta253" points="42.5,73.6 47.6,70.7 47.6,71.7 42.6,74.7 "/>
<polygon class="sta233" points="59.5,73.4 53.8,76.7 54.1,77.2 60,73.7 "/>
<polygon class="sta230" points="57.9,74.9 57.9,76.4 55.7,76.9 55.8,76.2 "/>
</svg>
