<svg id="Layer_1" data-name="Layer 1" xmlns="http://www.w3.org/2000/svg" viewBox="0 0 79.39 88.46"><defs><style>.cls-1{fill:#231202;}.cls-2{fill:#f1bb00;}.cls-3{fill:#191919;}.cls-4{fill:#2180f2;}.cls-5{fill:#2d8bea;}.cls-6{fill:#1772cc;}.cls-7{fill:#d87600;}.cls-8{fill:#efb185;}.cls-9{fill:#e6a376;}.cls-10{fill:#8d5b8b;}.cls-11{fill:#aa6fad;}.cls-12{fill:#301806;}.cls-13{fill:#e8a476;}.cls-14{fill:#db9669;}.cls-15{fill:#f1b287;}.cls-16{fill:#a3805a;}.cls-17{fill:#ddb786;}.cls-18{fill:#826243;}.cls-19{fill:#bf9b71;}.cls-20{fill:#fddbaa;}.cls-21{fill:#ddb787;}.cls-22{fill:#b18349;}.cls-23{fill:#e7c18e;}</style></defs><title>cc-illustrations</title><path class="cls-1" d="M21.18,8.26s-4.34,4.08-1.95,8.46a4.21,4.21,0,0,0,2.36-3.94,9,9,0,0,1,.46-4.19Z"/><path class="cls-2" d="M23.37,7.51a1.34,1.34,0,0,1-2.53.88,1.34,1.34,0,1,1,2.53-.88Z"/><path class="cls-3" d="M1.15,42.34c-1.09.41-1.69,2.21-.48,5.15S4,55,5.47,53.72,5.72,40.62,1.15,42.34Z"/><path class="cls-4" d="M10.69,60.41,1.94,49.18S1.08,44.71,5,44l7.06,7-1,9.59Z"/><path class="cls-4" d="M10.69,60.41,1.94,49.18S1.08,44.71,5,44l7.06,7-1,9.59Z"/><path class="cls-3" d="M30.47,62s-1.95,3.38.21,4.3,8.88,4.69,9.19,2.77-2.1-3-3.2-4.11a5.73,5.73,0,0,1-1.35-1.78Z"/><path class="cls-5" d="M39.9,47.75c-.62-3.43-13.15-12.91-13.15-12.91l-8.23,6.5,14.25,8.52L30.05,61c.33,4.74,5.21,2.46,5.21,2.46a71.53,71.53,0,0,0,4.21-11.67A10.64,10.64,0,0,0,39.9,47.75Z"/><path class="cls-4" d="M32.77,49.86,30.05,61c.19,2.68,1.83,3.11,3.22,3a42.68,42.68,0,0,0,4.19-10.72s.7-3.12.47-3.8c-1-3-11.75-11.36-13.56-12.76l-5.85,4.63Z"/><path class="cls-6" d="M5,44a4.08,4.08,0,0,0-1.7.7c2.22,2.77,6.67,8.13,8.35,10.14L12.1,51Z"/><path class="cls-4" d="M15.91,33.07s-5.42,2-5.85,9.41c0,0-.63,14.69,1,18.11,0,0,4.47,5,9.46-17.06,0,0,4.86-4.94,5.43-8.06C26,35.47,22.33,36.78,15.91,33.07Z"/><path class="cls-6" d="M20.52,43.53s.49-.4,1.21-1c0,0-4.17.19-4.84,2.78S14,59.07,12.11,61.08C13.71,61.22,17,59.19,20.52,43.53Z"/><path class="cls-7" d="M31.78,38.09A2.76,2.76,0,0,1,34.54,37,2.16,2.16,0,0,1,31.78,38.09Z"/><path class="cls-8" d="M34,36.15A18.23,18.23,0,0,1,35.33,39c.06.56.38,2.93-1,4.31-.73.75-.9-.47-.83-2a2.22,2.22,0,0,0-.61-2.09,8.25,8.25,0,0,1-1.35-2.43C31.38,36.16,34,36.15,34,36.15Z"/><path class="cls-9" d="M31.59,36.89a9.61,9.61,0,0,1,.86,2.56c0,1,1.1,1.13,1.08,1.83-.05,1.2.07,2.23.44,2.25,0-.91,1.11-1.44.3-3.68a15.26,15.26,0,0,0-2.09-3.34C31.69,36.65,31.51,36.65,31.59,36.89Z"/><path class="cls-8" d="M32.29,36.51s-.1,2.94,0,3.84.55,1.48.68,1.3,0-2.84.91-2.63C34.38,39.12,32.37,36.93,32.29,36.51Z"/><path class="cls-10" d="M28.83,12.12s3-.23,3.33,5.72,0,8.2.54,10.31S34.54,37,34.54,37a3.28,3.28,0,0,0-2.76,1.09s-3.56-8.64-4-12.27S25.57,13.26,28.83,12.12Z"/><path class="cls-11" d="M32.7,28.15c-.55-2.11-.3-4.35-.54-10.31C32,13,30.61,12.29,29.64,12c-3,1.4-.72,10.66-.32,14.22.31,2.72,2.25,8.46,3.22,11.2a3.5,3.5,0,0,1,2-.41S33.25,30.25,32.7,28.15Z"/><path class="cls-11" d="M15.29,16.05S18.62,11.57,29.4,12c0,0,1.78-.45.79,5a6.2,6.2,0,0,0,.91,3c.45.8,1.49,3.75-2.21,6.52,0,0-2.36,5-1.36,8.34.9,3-8,4.79-12.12,2.45a4,4,0,0,1-.91-4.76c1-2.43,3.12-4.74,2.65-9.58S14.14,18.31,15.29,16.05Z"/><path class="cls-10" d="M15.29,16.05c-1.15,2.26,1.38,2.07,1.86,6.92s-2.32,8.1-3.34,10.53c-.73,1.73.41,2.27,1,3.12a71.53,71.53,0,0,0,5.32-12.1c2.59-7.61-1.33-10.87-1.33-10.87A9.18,9.18,0,0,0,15.29,16.05Z"/><path class="cls-12" d="M30.18,3.58A57.39,57.39,0,0,0,26,13.78c-.2.7-1.35-.06,0-.13,0,0,6.67-4,5.72-9.5A5.39,5.39,0,0,0,24,.56Z"/><path class="cls-13" d="M29.82,10.64s-2.25,1.73-1.89,4.17c.09.68.12,3.35-3.53,1.48,0,0-3.6-2.89-2.13-3.85,1-.64,2-1.65,1.71-6.06Z"/><path class="cls-14" d="M22.27,12.44a.62.62,0,0,0-.29.36,7.41,7.41,0,0,0,6.64-.54L24.73,7h0s-.28.11-.71.31C24.12,10.94,23.17,11.85,22.27,12.44Z"/><path class="cls-15" d="M30.74,3.12s1,.58.35,3.68c-.07.34.38.91.35,1.79S30.85,13,28.78,12.9a6.28,6.28,0,0,1-5.34-5.44C23,3.74,26.89-.1,30.74,3.12Z"/><path class="cls-1" d="M30.28,4.32S24.87,3,23.83,10h0C21.39,8.76,21,6,21.17,4c.08-1,1.52-5.16,6.34-3.59C27.51.45,30.4,2.31,30.28,4.32Z"/><path class="cls-12" d="M30.28,4.32s1.3.31,1.28,2.72c0,0,2-7.82-6.21-7C25.35.08,29.85,1.26,30.28,4.32Z"/><path class="cls-15" d="M25.08,8.43S24.9,6.6,23.8,6.92c-.35.1-.76.38-.47,1.36s1.09,2,1.89,2.06Z"/><path class="cls-15" d="M19.64,34.26s2.21.74,2.74.46,1.09.36.43.64a3.57,3.57,0,0,1-1.47.19,5.54,5.54,0,0,0,2.47.63c.77-.18,0,2-1.38,2s-2.81.31-4.54-2.61A2.63,2.63,0,0,1,19.64,34.26Z"/><path class="cls-11" d="M18,15s2.24,1,.61,4.35-4.34,9-4.34,9l-.19,1,6.08,4.89s-2.15.62-1.77,2.57c0,0-9.58-4-9.36-8C9,28.79,14.58,13,18,15Z"/><path class="cls-10" d="M9,28.79c-.22,4,9.36,8,9.36,8a2,2,0,0,1,.33-1.58c-2.42-1.66-6.51-4.54-7.68-5.92C9.48,27.44,16.79,16.73,18,15,14.55,13,9,28.79,9,28.79Z"/><polygon class="cls-16" points="28.87 52.21 28.92 69.44 44.23 78.33 44.18 61.1 28.87 52.21"/><polygon class="cls-17" points="28.87 52.21 28.92 69.44 44.23 78.33 44.18 61.1 28.87 52.21"/><polygon class="cls-18" points="35.06 55.84 35.07 59.19 38.05 60.92 38.03 57.57 35.06 55.84"/><polygon class="cls-19" points="44.18 61.1 44.23 78.33 59.63 69.44 59.59 52.21 44.18 61.1"/><polygon class="cls-20" points="28.87 52.21 44.18 61.1 59.59 52.21 44.28 43.31 28.87 52.21"/><polygon class="cls-21" points="59.63 69.44 44.18 61.1 59.59 52.21 59.63 69.44"/><polygon class="cls-22" points="44.18 61.1 49.55 65.88 64.47 56.88 59.59 52.21 44.18 61.1"/><polygon class="cls-22" points="59.59 52.21 63.67 49.84 48.38 40.75 44.28 43.31 59.59 52.21"/><polygon class="cls-19" points="44.28 43.31 39.79 38.55 24.6 47.24 28.87 52.21 44.28 43.31"/><polygon class="cls-23" points="44.18 61.1 40.09 65.27 24.6 56.55 28.87 52.21 44.18 61.1"/><polygon class="cls-16" points="79.39 67.07 79.35 81.18 66.82 88.46 66.86 74.35 79.39 67.07"/><polygon class="cls-17" points="79.39 67.07 79.35 81.18 66.82 88.46 66.86 74.35 79.39 67.07"/><polygon class="cls-18" points="74.33 70.04 74.32 72.79 71.88 74.21 71.89 71.46 74.33 70.04"/><polygon class="cls-19" points="66.86 74.35 66.82 88.46 54.2 81.18 54.24 67.07 66.86 74.35"/><polygon class="cls-20" points="79.39 67.07 66.86 74.35 54.24 67.07 66.78 59.78 79.39 67.07"/><polygon class="cls-21" points="54.2 81.18 66.86 74.35 54.24 67.07 54.2 81.18"/></svg>