<svg id="Layer_1" data-name="Layer 1" xmlns="http://www.w3.org/2000/svg" viewBox="0 0 71.54 97"><defs><style>.cls-1{fill:#e2e7e8;}.cls-2{fill:#bf9e73;}.cls-3{isolation:isolate;}.cls-4{fill:#686048;}.cls-5{fill:#746c50;}.cls-6{fill:#484332;}.cls-7{fill:#3a3528;}.cls-8{fill:#ff9b2d;}.cls-9{fill:#7c9920;}.cls-10{fill:#ea821b;}.cls-11{fill:#f4dd26;}.cls-12{fill:#5b462e;}.cls-13{fill:#e5c613;}.cls-14{fill:#b79266;}.cls-15{fill:#ddb786;}.cls-16{fill:#a3805a;}.cls-17{fill:#9bb5bc;}.cls-18{fill:#efb185;}.cls-19{fill:#e5a67c;}.cls-20{fill:#cadfe8;}.cls-21{fill:#b4cbd3;}.cls-22{fill:#111114;}.cls-23{fill:#0a0a0a;}.cls-24{fill:#1772cc;}.cls-25{fill:#2180f2;}.cls-26{fill:#dd9569;}.cls-27{fill:#f2b78f;}.cls-28{fill:#e6a376;}.cls-29{fill:#341c09;}.cls-30{fill:#221101;}.cls-31{fill:#dfeef4;}.cls-32{fill:#e8b679;}.cls-33{fill:#dca764;}.cls-34{fill:#cc9558;}.cls-35{fill:#fce1be;}.cls-36{fill:#89b7c9;}.cls-37{opacity:0.1;}.cls-38{fill:#dfe5f3;}.cls-39{fill:#9fb0bc;}.cls-40{fill:#388852;}.cls-41{fill:#2c7741;}.cls-42{fill:#598a96;}.cls-43{fill:#70a3b2;}.cls-44{fill:#256272;}.cls-45{fill:#3ea2bd;}.cls-46{fill:#2cc2e5;}.cls-47{fill:#52d9fe;}.cls-48{fill:#133b7b;}.cls-49{fill:#0d2955;}.cls-50{fill:#154189;}.cls-51{fill:#184c9f;}.cls-52{fill:#94c4d3;}.cls-53{fill:#6194a3;}.cls-54{fill:#bad1de;}.cls-55{fill:#c6dbe5;}.cls-56{fill:#f9c5a2;}.cls-57{fill:#eab48f;}</style></defs><title>cc-illustrations</title><path class="cls-1" d="M61,61.62c14,8.1,14.09,21.22.17,29.31s-36.57,8.09-50.59,0-14.09-21.21-.17-29.3S47,53.53,61,61.62Z"/><polygon class="cls-2" points="42.03 53.88 38.39 49.54 32.36 48.26 49.55 38.34 52.26 41.27 59.22 43.95 42.03 53.88"/><g class="cls-3"><polygon class="cls-4" points="46.71 42.49 48.01 41.74 47.98 54.64 46.68 55.39 46.71 42.49"/><polygon class="cls-5" points="41.97 39.75 43.27 38.99 48.01 41.74 46.71 42.49 41.97 39.75"/><polygon class="cls-6" points="46.71 42.49 46.68 55.39 41.93 52.65 41.97 39.75 46.71 42.49"/><polygon class="cls-7" points="44.99 49.01 46.68 55.39 41.93 52.65 41.97 39.75 44.99 49.01"/></g><path class="cls-8" d="M41.09,51.93s6.58,2.31,9.78-3.87c0,0,.21-1.38-1.62-.62S45.51,51.63,41.09,51.93Z"/><path class="cls-9" d="M52.9,42.79s-5,4.19-2.51,4.7C51.59,47.74,49.55,46.47,52.9,42.79Z"/><path class="cls-9" d="M52.9,44.33S50.9,49,50,47.24C49.52,46.4,50.91,47.64,52.9,44.33Z"/><path class="cls-9" d="M54.16,46s-3.77,3.41-3.89,1.41C50.21,46.45,51,48.16,54.16,46Z"/><path class="cls-10" d="M41.57,55.94s6.74-1.79,5.92-8.7c0,0-.62-1.26-1.7.4S45.05,53.2,41.57,55.94Z"/><path class="cls-9" d="M46.2,41.74s-1.81,6.3.57,5.3C47.89,46.57,45.49,46.66,46.2,41.74Z"/><path class="cls-9" d="M47.07,43s1,5-.8,4.06C45.43,46.63,47.28,46.87,47.07,43Z"/><path class="cls-9" d="M49,43.68s-1.2,4.94-2.42,3.35C46,46.28,47.62,47.26,49,43.68Z"/><path class="cls-11" d="M35.29,43.63c.25,2.73,4.72,7.58,9.45,5.6.37-.15,1-.69-.08-1.58s-4.26,1.05-7.34-4.57C37.32,43.08,35,40.53,35.29,43.63Z"/><path class="cls-12" d="M45,47.94s-.69.2-.53.53a4.26,4.26,0,0,0,.45.68,1.62,1.62,0,0,1,.63-.42c.29-.06,1.78-.25,1.78-.25L47,48.05l-1.68.13Z"/><path class="cls-13" d="M34,48.4c1.25,2.45,7.2,5.28,10.85,1.69.29-.28.71-1-.66-1.44s-3.57,2.56-8.52-1.51C35.63,47.14,32.55,45.64,34,48.4Z"/><path class="cls-12" d="M44.55,48.81s-.57.43-.28.68a3.56,3.56,0,0,0,.66.46,1.56,1.56,0,0,1,.43-.62c.24-.16,1.56-.89,1.56-.89l-.43-.3L45,48.89Z"/><path class="cls-11" d="M35,52.4c2,1.94,8.49,2.77,10.84-1.78.18-.35.35-1.2-1.09-1.16S42.18,53,36.21,50.69C36.21,50.69,32.8,50.21,35,52.4Z"/><path class="cls-12" d="M45.2,49.48s-.41.59-.06.74a3.56,3.56,0,0,0,.78.23,1.5,1.5,0,0,1,.21-.72c.18-.23,1.2-1.33,1.2-1.33l-.5-.15-1.2,1.18Z"/><polygon class="cls-14" points="42.09 76.06 32.42 70.44 32.36 48.26 38.39 49.54 42.03 53.88 42.09 76.06"/><polygon class="cls-15" points="42.09 76.06 38.39 69.6 32.42 70.44 42.09 76.06"/><polygon class="cls-16" points="37.99 69.6 38.39 49.54 42.03 53.88 42.09 76.06 37.99 69.6"/><polygon class="cls-15" points="59.22 43.95 59.29 66.14 42.09 76.06 42.03 53.88 59.22 43.95"/><path class="cls-17" d="M35,32.75a2.83,2.83,0,0,0-3.24,2.41A2.67,2.67,0,0,0,35,32.75Z"/><path class="cls-18" d="M31.89,33.7A18.88,18.88,0,0,1,33,36.48c.07.58,1.31,1.62,2,1.85s2.71.6,2.35-.45a22,22,0,0,1-.88-2.15,4.72,4.72,0,0,0-1.28-2.14l-1.74-1.18Z"/><path class="cls-19" d="M35.22,33.59a7.69,7.69,0,0,1,1.69,1.9c.27.73.52,1.42.32,1.5-.49.21-.78-.47-1-1s-1-.74-1.44-.87S32.73,34,33.16,33l.7-.4Z"/><path class="cls-20" d="M24.52,11s2.05-.34,3.5,6.39,1.45,7.16,1.45,7.16L35,32.75a3,3,0,0,0-3.24,2.41s-4.54-4.72-5.06-6.43S18.22,11.86,24.52,11Z"/><path class="cls-21" d="M31.71,35.16a3.27,3.27,0,0,1,.87-1.63c-3.44-3.12-6-9.08-6-9.08l-1.14,1.41c.62,1.42,1.11,2.49,1.22,2.87C27.17,30.44,31.71,35.16,31.71,35.16Z"/><path class="cls-22" d="M20.23,70s-.82,1.91,0,2.41.93,1,2.25.93,1.12.33,1.57.82,5.11,2.52,6,1.53-1.59-2.14-2.46-2.71-3-2.87-3-3.53S20.23,70,20.23,70Z"/><path class="cls-23" d="M20.23,72.37c.82.49.93,1,2.25.93s1.12.33,1.57.82,5.11,2.52,6,1.53a.73.73,0,0,0-.07-1l-1.37.25c-1.37.24-3.13-1.34-3.81-1.93s-1.54-.36-2.72-.56-1-2-1-2l-.87-.3C20,70.51,19.53,72,20.23,72.37Z"/><path class="cls-22" d="M11.93,76.18s-.35,2.27.52,3.49,2.78,3.35,3.61,3.26,1-.47,1-.47a8.22,8.22,0,0,0-.26-3.68,12.47,12.47,0,0,1-.66-2.6Z"/><path class="cls-23" d="M12.45,79.67c.76,1.08,2.33,2.85,3.27,3.2-1.23-1.58.61-1.26-.78-2-1.9-1-.68-1.89-1.53-2.13s-.23-2.34-.23-2.34l-.46-.21h-.79S11.58,78.45,12.45,79.67Z"/><path class="cls-24" d="M22,39.32s3.91-.43,5.22-3.33a96.25,96.25,0,0,1-.44,13.8C26,57.2,25.34,70.24,25.34,70.24a3.75,3.75,0,0,1-5.15,0s-.73-8.61,0-13.38c0,0-.49-8.34.33-12.52S22,39.32,22,39.32Z"/><path class="cls-25" d="M25.34,70.24s.65-13,1.44-20.45a106.42,106.42,0,0,0,.44-14.53,7.86,7.86,0,0,1-4.51,3.93c.1,2.82.36,11.16.32,13.93s-.55,13.56-.77,18.15A4.15,4.15,0,0,0,25.34,70.24Z"/><path class="cls-24" d="M12.81,38.87s-.38,4.33-.46,11.07a59.34,59.34,0,0,1-.74,10.3,148.69,148.69,0,0,0-.41,15.59s2.13,3.29,5.48,0c0,0,.57-11.55,1.14-14.18s3.77-15.4,5.06-20c.58-2,.71-2.79.71-2.79S18,42.93,12.81,38.87Z"/><path class="cls-25" d="M16.68,75.83s.57-11.55,1.14-14.18,3.77-15.4,5.06-20a10.88,10.88,0,0,1,1.9-3.58s-3.71,2.6-6.91,2.59c-.14,1-1.5,10.42-1.82,14.54s-3.11,18.47-2.36,22.08A4.2,4.2,0,0,0,16.68,75.83Z"/><path class="cls-20" d="M16.49,12s-5.76,3.47-5.88,3.95-1.59,1.68,1,6.78c0,0,3.37,5.49,2.28,11.29a36.85,36.85,0,0,1-1.27,5.15s2.93,3.74,10.19.47A10.65,10.65,0,0,0,27.3,35a38.94,38.94,0,0,1-.51-10.58c.53-5.76.53-13.19-2.77-13.94C24,10.51,23.13,9.57,16.49,12Z"/><path class="cls-18" d="M15.51,7.9s2,2.65.7,4.62c-.73,1.1,1.35,3.45,4.59,3,0,0,1.43-.46,1.24-1a3.22,3.22,0,0,1,.47-2.84C23,10.78,15.51,7.9,15.51,7.9Z"/><path class="cls-26" d="M16.21,12.52a1,1,0,0,0-.14.44,6.17,6.17,0,0,1,3.47-1.58l-3.33-3.2-.33-.13-.07.31C16.32,9.2,17.2,11.05,16.21,12.52Z"/><path class="cls-27" d="M22,14.57c-.44-1.88,0-1.89.47-2.84.12-.26-.35-.67-1.1-1.12a2.42,2.42,0,0,0-.49.63,5.86,5.86,0,0,0-.79,4.35,2.53,2.53,0,0,0,.67-.05C21.19,15.46,22.18,15.15,22,14.57Z"/><path class="cls-18" d="M14.72,6.39s1,3.62,3.7,5.1c2.34,1.32,5,2.11,5.31-.6.23-2.15.89-7.63-1.07-8.59C20.15,1.08,19.14-.59,16.41.64,16.41.64,13.32,2.34,14.72,6.39Z"/><path class="cls-28" d="M14.72,6.39a8.24,8.24,0,0,0,3.69,5.15,10.05,10.05,0,0,0,2.2,1,9.94,9.94,0,0,1-2.37-2c-1-1,1.31-.75-.43-3.36-.59-.89,2.08.12,2.66.07,3.44-.33,3-2.29,3.05-3.12a4.71,4.71,0,0,0-.36-1l-.37-.61a1.83,1.83,0,0,0-.13-.16,12.7,12.7,0,0,0-1.2-1.15c-1.47.14-5.66.53-5.74.56s-.71,1-1.32,2A5.71,5.71,0,0,0,14.72,6.39Z"/><path class="cls-29" d="M16.48,9.84a6.66,6.66,0,0,1-2.26-6.11A4.3,4.3,0,0,1,17.78.12,4.92,4.92,0,0,1,23.53,3c.44,1,.34,3.6-3.61,2.87-.57-.11-1.8-.82-2.29-.31a2,2,0,0,0-.17,2.12c.26.65-.32.76-.4.62s-1-2-1.62-1.17S16.41,9.72,16.48,9.84Z"/><path class="cls-30" d="M16.48,9.84c-.07-.12-1.63-2.06-1-2.76s1.53,1,1.62,1.17.66,0,.4-.62a2,2,0,0,1,.17-2.12c.44-.47,1.5.08,2.11.26a4.94,4.94,0,0,1-2.06-2,3.82,3.82,0,0,0-2.46-2.19,4.39,4.39,0,0,0-1,2.19A6.66,6.66,0,0,0,16.48,9.84Z"/><path class="cls-31" d="M27.3,35a38.94,38.94,0,0,1-.51-10.58c.44-4.81.51-10.75-1.39-13A7.9,7.9,0,0,0,23,15.59c-.31,2.49-3,4.07-4.33,4.5s-1.9,2.7-.86,6.14c.84,2.79.42,10.44-.28,14.72a13.51,13.51,0,0,0,5.25-1.33A10.65,10.65,0,0,0,27.3,35Z"/><polygon class="cls-32" points="40.39 27.12 40.35 39.06 27.97 46.26 28 34.32 40.39 27.12"/><polygon class="cls-33" points="28 34.32 27.97 46.26 15.5 39.06 15.54 27.12 28 34.32"/><polygon class="cls-34" points="28 34.32 28 34.32 15.5 39.06 15.54 27.12 28 34.32"/><polygon class="cls-35" points="40.39 27.12 28 34.32 15.54 27.12 27.92 19.92 40.39 27.12"/><polygon class="cls-33" points="39.3 27.18 28 33.74 16.62 27.18 27.92 20.61 39.3 27.18"/><g class="cls-3"><polygon class="cls-4" points="31.24 18.95 32.27 18.35 32.24 28.59 31.21 29.19 31.24 18.95"/><polygon class="cls-5" points="27.48 16.78 28.51 16.18 32.27 18.35 31.24 18.95 27.48 16.78"/><polygon class="cls-6" points="31.24 18.95 31.21 29.19 27.45 27.02 27.48 16.78 31.24 18.95"/><polygon class="cls-7" points="31.21 24.68 31.21 29.19 27.45 27.02 27.48 16.78 31.21 24.68"/></g><g class="cls-3"><polygon class="cls-4" points="28.66 20.62 29.7 20.02 29.67 30.25 28.64 30.86 28.66 20.62"/><polygon class="cls-5" points="24.9 18.44 25.93 17.84 29.7 20.02 28.66 20.62 24.9 18.44"/><polygon class="cls-6" points="28.66 20.62 28.64 30.86 24.87 28.68 24.9 18.44 28.66 20.62"/><polygon class="cls-7" points="27.3 25.79 28.64 30.86 24.87 28.68 24.9 18.44 27.3 25.79"/></g><polygon class="cls-36" points="16.62 27.18 22.99 23.48 29.72 27.08 23.57 31.19 16.62 27.18"/><g class="cls-37"><path d="M23.15,27.46c.72.42.72,1.08,0,1.49a2.84,2.84,0,0,1-2.57,0,.78.78,0,0,1,0-1.48A2.81,2.81,0,0,1,23.15,27.46Z"/></g><path class="cls-38" d="M22.84,27.32c.54.31.55.82,0,1.13a2.16,2.16,0,0,1-2,0,.6.6,0,0,1,0-1.13A2.16,2.16,0,0,1,22.84,27.32Z"/><polygon class="cls-38" points="20.06 25.7 20.49 27.96 23.25 27.96 23.69 25.65 20.06 25.7"/><path class="cls-39" d="M23.15,24.91c.72.41.72,1.07,0,1.48a2.84,2.84,0,0,1-2.57,0,.78.78,0,0,1,0-1.48A2.81,2.81,0,0,1,23.15,24.91Z"/><path class="cls-40" d="M22.76,25.11a.57.57,0,0,1,0,1.08,2.08,2.08,0,0,1-1.88,0,.57.57,0,0,1,0-1.08A2.08,2.08,0,0,1,22.76,25.11Z"/><path class="cls-40" d="M20.52,25.79s-1.34-1.7,0-4.74c0,0,1.16,1.46.5,5.2A1.06,1.06,0,0,1,20.52,25.79Z"/><path class="cls-41" d="M20.51,21.07c0,1.17.09,3.21.25,5a.85.85,0,0,0,.23.16C21.6,22.76,20.64,21.26,20.51,21.07Z"/><path class="cls-40" d="M21.18,25.58s-1.08-1.87.68-4.69c0,0,.93,1.62-.29,5.21A1,1,0,0,1,21.18,25.58Z"/><path class="cls-41" d="M21.76,20.89c-.14,1.16-.38,3.18-.49,5a1.09,1.09,0,0,0,.2.19C22.6,22.72,21.87,21.09,21.76,20.89Z"/><path class="cls-40" d="M21.24,26.32s-1.6-.57-2-3.15c0,0,1.38.48,2.51,3.26A.88.88,0,0,1,21.24,26.32Z"/><path class="cls-41" d="M19.26,23.17c.51.78,1.4,2.11,2.28,3.25a.49.49,0,0,0,.21,0C20.7,23.84,19.42,23.24,19.26,23.17Z"/><path class="cls-40" d="M22,26.07a2.85,2.85,0,0,1-.16-2.86s.74.85.46,3.12A.64.64,0,0,1,22,26.07Z"/><path class="cls-41" d="M21.81,23.22c.05.71.15,1.94.3,3a.51.51,0,0,0,.15.08C22.52,24.21,21.9,23.33,21.81,23.22Z"/><path class="cls-40" d="M22.34,25.44s-.82-1.49.6-3.69c0,0,.71,1.28-.3,4.11A.86.86,0,0,1,22.34,25.44Z"/><path class="cls-41" d="M23,21.77c-.14.91-.35,2.51-.46,3.94a.85.85,0,0,0,.15.15C23.58,23.22,23,21.93,23,21.77Z"/><path class="cls-40" d="M22.55,25.72a2.77,2.77,0,0,1,1.36-2.44s.17,1.08-1.25,2.81A.57.57,0,0,1,22.55,25.72Z"/><path class="cls-41" d="M23.91,23.3C23.59,23.91,23,25,22.59,26a.49.49,0,0,0,.07.14C24,24.48,23.93,23.43,23.91,23.3Z"/><polygon class="cls-42" points="25.85 29.67 25.85 32.5 23.57 31.19 25.85 29.67"/><polygon class="cls-36" points="25.84 30.34 25.85 32.5 28 33.74 29.86 32.66 25.84 30.34"/><polygon class="cls-43" points="25.84 30.34 28 33.74 25.85 32.5 25.84 30.34"/><path class="cls-44" d="M34.88,23.57a.45.45,0,0,1,0,.16h0a1,1,0,0,1-.07.15l0,0a.49.49,0,0,1-.12.13l-.1.08-.1.07a1.6,1.6,0,0,1-.3.13l-.12,0-.15,0-.19,0h0l-.26,0h0l-.26,0h0l-.24,0h0l-.21-.07h0l-.23-.11a.76.76,0,0,1-.45-.63l0,4.81a.76.76,0,0,0,.45.63l.23.11h0l0,0,.13,0,.08,0h.08l.16,0h.68l.14,0h.05l.16,0,.08,0h0a2.08,2.08,0,0,0,.3-.13l0,0a.18.18,0,0,0,.07,0l.11-.08h0l.09-.1,0,0a0,0,0,0,0,0,0l0,0a.36.36,0,0,0,0-.09h0v0s0,0,0-.05,0-.06,0-.09V23.58Z"/><path class="cls-45" d="M34.43,22.93a.67.67,0,0,1,0,1.26,2.37,2.37,0,0,1-2.17,0,.67.67,0,0,1,0-1.26A2.44,2.44,0,0,1,34.43,22.93Z"/><path class="cls-44" d="M34,20.55h0a.58.58,0,0,1-.14.12.68.68,0,0,1-.2.07h0a.91.91,0,0,1-.23,0h0a.85.85,0,0,1-.23,0h0a.85.85,0,0,1-.22-.09.33.33,0,0,1-.19-.26v3.06a.33.33,0,0,0,.2.27l.09.05.08,0h.61l.14-.06h0l.08-.06,0,0v0h0l0,0s0,0,0,0,0,0,0,0v-3.1h0A.24.24,0,0,1,34,20.55Z"/><path class="cls-45" d="M33.8,20.14a.29.29,0,0,1,0,.54,1,1,0,0,1-.93,0c-.25-.14-.25-.38,0-.53A1,1,0,0,1,33.8,20.14Z"/><path class="cls-46" d="M37,25.79a.25.25,0,0,1,0,.12h0A.54.54,0,0,1,37,26l0,0-.09.1-.07.05-.07,0a.94.94,0,0,1-.23.1l-.08,0-.12,0-.13,0h0l-.19,0h0l-.18,0h0l-.19,0h0l-.16-.05h0l-.18-.09a.55.55,0,0,1-.33-.46v3.55a.57.57,0,0,0,.33.47l.17.08h0l.11,0,0,0h.07l.11,0h.64l.12,0h.08a1.12,1.12,0,0,0,.22-.1h0l0,0,.08-.06h0l.07-.08v0l0,0s0,0,0,0l0-.06h0s0,0,0,0v-.07h0V25.8Z"/><path class="cls-47" d="M36.69,25.32c.44.26.44.67,0,.92a1.76,1.76,0,0,1-1.61,0,.49.49,0,0,1,0-.92A1.74,1.74,0,0,1,36.69,25.32Z"/><path class="cls-46" d="M36.34,23.56h0a.22.22,0,0,1-.1.09.52.52,0,0,1-.15.06h0a.47.47,0,0,1-.17,0h0l-.18,0h0a.44.44,0,0,1-.16-.06.23.23,0,0,1-.14-.2v2.27a.23.23,0,0,0,.14.19l.07,0,.06,0h.45l.1,0h0l.06,0,0,0h0a899092960351.68,899092960351.68,0,0,0,0-.06V23.46h0A.23.23,0,0,1,36.34,23.56Z"/><path class="cls-45" d="M36.23,23.25a.21.21,0,0,1,0,.4.74.74,0,0,1-.68,0c-.19-.11-.19-.29,0-.39A.77.77,0,0,1,36.23,23.25Z"/><g class="cls-3"><polygon class="cls-48" points="34.93 27.98 34.92 29.71 29.86 32.66 29.86 30.92 34.93 27.98"/><polygon class="cls-49" points="29.86 30.92 29.86 32.66 25.84 30.34 25.85 28.6 29.86 30.92"/><polygon class="cls-50" points="34.93 27.98 29.86 30.92 25.85 28.6 30.91 25.66 34.93 27.98"/></g><polygon class="cls-51" points="26.04 29.09 29.86 31.27 29.86 32.4 26.06 30.18 26.04 29.09"/><polygon class="cls-50" points="29.86 31.27 34.93 28.38 34.93 29.42 29.86 32.4 29.86 31.27"/><g class="cls-3"><polygon class="cls-52" points="34.26 26.43 34.25 28.18 29.19 31.12 29.19 29.38 34.26 26.43"/><polygon class="cls-53" points="29.19 29.38 29.19 31.12 25.18 28.8 25.18 27.06 29.19 29.38"/><polygon class="cls-54" points="34.26 26.43 29.19 29.38 25.18 27.06 30.24 24.12 34.26 26.43"/></g><polygon class="cls-54" points="25.37 27.55 29.19 29.73 29.19 30.86 25.39 28.64 25.37 27.55"/><polygon class="cls-55" points="29.19 29.73 34.26 26.83 34.26 27.88 29.19 30.86 29.19 29.73"/><polygon class="cls-35" points="39.3 27.18 33.59 30.49 33.85 30.92 39.78 27.47 39.3 27.18"/><polygon class="cls-32" points="37.14 29.01 37.14 30.5 34.88 30.96 35.01 30.23 37.14 29.01"/><path class="cls-56" d="M22.52,37.72a7.46,7.46,0,0,1,2,1.61c.39.67.75,1.31.56,1.43-.45.28-.85-.35-1.12-.8s-1.09-.57-1.56-.63-2.24-.86-2-1.92l.64-.5Z"/><path class="cls-17" d="M22.53,37a2.83,2.83,0,0,0-3.23,2.41A2.66,2.66,0,0,0,22.53,37Z"/><path class="cls-56" d="M19.48,38a18.88,18.88,0,0,1,1.12,2.78c.07.58,1.3,1.62,2,1.85s2.7.6,2.35-.45-1-1.63-1.14-2.31a3.85,3.85,0,0,0-1-2l-1.74-1.18Z"/><path class="cls-57" d="M20.6,40.75c.07.58,1.3,1.62,2,1.85s2.33.52,2.38-.19c-.34-.07-.85-.2-1.63-.42-1.84-.53-3-3.4-3.38-4.44l-.51.42A18.88,18.88,0,0,1,20.6,40.75Z"/><path class="cls-20" d="M12.11,15.28s2.05-.34,3.49,6.39,1.45,7.16,1.45,7.16L22.53,37a3,3,0,0,0-3.23,2.41S14.75,34.7,14.24,33,5.81,16.13,12.11,15.28Z"/><path class="cls-31" d="M22.53,37l-5.48-8.19s0-.43-1.45-7.16-3.49-6.39-3.49-6.39a3,3,0,0,0-.57.13c.55,2.63,2.33,3,4.57,14.08.66,3.28,4.07,6.12,5.07,7.69A3.17,3.17,0,0,1,22.53,37Z"/><path class="cls-21" d="M19.3,39.43a3.77,3.77,0,0,1,.51-1.21l-4.3-4.95c-.52-.59-2.89-5-4.32-7.72,1.24,3.5,2.83,6.72,3.05,7.45C14.75,34.7,19.3,39.43,19.3,39.43Z"/><polygon class="cls-32" points="60.63 73.37 60.6 85.3 48.21 92.5 48.25 80.56 60.63 73.37"/><polygon class="cls-33" points="48.25 80.56 48.21 92.5 35.74 85.3 35.78 73.37 48.25 80.56"/><polygon class="cls-34" points="48.25 80.56 48.25 80.56 35.74 85.3 35.78 73.37 48.25 80.56"/><polygon class="cls-35" points="60.63 73.37 48.25 80.56 35.78 73.37 48.16 66.17 60.63 73.37"/><polygon class="cls-33" points="59.54 73.43 48.24 79.99 36.87 73.42 48.16 66.86 59.54 73.43"/><g class="cls-3"><polygon class="cls-4" points="50.79 67.23 51.82 66.63 51.79 76.88 50.76 77.48 50.79 67.23"/><polygon class="cls-5" points="47.03 65.06 48.06 64.46 51.82 66.63 50.79 67.23 47.03 65.06"/><polygon class="cls-6" points="50.79 67.23 50.76 77.48 47 75.31 47.03 65.06 50.79 67.23"/><polygon class="cls-7" points="50.76 72.96 50.76 77.48 47 75.31 47.03 65.06 50.76 72.96"/></g><g class="cls-3"><polygon class="cls-4" points="48.38 69.69 49.41 69.09 49.38 79.33 48.35 79.93 48.38 69.69"/><polygon class="cls-5" points="44.61 67.52 45.64 66.92 49.41 69.09 48.38 69.69 44.61 67.52"/><polygon class="cls-6" points="48.38 69.69 48.35 79.93 44.58 77.75 44.61 67.52 48.38 69.69"/><polygon class="cls-7" points="47.01 74.86 48.35 79.93 44.58 77.75 44.61 67.52 47.01 74.86"/></g><polygon class="cls-36" points="36.87 73.42 43.23 69.73 49.96 73.33 43.82 77.44 36.87 73.42"/><polygon class="cls-42" points="46.09 75.91 46.09 78.75 43.82 77.44 46.09 75.91"/><polygon class="cls-36" points="46.09 76.59 46.09 78.75 48.24 79.99 50.1 78.91 46.09 76.59"/><polygon class="cls-43" points="46.09 76.59 48.24 79.99 46.09 78.75 46.09 76.59"/><path class="cls-44" d="M55.31,70a.41.41,0,0,1,0,.16v0l-.08.14,0,0-.12.13-.1.07-.1.08a2.08,2.08,0,0,1-.3.13l-.12,0-.15,0a1.08,1.08,0,0,1-.19,0h-.63a1.09,1.09,0,0,1-.25,0h0L53,70.71l0,0a1.28,1.28,0,0,1-.24-.11.76.76,0,0,1-.45-.63v4.82a.79.79,0,0,0,.45.63l.22.1H53l.14,0,.08,0h.08l.15,0h.69l.13,0,.06,0,.15,0h.08l0,0a2.71,2.71,0,0,0,.3-.13h0a.18.18,0,0,1,.07,0l.11-.09h0a.47.47,0,0,0,.1-.1v0l0,0,0,0,0-.09h0v0a.43.43,0,0,0,0-.05.28.28,0,0,0,0-.09h0V70Z"/><path class="cls-45" d="M54.85,69.33c.6.35.61.91,0,1.26a2.4,2.4,0,0,1-2.17,0c-.6-.34-.6-.9,0-1.25A2.35,2.35,0,0,1,54.85,69.33Z"/><path class="cls-44" d="M54.38,66.94h0a.42.42,0,0,1-.14.12.93.93,0,0,1-.2.08h0l-.22,0h0a1,1,0,0,1-.24,0h0a1,1,0,0,1-.21-.08.33.33,0,0,1-.19-.27v3.07a.33.33,0,0,0,.19.27l.1,0,.08,0H54l.06,0,.14-.06h0a.24.24,0,0,0,.09-.06l0,0h0v0s0,0,0,0a0,0,0,0,0,0,0V66.81h0A.23.23,0,0,1,54.38,66.94Z"/><path class="cls-45" d="M54.23,66.53a.28.28,0,0,1,0,.54,1,1,0,0,1-.92,0c-.26-.15-.26-.39,0-.53A1,1,0,0,1,54.23,66.53Z"/><path class="cls-46" d="M57.45,72.18a.5.5,0,0,1,0,.12h0l-.06.1v0l-.09.1-.07.06-.08,0-.22.1-.09,0-.11,0-.14,0h-.47l-.18,0h0l-.16,0h0l-.17-.08a.57.57,0,0,1-.33-.47v3.56a.57.57,0,0,0,.33.46l.16.08h0l.1,0h.12l.11,0h.65l.11,0,.06,0h0l.22-.1h0l.06,0,.08-.06h0l.07-.08h0v0s0,0,0,0l0-.07h0v0s0,0,0-.07h0V72.19Z"/><path class="cls-47" d="M57.11,71.71c.45.26.45.67,0,.93a1.8,1.8,0,0,1-1.6,0c-.44-.26-.45-.67,0-.93A1.8,1.8,0,0,1,57.11,71.71Z"/><path class="cls-46" d="M56.76,70h0l-.1.09-.15,0h0l-.17,0h0l-.17,0h0A.44.44,0,0,1,56,70a.23.23,0,0,1-.14-.19v2.26c0,.07,0,.14.15.2l.07,0,.06,0h.44l.11,0h0l.06,0,0,0h0s0,0,0,0a0,0,0,0,1,0,0,0,0,0,0,1,0,0V69.85h0A.21.21,0,0,1,56.76,70Z"/><path class="cls-45" d="M56.65,69.65a.21.21,0,0,1,0,.4A.8.8,0,0,1,56,70c-.19-.11-.19-.28,0-.39A.74.74,0,0,1,56.65,69.65Z"/><g class="cls-3"><polygon class="cls-48" points="48.29 71.83 48.29 73.57 43.22 76.51 43.23 74.77 48.29 71.83"/><polygon class="cls-49" points="43.23 74.77 43.22 76.51 39.21 74.2 39.21 72.45 43.23 74.77"/><polygon class="cls-50" points="48.29 71.83 43.23 74.77 39.21 72.45 44.28 69.51 48.29 71.83"/></g><polygon class="cls-51" points="39.41 72.94 43.22 75.13 43.23 76.25 39.42 74.04 39.41 72.94"/><polygon class="cls-50" points="43.22 75.13 48.29 72.23 48.29 73.28 43.23 76.25 43.22 75.13"/><g class="cls-3"><polygon class="cls-52" points="47.62 70.29 47.62 72.03 42.55 74.97 42.56 73.23 47.62 70.29"/><polygon class="cls-53" points="42.56 73.23 42.55 74.97 38.54 72.66 38.55 70.92 42.56 73.23"/><polygon class="cls-54" points="47.62 70.29 42.56 73.23 38.55 70.92 43.61 67.97 47.62 70.29"/></g><polygon class="cls-54" points="38.74 71.41 42.55 73.59 42.56 74.71 38.75 72.5 38.74 71.41"/><polygon class="cls-55" points="42.55 73.59 47.62 70.69 47.62 71.74 42.56 74.71 42.55 73.59"/><polygon class="cls-35" points="59.54 73.43 53.83 76.73 54.1 77.16 60.02 73.72 59.54 73.43"/><polygon class="cls-32" points="57.93 74.94 57.93 76.42 55.66 76.89 55.8 76.16 57.93 74.94"/></svg>