<svg id="Layer_1" data-name="Layer 1" xmlns="http://www.w3.org/2000/svg" viewBox="0 0 71.49 79.6"><defs><style>.cls-1{fill:#231d21;}.cls-2{fill:#31282e;}.cls-3{fill:#c3bbb7;}.cls-4{fill:#efb185;}.cls-5{fill:#e6a376;}.cls-6{fill:#bad1de;}.cls-7{fill:#cee2ea;}.cls-8{fill:#ddedf2;}.cls-9{isolation:isolate;}.cls-10{fill:#351909;}.cls-11{fill:#3b1c0a;}.cls-12{fill:#251206;}.cls-13{fill:#f1b287;}.cls-14{fill:#7f4103;}.cls-15{fill:#e8a476;}.cls-16{fill:#db9669;}.cls-17{fill:#954f01;}.cls-18{fill:#e5770a;}.cls-19{fill:#e5a67c;}.cls-20{fill:#ff8500;}.cls-21{fill:#111114;}.cls-22{fill:#0a0a0a;}.cls-23{fill:#dd9569;}.cls-24{fill:#f2b78f;}.cls-25{fill:#341c09;}.cls-26{fill:#221101;}.cls-27{fill:#ff9831;}.cls-28{fill:#303739;}.cls-29{fill:#6e8074;}.cls-30{fill:#414b4c;}.cls-31{fill:#5bc5f7;}.cls-32{fill:#fff;opacity:0.1;}.cls-33{fill:#2a352d;}.cls-34{fill:#485950;}.cls-35{fill:#3e4d45;}.cls-36{fill:#ea7500;}</style></defs><title>cc-illustrations</title><path d="M13.27,65.19a5.57,5.57,0,0,0,.88,2.47c.72.85,4,2.8,3.76,3.69s-2.54,1-4-.46S12,69.22,11.4,69.09a1.48,1.48,0,0,1-.89-2.26A6.38,6.38,0,0,0,13.27,65.19Z"/><path class="cls-1" d="M14.07,28.82S16.76,42,15.28,49.29c0,0-.67,5.76-1,7.34S14,66.83,14,66.83s-2.42,1-3.64-.1c0,0-1.57-8.86.15-14.52,0,0-2-10.79-2.07-14.3A55.31,55.31,0,0,0,8,31.36Z"/><path class="cls-2" d="M15.28,49.29s-.67,5.76-1,7.34S14,66.83,14,66.83a7.31,7.31,0,0,1-1,.29c-.18-2.57-.5-7-.64-8.05-.2-1.44,1.43-9.32,1.56-12.25s-3.11-13.91-3.11-13.91l.9-3.13,2.31-1S16.76,42,15.28,49.29Z"/><path d="M5.91,68.48A5.57,5.57,0,0,0,6.73,71c.7.87,3.91,2.9,3.66,3.78s-2.56.93-4-.56-1.83-1.72-2.45-1.86A1.49,1.49,0,0,1,3.11,70,6.34,6.34,0,0,0,5.91,68.48Z"/><path class="cls-2" d="M3.12,33.15s-2.6,3.71-1.34,11.3l.55,9.06S.61,56.42,1.85,65.22L3,70.52s1.47,1.07,3.09-1.11c0,0-.11-13,.5-15A85.45,85.45,0,0,0,9.91,40.86c.29-2.16,3.63-5.73,3.46-7.6Z"/><path class="cls-1" d="M3,70.52l-1.18-5.3c-1.24-8.8.48-11.71.48-11.71l-.55-9.06c-1.26-7.59,1.34-11.3,1.34-11.3h.3L6.26,35S3.44,49.34,3.65,53,2.82,60.89,3,63.16c.09,1.46.74,5.15,1.2,7.61A1.7,1.7,0,0,1,3,70.52Z"/><path class="cls-3" d="M18.63,34.22a2.43,2.43,0,0,1,2.26-1.3A1.89,1.89,0,0,1,18.63,34.22Z"/><path class="cls-4" d="M20.29,32.25a15.57,15.57,0,0,1,1.55,2.29c.12.47.72,2.49-.27,3.87-.54.75-.84-.29-1-1.65a1.94,1.94,0,0,0-.8-1.73,7,7,0,0,1-1.5-1.93C18,32.6,20.29,32.25,20.29,32.25Z"/><path class="cls-5" d="M18.31,33.2a8.35,8.35,0,0,1,1.09,2.11c.14.9,1.11.84,1.18,1.45.12,1.06.36,1.93.68,1.91-.15-.8.78-1.41-.23-3.24a13.44,13.44,0,0,0-2.26-2.64C18.36,33,18.21,33,18.31,33.2Z"/><path class="cls-4" d="M18.87,32.78s.31,2.57.51,3.34.67,1.21.76,1-.39-2.47.45-2.41C21,34.78,19,33.14,18.87,32.78Z"/><path class="cls-6" d="M12.64,12s2.58-.6,3.65,4.53,1.07,7.13,1.82,8.89,2.78,7.46,2.78,7.46a2.88,2.88,0,0,0-2.26,1.3s-4.23-7-5.07-10.14S10,13.46,12.64,12Z"/><path class="cls-7" d="M18.11,25.46c-.75-1.76-.75-3.76-1.82-8.89-.59-2.79-1.61-3.88-2.43-4.3-2.44,1.61.25,8.91,1.06,12,.63,2.32,3.08,7.06,4.28,9.32a3,3,0,0,1,1.69-.62S18.88,27.22,18.11,25.46Z"/><path class="cls-7" d="M1.38,17.25s2.3-4.33,11.72-5.41c0,0,1.5-.62,1.36,4.22a5.39,5.39,0,0,0,1.19,2.53c.5.63,1.8,3.05-1.06,6,0,0-1.1,4.32.22,7.11,1.17,2.49-5,4.93-10.23,4.42a2.16,2.16,0,0,1-1.86-2.93C3.28,30.9,5,27.16,3.91,23S.68,19.36,1.38,17.25Z"/><path class="cls-6" d="M1.38,17.1c-.7,2.11,1.48,1.62,2.53,5.76s-.63,8-1.19,10.29S3.53,35.93,4.18,36A17.15,17.15,0,0,0,7,36.12c-1.84-4,.78-11.5.89-15.53a6.5,6.5,0,0,0-3.74-5.94A8.47,8.47,0,0,0,1.38,17.1Z"/><path class="cls-8" d="M14.81,31.66c-1.32-2.79-.22-7.11-.22-7.11,2.86-2.91,1.56-5.33,1.06-6a5.39,5.39,0,0,1-1.19-2.53,9,9,0,0,0-.4-3.55c-.55.64-1.64.41-1.27,2.64.21,1.32-.23,3.28-2.28,3.29s-.89,3.29-.77,4.21C10.57,29,7.18,32,8.28,36,12.29,35.46,15.71,33.58,14.81,31.66Z"/><g class="cls-9"><polygon class="cls-10" points="13.17 26.67 13.77 26.32 13.73 39.77 13.13 40.12 13.17 26.67"/><polygon class="cls-11" points="2.37 20.44 2.97 20.09 13.77 26.32 13.17 26.67 2.37 20.44"/><polygon class="cls-12" points="13.17 26.67 13.13 40.12 2.33 33.88 2.37 20.44 13.17 26.67"/></g><path class="cls-13" d="M10.44,31.14s2.05-.09,2.4-.49,1,0,.55.4a3.06,3.06,0,0,1-1.15.61s2.41.21,2.65-.48.18,1.88-.91,2.33-2.21,1.14-4.55-.72A2.27,2.27,0,0,1,10.44,31.14Z"/><path class="cls-7" d="M3.06,15.86s2.16.13,1.87,3.39S4.19,28,4.19,28l.14.85,6.53,2.11a2.06,2.06,0,0,0-.65,2.66S1.08,33.3,0,30C0,30-.41,15.23,3.06,15.86Z"/><rect class="cls-14" x="5.71" y="8.96" width="3.46" height="4.73" transform="translate(-0.88 0.63) rotate(-4.6)"/><path class="cls-14" d="M12.84,4.78a54,54,0,0,0-3.35,9.69c-.14.67.38.16,1.66,0,0,0,5.4-3.47,3.39-9.38A5.33,5.33,0,0,0,7,2.32Z"/><path class="cls-15" d="M12.89,11.35s-2,1.73-1.53,4c.13.63.3,3.11-3.19,1.57,0,0-3.49-2.49-2.18-3.46.87-.64,1.77-1.63,1.25-5.71Z"/><path class="cls-16" d="M6,13.43a.64.64,0,0,0-.25.36,6.9,6.9,0,0,0,6.13-.87L8,8.25H8s-.26.11-.64.32C7.62,11.94,6.79,12.83,6,13.43Z"/><path class="cls-13" d="M13.33,4.33s.93.48.53,3.39c0,.32.4.83.41,1.64s-.29,4.09-2.22,4.15A5.85,5.85,0,0,1,6.8,8.76C6.17,5.33,9.59,1.56,13.33,4.33Z"/><path class="cls-17" d="M13,5.46s-5.56-1-6.24,7.5c-.08,1.11,1.69,8,1.69,8A8.65,8.65,0,0,1,5.11,15c0-.85.75-2.06.32-2.68A8,8,0,0,1,4.1,5.74S5.85.56,10.19,2C10.19,2,13,3.59,13,5.46Z"/><path class="cls-14" d="M13,5.46s1.49,0,1.8,2.73c0,0,.9-7.61-6.62-6.39C8.16,1.8,12.41,2.65,13,5.46Z"/><path class="cls-13" d="M8.37,9.56S8.1,7.88,7.11,8.23c-.32.11-.69.4-.37,1.29s1.12,1.78,1.87,1.8Z"/><path class="cls-18" d="M43.61,30.31a2.75,2.75,0,0,1,2.75,2.79A2.59,2.59,0,0,1,43.61,30.31Z"/><path class="cls-4" d="M46.41,31.67a18.5,18.5,0,0,0-1.48,2.51,3.62,3.62,0,0,1-2.22,1.48c-.72.11-2.69.18-2.19-.77A20.6,20.6,0,0,0,41.68,33a4.58,4.58,0,0,1,1.55-1.87l1.84-.88Z"/><path class="cls-19" d="M43.23,31.08a7.61,7.61,0,0,0-1.91,1.58c-.37.66-.71,1.28-.53,1.4.45.26.83-.35,1.09-.79s1-.56,1.51-.62,2.17-.85,1.91-1.88l-.62-.48Z"/><path class="cls-20" d="M56.81,10.94s-1.92-.63-4.29,5.63-2.44,6.67-2.44,6.67l-6.47,7.07a2.86,2.86,0,0,1,2.75,2.79s5.07-3.87,5.81-5.44S62.74,12.68,56.81,10.94Z"/><path class="cls-18" d="M46.36,33.1a3,3,0,0,0-.59-1.69c3.77-2.5,10.56-14.23,10.56-14.23l.73,2.61c-.8,1.28-4.72,7.52-4.89,7.87C51.43,29.23,46.36,33.1,46.36,33.1Z"/><path class="cls-21" d="M59.62,66.58s.57,2-.28,2.33-1,.9-2.28.64-1.12.19-1.61.61-5.23,1.84-6,.78,1.79-1.88,2.69-2.33,3.2-2.43,3.33-3.06S59.62,66.58,59.62,66.58Z"/><path class="cls-22" d="M59.34,68.91c-.85.38-1,.9-2.28.64s-1.12.19-1.61.61-5.23,1.84-6,.78c-.25-.36-.12-.69.2-1l1.29.39c1.29.39,3.18-.93,3.9-1.42s1.53-.16,2.69-.21,1.21-1.81,1.21-1.81l.87-.19C59.76,67.14,60.06,68.59,59.34,68.91Z"/><path class="cls-21" d="M61.27,79A8,8,0,0,1,62,75.5a11.5,11.5,0,0,0,.93-2.43l4,.49A5.56,5.56,0,0,1,66,76.87c-1,1.08-3.08,2.91-3.86,2.72"/><path class="cls-22" d="M63.45,77.73c2-.78.89-1.75,1.73-1.89s.5-2.23.5-2.23l.46-.15.77.1A5.56,5.56,0,0,1,66,76.87a10.69,10.69,0,0,1-3.53,2.7"/><path class="cls-1" d="M61.65,37.29s-3.9-1.36-4.83-4.3a91.88,91.88,0,0,0-1.18,13.37c-.1,7.24-1,19.9-1,19.9a3.63,3.63,0,0,0,5,.6S61.33,58.64,61.18,54c0,0,1.44-8,1.14-12.13S61.65,37.29,61.65,37.29Z"/><path class="cls-2" d="M54.66,66.26s.88-12.66,1-19.9A102.22,102.22,0,0,1,56.9,32.28a8.25,8.25,0,0,0,4,4.49c-.42,2.72-1.79,10.56-2.07,13.24s-1,13.15-1.36,17.6A4,4,0,0,1,54.66,66.26Z"/><path class="cls-1" d="M70.41,37s-.15,4.67-.86,11.18a60.63,60.63,0,0,0-.49,10,140.28,140.28,0,0,1-1.41,15.1s-2.43,2.93-5.29-.63c0,0,.8-11.22.55-13.83S61.06,43.54,60.34,39c-.31-2-.35-2.78-.35-2.78S65,40.31,70.41,37Z"/><path class="cls-2" d="M62.36,72.67s.8-11.22.55-13.83S61.06,43.54,60.34,39a10.22,10.22,0,0,0-1.65-3.86s3.51,3.12,6.61,3.48c0,1,.24,10.24.06,14.25s.86,18.2-.28,21.59A4.07,4.07,0,0,1,62.36,72.67Z"/><path class="cls-20" d="M63.71,11.31c1.6.63,6,2.65,6.15,3.09s1.73,1.44-.15,6.67c0,0-2.58,5.71-.83,11.17,1,3.17,1.6,3.21,1.56,4.49-.08,2.48-6,3.42-9.49,2-1.44-.58-3.69-1.62-4.52-3.19a55.21,55.21,0,0,0-1.15-11c-1.21-5.49-2.11-12.66,1-13.78C56.27,10.8,58.66,9.34,63.71,11.31Z"/><path class="cls-4" d="M64.27,7s-1.43,2.9.19,4.54c.91.92-.64,3.55-3.81,3.75,0,0-1.45-.18-1.37-.7a3.14,3.14,0,0,0-1-2.62C57.7,11.14,64.27,7,64.27,7Z"/><path class="cls-23" d="M64.46,11.54a.88.88,0,0,1,.22.4,5.91,5.91,0,0,0-3.6-.87L63.65,7.4l.29-.19.13.28C63.74,8.4,63.25,10.32,64.46,11.54Z"/><path class="cls-24" d="M59.28,14.59c.07-1.88-.36-1.8-1-2.62-.17-.23.21-.7.84-1.28a2.22,2.22,0,0,1,.58.52,5.75,5.75,0,0,1,1.58,4,4.76,4.76,0,0,1-.66.08C60.27,15.28,59.26,15.17,59.28,14.59Z"/><path class="cls-4" d="M64.74,5.41S64.41,9.06,62.17,11c-2,1.69-4.4,2.94-5.18.41-.63-2-2.28-7.11-.59-8.39C58.57,1.36,59.22-.42,62.05.24,62.05.24,65.31,1.28,64.74,5.41Z"/><path class="cls-5" d="M64.74,5.41A8,8,0,0,1,62.18,11a10.12,10.12,0,0,1-1.91,1.35A9.73,9.73,0,0,0,62.14,10c.76-1.13-1.39-.46-.21-3.28.4-1-2,.51-2.53.56-3.34.33-3.33-1.61-3.49-2.41a5.32,5.32,0,0,1,.15-1l.24-.65A1,1,0,0,1,56.4,3a10.17,10.17,0,0,1,.93-1.32c1.43-.15,5.5-.56,5.58-.55a22.37,22.37,0,0,1,1.63,1.69A5.43,5.43,0,0,1,64.74,5.41Z"/><path class="cls-25" d="M63.71,9a6.5,6.5,0,0,0,1-6.25A4.18,4.18,0,0,0,60.65,0a4.83,4.83,0,0,0-4.88,3.89c-.24,1,.27,3.39,3.9,1.95.53-.21,1.56-1.12,2.12-.73a2,2,0,0,1,.57,2c-.13.66.44.66.5.52s.55-2,1.32-1.43S63.75,8.9,63.71,9Z"/><path class="cls-26" d="M63.71,9c0-.13,1.16-2.26.47-2.83s-1.26,1.28-1.32,1.43-.63.14-.5-.52a2,2,0,0,0-.57-2c-.5-.36-1.41.36-2,.65a4.7,4.7,0,0,0,1.59-2.33A3.74,3.74,0,0,1,63.35.87a4.28,4.28,0,0,1,1.37,1.91A6.5,6.5,0,0,1,63.71,9Z"/><path class="cls-27" d="M56.43,35.55a55.21,55.21,0,0,0-1.15-11c-1-4.58-1.79-10.31-.24-12.74a7.61,7.61,0,0,1,2.8,3.75c.59,2.36,3.37,3.56,4.72,3.81s2.7,2.52,1.57,5.82C61.45,33.05,63.2,36,66.3,39.3A10.78,10.78,0,0,1,61,38.83,8.32,8.32,0,0,1,56.43,35.55Z"/><path class="cls-28" d="M58.46,41.23c-.15.39-7.52,3.23-7.52,3.23a2.18,2.18,0,0,1-1.79-.25c-2.91-2.19-11.4-8.62-11.4-8.62a.71.71,0,0,1,0-1.21l7.68-3.09S59.94,37.58,58.46,41.23Z"/><path class="cls-29" d="M58.55,40.92,51,44.18a2.18,2.18,0,0,1-1.79-.26c-2.92-2.18-11.48-8.67-11.48-8.67-.42-.32-.38-.74.1-1L45.47,31Z"/><path class="cls-28" d="M61.6,31.28v-.16a.07.07,0,0,1,0-.05l0-.17v0a.78.78,0,0,0,0-.14.19.19,0,0,0,0-.07l-.06-.11,0,0a1.25,1.25,0,0,0-.09-.12l0,0a.43.43,0,0,0-.12-.11L49.6,21.6a.5.5,0,0,0-.14-.08l-.05,0-.06,0h-.19l.36,0h.19l.07,0h0l.13.08,11.57,8.68.12.1s0,0,0,0a1.47,1.47,0,0,1,.1.13s0,0,0,0l0,.06,0,.06,0,.06v0s0,.08,0,.12v0h0L62,31v0s0,0,0,0v0a.49.49,0,0,1,0,.12s0,0,0,0h0c0,.05,0,.11,0,.16h0c0,.08,0,.14-.05.21l-3.44,9.58-.32.13,3.39-9.66a1.66,1.66,0,0,0,.06-.21,1.21,1.21,0,0,0,0-.19Z"/><path class="cls-30" d="M49.6,21.6c-.38-.29-.83-.11-1,.39l-3.12,9L58.26,41l3.27-9.34a1.31,1.31,0,0,0-.37-1.43Z"/><polygon class="cls-31" points="61.02 31.91 48.77 22.82 46.07 30.57 58.09 40.08 61.02 31.91"/><polygon class="cls-32" points="48.59 21.99 57.93 40.79 45.47 31.01 48.59 21.99"/><polygon class="cls-33" points="48.54 36.24 47.94 36.5 47.46 36.14 48.06 35.88 48.54 36.24"/><g class="cls-9"><polygon class="cls-33" points="44.69 33.35 44.09 33.61 43.61 33.25 44.21 32.99 44.69 33.35"/><polygon class="cls-33" points="46.89 35 46.29 35.26 45.81 34.9 46.41 34.64 46.89 35"/><polygon class="cls-33" points="45.21 35.72 44.61 35.98 44.13 35.62 44.73 35.36 45.21 35.72"/><path class="cls-34" d="M44.81,32.25,56.47,41,52,42.92,40.34,34.17Zm4.46,8.22.61-.26-5.43-4.07-.61.25,5.43,4.08Zm-3.15-5.06-.6.26L46,36l.6-.25-.48-.37Zm-1.77-.61.6-.26-.48-.36-.6.26.48.36ZM51,39.74l.6-.25-.48-.37-.6.26.48.36Zm-1.53-1.85-.6.26.48.36.6-.26-.48-.36ZM52.6,41l.6-.26-.48-.36-.6.26.48.36Zm-5.43-4.07.48.36.6-.26-.48-.36-.6.26Zm0-.67-.6.26.48.36.6-.26-.48-.36Zm6.48,5.57.6-.26-.48-.36-.6.26.48.36Zm-9.9-7.42.6-.26-.48-.37-.6.26.48.37Zm5.07,3.08-.6.27.48.36.6-.26-.48-.37Zm-3.42-1.85.6-.26L45.57,35l-.6.26.48.36Zm5.07,3.09-.6.26.48.36.6-.26-.48-.36Zm1.53,1.86.6-.26L52.17,40l-.6.26.48.36ZM50.92,41.7l.61-.26L51,41.08l-.6.26.48.36Zm-7.41-6.54.61-.26-.49-.36-.6.26.48.36Zm5.07,3.09-.6.26.48.36.6-.26-.48-.36ZM47,35.05l-.6.26.48.36.6-.26L47,35.05Zm-1.77-.61.6-.26-.48-.36-.6.26.48.36Zm2.22,2.93L46.93,37l-.6.26.48.36.6-.26Zm.6-.82.48.36.6-.26-.48-.36-.6.26Zm-2.73-.78-.6.26.48.36.6-.25-.48-.37Zm-2.6-.25.6-.26-.48-.36-.61.26.49.36Zm7.58,2-.6.26.48.36.6-.26-.48-.36Zm1.5,3.81.6-.26-.48-.36-.6.26.48.36Zm-1.65-1.23.6-.26-.48-.36-.6.25.48.37Zm1.68-.73.6-.25-.48-.37-.6.26.48.36Zm1.65,1.24.6-.26L53.55,40l-.6.26.49.36Zm-5.38-4.74-.6.26.48.36.6-.26-.48-.36Zm3.15,5,.6-.26-.48-.36-.6.26.48.36Zm1.68-.72.6-.26L53,39.59l-.6.26.48.36ZM48,37.84l-.6.25.48.37.6-.26L48,37.84Zm-1.74-2.58.6-.26-.48-.36-.6.26.48.36Zm3.42,1.85-.6.26.48.37.6-.26-.48-.37ZM44.61,36l.6-.26-.48-.36-.6.26.48.36Zm1.77.62-.6.26.48.36.6-.26-.48-.36Zm-2.6-.26.6-.26-.48-.36-.6.26.48.36Zm5.9,2.73-.6.26.48.36.6-.26-.48-.36Zm1.68-.72-.6.26.48.36.6-.26-.48-.36ZM52,42.53l.61-.26-.49-.36-.6.26.48.36Zm-9.89-7.42.6-.26-.48-.36-.6.26.48.36Zm.83-.36.61-.26-.49-.36-.6.25.48.37Zm9.9,7.42.6-.26L53,41.55l-.6.26.48.36ZM44.64,34l.6-.26-.48-.36-.6.25.48.37Zm5.74,7.26L51,41l-.49-.36-.6.26.49.36Zm4.16.16.6-.26-.48-.36-.61.26.49.36ZM43.25,34l.6-.26-.48-.36-.6.26.48.36ZM50,38.3l-.6.26.48.36.6-.26L50,38.3Zm1.53,1.86.6-.26-.48-.36-.6.26.48.36Zm-6.6-4.95.6-.26L45,34.59l-.6.26.48.36Zm1.77.62-.6.26.48.36.6-.26-.48-.36Zm6.48,5.56.6-.26-.48-.36-.6.26.48.36Zm-5.43-4.07.48.36.6-.26-.48-.36-.6.26ZM54,41l.61-.26-.48-.36-.61.26L54,41Zm-11.57-6.7.6-.26-.48-.36-.6.26.48.36Zm9.9,7.42.6-.26-.48-.35-.6.25.48.36Zm-6.48-5.56-.6.26.48.36.6-.26-.48-.36Zm-.09-1.34.6-.26-.48-.36-.6.26.48.36Zm1.77.62-.6.26.48.36.6-.26-.48-.36Zm2.31,5.41.61-.26-.49-.36-.6.26.48.36Zm-8.24-6.19.6-.26-.48-.36-.6.26.48.36Zm9.08,5.83.6-.26-.48-.36-.6.26.48.36Zm-6.6-5,.6-.26L44.18,35l-.6.26.48.36Zm8.28,4.23.6-.26-.48-.36-.6.26.48.36Zm-.87,2.31.6-.25-.48-.36-.6.25.48.36Zm-.66-4.17-.6.26.48.36.6-.26-.48-.36Zm-7.58-2,.6-.26-.48-.36-.6.26.48.36Zm5.33,1,.48.36.6-.26-.48-.36-.6.26Zm-.6.82-.48-.36-.6.26.48.36.6-.26Zm-3.87-4.17.6-.26L44.21,33l-.6.26.48.36Zm5,5-.6.26.48.36.6-.26-.48-.36ZM49,35.71l-.42.18.48.36.42-.18L49,35.71Zm3.48,2.61L52,38.5l.48.36.42-.18-.48-.36Zm-6.78-5.08-.42.18.48.36.42-.18-.48-.36Zm2,1.51-.41.18.48.36.42-.18-.49-.36Zm-.73-.55-.42.18.49.36.41-.18-.48-.36Zm7.52,5.63L54,40l.48.36.42-.17-.48-.37Zm.73.55-.42.18.48.37.42-.18-.48-.37Zm-2-1,.41-.18-.48-.36-.41.18.48.36ZM45,33.23l.42-.18-.48-.36-.42.18.48.36Zm4.7,3-.42.18.48.36.42-.18-.48-.36Z"/><polygon class="cls-33" points="45.4 33.05 44.98 33.23 44.5 32.87 44.92 32.69 45.4 33.05"/><polygon class="cls-33" points="46.13 33.6 45.71 33.78 45.23 33.42 45.65 33.24 46.13 33.6"/><polygon class="cls-33" points="45.24 33.77 44.64 34.02 44.16 33.66 44.76 33.41 45.24 33.77"/><polygon class="cls-33" points="43.85 33.71 43.25 33.97 42.77 33.61 43.37 33.35 43.85 33.71"/><polygon class="cls-33" points="45.79 34.18 45.19 34.44 44.7 34.08 45.31 33.82 45.79 34.18"/><polygon class="cls-33" points="47.41 34.56 47 34.74 46.51 34.38 46.93 34.2 47.41 34.56"/><polygon class="cls-33" points="44.4 34.13 43.8 34.39 43.32 34.02 43.92 33.77 44.4 34.13"/><polygon class="cls-33" points="43.02 34.08 42.41 34.33 41.93 33.97 42.53 33.71 43.02 34.08"/><polygon class="cls-33" points="46.34 34.59 45.74 34.85 45.26 34.49 45.86 34.23 46.34 34.59"/><polygon class="cls-33" points="44.95 34.54 44.35 34.8 43.87 34.44 44.47 34.18 44.95 34.54"/><polygon class="cls-33" points="48.15 35.11 47.73 35.29 47.25 34.93 47.66 34.75 48.15 35.11"/><polygon class="cls-33" points="43.57 34.49 42.96 34.75 42.48 34.38 43.08 34.13 43.57 34.49"/><polygon class="cls-33" points="42.18 34.44 41.58 34.69 41.09 34.33 41.7 34.07 42.18 34.44"/><polygon class="cls-33" points="45.5 34.95 44.9 35.21 44.42 34.85 45.02 34.59 45.5 34.95"/><polygon class="cls-33" points="44.12 34.9 43.51 35.16 43.03 34.8 43.63 34.54 44.12 34.9"/><polygon class="cls-33" points="47.44 35.41 46.84 35.67 46.36 35.31 46.96 35.05 47.44 35.41"/><polygon class="cls-33" points="46.05 35.36 45.45 35.62 44.97 35.26 45.57 35 46.05 35.36"/><polygon class="cls-33" points="44.66 35.31 44.06 35.57 43.58 35.21 44.18 34.95 44.66 35.31"/><polygon class="cls-33" points="49.43 36.07 49.01 36.25 48.53 35.89 48.95 35.71 49.43 36.07"/><polygon class="cls-33" points="47.99 35.83 47.39 36.09 46.91 35.73 47.51 35.47 47.99 35.83"/><polygon class="cls-33" points="46.6 35.78 46 36.03 45.52 35.67 46.12 35.41 46.6 35.78"/><polygon class="cls-33" points="43.83 35.67 43.23 35.93 42.74 35.57 43.35 35.31 43.83 35.67"/><polygon class="cls-33" points="50.16 36.62 49.74 36.8 49.26 36.44 49.68 36.26 50.16 36.62"/><polygon class="cls-33" points="47.15 36.19 46.55 36.45 46.07 36.09 46.67 35.83 47.15 36.19"/><polygon class="cls-33" points="45.77 36.14 45.16 36.4 44.68 36.03 45.28 35.77 45.77 36.14"/><polygon class="cls-33" points="49.09 36.65 48.49 36.91 48.01 36.55 48.61 36.29 49.09 36.65"/><polygon class="cls-33" points="44.38 36.08 43.78 36.34 43.3 35.98 43.9 35.72 44.38 36.08"/><polygon class="cls-33" points="46.31 36.55 45.71 36.81 45.23 36.45 45.83 36.19 46.31 36.55"/><polygon class="cls-33" points="49.64 37.06 49.04 37.32 48.56 36.96 49.16 36.7 49.64 37.06"/><polygon class="cls-33" points="48.25 37.01 47.65 37.27 47.17 36.91 47.77 36.65 48.25 37.01"/><polygon class="cls-33" points="46.86 36.96 46.26 37.22 45.78 36.86 46.38 36.6 46.86 36.96"/><polygon class="cls-33" points="50.19 37.48 49.59 37.74 49.11 37.37 49.71 37.12 50.19 37.48"/><polygon class="cls-33" points="48.8 37.42 48.2 37.68 47.72 37.32 48.32 37.06 48.8 37.42"/><polygon class="cls-33" points="47.41 37.37 46.81 37.63 46.33 37.27 46.93 37.01 47.41 37.37"/><polygon class="cls-33" points="50.74 37.89 50.14 38.15 49.66 37.79 50.26 37.53 50.74 37.89"/><polygon class="cls-33" points="49.35 37.84 48.75 38.1 48.27 37.73 48.87 37.48 49.35 37.84"/><polygon class="cls-33" points="47.96 37.78 47.36 38.04 46.88 37.68 47.48 37.42 47.96 37.78"/><polygon class="cls-33" points="51.29 38.3 50.69 38.56 50.21 38.2 50.81 37.94 51.29 38.3"/><polygon class="cls-33" points="52.91 38.68 52.49 38.86 52.01 38.5 52.43 38.32 52.91 38.68"/><polygon class="cls-33" points="49.9 38.25 49.3 38.51 48.82 38.15 49.42 37.89 49.9 38.25"/><polygon class="cls-33" points="48.51 38.2 47.91 38.46 47.43 38.09 48.03 37.84 48.51 38.2"/><polygon class="cls-33" points="51.84 38.71 51.24 38.97 50.76 38.61 51.36 38.35 51.84 38.71"/><polygon class="cls-33" points="50.45 38.66 49.85 38.92 49.37 38.56 49.97 38.3 50.45 38.66"/><polygon class="cls-33" points="53.64 39.23 53.23 39.41 52.75 39.05 53.16 38.87 53.64 39.23"/><polygon class="cls-33" points="49.06 38.61 48.46 38.87 47.98 38.51 48.58 38.25 49.06 38.61"/><polygon class="cls-33" points="52.39 39.13 51.79 39.38 51.3 39.02 51.91 38.76 52.39 39.13"/><polygon class="cls-33" points="51 39.07 50.4 39.33 49.92 38.97 50.52 38.71 51 39.07"/><polygon class="cls-33" points="49.61 39.02 49.01 39.28 48.53 38.92 49.13 38.66 49.61 39.02"/><polygon class="cls-33" points="52.94 39.54 52.34 39.8 51.86 39.44 52.46 39.18 52.94 39.54"/><polygon class="cls-33" points="51.55 39.49 50.95 39.74 50.47 39.38 51.07 39.13 51.55 39.49"/><polygon class="cls-33" points="50.16 39.44 49.56 39.69 49.08 39.33 49.68 39.07 50.16 39.44"/><polygon class="cls-33" points="54.93 40.2 54.51 40.38 54.03 40.01 54.45 39.83 54.93 40.2"/><polygon class="cls-33" points="53.49 39.95 52.89 40.21 52.41 39.85 53.01 39.59 53.49 39.95"/><polygon class="cls-33" points="52.1 39.9 51.5 40.16 51.02 39.8 51.62 39.54 52.1 39.9"/><polygon class="cls-33" points="54.04 40.36 53.44 40.62 52.95 40.26 53.55 40 54.04 40.36"/><polygon class="cls-33" points="55.66 40.74 55.24 40.92 54.76 40.56 55.18 40.38 55.66 40.74"/><polygon class="cls-33" points="52.65 40.31 52.05 40.57 51.57 40.21 52.17 39.95 52.65 40.31"/><polygon class="cls-33" points="51.26 40.26 50.66 40.52 50.18 40.16 50.78 39.9 51.26 40.26"/><polygon class="cls-33" points="54.59 40.77 53.98 41.03 53.5 40.67 54.11 40.41 54.59 40.77"/><polygon class="cls-33" points="49.88 40.21 49.27 40.47 43.84 36.39 44.45 36.13 49.88 40.21"/><polygon class="cls-33" points="53.2 40.72 52.6 40.98 52.12 40.62 52.72 40.36 53.2 40.72"/><polygon class="cls-33" points="51.81 40.67 51.21 40.93 50.73 40.57 51.33 40.31 51.81 40.67"/><polygon class="cls-33" points="55.14 41.19 54.54 41.45 54.05 41.09 54.66 40.83 55.14 41.19"/><polygon class="cls-33" points="50.43 40.62 49.82 40.88 49.34 40.52 49.95 40.26 50.43 40.62"/><polygon class="cls-33" points="53.75 41.13 53.15 41.39 52.67 41.03 53.27 40.77 53.75 41.13"/><polygon class="cls-33" points="52.36 41.08 51.76 41.34 51.28 40.98 51.88 40.72 52.36 41.08"/><polygon class="cls-33" points="50.98 41.03 50.38 41.29 49.89 40.93 50.49 40.67 50.98 41.03"/><polygon class="cls-33" points="54.3 41.55 53.7 41.81 53.22 41.45 53.82 41.19 54.3 41.55"/><polygon class="cls-33" points="52.91 41.49 52.31 41.75 51.83 41.39 52.43 41.14 52.91 41.49"/><polygon class="cls-33" points="51.53 41.44 50.92 41.7 50.44 41.34 51.05 41.08 51.53 41.44"/><polygon class="cls-33" points="53.46 41.91 52.86 42.17 52.38 41.81 52.98 41.55 53.46 41.91"/><polygon class="cls-33" points="52.08 41.85 51.47 42.12 50.99 41.75 51.59 41.5 52.08 41.85"/><polygon class="cls-33" points="52.63 42.27 52.02 42.53 51.54 42.17 52.14 41.91 52.63 42.27"/></g><polygon class="cls-33" points="47.7 36.6 47.1 36.86 46.62 36.5 47.22 36.24 47.7 36.6"/><polygon class="cls-33" points="50.71 39.85 50.11 40.1 49.63 39.74 50.23 39.49 50.71 39.85"/><polygon class="cls-33" points="43.28 35.26 42.68 35.52 42.2 35.16 42.8 34.9 43.28 35.26"/><polygon class="cls-33" points="42.73 34.85 42.13 35.11 41.65 34.75 42.25 34.49 42.73 34.85"/><path class="cls-33" d="M46.54,39.15a.2.2,0,0,1,0,.37l-1.26.54a.71.71,0,0,1-.65-.07L43.1,38.87a.2.2,0,0,1,0-.38L44.4,38a.72.72,0,0,1,.65.08Z"/><path class="cls-35" d="M46.53,39.2c.17.13.15.3,0,.38l-1.26.54a.72.72,0,0,1-.65-.08l-1.49-1.11a.2.2,0,0,1,0-.38L44.39,38a.71.71,0,0,1,.66.08Z"/><path class="cls-4" d="M63.15,37.43s-2.08,2.83-3.45,2.77S58,40,57.55,38.77c-.3-.73.54-1.38.85-1,.59.77,1.75-.15,2-.61S62,36,62.29,35.77,64,36.87,63.15,37.43Z"/><path class="cls-4" d="M60.88,36.36a4.76,4.76,0,0,0-1.52.51c-.37.31-.73.61-.64.72.2.27.58,0,.83-.22s.77-.09,1.06,0,1.51,0,1.59-.69l-.26-.44Z"/><path class="cls-36" d="M67,29.77a36.21,36.21,0,0,1-.87-5.24c-.67-5.79-.71-10.23,1.57-10.88,0,0,3.25-.83,3.48,5.36.19,5,.72,11.15-.29,13.07-1.16,3.16-8.17,6.19-8.17,6.19a1.94,1.94,0,0,0-1.16-2.15A40.49,40.49,0,0,1,67,29.77Z"/><path class="cls-20" d="M61.56,36.12A40.49,40.49,0,0,1,67,29.77a36.21,36.21,0,0,1-.87-5.24c-.66-5.69-.71-10.07,1.46-10.83.91.47,1.93,1.75,2,5.12.19,5,.73,11.16-.29,13.07-.82,2.24-4.55,4.4-6.67,5.48A2.08,2.08,0,0,0,61.56,36.12Z"/><path class="cls-27" d="M67,29.77a36.21,36.21,0,0,1-.87-5.24c-.49-4.16-.63-7.61.16-9.47.15,3.56.63,13.29,1.51,15L62,36.36a1.64,1.64,0,0,0-.39-.24A40.49,40.49,0,0,1,67,29.77Z"/></svg>