<svg id="Layer_1" data-name="Layer 1" xmlns="http://www.w3.org/2000/svg" viewBox="0 0 63.25 93.37"><defs><style>.cls-1{opacity:0.1;}.cls-2{fill:#111114;}.cls-3{fill:#333;}.cls-4{fill:#262626;}.cls-5{fill:#efb185;}.cls-6{fill:#dfeef4;}.cls-7{fill:#cadfe8;}.cls-8{fill:#dd9569;}.cls-9{fill:#e6a376;}.cls-10{fill:#221101;}.cls-11{fill:#341c09;}.cls-12{fill:#bc2638;}.cls-13{fill:#e8486a;}.cls-14{fill:#d73543;}.cls-15{fill:#e5a67c;}.cls-16{fill:#0a0a0a;}.cls-17{fill:#0e1e38;}.cls-18{fill:#1c396b;}.cls-19{fill:#162647;}.cls-20{fill:#feffff;}.cls-21{fill:#f2b78f;}.cls-22{fill:#f75983;}.cls-23{fill:#bf9e73;}.cls-24{fill:#f1b35d;}.cls-25{fill:#fcd799;}.cls-26{isolation:isolate;}.cls-27{fill:#686048;}.cls-28{fill:#746c50;}.cls-29{fill:#484332;}.cls-30{fill:#3a3528;}.cls-31{fill:#256272;}.cls-32{fill:#3ea2bd;}.cls-33{fill:#2cc2e5;}.cls-34{fill:#52d9fe;}.cls-35{fill:#ff9b2d;}.cls-36{fill:#7c9920;}.cls-37{fill:#ea821b;}.cls-38{fill:#f4dd26;}.cls-39{fill:#5b462e;}.cls-40{fill:#e5c613;}.cls-41{fill:#b79266;}.cls-42{fill:#ddb786;}.cls-43{fill:#a3805a;}</style></defs><title>cc-illustrations</title><g class="cls-1"><path d="M59.39,80.55c5.07,2.85,5.15,7.56.19,10.52s-13.11,3.07-18.18.23-5.15-7.56-.18-10.53S54.32,77.7,59.39,80.55Z"/></g><path class="cls-2" d="M54.35,80.2s-1.4.21-1.06,1,1.94,2,2.16,2.54,1.52,2.32,1.94,2.15,1.52.09,1.4-2S56.21,80.11,54.35,80.2Z"/><path class="cls-2" d="M51.68,87.82s.68,2-1,2.45-1.19-.6-4.87.34-4.1-1-4-1.4,2.54-1.19,3.34-1.39,2.33-.6,2.33-.6h4.36Z"/><path class="cls-3" d="M48,65.13s-.17,3,0,6.65-.11,8.34,0,9.44,0,5.62,0,5.62a1.78,1.78,0,0,0,1.75,1.62c1.62.06,2.55-.32,2.89-1.29s.16-7.34.2-8.73.32-8.33.85-9.49,3.76-4.06,4.11-6.37Z"/><path class="cls-3" d="M57.75,62.58s.81,10.07.87,13.78.34,7.53.34,7.53a3,3,0,0,1-4.16.4s-.07-3.7,0-5.32S54,68.42,54,68.34,57.75,62.58,57.75,62.58Z"/><path class="cls-3" d="M57.75,62.58s.81,10.07.87,13.78.34,7.53.34,7.53a3,3,0,0,1-4.16.4s-.07-3.7,0-5.32S54,68.42,54,68.34,57.75,62.58,57.75,62.58Z"/><path class="cls-4" d="M52.59,87.17c.35-1,.16-7.34.2-8.73s.32-8.33.85-9.49,3.76-4.06,4.11-6.37l-2.46.64L55,64s-4,3.52-3.65,6.77c.25,2.46.11,12.69,0,17.54A1.75,1.75,0,0,0,52.59,87.17Z"/><path class="cls-4" d="M59,83.89s-.29-3.82-.34-7.53-.87-13.78-.87-13.78L56.17,65c.28,5,.83,15.56.92,19.94A3.46,3.46,0,0,0,59,83.89Z"/><path class="cls-5" d="M43.62,39S39.7,37.42,40,36.16s1.67-.72,2.62.07,1.25,0,1.25-.25.36-1.24.51-.85a10.23,10.23,0,0,1,.23,3.1C44.5,39.1,43.89,39.14,43.62,39Z"/><path class="cls-6" d="M55.33,44.87s2.8,1.26,1.56,3.52c-.74,1.33-2.23.87-3.22.35a52.68,52.68,0,0,1-5.3-4.11c-.58-.58-4.43-4.75-4.43-4.75l-.58-.63s.47-1.28,1.45-1.52a77.64,77.64,0,0,0,6.26,5.2A45.84,45.84,0,0,0,55.33,44.87Z"/><path class="cls-6" d="M50,47.41s-2.4.75-2.29,2.31S49,56,48.82,58,47.3,64.42,48,65.13c1.53,1.62,10.54,1.21,9.79-2.55a32.23,32.23,0,0,1,0-9.9c.46-4,0-8-2.47-6.82A19.52,19.52,0,0,1,50,47.41Z"/><path class="cls-7" d="M57.75,62.58a32.23,32.23,0,0,1,0-9.9c.27-2.38.22-4.76-.38-6.06-.76.51-1.59,1.86-2.56,2.56-1.21.88-4.13,1.07-3.78,2.41s1.65,5.83.55,9.37A7.73,7.73,0,0,0,51.44,66C54.49,66.08,58.24,65.06,57.75,62.58Z"/><path class="cls-7" d="M43.94,39.88s3.85,4.17,4.43,4.75c.42.41,2.51,2.12,4,3.22l.72.17s.47-1.36-.3-1.61-7.19-6.29-9-8a3.93,3.93,0,0,0-.46.8Z"/><path class="cls-5" d="M54.81,43.77s-1.06,1.87-.16,3.3c.69,1.11-4.45,1.4-4.36.34a4.57,4.57,0,0,0,.47-3.89C50.37,42.36,54.81,43.77,54.81,43.77Z"/><path class="cls-8" d="M54.68,47.08a2.76,2.76,0,0,1,.07-3L51,45.17h0A4.2,4.2,0,0,1,53.09,48C54.08,48,55,47.51,54.68,47.08Z"/><path class="cls-5" d="M50.88,37.6a8.7,8.7,0,0,0-1.21,3.23c-.15,1.7-.46,2-.5,2.75a1.8,1.8,0,0,0,.18,1.16c.42.59,1.45,1,3,.72,1.85-.31,4.13-2.36,3.79-4.65S53.82,36.33,50.88,37.6Z"/><path class="cls-9" d="M55.61,43.12A31.49,31.49,0,0,0,54,38.3a5.5,5.5,0,0,0-1.06-1,4,4,0,0,0-2.07.35,8.4,8.4,0,0,0-.58,1.09c.33.54,1.07,1.22,1.13,1.64a5.17,5.17,0,0,1-.7,2.92c-.39.56.56,1.68.22,2.19a.08.08,0,0,0,0,.07,5.67,5.67,0,0,0,1.4,0A5.14,5.14,0,0,0,55.61,43.12Z"/><path class="cls-10" d="M50.5,36.76a2.26,2.26,0,0,0,.84,2.52c.83.62.47,2.08.38,2.34a7.18,7.18,0,0,0-.51,1.63c.15.35,1-.47,1.37-.34.84.33.35,1.07-.59,1.77s1.12,1.52,2.28,1c.61-.29.85-.49,1.82-1.76,1.42-1.87,1.93-4.33-.26-6.1S51.9,37.64,50.5,36.76Z"/><path class="cls-11" d="M54.27,45.64c.61-.29.85-.49,1.82-1.76,1.42-1.87,1.93-4.33-.26-6.1s-3.93-.14-5.33-1a2.28,2.28,0,0,0-.1.62c.74.27,2.77,1.08,3.15,2.09.46,1.24,1.27,1,1,2.39s-.28,3.14-2.66,3.48A2.3,2.3,0,0,0,54.27,45.64Z"/><path class="cls-5" d="M37.31,42.18s-4.67-.91-4.61-2.36,1.68-1.16,2.9-.49,1.39-.23,1.33-.55.11-1.45.38-1.05a11.62,11.62,0,0,1,.92,3.36C38.29,42.08,37.63,42.25,37.31,42.18Z"/><path class="cls-6" d="M49.15,48.05s2.81,1.27,1.56,3.52c-.73,1.34-2.23.87-3.21.35a50.21,50.21,0,0,1-5.3-4.11c-.58-.58-4.43-4.75-4.43-4.75l-.58-.62s.46-1.29,1.45-1.52a78.89,78.89,0,0,0,6.25,5.2A45.1,45.1,0,0,0,49.15,48.05Z"/><path class="cls-7" d="M37.77,43.06s3.85,4.17,4.43,4.75a50.21,50.21,0,0,0,5.3,4.11,5.82,5.82,0,0,0,.61.28,4.91,4.91,0,0,0-.26-1.62c-.33-.61-8.38-7.31-10.26-8.87a3.28,3.28,0,0,0-.4.73Z"/><path class="cls-12" d="M33.08,31A2.75,2.75,0,0,0,30,33.4,2.59,2.59,0,0,0,33.08,31Z"/><path class="cls-5" d="M30.13,32a19.11,19.11,0,0,1,1.12,2.69c.07.56,1.29,1.56,2,1.76s2.63.56,2.28-.45-.76-1.41-.89-2.08a4.51,4.51,0,0,0-1.27-2.06l-1.7-1.13Z"/><path class="cls-13" d="M22.71,10.05s2-.35,3.47,6.16,1.49,6.93,1.49,6.93L33.08,31A2.86,2.86,0,0,0,30,33.4s-4.47-4.53-5-6.18S16.6,11,22.71,10.05Z"/><path class="cls-14" d="M30,33.4a3.07,3.07,0,0,1,.83-1.59c-3.38-3-5.94-8.74-5.94-8.74l-1.09,1.38c.62,1.38,1.1,2.4,1.22,2.77C25.5,28.87,30,33.4,30,33.4Z"/><path class="cls-15" d="M33.35,31.84A7.32,7.32,0,0,1,35,33.66c.28.7.52,1.37.33,1.45-.48.21-.77-.45-1-.92s-1-.7-1.41-.83-2-1.14-1.63-2.11l.68-.39Z"/><g class="cls-1"><path d="M32.47,66c7.53,4.23,7.66,11.23.27,15.64s-19.47,4.56-27,.33-7.66-11.23-.28-15.64S24.93,61.8,32.47,66Z"/></g><path class="cls-2" d="M19.56,67.87s-.78,1.88,0,2.34.91,1,2.19.88,1.09.31,1.54.78,5,2.39,5.82,1.42-1.57-2.06-2.42-2.61-2.91-2.75-3-3.39S19.56,67.87,19.56,67.87Z"/><path class="cls-16" d="M19.59,70.21c.79.47.91,1,2.19.88s1.09.31,1.54.78,5,2.39,5.82,1.42a.72.72,0,0,0-.09-1l-1.32.25c-1.33.25-3.06-1.26-3.72-1.83s-1.5-.32-2.65-.5-1-1.92-1-1.92L19.51,68C19.36,68.41,18.91,69.81,19.59,70.21Z"/><path class="cls-2" d="M11.57,74a5.63,5.63,0,0,0,.55,3.39c.86,1.17,2.74,3.21,3.54,3.11s.93-.47.93-.47a8.08,8.08,0,0,0-.3-3.57A12.24,12.24,0,0,1,15.62,74Z"/><path class="cls-16" d="M12.12,77.4a10.7,10.7,0,0,0,3.21,3.06c-1.21-1.52.58-1.23-.77-1.94-1.86-1-.69-1.83-1.52-2s-.25-2.27-.25-2.27l-.45-.2h-.77A5.63,5.63,0,0,0,12.12,77.4Z"/><path class="cls-17" d="M20.91,38.12s3.79-.46,5-3.28a92.78,92.78,0,0,1-.26,13.39c-.69,7.2-1.16,19.86-1.16,19.86a3.64,3.64,0,0,1-5,.06s-.81-8.34-.16-13c0,0-.57-8.1.17-12.16S20.91,38.12,20.91,38.12Z"/><path class="cls-18" d="M24.52,68.09S25,55.43,25.68,48.23a92.78,92.78,0,0,0,.26-13.39C25,36.91,22.76,37.7,21.61,38c.12,2.75.48,10.83.47,13.53s-.38,13.16-.54,17.61A4.06,4.06,0,0,0,24.52,68.09Z"/><path class="cls-19" d="M12,37.79s-.32,4.21-.32,10.75a59.93,59.93,0,0,1-.59,10,139.75,139.75,0,0,0-.21,15.13s2.09,3.16,5.31-.06c0,0,.42-11.22.94-13.78s3.48-15,4.68-19.45c.53-2,.65-2.72.65-2.72S17,41.67,12,37.79Z"/><path class="cls-18" d="M16.18,73.62s.42-11.22.94-13.78,3.48-15,4.68-19.45a10.45,10.45,0,0,1,1.79-3.51s-3.56,2.57-6.67,2.6c-.12,1-1.33,10.13-1.59,14.13s-2.81,18-2,21.46A4.07,4.07,0,0,0,16.18,73.62Z"/><path class="cls-13" d="M15.24,11.66S9.69,15.1,9.58,15.55s-1.52,1.66,1.05,6.57c0,0,3.34,5.29,2.35,10.94a34.81,34.81,0,0,1-1.18,5s2.89,3.6,9.9.34c1.41-.66,3.63-1.91,4.24-3.57a50.5,50.5,0,0,1-.56-11.21c.45-5.59.37-12.8-2.84-13.49C22.54,10.14,21.66,9.24,15.24,11.66Z"/><path class="cls-20" d="M17.13,9.72s4.39,1.87,2.78,5.2l2.08.92S23.46,10.13,17.13,9.72Z"/><path class="cls-5" d="M14.24,7.71s2,2.54.74,4.47c-.7,1.08,1.35,3.34,4.49,2.88,0,0,1.38-.46,1.19-1a3.15,3.15,0,0,1,.42-2.76C21.51,10.41,14.24,7.71,14.24,7.71Z"/><path class="cls-8" d="M15,12.18a.94.94,0,0,0-.13.44A5.92,5.92,0,0,1,18.19,11L14.92,8l-.31-.12-.07.3C15.05,9,15.92,10.74,15,12.18Z"/><path class="cls-21" d="M20.66,14.1c-.45-1.82,0-1.82.42-2.76.12-.25-.34-.64-1.08-1.07a2.18,2.18,0,0,0-.47.62,5.72,5.72,0,0,0-.72,4.23,3,3,0,0,0,.66-.06C19.84,15,20.8,14.67,20.66,14.1Z"/><path class="cls-5" d="M13.46,6.25s1.07,3.5,3.65,4.91c2.29,1.25,4.89,2,5.15-.65.2-2.09.77-7.42-1.14-8.32C18.66,1,17.67-.57,15,.65,15,.65,12.06,2.33,13.46,6.25Z"/><path class="cls-9" d="M13.46,6.25a8,8,0,0,0,3.64,5,10.61,10.61,0,0,0,2.15.92,9.54,9.54,0,0,1-2.32-2c-1-1,1.26-.74-.46-3.25-.59-.86,2,.09,2.58,0C22.38,6.6,22,4.71,22,3.89a4.55,4.55,0,0,0-.36-1l-.36-.59-.13-.15a11.78,11.78,0,0,0-1.18-1.1c-1.43.15-5.49.58-5.57.6s-.67,1-1.25,2A5.5,5.5,0,0,0,13.46,6.25Z"/><path class="cls-11" d="M15.21,9.58a6.47,6.47,0,0,1-2.27-5.9A4.18,4.18,0,0,1,16.36.13,4.77,4.77,0,0,1,22,2.81c.44.93.37,3.49-3.48,2.82-.55-.09-1.75-.77-2.21-.27a2,2,0,0,0-.15,2.07c.26.62-.29.73-.38.6s-1-1.89-1.58-1.12S15.14,9.46,15.21,9.58Z"/><path class="cls-10" d="M15.21,9.58c-.07-.12-1.61-2-1-2.67s1.49,1,1.58,1.12.64,0,.38-.6a2,2,0,0,1,.15-2.07c.42-.45,1.45.06,2,.23a4.77,4.77,0,0,1-2-1.95,3.71,3.71,0,0,0-2.41-2.11,4.41,4.41,0,0,0-1,2.15A6.47,6.47,0,0,0,15.21,9.58Z"/><path class="cls-20" d="M15.34,11.27a5.52,5.52,0,0,0,4.57,3.65l-.82,2.59S12.38,14.82,15.34,11.27Z"/><path class="cls-22" d="M25.94,34.84a50.5,50.5,0,0,1-.56-11.21,38.16,38.16,0,0,0-.15-9.16,14,14,0,0,1-5.35,4.88c-3.54,1.53-5.65,1.13-5.13,3.45s2.78,5.57,2,17a13.31,13.31,0,0,0,4.93-1.34C23.11,37.75,25.33,36.5,25.94,34.84Z"/><polygon class="cls-23" points="21.61 27.88 19.05 24.82 14.8 23.92 26.91 16.93 28.82 19 33.72 20.89 21.61 27.88"/><path class="cls-24" d="M27,13.63s1,.25,1,1.82-.16,9.53-.48,11.46-1.77.18-2-1.72S24.54,14.59,27,13.63Z"/><path class="cls-25" d="M25.72,15.41A2,2,0,0,0,27,16.46s-.43.51-1.53-.22Z"/><path class="cls-25" d="M25.22,18.6s.6,1.15,1.48,1.26c0,0-.44.51-1.53-.22Z"/><path class="cls-25" d="M25.21,22.34s.73,1.28,1.6,1.38c0,0-.43.51-1.53-.21Z"/><g class="cls-26"><polygon class="cls-27" points="24.91 19.86 25.83 19.32 25.8 28.41 24.89 28.94 24.91 19.86"/><polygon class="cls-28" points="21.57 17.93 22.48 17.39 25.83 19.32 24.91 19.86 21.57 17.93"/><polygon class="cls-29" points="24.91 19.86 24.89 28.94 21.54 27.01 21.57 17.93 24.91 19.86"/><polygon class="cls-30" points="23.7 24.45 24.89 28.94 21.54 27.01 21.57 17.93 23.7 24.45"/></g><path class="cls-31" d="M30.41,20.2a.78.78,0,0,1,0,.14h0a.38.38,0,0,1-.06.13s0,0,0,0a.53.53,0,0,1-.1.12l-.09.06-.09.07a1.69,1.69,0,0,1-.27.12l-.11,0-.13,0-.17,0h-.56l-.22,0h0l-.18-.05h0l-.21-.1a.71.71,0,0,1-.4-.56v4.27a.67.67,0,0,0,.4.56,1.21,1.21,0,0,0,.2.09h0l.12,0,.07,0h0l0,0,.13,0h.73l.05,0,.14,0,.07,0h0A1.31,1.31,0,0,0,30,25h0l.07,0,.1-.08h0a.26.26,0,0,0,.09-.09,0,0,0,0,0,0,0l0,0a.05.05,0,0,0,0,0,.25.25,0,0,0,0-.07v0h0s0,0,0-.05a.22.22,0,0,0,0-.08h0V20.21Z"/><path class="cls-32" d="M30,19.63c.53.31.54.81,0,1.12a2.12,2.12,0,0,1-1.93,0,.59.59,0,0,1,0-1.12A2.16,2.16,0,0,1,30,19.63Z"/><path class="cls-31" d="M29.59,17.52h0a.32.32,0,0,1-.12.11l-.17.07h0l-.2,0h0a.76.76,0,0,1-.21,0h0a.62.62,0,0,1-.19-.07.3.3,0,0,1-.17-.24v2.72a.29.29,0,0,0,.17.24l.09,0,.07,0h.54l.12-.06h0l.07-.05,0,0s0,0,0,0h0v0l0,0s0,0,0,0V17.4h0A.2.2,0,0,1,29.59,17.52Z"/><path class="cls-32" d="M29.46,17.15a.26.26,0,0,1,0,.48.91.91,0,0,1-.82,0c-.23-.13-.23-.34,0-.47A.91.91,0,0,1,29.46,17.15Z"/><path class="cls-33" d="M32.31,22.16a.37.37,0,0,1,0,.11h0l0,.09,0,0a.32.32,0,0,1-.08.09l-.06.05-.07,0a.66.66,0,0,1-.19.09l-.08,0-.1,0-.12,0h-.42l-.16,0h0l-.14,0h0l-.16-.07a.49.49,0,0,1-.3-.41v3.15a.5.5,0,0,0,.29.41l.15.08h0l.09,0H31l.1,0h.57l.1,0h.08l.19-.08h0l0,0,.07-.06h0l.07-.07v0h0s0,0,0,0,0,0,0-.06h0s0,0,0,0v-.06h0V22.17Z"/><path class="cls-34" d="M32,21.75a.43.43,0,0,1,0,.82,1.55,1.55,0,0,1-1.42,0,.43.43,0,0,1,0-.82A1.55,1.55,0,0,1,32,21.75Z"/><path class="cls-33" d="M31.7,20.19h0a.24.24,0,0,1-.09.08l-.13.05h0a.39.39,0,0,1-.15,0h0l-.16,0h0a.46.46,0,0,1-.14-.05.21.21,0,0,1-.13-.18v2a.23.23,0,0,0,.13.18l.06,0,.06,0h.39a.19.19,0,0,0,.09,0h0l.05,0,0,0h0s0,0,0,0,0,0,0,0,0,0,0,0v-2h0A.18.18,0,0,1,31.7,20.19Z"/><path class="cls-32" d="M31.61,19.92c.17.1.17.25,0,.35a.64.64,0,0,1-.6,0c-.17-.1-.17-.25,0-.35A.66.66,0,0,1,31.61,19.92Z"/><path class="cls-35" d="M21,26.51s4.64,1.62,6.89-2.73c0,0,.14-1-1.15-.44S24.06,26.29,21,26.51Z"/><path class="cls-36" d="M29.27,20.07S25.72,23,27.5,23.38C28.34,23.55,26.91,22.66,29.27,20.07Z"/><path class="cls-36" d="M29.27,21.15s-1.41,3.3-2.07,2.05C26.88,22.61,27.87,23.48,29.27,21.15Z"/><path class="cls-36" d="M30.15,22.32s-2.65,2.4-2.73,1C27.38,22.65,27.9,23.85,30.15,22.32Z"/><path class="cls-37" d="M21.29,29.33S26,28.07,25.45,23.2c0,0-.43-.89-1.19.28S23.74,27.4,21.29,29.33Z"/><path class="cls-36" d="M24.55,19.32s-1.28,4.44.4,3.74C25.74,22.73,24.05,22.79,24.55,19.32Z"/><path class="cls-36" d="M25.16,20.23s.68,3.51-.57,2.85C24,22.77,25.31,22.94,25.16,20.23Z"/><path class="cls-36" d="M26.54,20.69s-.84,3.48-1.7,2.36C24.43,22.53,25.54,23.22,26.54,20.69Z"/><path class="cls-38" d="M16.87,20.66C17,22.58,20.19,26,23.52,24.6c.26-.1.74-.49-.06-1.11s-3,.74-5.17-3.22C18.29,20.27,16.67,18.48,16.87,20.66Z"/><path class="cls-39" d="M23.69,23.7s-.49.13-.37.37a2.31,2.31,0,0,0,.31.47,1.14,1.14,0,0,1,.44-.29c.21,0,1.26-.17,1.26-.17l-.2-.31-1.19.09Z"/><path class="cls-40" d="M15.93,24c.88,1.72,5.07,3.72,7.64,1.19.2-.2.5-.73-.47-1s-2.51,1.81-6-1.06C17.11,23.13,14.93,22.07,15.93,24Z"/><path class="cls-39" d="M23.39,24.3s-.4.31-.2.49a2.29,2.29,0,0,0,.47.32,1.14,1.14,0,0,1,.29-.44l1.11-.62-.31-.21-1.06.52Z"/><path class="cls-38" d="M16.67,26.84c1.37,1.36,6,1.95,7.63-1.26.13-.24.25-.85-.76-.81s-1.82,2.49-6,.86C17.51,25.63,15.11,25.3,16.67,26.84Z"/><path class="cls-39" d="M23.84,24.78s-.28.42,0,.52a2.68,2.68,0,0,0,.55.16,1.09,1.09,0,0,1,.15-.5c.13-.16.85-.94.85-.94L25,23.91l-.84.84Z"/><polygon class="cls-41" points="21.66 43.5 14.84 39.54 14.8 23.92 19.05 24.82 21.61 27.88 21.66 43.5"/><polygon class="cls-42" points="21.66 43.5 19.05 38.95 14.84 39.54 21.66 43.5"/><polygon class="cls-43" points="18.77 38.95 19.05 24.82 21.61 27.88 21.66 43.5 18.77 38.95"/><polygon class="cls-42" points="33.72 20.89 33.77 36.51 21.66 43.5 21.61 27.88 33.72 20.89"/><path class="cls-5" d="M18.24,33.32a9.54,9.54,0,0,1,3.09-.3,3.11,3.11,0,0,1,1.6,1.89,1.44,1.44,0,0,1-.54,1.43s-.57.44-1.84-.46a3.5,3.5,0,0,0-2.38-.06.94.94,0,0,1-1.2-.71C16.82,34.67,18.24,33.32,18.24,33.32Z"/><path class="cls-9" d="M20.55,35.88c1.27.9,1.84.46,1.84.46l.15-.13a3.63,3.63,0,0,0-2-1.21,4.75,4.75,0,0,0-1.9,0l-.9.81a1.16,1.16,0,0,0,.4,0A3.5,3.5,0,0,1,20.55,35.88Z"/><path class="cls-13" d="M10.05,15.47c.91-.8,3.47,1.87,2.92,4.77-.7,3.62-2.52,9.43-2.52,9.43s5.77,1.91,8,2.83c1.39.56.87,3.1-.23,3.58-1.32.58-12.22-2-12.55-4.35C5.3,29.05,6.77,18.37,10.05,15.47Z"/><path class="cls-14" d="M5.68,31.73c.33,2.35,11.23,4.93,12.55,4.35a1.8,1.8,0,0,0,.84-1C14.45,34.55,8.39,33.31,7.27,31c-2-4.28,1.36-12.79,2.91-15.6l-.13.08C6.77,18.37,5.3,29.05,5.68,31.73Z"/></svg>