<svg id="Layer_1" data-name="Layer 1" xmlns="http://www.w3.org/2000/svg" viewBox="0 0 1521.21 333.43"><defs><style>.cls-1,.cls-3{fill:#231f20;}.cls-1,.cls-2{stroke:#231f20;stroke-width:3px;}.cls-2{fill:none;}</style></defs><title>CC-logo</title><path class="cls-1" d="M74.32,131.54c0,38.09,25.57,59.31,56,59.31,28.45,0,44.36-17.85,49.68-35.69l64.62,19.77c-10.61,42-50.17,83.43-114.3,83.43C58.89,258.36,1.5,205.79,1.5,131.54c0-74.77,56-127.33,126.37-127.33,66.07,0,104.65,40.5,115.25,83.42l-65.58,19.78c-5.3-18.32-19.77-35.68-48.22-35.68C98.93,71.73,74.32,92.94,74.32,131.54Z"/><path class="cls-2" d="M348.51,204.6c0-38.09-25.57-59.31-56-59.31-28.45,0-44.35,17.85-49.67,35.69l-64.62-19.77c10.6-42,50.16-83.42,114.29-83.42,71.39,0,128.78,52.56,128.78,126.81,0,74.77-56,127.33-126.36,127.33-66.07,0-104.66-40.5-115.26-83.42l64.68-19.77c5.3,18.31,20.67,35.67,49.12,35.67C323.91,264.41,348.51,243.21,348.51,204.6Z"/><path class="cls-3" d="M476.86,72.37c0-41.54,31.58-69.74,68.8-69.74,40,0,57.7,25.75,62,44.93l-28,8.83c-2.07-9.21-10.53-24.81-34-24.81-17.86,0-38,12.78-38,40.79,0,25,18.42,39.47,38.34,39.47,23.12,0,32.34-15.41,35-25l28.38,8.08c-4.32,18.43-22,46.62-63.35,46.62C507.69,141.54,476.86,113.91,476.86,72.37Z"/><path class="cls-3" d="M717.28,91.92c0,28.94-21.62,49.62-49.63,49.62-27.82,0-49.62-20.68-49.62-49.62s21.8-49.44,49.62-49.44C695.66,42.48,717.28,63,717.28,91.92Zm-28.58,0c0-15.79-10.15-23.12-21.05-23.12-10.71,0-21,7.33-21,23.12,0,15.6,10.34,23.3,21,23.3C678.55,115.22,688.7,107.71,688.7,91.92Z"/><path class="cls-3" d="M735.7,138.72V45.3H763V56c4.7-8.27,16.73-13.53,26.88-13.53,13.35,0,22.93,5.45,27.63,14.66,7.33-10.52,16.36-14.66,28.95-14.66C864.08,42.48,881,52.82,881,78.2v60.52H853.36V84.59c0-8.84-4.69-15.79-14.85-15.79s-15.6,7.7-15.6,16v54H794.72V84.59c0-8.84-4.7-15.79-15-15.79-10,0-15.41,7.7-15.41,16.16v53.76Z"/><path class="cls-3" d="M905.05,138.72V45.3h27.26V56C937,47.74,949,42.48,959.19,42.48c13.35,0,22.93,5.45,27.63,14.66,7.33-10.52,16.35-14.66,28.95-14.66,17.67,0,34.59,10.34,34.59,35.72v60.52h-27.64V84.59c0-8.84-4.7-15.79-14.85-15.79s-15.6,7.7-15.6,16v54H964.08V84.59c0-8.84-4.7-15.79-15-15.79-10,0-15.41,7.7-15.41,16.16v53.76Z"/><path class="cls-3" d="M1133.81,129.32c-4.88,8.09-15.6,11.47-25,11.47-22.74,0-35.52-16.54-35.52-36.47v-59h28.57v53c0,9,4.89,16.16,15,16.16,9.58,0,15.6-6.58,15.6-16V45.3h28.57V122a145.9,145.9,0,0,0,.94,16.73h-27.44A67.23,67.23,0,0,1,1133.81,129.32Z"/><path class="cls-3" d="M1214.83,138.72h-28.57V45.3h27.63V56c5.07-8.83,16.54-13.15,26.13-13.15,23.49,0,34,16.73,34,37.21v58.65h-28.57V85c0-9.21-4.89-16.16-15.23-16.16-9.4,0-15.41,7-15.41,16.35Z"/><path class="cls-3" d="M1312.19,0a16.73,16.73,0,1,1-16.54,16.73A16.81,16.81,0,0,1,1312.19,0ZM1298.1,138.72V45.3h28.57v93.42Z"/><path class="cls-3" d="M1385.88,45.3h18.23v25h-18.23v35c0,7.71,4.13,9.78,10.33,9.78a35.6,35.6,0,0,0,7.52-.94v23.68c-1.13.57-5.82,2.63-14.85,2.63-19.36,0-31.2-11.46-31.2-30.07v-40h-16.54v-25h4.7c9.77,0,14.47-6.58,14.47-15.22v-12h25.57Z"/><path class="cls-3" d="M1433.62,174.62l21.24-48.49L1415.57,45.3h32l22.74,50,20.68-50h30.26l-57.52,129.32Z"/><path class="cls-3" d="M476.86,258.73c0-41.54,31.58-69.73,68.8-69.73,40,0,57.7,25.75,62,44.92l-28,8.84c-2.07-9.21-10.53-24.81-34-24.81-17.86,0-38,12.78-38,40.78,0,25,18.42,39.48,38.34,39.48,23.12,0,32.34-15.42,35-25l28.38,8.08c-4.32,18.42-22,46.62-63.35,46.62C507.69,327.91,476.86,300.28,476.86,258.73Z"/><path class="cls-3" d="M721,278.28c0,29-21.61,49.63-49.62,49.63-27.82,0-49.62-20.68-49.62-49.63s21.8-49.43,49.62-49.43C699.42,228.85,721,249.34,721,278.28Zm-28.57,0c0-15.79-10.15-23.12-21.05-23.12-10.71,0-21,7.33-21,23.12,0,15.61,10.34,23.31,21,23.31C682.31,301.59,692.46,294.07,692.46,278.28Z"/><path class="cls-3" d="M771.79,325.09H743.22V231.67h27.63v10.71c5.07-8.83,16.54-13.16,26.12-13.16,23.5,0,34,16.73,34,37.22v58.65H802.43V271.33c0-9.21-4.89-16.17-15.23-16.17-9.4,0-15.41,7-15.41,16.36Z"/><path class="cls-3" d="M887.39,325.09H858.81V231.67h27.63v10.71c5.08-8.83,16.55-13.16,26.13-13.16,23.5,0,34,16.73,34,37.22v58.65H918V271.33c0-9.21-4.88-16.17-15.22-16.17-9.4,0-15.41,7-15.41,16.36Z"/><path class="cls-3" d="M1059.37,298.21c-4.51,16.16-19.36,29.7-43,29.7-25.75,0-48.68-18.42-48.68-49.81,0-30.08,22.36-49.25,46.61-49.25,29,0,46.81,17.85,46.81,47.93a58.84,58.84,0,0,1-.57,8.83h-65c.57,10.53,10.16,18.05,21.25,18.05,10.33,0,16.16-4.89,18.79-12.22Zm-25.94-31c-.37-7.14-5.26-15.79-18.79-15.79-12,0-18,8.84-18.61,15.79Z"/><path class="cls-3" d="M1104.86,278.47c0,14.85,10,23.12,21.81,23.12,11.09,0,17.29-6.95,19.36-13.91l25.18,7.71c-4.13,16.35-19.54,32.52-44.54,32.52-27.82,0-50.19-20.49-50.19-49.44,0-29.13,21.8-49.62,49.25-49.62,25.75,0,40.79,15.79,44.92,32.52l-25.56,7.7c-2.07-7.14-7.71-13.91-18.8-13.91C1114.45,255.16,1104.86,263.43,1104.86,278.47Z"/><path class="cls-3" d="M1226.67,231.67h18.23v25h-18.23v35c0,7.71,4.13,9.77,10.33,9.77a35,35,0,0,0,7.52-.94v23.69c-1.13.56-5.82,2.63-14.85,2.63-19.36,0-31.2-11.47-31.2-30.08v-40h-16.54v-25h4.7c9.77,0,14.47-6.58,14.47-15.23v-12h25.57Z"/><path class="cls-3" d="M1360.31,278.28c0,29-21.62,49.63-49.62,49.63-27.82,0-49.63-20.68-49.63-49.63s21.81-49.43,49.63-49.43C1338.69,228.85,1360.31,249.34,1360.31,278.28Zm-28.57,0c0-15.79-10.15-23.12-21-23.12-10.72,0-21.06,7.33-21.06,23.12,0,15.61,10.34,23.31,21.06,23.31C1321.59,301.59,1331.74,294.07,1331.74,278.28Z"/><path class="cls-3" d="M1441.89,259.86a38.88,38.88,0,0,0-9-.94c-11.47,0-21.81,6.77-21.81,25.38v40.79h-28.57V231.67h27.63v12.59c4.89-10.52,16.73-13.53,24.25-13.53a28,28,0,0,1,7.52.94Z"/></svg>