<svg id="Layer_1" data-name="Layer 1" xmlns="http://www.w3.org/2000/svg" viewBox="0 0 133.29 104.05"><defs><style>.cls-1{fill:#006838;}.cls-2{fill:#8dc54b;}</style></defs><title>CC-logo</title><path class="cls-1" d="M23.12,40.43c0,12.09,8.12,18.83,17.77,18.83,9,0,14.08-5.67,15.77-11.34L77.17,54.2C73.81,67.52,61.25,80.69,40.89,80.69,18.22,80.69,0,64,0,40.43,0,16.69,17.77,0,40.12,0c21,0,33.23,12.86,36.59,26.49L55.89,32.76C54.21,27,49.61,21.44,40.58,21.44,30.93,21.44,23.12,28.17,23.12,40.43Z"/><path class="cls-2" d="M110.17,63.62c0-12.09-8.12-18.83-17.77-18.83-9,0-14.08,5.67-15.77,11.33L56.12,49.85C59.48,36.53,72.05,23.36,92.4,23.36c22.67,0,40.89,16.69,40.89,40.26,0,23.74-17.76,40.43-40.12,40.43-21,0-33.22-12.86-36.59-26.49l20.53-6.28c1.69,5.82,6.57,11.33,15.6,11.33C102.36,82.61,110.17,75.88,110.17,63.62Z"/></svg>