<svg id="Layer_1" data-name="Layer 1" xmlns="http://www.w3.org/2000/svg" viewBox="0 0 616.53 107.05"><defs><style>.cls-1,.cls-3{fill:#231f20;}.cls-1,.cls-2{stroke:#231f20;stroke-miterlimit:10;stroke-width:3px;}.cls-2{fill:none;}</style></defs><title>CC-logo</title><path class="cls-1" d="M24.62,41.93c0,12.09,8.12,18.83,17.77,18.83,9,0,14.08-5.67,15.77-11.34L78.67,55.7C75.31,69,62.75,82.19,42.39,82.19,19.72,82.19,1.5,65.5,1.5,41.93,1.5,18.19,19.27,1.5,41.62,1.5c21,0,33.23,12.86,36.59,26.49L57.39,34.26c-1.68-5.81-6.28-11.32-15.31-11.32C32.43,22.94,24.62,29.67,24.62,41.93Z"/><path class="cls-2" d="M111.67,65.12c0-12.09-8.12-18.83-17.77-18.83-9,0-14.08,5.67-15.77,11.33L57.62,51.35C61,38,73.55,24.86,93.9,24.86c22.67,0,40.89,16.69,40.89,40.26,0,23.74-17.76,40.43-40.12,40.43-21,0-33.22-12.86-36.59-26.49l20.53-6.28c1.69,5.82,6.57,11.33,15.6,11.33C103.86,84.11,111.67,77.38,111.67,65.12Z"/><path class="cls-3" d="M154.15,48.83c0-12.6,9.57-21.15,20.86-21.15,12.14,0,17.5,7.81,18.81,13.63L185.33,44c-.63-2.8-3.19-7.53-10.32-7.53-5.42,0-11.52,3.88-11.52,12.37,0,7.58,5.59,12,11.63,12,7,0,9.81-4.67,10.61-7.58l8.61,2.45c-1.32,5.59-6.67,14.14-19.22,14.14C163.49,69.81,154.15,61.43,154.15,48.83Z"/><path class="cls-3" d="M218.84,27.68c11.35,0,21,8.27,21,21.09s-9.63,21-21,21-21-8.27-21-21S207.44,27.68,218.84,27.68Zm0,33.24c5.59,0,11.63-3.77,11.63-12.2s-6-12.26-11.63-12.26-11.68,3.82-11.68,12.26S213.2,60.92,218.84,60.92Z"/><path class="cls-3" d="M270.31,28.54h9.58L265.13,69h-9.3L241,28.54h9.92L260.68,57Z"/><path class="cls-3" d="M284.85,69V28.54H294V69Z"/><path class="cls-3" d="M302.69,69V28.54h14.65c12.14,0,20.29,7.75,20.29,20.23S329.48,69,317.28,69Zm14.25-8.49c6.21,0,11.29-3.59,11.29-11.69S323.15,37,316.94,37h-5.25V60.46Z"/><path class="cls-3" d="M342.07,48.77c0-13.16,9.87-21.09,20.35-21.09,10.27,0,16.36,6,18.19,13.11L374.17,43c-1.2-4.9-5-8.84-11.75-8.84S349.08,39,349.08,48.77c0,9.47,6.5,14.48,13.4,14.48a12.06,12.06,0,0,0,12-8.89l6.27,2c-1.82,6.84-8,13.4-18.3,13.4C351.59,69.81,342.07,61.94,342.07,48.77Z"/><path class="cls-3" d="M412.76,55c0,8.56-6.1,14.77-14.43,14.77S384,63.6,384,55s6.1-14.7,14.36-14.7S412.76,46.55,412.76,55Zm-6.67,0c0-5.75-3.65-8.72-7.76-8.72s-7.75,3-7.75,8.72,3.71,8.84,7.75,8.84S406.09,60.86,406.09,55Z"/><path class="cls-3" d="M425.75,69h-6.61V41.19h6.44V44.9a9.2,9.2,0,0,1,8.21-4.51c6.78,0,10,4.91,10,11V69h-6.61V52.54c0-3.42-1.54-6.16-5.7-6.16-3.76,0-5.76,2.91-5.76,6.56Z"/><path class="cls-3" d="M458.47,69h-6.61V41.19h6.44V44.9a9.2,9.2,0,0,1,8.21-4.51c6.78,0,10,4.91,10,11V69h-6.61V52.54c0-3.42-1.54-6.16-5.7-6.16-3.77,0-5.76,2.91-5.76,6.56Z"/><path class="cls-3" d="M509.14,61c-1.48,4.85-5.87,8.78-12.54,8.78-7.52,0-14.19-5.47-14.19-14.88,0-8.78,6.5-14.59,13.51-14.59,8.55,0,13.57,5.64,13.57,14.42a9.41,9.41,0,0,1-.18,2.11H489a7.43,7.43,0,0,0,7.58,7.24c4,0,6-2.11,7-4.85Zm-6.32-9c-.12-3.25-2.29-6.15-6.85-6.15A6.66,6.66,0,0,0,489.19,52Z"/><path class="cls-3" d="M520.25,55c0,5.59,3.6,8.73,7.76,8.73a7,7,0,0,0,7-5.13l5.82,2.1A12.87,12.87,0,0,1,528,69.81c-8.15,0-14.37-6.33-14.37-14.77s6.22-14.7,14.2-14.7c7.46,0,11.57,4.67,12.71,9.12l-5.93,2.16a6.53,6.53,0,0,0-6.73-5.18C523.85,46.44,520.25,49.46,520.25,55Z"/><path class="cls-3" d="M555,41.19h5.76v5.87H555V60c0,2.45,1.09,3.47,3.54,3.47a15.38,15.38,0,0,0,2.28-.22v5.47a10.39,10.39,0,0,1-4.05.63c-5.13,0-8.32-3.08-8.32-8.27v-14h-5.13V41.19h1.42c3,0,4.28-1.88,4.28-4.33V32.7h6Z"/><path class="cls-3" d="M593.9,55c0,8.56-6.1,14.77-14.42,14.77S565.11,63.6,565.11,55s6.1-14.7,14.37-14.7S593.9,46.55,593.9,55Zm-6.67,0c0-5.75-3.65-8.72-7.75-8.72s-7.76,3-7.76,8.72,3.71,8.84,7.76,8.84S587.23,60.86,587.23,55Z"/><path class="cls-3" d="M616.53,47.75a13.66,13.66,0,0,0-2.17-.17c-5.13,0-7.47,3-7.47,8.15V69h-6.61V41.19h6.44v4.45c1.31-3,4.39-4.79,8-4.79a9.3,9.3,0,0,1,1.77.17Z"/></svg>