<?xml version="1.0" encoding="utf-8"?>
<!-- Generator: Adobe Illustrator 24.1.1, SVG Export Plug-In . SVG Version: 6.00 Build 0)  -->
<svg version="1.1" id="logo-mark" xmlns="http://www.w3.org/2000/svg" xmlns:xlink="http://www.w3.org/1999/xlink" x="0px" y="0px"
	 viewBox="0 0 133.3 104.1" style="enable-background:new 0 0 133.3 104.1;" xml:space="preserve">
<style type="text/css">
	.stfoot0{fill:#006838;}
	.stfoot1{fill:#8DC54B;}
</style>
<path class="stfoot0" d="M23.1,40.4c0,12.1,8.1,18.8,17.8,18.8c9,0,14.1-5.7,15.8-11.3l20.5,6.3c-3.4,13.3-15.9,26.5-36.3,26.5
	C18.2,80.7,0,64,0,40.4C0,16.7,17.8,0,40.1,0c21,0,33.2,12.9,36.6,26.5l-20.8,6.3c-1.7-5.8-6.3-11.3-15.3-11.3
	C30.9,21.4,23.1,28.2,23.1,40.4z"/>
<path class="stfoot1" d="M110.2,63.6c0-12.1-8.1-18.8-17.8-18.8c-9,0-14.1,5.7-15.8,11.3l-20.5-6.3c3.4-13.3,15.9-26.5,36.3-26.5
	c22.7,0,40.9,16.7,40.9,40.3c0,23.7-17.8,40.4-40.1,40.4c-21,0-33.2-12.9-36.6-26.5l20.5-6.3c1.7,5.8,6.6,11.3,15.6,11.3
	C102.4,82.6,110.2,75.9,110.2,63.6z"/>
</svg>
