<svg id="Layer_1" data-name="Layer 1" xmlns="http://www.w3.org/2000/svg" viewBox="0 0 629.94 104.05"><defs><style>.cls-1{fill:#006838;}.cls-2{fill:#8dc54b;}</style></defs><title>CC-logo</title><path class="cls-1" d="M23.12,40.43c0,12.09,8.12,18.83,17.77,18.83,9,0,14.08-5.67,15.77-11.34L77.17,54.2C73.81,67.52,61.25,80.69,40.89,80.69,18.22,80.69,0,64,0,40.43,0,16.69,17.77,0,40.12,0c21,0,33.23,12.86,36.59,26.49L55.89,32.76C54.21,27,49.61,21.44,40.58,21.44,30.93,21.44,23.12,28.17,23.12,40.43Z"/><path class="cls-2" d="M110.17,63.62c0-12.09-8.12-18.83-17.77-18.83-9,0-14.08,5.67-15.77,11.33L56.12,49.85C59.48,36.53,72.05,23.36,92.4,23.36c22.67,0,40.89,16.69,40.89,40.26,0,23.74-17.76,40.43-40.12,40.43-21,0-33.22-12.86-36.59-26.49l20.53-6.28c1.69,5.82,6.57,11.33,15.6,11.33C102.36,82.61,110.17,75.88,110.17,63.62Z"/><path class="cls-1" d="M154.15,47.78c0-12.6,9.57-21.15,20.86-21.15,12.14,0,17.5,7.81,18.81,13.63l-8.49,2.68c-.63-2.8-3.19-7.53-10.32-7.53-5.42,0-11.52,3.88-11.52,12.37,0,7.59,5.59,12,11.63,12,7,0,9.81-4.67,10.61-7.58l8.61,2.45c-1.32,5.59-6.67,14.14-19.22,14.14C163.49,68.76,154.15,60.38,154.15,47.78Z"/><path class="cls-1" d="M218.84,26.63c11.35,0,21,8.27,21,21.1s-9.63,21-21,21-21-8.26-21-21S207.44,26.63,218.84,26.63Zm0,33.24c5.59,0,11.63-3.76,11.63-12.2s-6-12.26-11.63-12.26-11.68,3.82-11.68,12.26S213.2,59.87,218.84,59.87Z"/><path class="cls-1" d="M270.31,27.49h9.58L265.13,67.91h-9.3L241,27.49h9.92l9.75,28.44Z"/><path class="cls-1" d="M284.85,67.91V27.49H294V67.91Z"/><path class="cls-1" d="M302.69,67.91V27.49h14.65c12.14,0,20.29,7.75,20.29,20.24s-8.15,20.18-20.35,20.18Zm14.25-8.5c6.21,0,11.29-3.59,11.29-11.68S323.15,36,316.94,36h-5.25V59.41Z"/><path class="cls-2" d="M342.07,47.73c0-13.17,9.87-21.1,20.35-21.1,10.27,0,16.36,6.05,18.19,13.12l-6.44,2.16c-1.2-4.9-5-8.83-11.75-8.83s-13.34,4.84-13.34,14.65c0,9.46,6.5,14.48,13.4,14.48a12.07,12.07,0,0,0,12-8.9l6.27,2.06c-1.82,6.84-8,13.39-18.3,13.39C351.59,68.76,342.07,60.89,342.07,47.73Z"/><path class="cls-2" d="M412.76,54c0,8.55-6.1,14.76-14.43,14.76S384,62.55,384,54s6.1-14.71,14.36-14.71S412.76,45.5,412.76,54Zm-6.67,0c0-5.76-3.65-8.73-7.76-8.73s-7.75,3-7.75,8.73,3.71,8.83,7.75,8.83S406.09,59.81,406.09,54Z"/><path class="cls-2" d="M425.75,67.91h-6.61V40.14h6.44v3.71a9.22,9.22,0,0,1,8.21-4.5c6.78,0,10,4.9,10,11V67.91h-6.61V51.49c0-3.42-1.54-6.16-5.7-6.16-3.76,0-5.76,2.91-5.76,6.56Z"/><path class="cls-2" d="M458.47,67.91h-6.61V40.14h6.44v3.71a9.22,9.22,0,0,1,8.21-4.5c6.78,0,10,4.9,10,11V67.91h-6.61V51.49c0-3.42-1.54-6.16-5.7-6.16-3.77,0-5.76,2.91-5.76,6.56Z"/><path class="cls-2" d="M509.14,60c-1.48,4.85-5.87,8.78-12.54,8.78-7.52,0-14.19-5.47-14.19-14.88,0-8.78,6.5-14.59,13.51-14.59,8.55,0,13.57,5.64,13.57,14.42a9.24,9.24,0,0,1-.18,2.11H489a7.43,7.43,0,0,0,7.58,7.24c4,0,6-2.11,7-4.84Zm-6.32-9c-.12-3.25-2.29-6.16-6.85-6.16A6.66,6.66,0,0,0,489.19,51Z"/><path class="cls-2" d="M520.25,54c0,5.58,3.6,8.72,7.76,8.72a7,7,0,0,0,7-5.13l5.82,2.11A12.88,12.88,0,0,1,528,68.76c-8.15,0-14.37-6.33-14.37-14.76s6.22-14.71,14.2-14.71c7.46,0,11.57,4.67,12.71,9.12l-5.93,2.17a6.54,6.54,0,0,0-6.73-5.19C523.85,45.39,520.25,48.41,520.25,54Z"/><path class="cls-2" d="M555,40.14h5.76V46H555V58.9c0,2.45,1.09,3.48,3.54,3.48a13.81,13.81,0,0,0,2.28-.23v5.47a10.39,10.39,0,0,1-4.05.63c-5.13,0-8.32-3.08-8.32-8.27V46h-5.13V40.14h1.42c3,0,4.28-1.88,4.28-4.33V31.65h6Z"/><path class="cls-2" d="M593.9,54c0,8.55-6.1,14.76-14.42,14.76S565.11,62.55,565.11,54s6.1-14.71,14.37-14.71S593.9,45.5,593.9,54Zm-6.67,0c0-5.76-3.65-8.73-7.75-8.73s-7.76,3-7.76,8.73,3.71,8.83,7.76,8.83S587.23,59.81,587.23,54Z"/><path class="cls-2" d="M616.53,46.7a15,15,0,0,0-2.17-.17c-5.13,0-7.47,3-7.47,8.15V67.91h-6.61V40.14h6.44v4.45c1.31-3,4.39-4.79,8-4.79a10.24,10.24,0,0,1,1.77.17Z"/></svg>