<svg id="Layer_1" data-name="Layer 1" xmlns="http://www.w3.org/2000/svg" viewBox="0 0 2085.29 328.34"><defs><style>.cls-1{fill:#006838;}.cls-2{fill:#8dc54b;}.cls-3{fill:#231f20;}</style></defs><title>CC-logo</title><path class="cls-1" d="M74.9,128.35c0,37.35,25.07,58.16,54.87,58.16,27.9,0,43.49-17.5,48.71-35l63.36,19.38c-10.4,41.14-49.19,81.8-112.07,81.8-70,0-126.27-51.53-126.27-124.34C3.5,55,58.37,3.5,127.4,3.5c64.79,0,102.62,39.72,113,81.8l-64.3,19.39c-5.2-18-19.39-35-47.28-35C99,69.71,74.9,90.5,74.9,128.35Z"/><path class="cls-2" d="M343.74,200c0-37.35-25.06-58.16-54.86-58.16-27.9,0-43.49,17.5-48.71,35l-63.36-19.39c10.4-41.14,49.19-81.8,112.07-81.8,70,0,126.27,51.54,126.27,124.35,0,73.31-54.87,124.85-123.91,124.85-64.78,0-102.61-39.72-113-81.8l63.41-19.39c5.2,18,20.27,35,48.17,35C319.62,258.63,343.74,237.84,343.74,200Z"/><path class="cls-3" d="M466.3,164.34c0-36.1,27-57.82,55.79-57.82,28.13,0,44.85,16.56,49.85,35.94l-17.66,5.94C551,135,540.69,124.18,522.09,124.18c-18.28,0-36.57,13.28-36.57,40.16,0,25.94,17.82,39.69,36.73,39.69,18.59,0,29.22-11.87,33-24.38l17.19,5.63C567.41,204,550.53,222,522.25,222,492.4,222,466.3,200.44,466.3,164.34Z"/><path class="cls-3" d="M660.08,181.53c0,23.44-16.72,40.47-39.54,40.47-22.66,0-39.38-17-39.38-40.47,0-23.29,16.72-40.32,39.38-40.32C643.36,141.21,660.08,158.24,660.08,181.53Zm-18.28,0c0-15.79-10-23.91-21.26-23.91-11.09,0-21.25,8.12-21.25,23.91s10.16,24.22,21.25,24.22C631.8,205.75,641.8,197.47,641.8,181.53Z"/><path class="cls-3" d="M677.58,219.66V143.55h17.35v9.69c4.37-7.81,13.91-11.87,22.5-11.87,10,0,18.76,4.53,22.82,13.44,5.94-10,14.84-13.44,24.69-13.44,13.75,0,26.88,8.75,26.88,28.91v49.38h-17.5V173.25c0-8.91-4.54-15.63-14.69-15.63-9.54,0-15.79,7.5-15.79,16.88v45.16H726V173.25c0-8.76-4.38-15.63-14.69-15.63-9.69,0-15.79,7.19-15.79,16.88v45.16Z"/><path class="cls-3" d="M814,219.66V143.55h17.35v9.69c4.37-7.81,13.9-11.87,22.5-11.87,10,0,18.75,4.53,22.81,13.44,5.94-10,14.85-13.44,24.7-13.44,13.75,0,26.87,8.75,26.87,28.91v49.38h-17.5V173.25c0-8.91-4.53-15.63-14.69-15.63-9.53,0-15.78,7.5-15.78,16.88v45.16H862.45V173.25c0-8.76-4.37-15.63-14.69-15.63-9.69,0-15.78,7.19-15.78,16.88v45.16Z"/><path class="cls-3" d="M977.32,221.85c-18.13,0-28.76-13.44-28.76-30.32v-48h18.13v44.7c0,9.37,4.37,17.34,15.31,17.34,10.47,0,15.94-7,15.94-17v-45h18.13v62.2a124.59,124.59,0,0,0,.78,13.91H999.51a55.54,55.54,0,0,1-.63-8.44C995.13,218.1,986.22,221.85,977.32,221.85Z"/><path class="cls-3" d="M1057.64,219.66h-18.13V143.55h17.66v10.16c5-8.75,14.07-12.34,22.5-12.34,18.6,0,27.51,13.44,27.51,30.16v48.13h-18.13v-45c0-9.37-4.22-16.88-15.63-16.88-10.31,0-15.78,8-15.78,18Z"/><path class="cls-3" d="M1138.12,105A11.88,11.88,0,0,1,1150,116.83,11.8,11.8,0,1,1,1138.12,105Zm-8.91,114.71V143.55h18v76.11Z"/><path class="cls-3" d="M1193.6,143.55h15.78v16.1H1193.6V195c0,6.72,3,9.53,9.69,9.53a39.58,39.58,0,0,0,6.25-.62v15c-1.1.47-4.54,1.72-11.1,1.72-14.06,0-22.81-8.44-22.81-22.66V159.65h-14.07v-16.1h3.91c8.12,0,11.72-5.15,11.72-11.87V120.27h16.41Z"/><path class="cls-3" d="M1233,250.45l18.28-39.85-32.51-67h20.48l21.87,48.14,20.48-48.14h19.22l-48.45,106.9Z"/><path class="cls-3" d="M1308,164.49c0-34.53,26.25-58,57.19-58,33.29,0,48,21.41,51.57,37.35l-23.28,7.34c-1.72-7.66-8.75-20.63-28.29-20.63-14.84,0-31.56,10.63-31.56,33.91,0,20.79,15.31,32.82,31.88,32.82,19.22,0,26.88-12.81,29.06-20.78l23.6,6.72c-3.59,15.31-18.28,38.75-52.66,38.75C1333.62,222,1308,199,1308,164.49Z"/><path class="cls-3" d="M1507.86,180.75c0,24.06-18,41.25-41.25,41.25-23.13,0-41.26-17.19-41.26-41.25s18.13-41.1,41.26-41.1C1489.89,139.65,1507.86,156.68,1507.86,180.75Zm-23.75,0c0-13.13-8.44-19.22-17.5-19.22-8.91,0-17.51,6.09-17.51,19.22,0,13,8.6,19.38,17.51,19.38C1475.67,200.13,1484.11,193.87,1484.11,180.75Z"/><path class="cls-3" d="M1546.93,219.66h-23.75V142h23v8.91c4.22-7.35,13.75-10.94,21.72-10.94,19.54,0,28.29,13.91,28.29,30.94v48.76H1572.4V175c0-7.66-4.06-13.44-12.65-13.44-7.82,0-12.82,5.78-12.82,13.59Z"/><path class="cls-3" d="M1639.91,219.66h-23.75V142h23v8.91c4.22-7.35,13.75-10.94,21.72-10.94,19.54,0,28.29,13.91,28.29,30.94v48.76h-23.76V175c0-7.66-4.06-13.44-12.65-13.44-7.82,0-12.82,5.78-12.82,13.59Z"/><path class="cls-3" d="M1779.77,197.31C1776,210.75,1763.68,222,1744,222c-21.41,0-40.48-15.31-40.48-41.41,0-25,18.6-40.94,38.76-40.94,24.07,0,38.91,14.84,38.91,39.85a48.92,48.92,0,0,1-.47,7.34h-54.07c.47,8.75,8.44,15,17.66,15,8.6,0,13.44-4.06,15.63-10.15Zm-21.56-25.78c-.31-5.94-4.38-13.13-15.63-13.13-10,0-15,7.34-15.47,13.13Z"/><path class="cls-3" d="M1814.47,180.9c0,12.35,8.28,19.23,18.13,19.23,9.21,0,14.37-5.79,16.09-11.57l20.94,6.41c-3.44,13.59-16.25,27-37,27-23.13,0-41.73-17-41.73-41.1,0-24.22,18.13-41.25,40.94-41.25,21.41,0,33.91,13.12,37.35,27l-21.25,6.41c-1.72-5.94-6.41-11.56-15.63-11.56C1822.44,161.53,1814.47,168.4,1814.47,180.9Z"/><path class="cls-3" d="M1912.61,142h15.15v20.79h-15.15v29.06c0,6.41,3.43,8.13,8.59,8.13a29.41,29.41,0,0,0,6.25-.78v19.69c-.94.47-4.84,2.19-12.34,2.19-16.1,0-25.95-9.54-25.95-25V162.78h-13.75V142h3.91c8.13,0,12-5.47,12-12.66v-10h21.26Z"/><path class="cls-3" d="M2020.59,180.75c0,24.06-18,41.25-41.26,41.25-23.12,0-41.25-17.19-41.25-41.25s18.13-41.1,41.25-41.1C2002.62,139.65,2020.59,156.68,2020.59,180.75Zm-23.75,0c0-13.13-8.44-19.22-17.51-19.22-8.9,0-17.5,6.09-17.5,19.22,0,13,8.6,19.38,17.5,19.38C1988.4,200.13,1996.84,193.87,1996.84,180.75Z"/><path class="cls-3" d="M2085.29,165.43a32.54,32.54,0,0,0-7.5-.78c-9.54,0-18.13,5.63-18.13,21.1v33.91h-23.75V142h23v10.47c4.06-8.75,13.91-11.25,20.16-11.25a23.43,23.43,0,0,1,6.25.78Z"/></svg>