<svg id="Layer_1" data-name="Layer 1" xmlns="http://www.w3.org/2000/svg" viewBox="0 0 136.29 107.05"><defs><style>.cls-1{fill:#231f20;}.cls-1,.cls-2{stroke:#231f20;stroke-miterlimit:10;stroke-width:3px;}.cls-2{fill:none;}</style></defs><title>CC-logo</title><path class="cls-1" d="M24.62,41.93c0,12.09,8.12,18.83,17.77,18.83,9,0,14.08-5.67,15.77-11.34L78.67,55.7C75.31,69,62.75,82.19,42.39,82.19,19.72,82.19,1.5,65.5,1.5,41.93,1.5,18.19,19.27,1.5,41.62,1.5c21,0,33.23,12.86,36.59,26.49L57.39,34.26c-1.68-5.81-6.28-11.32-15.31-11.32C32.43,22.94,24.62,29.67,24.62,41.93Z"/><path class="cls-2" d="M111.67,65.12c0-12.09-8.12-18.83-17.77-18.83-9,0-14.08,5.67-15.77,11.33L57.62,51.35C61,38,73.55,24.86,93.9,24.86c22.67,0,40.89,16.69,40.89,40.26,0,23.74-17.76,40.43-40.12,40.43-21,0-33.22-12.86-36.59-26.49l20.53-6.28c1.69,5.82,6.57,11.33,15.6,11.33C103.86,84.11,111.67,77.38,111.67,65.12Z"/></svg>