<?xml version="1.0" encoding="utf-8"?>
<!-- Generator: Adobe Illustrator 24.1.1, SVG Export Plug-In . SVG Version: 6.00 Build 0)  -->
<svg version="1.1" id="Layer_1" xmlns="http://www.w3.org/2000/svg" xmlns:xlink="http://www.w3.org/1999/xlink" x="0px" y="0px"
	 viewBox="0 0 629.9 104.1" style="enable-background:new 0 0 629.9 104.1;" xml:space="preserve">
<style type="text/css">
	.logo0{fill:#006838;}
	.logo1{fill:#8DC54B;}
</style>
<path class="logo0" d="M23.1,40.4c0,12.1,8.1,18.8,17.8,18.8c9,0,14.1-5.7,15.8-11.3l20.5,6.3c-3.4,13.3-15.9,26.5-36.3,26.5
	C18.2,80.7,0,64,0,40.4C0,16.7,17.8,0,40.1,0c21,0,33.2,12.9,36.6,26.5l-20.8,6.3c-1.7-5.8-6.3-11.3-15.3-11.3
	C30.9,21.4,23.1,28.2,23.1,40.4z"/>
<path class="logo1" d="M110.2,63.6c0-12.1-8.1-18.8-17.8-18.8c-9,0-14.1,5.7-15.8,11.3l-20.5-6.3c3.4-13.3,15.9-26.5,36.3-26.5
	c22.7,0,40.9,16.7,40.9,40.3c0,23.7-17.8,40.4-40.1,40.4c-21,0-33.2-12.9-36.6-26.5l20.5-6.3c1.7,5.8,6.6,11.3,15.6,11.3
	C102.4,82.6,110.2,75.9,110.2,63.6z"/>
<path class="logo0" d="M154.1,47.8c0-12.6,9.6-21.1,20.9-21.1c12.1,0,17.5,7.8,18.8,13.6l-8.5,2.7c-0.6-2.8-3.2-7.5-10.3-7.5
	c-5.4,0-11.5,3.9-11.5,12.4c0,7.6,5.6,12,11.6,12c7,0,9.8-4.7,10.6-7.6l8.6,2.5c-1.3,5.6-6.7,14.1-19.2,14.1
	C163.5,68.8,154.1,60.4,154.1,47.8z"/>
<path class="logo0" d="M218.8,26.6c11.4,0,21,8.3,21,21.1s-9.6,21-21,21s-21-8.3-21-21S207.4,26.6,218.8,26.6z M218.8,59.9
	c5.6,0,11.6-3.8,11.6-12.2s-6-12.3-11.6-12.3s-11.7,3.8-11.7,12.3S213.2,59.9,218.8,59.9z"/>
<path class="logo0" d="M270.3,27.5h9.6l-14.8,40.4h-9.3L241,27.5h9.9l9.7,28.4L270.3,27.5z"/>
<path class="logo0" d="M284.9,67.9V27.5h9.1v40.4H284.9z"/>
<path class="logo0" d="M302.7,67.9V27.5h14.6c12.1,0,20.3,7.7,20.3,20.2s-8.1,20.2-20.4,20.2H302.7z M316.9,59.4
	c6.2,0,11.3-3.6,11.3-11.7S323.1,36,316.9,36h-5.3v23.4L316.9,59.4z"/>
<path class="logo1" d="M342.1,47.7c0-13.2,9.9-21.1,20.4-21.1c10.3,0,16.4,6.1,18.2,13.1l-6.4,2.2c-1.2-4.9-5-8.8-11.8-8.8
	s-13.3,4.8-13.3,14.7c0,9.5,6.5,14.5,13.4,14.5c5.6,0.2,10.5-3.5,12-8.9l6.3,2.1c-1.8,6.8-8,13.4-18.3,13.4
	C351.6,68.8,342.1,60.9,342.1,47.7z"/>
<path class="logo1" d="M412.8,54c0,8.5-6.1,14.8-14.4,14.8S384,62.5,384,54s6.1-14.7,14.4-14.7S412.8,45.5,412.8,54z M406.1,54
	c0-5.8-3.6-8.7-7.8-8.7s-7.8,3-7.8,8.7s3.7,8.8,7.8,8.8S406.1,59.8,406.1,54z"/>
<path class="logo1" d="M425.8,67.9h-6.6V40.1h6.4v3.7c1.7-2.9,4.9-4.6,8.2-4.5c6.8,0,10,4.9,10,11v17.6h-6.6V51.5
	c0-3.4-1.5-6.2-5.7-6.2c-3.8,0-5.8,2.9-5.8,6.6L425.8,67.9z"/>
<path class="logo1" d="M458.5,67.9h-6.6V40.1h6.4v3.7c1.7-2.9,4.9-4.6,8.2-4.5c6.8,0,10,4.9,10,11v17.6h-6.6V51.5
	c0-3.4-1.5-6.2-5.7-6.2c-3.8,0-5.8,2.9-5.8,6.6L458.5,67.9z"/>
<path class="logo1" d="M509.1,60c-1.5,4.8-5.9,8.8-12.5,8.8c-7.5,0-14.2-5.5-14.2-14.9c0-8.8,6.5-14.6,13.5-14.6
	c8.5,0,13.6,5.6,13.6,14.4c0,0.7,0,1.4-0.2,2.1H489c0.1,4.1,3.5,7.3,7.6,7.2c4,0,6-2.1,7-4.8L509.1,60z M502.8,51
	c-0.1-3.3-2.3-6.2-6.9-6.2c-3.5-0.1-6.5,2.6-6.8,6.2H502.8z"/>
<path class="logo1" d="M520.3,54c0,5.6,3.6,8.7,7.8,8.7c3.2,0.1,6.1-2,7-5.1l5.8,2.1c-1.7,5.6-7,9.3-12.8,9.1
	c-8.2,0-14.4-6.3-14.4-14.8s6.2-14.7,14.2-14.7c7.5,0,11.6,4.7,12.7,9.1l-5.9,2.2c-0.7-3.2-3.5-5.4-6.7-5.2
	C523.8,45.4,520.3,48.4,520.3,54z"/>
<path class="logo1" d="M555,40.1h5.8V46H555v12.9c0,2.5,1.1,3.5,3.5,3.5c0.8,0,1.5-0.1,2.3-0.2v5.5c-1.3,0.5-2.7,0.7-4,0.6
	c-5.1,0-8.3-3.1-8.3-8.3V46h-5.1v-5.9h1.4c3,0,4.3-1.9,4.3-4.3v-4.2h6L555,40.1z"/>
<path class="logo1" d="M593.9,54c0,8.5-6.1,14.8-14.4,14.8s-14.4-6.2-14.4-14.8s6.1-14.7,14.4-14.7S593.9,45.5,593.9,54z M587.2,54
	c0-5.8-3.7-8.7-7.8-8.7s-7.8,3-7.8,8.7s3.7,8.8,7.8,8.8S587.2,59.8,587.2,54L587.2,54z"/>
<path class="logo1" d="M616.5,46.7c-0.7-0.1-1.4-0.2-2.2-0.2c-5.1,0-7.5,3-7.5,8.1v13.2h-6.6V40.1h6.4v4.5c1.3-3,4.4-4.8,8-4.8
	c0.6,0,1.2,0.1,1.8,0.2L616.5,46.7z"/>
</svg>
