<?xml version="1.0" encoding="utf-8"?>
<!-- Generator: Adobe Illustrator 24.1.1, SVG Export Plug-In . SVG Version: 6.00 Build 0)  -->
<svg version="1.1" id="layer1c" xmlns="http://www.w3.org/2000/svg" xmlns:xlink="http://www.w3.org/1999/xlink" x="0px" y="0px"
	 viewBox="0 0 115.3 101.7" style="enable-background:new 0 0 115.3 101.7;" xml:space="preserve">
<style type="text/css">
	.stc0{opacity:0.1;}
	.stc1{fill:#231D21;}
	.stc2{fill:#31282E;}
	.stc3{fill:#EFB185;}
	.stc4{fill:#CEE2EA;}
	.stc5{fill:#231202;}
	.stc6{fill:#BAD1DE;}
	.stc7{fill:#DDEDF2;}
	.stc8{fill:#CD2F30;}
	.stc9{fill:#BA252C;}
	.stc10{fill:#301806;}
	.stc11{fill:#E8A476;}
	.stc12{fill:#DB9669;}
	.stc13{fill:#F1B287;}
	.stc14{fill:#888888;}
	.stc15{fill:#BDC4C5;}
	.stc16{fill:#FFE8A6;}
	.stc17{fill:#BEAF84;}
	.stc18{fill:#E6DAB0;}
	.stc19{fill:#56320F;}
	.stc20{fill:#4D2D0D;}
	.stc21{fill:#361F09;}
	.stc22{fill:#6B4125;}
	.stc23{fill:#885937;}
	.stc24{fill:#936F44;}
	.stc25{fill:#A59B7E;}
	.stc26{fill:#C1B99B;}
	.stc27{fill:#D3CBAF;}
	.stc28{fill:#CC720E;}
	.stc29{fill:#DC8010;}
	.stc30{fill:#D1C195;}
	.stc31{fill:#E0D1AA;}
	.stc32{fill:#9E9E9E;}
	.stc33{fill:#646464;}
	.stc34{fill:#F4903C;}
	.stc35{fill:#90AA24;}
	.stc36{fill:#6D8215;}
	.stc37{fill:#51AE4B;}
	.stc38{fill:#624805;}
	.stc39{fill:#7C9920;}
	.stc40{fill:#F4DD26;}
	.stc41{fill:#5B462E;}
	.stc42{fill:#E5C613;}
	.stc43{fill:#2B0D04;}
	.stc44{fill:#F18B03;}
	.stc45{fill:#EC6665;}
	.stc46{fill:#D75150;}
	.stc47{fill:#FF8183;}
	.stc48{fill:#EFF3FC;}
	.stc49{fill:#F1B35D;}
	.stc50{fill:#FCD799;}
	.stc51{fill:#A6A6A6;}
</style>
<g class="stc0">
	<path d="M5.9,61.1c-4.5,2.6-4.5,6.7-0.1,9.3s11.6,2.6,16.1,0s4.5-6.7,0.1-9.3S10.4,58.5,5.9,61.1z"/>
</g>
<path d="M26.1,62.6c0.1,0.9,0.4,1.7,0.9,2.4c0.7,0.8,3.8,2.7,3.6,3.6s-2.4,1-3.9-0.4s-1.8-1.6-2.4-1.7c-0.8-0.2-1.2-1-1.1-1.7
	c0-0.2,0.1-0.3,0.2-0.4C24.4,63.9,25.3,63.3,26.1,62.6z"/>
<path class="stc1" d="M26.8,27.5c0,0,2.6,12.7,1.2,19.7c0,0-0.6,5.5-1,7.1s-0.3,9.8-0.3,9.8s-2.3,1-3.5-0.1c0,0-1.5-8.5,0.1-14
	c0,0-2-10.4-2-13.8c0-2.1-0.1-4.2-0.4-6.3L26.8,27.5z"/>
<path class="stc2" d="M28,47.2c0,0-0.6,5.5-1,7.1s-0.3,9.8-0.3,9.8c-0.3,0.1-0.6,0.2-0.9,0.3c-0.2-2.5-0.5-6.8-0.6-7.8
	c-0.2-1.4,1.4-9,1.5-11.8s-3-13.4-3-13.4l0.9-3l2.2-0.9C26.8,27.5,29.4,40.2,28,47.2z"/>
<path d="M19,65.8c0.1,0.8,0.3,1.7,0.8,2.4c0.7,0.8,3.8,2.8,3.5,3.7s-2.5,0.9-3.9-0.5s-1.8-1.7-2.4-1.8c-0.8-0.2-1.2-1-1-1.8
	c0-0.1,0.1-0.3,0.2-0.4C17.3,67,18.2,66.5,19,65.8z"/>
<path class="stc2" d="M16.3,31.7c0,0-2.5,3.6-1.3,10.9l0.5,8.7c0,0-1.7,2.8-0.5,11.3l1.1,5.1c0,0,1.4,1,3-1.1c0,0-0.1-12.6,0.5-14.5
	c1.4-4.2,2.5-8.6,3.2-13c0.3-2.1,3.5-5.5,3.3-7.3L16.3,31.7z"/>
<path class="stc1" d="M16.2,67.7l-1.1-5.1c-1.2-8.5,0.5-11.3,0.5-11.3L15,42.6c-1.2-7.3,1.3-10.9,1.3-10.9h0.3l2.7,1.8
	c0,0-2.7,13.8-2.5,17.4s-0.8,7.6-0.7,9.8c0.1,1.4,0.7,5,1.2,7.3C16.9,68,16.5,67.9,16.2,67.7z"/>
<path class="stc3" d="M39.6,25.6c0,0,2.1,1.7,3.4,1.7s3.2-0.5,2.5-1s-2.5-0.9-2.5-1.4s1.2-0.1,0.7-0.5s-1.5-0.8-3.8-0.2
	C39.6,24.6,39.4,25.1,39.6,25.6z"/>
<path class="stc4" d="M30.1,10.6c-0.6-0.5-1.5-0.4-1.9,0.2c-0.2,0.2-0.3,0.5-0.3,0.8c-0.2,2.6,0.2,5.2,0.9,7.7c0,0,1.2,4.7,2.2,5.1
	s9.1,2.1,9.1,2.1c-0.1-0.9,0.1-1.8,0.6-2.6c0,0-6.9-2.4-7.3-3.1S31.5,11.4,30.1,10.6z"/>
<rect x="22" y="8.1" transform="matrix(6.313894e-02 -0.998 0.998 6.313894e-02 13.0279 33.301)" class="stc5" width="4.5" height="3.3"/>
<path class="stc4" d="M18,14.4c0,0,2.8-3.8,11.9-3.5c0,0,1.5-0.4,0.7,4.2c0,0.9,0.3,1.8,0.8,2.6c0.4,0.7,1.3,3.2-1.8,5.5
	c0,0-1.6,4-0.8,6.8c0.8,2.5-5.4,4-10.4,2.8c-1.1-0.2-1.9-1.3-1.7-2.4c0-0.2,0.1-0.4,0.2-0.6c0.9-2.1,3-5.4,2.5-9.5S17,16.4,18,14.4z
	"/>
<path class="stc6" d="M18,14.3c-1,1.9,1.2,1.7,1.6,5.8s-1.7,7.6-2.6,9.6s0.4,2.8,1,2.9c0.9,0.2,1.7,0.4,2.6,0.5
	c-1.2-4.1,2.3-10.9,3-14.7c0.4-2.4-0.7-4.8-2.8-6.2C19.8,12.8,18.8,13.4,18,14.3z"/>
<path class="stc7" d="M28.8,30c-0.9-2.9,0.8-6.8,0.8-6.8c3.1-2.4,2.2-4.9,1.8-5.5c-0.5-0.8-0.8-1.7-0.8-2.6c0.3-1.1,0.3-2.3,0.1-3.4
	c-0.6,0.5-1.6,0.2-1.6,2.3c0,1.3-0.7,3.1-2.6,2.8s-1.3,3-1.3,3.9c-0.1,6.2-3.7,8.6-3.2,12.5C25.8,33.3,29.4,32,28.8,30z"/>
<path class="stc8" d="M20.9,12.3c0,0,4.6,3.5,4.3,8.9l-0.9,0.2c0,0,0.5-5.6-4.3-8.6L20.9,12.3z"/>
<path class="stc8" d="M28.2,11c2,2.3,3,5.3,2.7,8.4l-0.5-0.1c0,0,0.4-5.1-3-7.9L28.2,11z"/>
<path class="stc8" d="M24.2,20.2l6.7-2c0,0,0.7,2.6-1.4,10.1c-0.2,3.7-0.5,7.5-1.1,11.2c0,0-2.4,3.7-8.3,2.8
	c-1.8-0.2-3.5-0.9-4.9-2.1c0,0-1.2-8.5,4.4-13.6C19.6,26.6,24.4,27.7,24.2,20.2z"/>
<path class="stc9" d="M18.7,26.1c-5.6,5-4.1,14-4.1,14c1.1,0.8,2.3,1.4,3.6,1.8c-0.4-4,0.2-10.8,3.9-12.7c3.3-1.8,3.9-7,4-9.5
	l-1.8,0.6C24.4,27.7,18.7,26.1,18.7,26.1z"/>
<path class="stc10" d="M28.9,2.7c-1.1,3-1.9,6.2-2.4,9.4c-0.1,0.6,0.4,0.1,1.6-0.1c0,0,4.8-3.7,2.5-9.1c-1.2-2.5-4.1-3.6-6.6-2.4
	c-0.2,0.1-0.5,0.3-0.7,0.4L28.9,2.7z"/>
<path class="stc11" d="M29.5,8.9c-1,1-1.4,2.5-1.1,3.9c0.2,0.6,0.5,2.9-2.9,1.7c0,0-3.5-2.1-2.3-3.1c0.8-0.7,1.5-1.7,0.7-5.5
	L29.5,8.9z"/>
<path class="stc12" d="M23.1,11.4c-0.1,0.1-0.2,0.2-0.2,0.4c2,0.5,4.1,0,5.7-1.3l-4-4.1l0,0c0,0-0.2,0.1-0.6,0.4
	C24.6,9.9,23.9,10.8,23.1,11.4z"/>
<path class="stc13" d="M29.3,2.3c0,0,0.9,0.4,0.8,3.1c0,0.3,0.5,0.8,0.5,1.5s0,3.9-1.8,4.1c-2.5,0-4.7-1.7-5.3-4.1
	C22.7,3.8,25.6-0.1,29.3,2.3z"/>
<path class="stc5" d="M29.1,3.3c0,0-4.5-0.5-5.3,7.5V15c-5.4-4.2-3-10.6-3-10.6s1.2-5,5.4-4C26.2,0.3,28.9,1.6,29.1,3.3z"/>
<path class="stc10" d="M29.1,3.3c0,0,1.4-0.2,1.9,2.4c0,0,0.2-7.2-6.7-5.5C24.3,0.3,28.3,0.8,29.1,3.3z"/>
<path class="stc13" d="M25.1,7.6c0,0-0.4-1.6-1.3-1.2c-0.3,0.1-0.6,0.4-0.2,1.3s1.2,1.6,1.9,1.5L25.1,7.6z"/>
<path class="stc14" d="M34.5,22c0,0,0.3,5.4,5.4,5.3c2.8,0.2,5.1-1.9,5.3-4.7c0-0.2,0-0.5,0-0.7L34.5,22z"/>
<path class="stc15" d="M43.5,19.7c2.1,1.2,2.1,3.1,0.1,4.4c-2.4,1.2-5.1,1.3-7.5,0.1C34,23,34,21,36,19.8
	C38.4,18.6,41.2,18.6,43.5,19.7z"/>
<path class="stc16" d="M43.6,24.1l0.5-0.3c0.6-1,0.3-2.1-1.1-2.8c-2-1-4.4-1-6.4,0.1c-1.3,0.8-1.6,1.9-1,2.8l0.5,0.3
	C38.4,25.4,41.2,25.3,43.6,24.1z"/>
<path class="stc3" d="M30.6,26.6c0,0,2.6,0.8,3.8,0.3s2.7-1.6,2-1.9s-2.6,0.2-2.8-0.3s1-0.6,0.4-0.8s-1.7-0.1-3.6,1.3
	C30.1,25.7,30.2,26.3,30.6,26.6z"/>
<path class="stc4" d="M18.8,14c0,0,2-0.7,2.9,2.3s2.6,8,2.6,8l0.4,0.7l6.6-0.5c-0.5,0.8-0.4,2,0.4,2.6c0,0-8.2,3.1-10.4,0.5
	C21.3,27.7,15.5,14.7,18.8,14z"/>
<g class="stc0">
	<polygon points="0,83.6 31.1,101.7 94.5,65.1 63.4,47 	"/>
</g>
<g>
	<polygon class="stc17" points="29,73.2 29.1,100.4 31.1,101.6 31,74.4 	"/>
	<polygon class="stc18" points="31,74.4 31.1,101.6 33.1,100.4 33,73.2 	"/>
	<polygon class="stc19" points="29,73.2 31,74.4 33,73.2 31,72.1 	"/>
</g>
<g>
	<polygon class="stc17" points="90.3,37.7 90.4,64.9 92.4,66 92.3,38.8 	"/>
	<polygon class="stc18" points="92.3,38.8 92.4,66 94.4,64.9 94.3,37.7 	"/>
	<polygon class="stc19" points="90.3,37.7 92.3,38.8 94.3,37.7 92.3,36.5 	"/>
</g>
<g>
	<polygon class="stc17" points="0.1,56.6 0.2,83.8 2.2,85 2.1,57.8 	"/>
	<polygon class="stc18" points="2.1,57.8 2.2,85 4.2,83.8 4.1,56.6 	"/>
	<polygon class="stc19" points="0.1,56.6 2.1,57.8 4.1,56.6 2.1,55.5 	"/>
</g>
<g>
	<polygon class="stc20" points="61.4,19.8 61.5,47 63.5,48.1 63.4,21 	"/>
	<polygon class="stc21" points="63.4,21 63.5,48.1 65.5,47 65.4,19.8 	"/>
	<polygon class="stc19" points="61.4,19.8 63.4,21 65.4,19.8 63.4,18.6 	"/>
</g>
<g>
	<polygon class="stc22" points="0,54.3 0,62.5 31.1,80.5 31.1,72.4 	"/>
	<polygon class="stc23" points="31.1,72.4 31.1,80.5 94.5,43.9 94.5,35.8 	"/>
	<polygon class="stc24" points="0,54.3 31.1,72.4 94.5,35.8 63.4,17.7 	"/>
</g>
<path class="stc23" d="M63.6,26.8c3.5,2,3.5,5.2,0,7.2c-3.9,2-8.5,2-12.5,0c-3.5-2-3.5-5.2,0-7.2C55.1,24.9,59.7,24.9,63.6,26.8z"/>
<path class="stc23" d="M34.3,53.4c4.2,2.4,4.2,6.3,0,8.7c-4.7,2.4-10.3,2.4-15,0c-4.2-2.4-4.2-6.3,0-8.7C24,51,29.6,51,34.3,53.4z"/>
<path class="stc23" d="M51.5,36.1c4.6,2.7,4.7,7,0.1,9.7s-12.1,2.7-16.7,0s-4.7-7-0.1-9.7S46.8,33.4,51.5,36.1z"/>
<path class="stc25" d="M52.9,36.1c4.6,2.7,4.7,7,0.1,9.7s-12.1,2.7-16.7,0s-4.7-7,0-9.7S48.3,33.4,52.9,36.1z"/>
<path class="stc26" d="M52.9,35c4.6,2.7,4.7,7,0.1,9.7s-12.1,2.7-16.7,0s-4.7-7,0-9.7S48.3,32.4,52.9,35z"/>
<path class="stc27" d="M53,44.7c4.2-2.4,4.5-6.2,1.1-8.9c-4.4-1.2-9.7-0.7-13.3,1.4c-4.2,2.4-4.5,6.2-1.1,8.9
	C44,47.3,49.3,46.8,53,44.7z"/>
<path class="stc25" d="M44.6,46.2c-2.6,0.1-5.2-0.6-7.5-1.8c-2.1-1.2-3.2-2.8-3.2-4.6s1.1-3.3,3.2-4.5c2.3-1.2,4.9-1.9,7.5-1.8
	c2.6,0,5.2,0.6,7.5,1.8c2.1,1.2,3.2,2.8,3.2,4.6s-1.1,3.3-3.2,4.5C49.8,45.6,47.2,46.3,44.6,46.2z M44.5,34.2
	c-2.5,0-4.9,0.6-7.1,1.8c-1.8,1-2.8,2.4-2.8,3.9s1,2.9,2.9,3.9c2.2,1.2,4.6,1.8,7.1,1.7c2.5,0.1,4.9-0.5,7.1-1.7
	c1.8-1.1,2.8-2.4,2.8-3.9s-1-2.9-2.9-3.9C49.5,34.8,47,34.2,44.5,34.2L44.5,34.2z"/>
<path class="stc28" d="M41.1,35c0.6,0.2,1,0.9,0.8,1.5c-0.1,0.4-0.4,0.7-0.8,0.8c-1.3,0.6-2.7,0.6-4,0c-1.1-0.6-1.1-1.7,0-2.3
	C38.4,34.4,39.9,34.4,41.1,35z"/>
<path class="stc29" d="M41.1,34.5c1.1,0.6,1.1,1.7,0,2.3c-1.3,0.7-2.7,0.7-4,0c-0.6-0.2-1-0.9-0.8-1.5c0.1-0.4,0.4-0.7,0.8-0.8
	C38.4,33.9,39.9,33.9,41.1,34.5z"/>
<path class="stc30" d="M41.1,34c1.1,0.6,1.1,1.7,0,2.3c-1.3,0.7-2.7,0.7-4,0c-0.6-0.2-1-0.9-0.8-1.5c0.1-0.4,0.4-0.7,0.8-0.8
	C38.4,33.3,39.9,33.3,41.1,34z"/>
<path class="stc31" d="M41.1,33.5c0.6,0.2,1,0.9,0.8,1.5c-0.1,0.4-0.4,0.7-0.8,0.8c-1.3,0.6-2.7,0.6-4,0c-1.1-0.6-1.1-1.7,0-2.3
	C38.4,32.8,39.9,32.8,41.1,33.5z"/>
<path class="stc28" d="M41.1,33c0.6,0.2,1,0.9,0.8,1.5c-0.1,0.4-0.4,0.6-0.8,0.8c-1.3,0.6-2.7,0.6-4,0c-0.6-0.2-1-0.9-0.8-1.5
	c0.1-0.4,0.4-0.6,0.8-0.8C38.4,32.4,39.9,32.4,41.1,33z"/>
<path class="stc29" d="M41.1,32.4c1.1,0.6,1.1,1.7,0,2.3c-1.3,0.7-2.7,0.7-4,0c-0.6-0.2-1-0.9-0.8-1.5c0.1-0.4,0.4-0.7,0.8-0.8
	C38.4,31.8,39.9,31.8,41.1,32.4z"/>
<path class="stc28" d="M47.5,34.8c0.6,0.2,1,0.9,0.8,1.5c-0.1,0.4-0.4,0.6-0.8,0.8c-1.3,0.6-2.7,0.6-4,0c-0.6-0.2-1-0.9-0.8-1.5
	c0.1-0.4,0.4-0.6,0.8-0.8C44.8,34.1,46.3,34.1,47.5,34.8z"/>
<path class="stc29" d="M47.5,34.3c1.1,0.6,1.1,1.7,0,2.3c-1.3,0.6-2.7,0.6-4,0c-0.6-0.2-1-0.9-0.7-1.6c0.1-0.3,0.4-0.6,0.7-0.7
	C44.8,33.6,46.3,33.6,47.5,34.3z"/>
<path class="stc30" d="M47.5,33.7c0.6,0.2,1,0.9,0.8,1.5c-0.1,0.4-0.4,0.7-0.8,0.8c-1.3,0.6-2.7,0.6-4,0c-0.6-0.2-1-0.9-0.7-1.6
	c0.1-0.3,0.4-0.6,0.7-0.7C44.8,33.1,46.3,33.1,47.5,33.7z"/>
<path class="stc31" d="M47.5,33.2c0.6,0.2,1,0.9,0.8,1.5c-0.1,0.4-0.4,0.6-0.8,0.8c-1.3,0.6-2.7,0.6-4,0c-0.6-0.2-1-0.9-0.8-1.5
	c0.1-0.4,0.4-0.6,0.8-0.8C44.8,32.6,46.3,32.6,47.5,33.2z"/>
<path class="stc28" d="M47.5,32.7c1.1,0.6,1.1,1.7,0,2.3c-1.3,0.6-2.7,0.6-4,0c-0.6-0.2-1-0.9-0.7-1.6c0.1-0.3,0.4-0.6,0.7-0.7
	C44.8,32.1,46.3,32.1,47.5,32.7z"/>
<path class="stc29" d="M47.5,32.2c0.6,0.2,1,0.9,0.8,1.5c-0.1,0.4-0.4,0.7-0.8,0.8c-1.3,0.6-2.7,0.6-4,0c-0.6-0.2-1-0.9-0.7-1.6
	c0.1-0.3,0.4-0.6,0.7-0.7C44.8,31.5,46.3,31.5,47.5,32.2z"/>
<path class="stc28" d="M53.1,36.2c1.1,0.6,1.1,1.7,0,2.3c-1.3,0.6-2.7,0.6-4,0c-0.6-0.2-1-0.9-0.7-1.6c0.1-0.3,0.4-0.6,0.7-0.7
	C50.4,35.5,51.9,35.5,53.1,36.2z"/>
<path class="stc29" d="M53.1,35.6c0.6,0.2,1,0.9,0.8,1.5c-0.1,0.4-0.4,0.7-0.8,0.8c-1.3,0.6-2.7,0.6-4,0c-0.6-0.2-1-0.9-0.7-1.6
	c0.1-0.3,0.4-0.6,0.7-0.7C50.4,35,51.9,35,53.1,35.6z"/>
<path class="stc30" d="M53.1,35.1c0.6,0.2,1,0.9,0.8,1.5c-0.1,0.4-0.4,0.6-0.8,0.8c-1.3,0.6-2.7,0.6-4,0c-0.6-0.2-1-0.9-0.8-1.5
	c0.1-0.4,0.4-0.6,0.8-0.8C50.4,34.5,51.9,34.5,53.1,35.1z"/>
<path class="stc31" d="M53.1,34.6c1.1,0.6,1.1,1.7,0,2.3c-1.3,0.6-2.7,0.6-4,0c-0.6-0.2-1-0.9-0.7-1.6c0.1-0.3,0.4-0.6,0.7-0.7
	C50.4,33.9,51.9,33.9,53.1,34.6z"/>
<path class="stc28" d="M53.1,34.1c0.6,0.2,1,0.9,0.8,1.5c-0.1,0.4-0.4,0.7-0.8,0.8c-1.3,0.6-2.7,0.6-4,0c-0.6-0.2-1-0.9-0.7-1.6
	c0.1-0.3,0.4-0.6,0.7-0.7C50.4,33.4,51.9,33.4,53.1,34.1z"/>
<path class="stc29" d="M53.1,33.5c0.6,0.2,1,0.9,0.8,1.5c-0.1,0.4-0.4,0.7-0.8,0.8c-1.3,0.6-2.7,0.6-4,0c-0.6-0.2-1-0.9-0.7-1.6
	c0.1-0.3,0.4-0.6,0.7-0.7C50.4,32.9,51.9,32.9,53.1,33.5z"/>
<path class="stc28" d="M38.1,38.8c0.6,0.2,1,0.9,0.8,1.5c-0.1,0.4-0.4,0.7-0.8,0.8c-1.3,0.6-2.7,0.6-4,0c-0.6-0.2-1-0.9-0.7-1.6
	c0.1-0.3,0.4-0.6,0.7-0.7C35.3,38.1,36.8,38.1,38.1,38.8z"/>
<path class="stc29" d="M38.1,38.2c0.6,0.2,1,0.9,0.8,1.5c-0.1,0.4-0.4,0.6-0.8,0.8c-1.3,0.6-2.7,0.6-4,0c-0.6-0.2-1-0.9-0.8-1.5
	c0.1-0.4,0.4-0.6,0.8-0.8C35.3,37.6,36.8,37.6,38.1,38.2z"/>
<path class="stc30" d="M38.1,37.7c1.1,0.6,1.1,1.7,0,2.3c-1.3,0.6-2.7,0.6-4,0c-0.6-0.2-1-0.9-0.7-1.6c0.1-0.3,0.4-0.6,0.7-0.7
	C35.3,37.1,36.8,37.1,38.1,37.7z"/>
<path class="stc31" d="M38.1,37.2c0.6,0.2,1,0.9,0.8,1.5c-0.1,0.4-0.4,0.7-0.8,0.8c-1.3,0.6-2.7,0.6-4,0c-0.6-0.2-1-0.9-0.7-1.6
	c0.1-0.3,0.4-0.6,0.7-0.7C35.3,36.6,36.8,36.6,38.1,37.2z"/>
<path class="stc28" d="M38.1,36.7c0.6,0.2,1,0.9,0.8,1.5c-0.1,0.4-0.4,0.6-0.8,0.8c-1.3,0.6-2.7,0.6-4,0c-0.6-0.2-1-0.9-0.8-1.5
	c0.1-0.4,0.4-0.6,0.8-0.8C35.3,36,36.8,36,38.1,36.7z"/>
<path class="stc29" d="M38.1,36.2c1.1,0.6,1.1,1.7,0,2.3c-1.3,0.6-2.7,0.6-4,0c-0.6-0.2-1-0.9-0.7-1.6c0.1-0.3,0.4-0.6,0.7-0.7
	C35.3,35.5,36.8,35.5,38.1,36.2z"/>
<path class="stc28" d="M46.8,39c0.6,0.2,1,0.9,0.8,1.5c-0.1,0.4-0.4,0.7-0.8,0.8c-1.3,0.6-2.7,0.6-4,0c-0.6-0.2-1-0.9-0.7-1.6
	c0.1-0.3,0.4-0.6,0.7-0.7C44,38.3,45.5,38.3,46.8,39z"/>
<path class="stc29" d="M46.8,38.5c0.6,0.2,1,0.9,0.8,1.5c-0.1,0.4-0.4,0.6-0.8,0.8c-1.3,0.6-2.7,0.6-4,0c-0.6-0.2-1-0.9-0.8-1.5
	c0.1-0.4,0.4-0.6,0.8-0.8C44,37.9,45.5,37.9,46.8,38.5z"/>
<path class="stc30" d="M46.8,38c1.1,0.6,1.1,1.7,0,2.3c-1.3,0.6-2.7,0.6-4,0c-0.6-0.2-1-0.9-0.7-1.6c0.1-0.3,0.4-0.6,0.7-0.7
	C44,37.4,45.5,37.4,46.8,38z"/>
<path class="stc31" d="M46.8,37.5c0.6,0.2,1,0.9,0.8,1.5c-0.1,0.4-0.4,0.7-0.8,0.8c-1.3,0.6-2.7,0.6-4,0c-0.6-0.2-1-0.9-0.7-1.6
	c0.1-0.3,0.4-0.6,0.7-0.7C44,36.8,45.5,36.8,46.8,37.5z"/>
<path class="stc28" d="M46.8,36.9c0.6,0.2,1,0.9,0.8,1.5c-0.1,0.4-0.4,0.7-0.8,0.8c-1.3,0.6-2.7,0.6-4,0c-0.6-0.2-1-0.9-0.7-1.6
	c0.1-0.3,0.4-0.6,0.7-0.7C44,36.3,45.5,36.3,46.8,36.9z"/>
<path class="stc29" d="M46.8,36.4c1.1,0.6,1.1,1.7,0,2.3c-1.3,0.6-2.7,0.6-4,0c-0.6-0.2-1-0.9-0.7-1.6c0.1-0.3,0.4-0.6,0.7-0.7
	C44,35.8,45.5,35.8,46.8,36.4z"/>
<path class="stc28" d="M41.1,42.5c0.6,0.2,1,0.9,0.8,1.5c-0.1,0.4-0.4,0.7-0.8,0.8c-1.3,0.6-2.7,0.6-4,0c-1.1-0.6-1.1-1.7,0-2.3
	C38.4,41.9,39.9,41.9,41.1,42.5z"/>
<path class="stc29" d="M41.1,42c1.1,0.6,1.1,1.7,0,2.3c-1.3,0.7-2.7,0.7-4,0c-0.6-0.2-1-0.9-0.8-1.5c0.1-0.4,0.4-0.7,0.8-0.8
	C38.4,41.4,39.9,41.4,41.1,42z"/>
<path class="stc30" d="M41.1,41.5c0.6,0.2,1,0.9,0.8,1.5c-0.1,0.4-0.4,0.7-0.8,0.8c-1.3,0.7-2.7,0.7-4,0c-0.6-0.2-1-0.9-0.8-1.5
	c0.1-0.4,0.4-0.7,0.8-0.8C38.4,40.8,39.9,40.8,41.1,41.5z"/>
<path class="stc31" d="M41.1,41c0.6,0.2,1,0.9,0.8,1.5c-0.1,0.4-0.4,0.7-0.8,0.8c-1.3,0.7-2.7,0.7-4,0c-1.1-0.6-1.1-1.7,0-2.3
	C38.4,40.3,39.9,40.3,41.1,41z"/>
<path class="stc28" d="M41.1,40.5c0.6,0.2,1,0.9,0.8,1.5c-0.1,0.4-0.4,0.6-0.8,0.8c-1.3,0.6-2.7,0.6-4,0c-0.6-0.2-1-0.9-0.8-1.5
	c0.1-0.4,0.4-0.6,0.8-0.8C38.4,39.8,39.9,39.8,41.1,40.5z"/>
<path class="stc29" d="M41.1,39.9c1.1,0.6,1.1,1.7,0,2.3c-1.3,0.7-2.7,0.7-4,0c-0.6-0.2-1-0.9-0.8-1.5c0.1-0.4,0.4-0.7,0.8-0.8
	C38.4,39.3,39.9,39.3,41.1,39.9z"/>
<path class="stc28" d="M47.5,43.4c0.6,0.2,1,0.9,0.8,1.5c-0.1,0.4-0.4,0.7-0.8,0.8c-1.3,0.6-2.7,0.6-4,0c-0.6-0.2-1-0.9-0.7-1.6
	c0.1-0.3,0.4-0.6,0.7-0.7C44.8,42.7,46.3,42.7,47.5,43.4z"/>
<path class="stc29" d="M47.5,42.9c0.6,0.2,1,0.9,0.8,1.5c-0.1,0.4-0.4,0.7-0.8,0.8c-1.3,0.6-2.7,0.6-4,0c-0.6-0.2-1-0.9-0.7-1.6
	c0.1-0.3,0.4-0.6,0.7-0.7C44.8,42.2,46.3,42.2,47.5,42.9z"/>
<path class="stc30" d="M47.5,42.3c0.6,0.2,1,0.9,0.8,1.5c-0.1,0.4-0.4,0.6-0.8,0.8c-1.3,0.6-2.7,0.6-4,0c-0.6-0.2-1-0.9-0.8-1.5
	c0.1-0.4,0.4-0.6,0.8-0.8C44.8,41.7,46.3,41.7,47.5,42.3z"/>
<path class="stc31" d="M47.5,41.8c1.1,0.6,1.1,1.7,0,2.3c-1.3,0.6-2.7,0.6-4,0c-0.6-0.2-1-0.9-0.7-1.6c0.1-0.3,0.4-0.6,0.7-0.7
	C44.8,41.2,46.3,41.2,47.5,41.8z"/>
<path class="stc28" d="M47.5,41.3c0.6,0.2,1,0.9,0.8,1.5c-0.1,0.4-0.4,0.7-0.8,0.8c-1.3,0.6-2.7,0.6-4,0c-0.6-0.2-1-0.9-0.7-1.6
	c0.1-0.3,0.4-0.6,0.7-0.7C44.8,40.6,46.3,40.6,47.5,41.3z"/>
<path class="stc29" d="M47.5,40.8c0.6,0.2,1,0.9,0.8,1.5c-0.1,0.4-0.4,0.6-0.8,0.8c-1.3,0.6-2.7,0.6-4,0c-0.6-0.2-1-0.9-0.8-1.5
	c0.1-0.4,0.4-0.6,0.8-0.8C44.8,40.1,46.3,40.1,47.5,40.8z"/>
<path class="stc28" d="M53.1,36.2c1.1,0.6,1.1,1.7,0,2.3c-1.3,0.6-2.7,0.6-4,0c-0.6-0.2-1-0.9-0.7-1.6c0.1-0.3,0.4-0.6,0.7-0.7
	C50.4,35.5,51.9,35.5,53.1,36.2z"/>
<path class="stc29" d="M53.1,35.6c0.6,0.2,1,0.9,0.8,1.5c-0.1,0.4-0.4,0.7-0.8,0.8c-1.3,0.6-2.7,0.6-4,0c-0.6-0.2-1-0.9-0.7-1.6
	c0.1-0.3,0.4-0.6,0.7-0.7C50.4,35,51.9,35,53.1,35.6z"/>
<path class="stc30" d="M53.1,35.1c0.6,0.2,1,0.9,0.8,1.5c-0.1,0.4-0.4,0.6-0.8,0.8c-1.3,0.6-2.7,0.6-4,0c-0.6-0.2-1-0.9-0.8-1.5
	c0.1-0.4,0.4-0.6,0.8-0.8C50.4,34.5,51.9,34.5,53.1,35.1z"/>
<path class="stc31" d="M53.1,34.6c1.1,0.6,1.1,1.7,0,2.3c-1.3,0.6-2.7,0.6-4,0c-0.6-0.2-1-0.9-0.7-1.6c0.1-0.3,0.4-0.6,0.7-0.7
	C50.4,33.9,51.9,33.9,53.1,34.6z"/>
<path class="stc28" d="M53.1,34.1c0.6,0.2,1,0.9,0.8,1.5c-0.1,0.4-0.4,0.7-0.8,0.8c-1.3,0.6-2.7,0.6-4,0c-0.6-0.2-1-0.9-0.7-1.6
	c0.1-0.3,0.4-0.6,0.7-0.7C50.4,33.4,51.9,33.4,53.1,34.1z"/>
<path class="stc29" d="M53.1,33.5c0.6,0.2,1,0.9,0.8,1.5c-0.1,0.4-0.4,0.7-0.8,0.8c-1.3,0.6-2.7,0.6-4,0c-0.6-0.2-1-0.9-0.7-1.6
	c0.1-0.3,0.4-0.6,0.7-0.7C50.4,32.9,51.9,32.9,53.1,33.5z"/>
<path class="stc28" d="M54.1,41.2c0.6,0.2,1,0.9,0.7,1.6c-0.1,0.3-0.4,0.6-0.7,0.7c-1.3,0.6-2.7,0.6-4,0c-0.6-0.2-1-0.9-0.8-1.5
	c0.1-0.4,0.4-0.7,0.8-0.8C51.4,40.5,52.9,40.5,54.1,41.2z"/>
<path class="stc29" d="M54.1,40.7c0.6,0.2,1,0.9,0.7,1.6c-0.1,0.3-0.4,0.6-0.7,0.7c-1.3,0.6-2.7,0.6-4,0c-1.1-0.6-1.1-1.7,0-2.3
	C51.4,40,52.9,40,54.1,40.7z"/>
<path class="stc30" d="M54.1,40.1c0.6,0.2,1,0.9,0.8,1.5c-0.1,0.4-0.4,0.6-0.8,0.8c-1.3,0.6-2.7,0.6-4,0c-0.6-0.2-1-0.9-0.8-1.5
	c0.1-0.4,0.4-0.6,0.8-0.8C51.4,39.5,52.9,39.5,54.1,40.1z"/>
<path class="stc31" d="M54.1,39.6c1.1,0.6,1.1,1.7,0,2.3c-1.3,0.6-2.7,0.6-4,0c-0.6-0.2-1-0.9-0.8-1.5c0.1-0.4,0.4-0.7,0.8-0.8
	C51.4,39,52.9,39,54.1,39.6z"/>
<path class="stc28" d="M54.1,39.1c0.6,0.2,1,0.9,0.7,1.6c-0.1,0.3-0.4,0.6-0.7,0.7c-1.3,0.6-2.7,0.6-4,0c-1.1-0.6-1.1-1.7,0-2.3
	C51.4,38.4,52.9,38.4,54.1,39.1z"/>
<path class="stc29" d="M54.1,38.6c0.6,0.2,1,0.9,0.8,1.5c-0.1,0.4-0.4,0.6-0.8,0.8c-1.3,0.6-2.7,0.6-4,0c-0.6-0.2-1-0.9-0.8-1.5
	c0.1-0.4,0.4-0.6,0.8-0.8C51.4,37.9,52.9,37.9,54.1,38.6z"/>
<path class="stc32" d="M66.7,20.4v0.3c0,0.1,0,0.1,0,0.2c0,0.1,0,0.2-0.1,0.2c0,0.1-0.1,0.1-0.1,0.2l-0.1,0.3l-0.1,0.2
	c0,0.1-0.1,0.2-0.2,0.3c-0.1,0.1-0.1,0.2-0.2,0.3v0.1c-0.1,0.1-0.2,0.2-0.3,0.3c-0.1,0.1-0.2,0.1-0.3,0.2L65,23l-0.3,0.2l-0.3,0.2
	c-0.2,0.1-0.5,0.3-0.8,0.4l-0.2,0.1C63.2,24,63,24,62.8,24.1l-0.2,0.1l-0.4,0.1l-0.3,0.1l-0.4,0.1c-0.1,0-0.2,0-0.3,0.1
	c-0.3,0.1-0.6,0.1-0.9,0.1h-0.3h-0.5h-1.2h-0.4h-0.4h-0.4l-0.4-0.1l-0.4-0.1L56,24.5c-0.2,0-0.3-0.1-0.5-0.1l-0.3-0.1
	c-0.3-0.1-0.6-0.2-0.8-0.3L54,23.8l-0.2-0.1c-0.2-0.1-0.4-0.2-0.6-0.3c-1.6-0.9-2.4-2.1-2.3-3.3v9.6c0.1,1.4,1,2.6,2.3,3.3
	c0.2,0.1,0.4,0.2,0.6,0.3l0.2,0.1l0.4,0.2l0,0c0.3,0.1,0.6,0.2,0.8,0.3h0.1l0.2,0c0.2,0.1,0.3,0.1,0.5,0.1H56h0.2l0.4,0.1
	c0.1,0,0.1,0,0.2,0H57h0.4h0.2h0.2h0.4h1.1h0.5h0.3c0.3,0,0.6-0.1,0.9-0.1l0,0l0.3-0.1l0.5-0.1l0.3-0.1l0.4-0.1h0.1h0.1
	c0.2-0.1,0.4-0.2,0.6-0.2l0.2-0.1c0.3-0.1,0.5-0.2,0.8-0.4l0.1,0l0.2-0.1l0.3-0.2l0.2-0.2l0.2-0.2l0,0c0.1-0.1,0.2-0.2,0.3-0.3v-0.1
	c0.1,0,0.2,0,0.4-0.1c0,0,0-0.1,0.1-0.1c0.1-0.1,0.1-0.2,0.2-0.3l0.1-0.1c0,0,0,0,0-0.1s0.1-0.2,0.1-0.2l0.1-0.1c0,0,0,0,0,0
	c0-0.1,0.1-0.2,0.1-0.2c0,0,0-0.1,0-0.2s0,0,0,0v-0.3c0-0.1,0-0.1,0-0.2v-0.1c0-3.2,0-6.4,0-9.6C66.7,20.3,66.7,20.3,66.7,20.4z"/>
<path class="stc33" d="M64.4,16.9c3.1,1.8,3.1,4.7,0,6.5c-3.5,1.8-7.7,1.8-11.3,0c-3.1-1.8-3.1-4.7,0-6.5
	C56.7,15.1,60.8,15.1,64.4,16.9z"/>
<path class="stc34" d="M64.4,23.4c0.4-0.2,0.7-0.4,1-0.7c0.6-1.3,0-2.8-1.8-3.9c-3.1-1.6-6.7-1.6-9.7,0c-1.8,1-2.4,2.5-1.8,3.9
	c0.3,0.3,0.6,0.5,1,0.7C56.7,25.2,60.9,25.2,64.4,23.4z"/>
<path class="stc23" d="M80.1,30.9c1.6,0.9,1.6,2.5,0,3.4c-1.8,0.9-4,0.9-5.9,0c-1.6-0.9-1.6-2.5,0-3.4C76.1,30,78.2,30,80.1,30.9z"/>
<path class="stc14" d="M74.1,29.7c0,0,0.2,4.4,4.4,4.4c2.3,0.1,4.2-1.6,4.4-3.9c0-0.2,0-0.4,0-0.5H74.1z"/>
<path class="stc15" d="M81.6,28c1.7,1,1.7,2.6,0,3.6c-1.9,1-4.2,1-6.2,0c-1.7-1-1.7-2.6,0-3.6C77.3,27,79.6,27,81.6,28z"/>
<path class="stc16" d="M81.6,31.5c0.1-0.1,0.3-0.2,0.4-0.3c0.5-0.8,0.2-1.7-0.8-2.3c-1.7-0.8-3.6-0.8-5.3,0c-1.1,0.6-1.3,1.5-0.8,2.3
	c0.1,0.1,0.3,0.2,0.4,0.3C77.3,32.5,79.6,32.5,81.6,31.5z"/>
<path class="stc23" d="M72.5,35.1c1.6,0.9,1.6,2.5,0,3.4c-1.8,0.9-4,0.9-5.9,0c-1.6-0.9-1.6-2.5,0-3.4C68.5,34.2,70.7,34.2,72.5,35.1
	z"/>
<path class="stc14" d="M66.5,33.9c0,0,0.2,4.4,4.4,4.4c2.3,0.1,4.2-1.6,4.4-3.9c0-0.2,0-0.4,0-0.5H66.5z"/>
<path class="stc15" d="M74,32.1c1.7,1,1.7,2.6,0,3.6c-1.9,1-4.2,1-6.2,0c-1.7-1-1.7-2.6,0-3.6C69.8,31.1,72.1,31.1,74,32.1z"/>
<path class="stc16" d="M74,35.7c0.1-0.1,0.3-0.2,0.4-0.3c0.5-0.8,0.2-1.7-0.8-2.3c-1.7-0.8-3.6-0.8-5.3,0c-1.1,0.6-1.3,1.5-0.8,2.3
	c0.1,0.1,0.3,0.2,0.4,0.3C69.8,36.7,72.1,36.7,74,35.7z"/>
<path class="stc23" d="M64.5,39c1.6,0.9,1.6,2.5,0,3.4c-1.8,0.9-4,0.9-5.9,0C57,41.5,57,40,58.6,39C60.5,38.1,62.6,38.1,64.5,39z"/>
<path class="stc14" d="M58.5,37.8c0,0,0.2,4.4,4.4,4.4c2.3,0.1,4.2-1.6,4.4-3.9c0-0.2,0-0.4,0-0.5H58.5z"/>
<path class="stc15" d="M66,36c1.7,1,1.7,2.6,0,3.6c-1.9,1-4.2,1-6.2,0c-1.7-1-1.7-2.6,0-3.6C61.8,35,64.1,35,66,36z"/>
<path class="stc16" d="M66,39.6c0.1-0.1,0.3-0.2,0.4-0.3c0.5-0.8,0.2-1.7-0.8-2.3c-1.7-0.8-3.6-0.8-5.3,0c-1.1,0.6-1.3,1.5-0.8,2.3
	c0.1,0.1,0.3,0.2,0.4,0.3C61.8,40.6,64.1,40.6,66,39.6z"/>
<path class="stc23" d="M79.5,40.4c1.6,0.9,1.6,2.5,0,3.4c-1.8,0.9-4,0.9-5.9,0c-1.6-0.9-1.6-2.5,0-3.4C75.5,39.5,77.7,39.5,79.5,40.4
	z"/>
<path class="stc14" d="M73.6,39.2c0,0,0.2,4.4,4.4,4.4c2.3,0.2,4.2-1.6,4.4-3.8c0-0.2,0-0.4,0-0.6H73.6z"/>
<path class="stc15" d="M81,37.5c1.7,1,1.7,2.6,0,3.6c-1.9,1-4.2,1-6.2,0c-1.7-1-1.7-2.6,0-3.6C76.8,36.5,79.1,36.5,81,37.5z"/>
<path class="stc16" d="M81,41c0.1-0.1,0.3-0.2,0.4-0.3c0.5-0.8,0.3-1.7-0.8-2.3c-1.7-0.8-3.6-0.8-5.3,0c-1.1,0.6-1.3,1.5-0.8,2.3
	l0.4,0.3C76.8,42,79.1,42,81,41z"/>
<path class="stc23" d="M71.5,44.3c1.6,0.9,1.6,2.5,0,3.4c-1.8,0.9-4,0.9-5.9,0c-1.6-0.9-1.6-2.5,0-3.4C67.5,43.4,69.7,43.4,71.5,44.3
	z"/>
<path class="stc23" d="M42.2,54.8c0.8,0.5,0.8,1.2,0,1.6c-0.9,0.4-1.9,0.4-2.8,0c-0.4-0.2-0.7-0.6-0.5-1.1c0.1-0.2,0.3-0.4,0.5-0.5
	C40.3,54.4,41.4,54.4,42.2,54.8z"/>
<path class="stc23" d="M46.2,52.7c0.4,0.2,0.7,0.6,0.5,1.1c-0.1,0.2-0.3,0.4-0.5,0.5c-0.9,0.4-1.9,0.4-2.8,0
	c-0.4-0.2-0.7-0.6-0.5-1.1c0.1-0.2,0.3-0.4,0.5-0.5C44.3,52.3,45.3,52.3,46.2,52.7z"/>
<path class="stc14" d="M65.5,43.2c0,0,0.2,4.4,4.4,4.4c2.3,0.1,4.2-1.6,4.4-3.8c0-0.2,0-0.4,0-0.6H65.5z"/>
<path class="stc15" d="M73,41.4c1.7,1,1.7,2.6,0,3.6c-1.9,1-4.2,1-6.2,0c-1.7-1-1.7-2.6,0-3.6C68.8,40.4,71.1,40.4,73,41.4z"/>
<path class="stc16" d="M73,45l0.4-0.3c0.5-0.8,0.3-1.7-0.8-2.3c-1.7-0.8-3.6-0.8-5.3,0c-1.1,0.6-1.3,1.5-0.8,2.3
	c0.1,0.1,0.3,0.2,0.4,0.3C68.8,46,71.1,46,73,45z"/>
<path class="stc35" d="M43.9,52.5c0,0.9-0.8,1.7-1.7,1.7c-0.9,0-1.7-0.8-1.8-1.7c0.1-0.9,0.8-1.5,1.6-1.7c0.9-0.1,1.8,0.7,1.8,1.6
	C43.9,52.4,43.9,52.4,43.9,52.5z"/>
<path class="stc36" d="M43.3,51.2c0.1,0.2,0.2,0.5,0.2,0.7c0,0.9-0.7,1.7-1.7,1.7c-0.4,0-0.8-0.2-1.1-0.4c0.4,0.8,1.5,1.1,2.3,0.7
	s1.1-1.5,0.7-2.3C43.5,51.4,43.4,51.3,43.3,51.2L43.3,51.2z"/>
<path class="stc36" d="M42.3,51c-0.2-0.1-1.1,0.3-0.8,0.3s0.7-0.1,1.1,0S42.5,51.1,42.3,51z"/>
<path class="stc37" d="M42.1,50.9c0-0.6,0.6-1.1,1.2-1.2C43.2,50.4,42.7,50.9,42.1,50.9z"/>
<path class="stc38" d="M42.1,51.2c0,0-0.1-1.6,0.6-1.8l-0.1-0.3c0,0-0.6,0.2-0.6,2L42.1,51.2z"/>
<path class="stc39" d="M47,52.7c0,0.9-0.8,1.7-1.7,1.7l0,0c-1,0-1.7-0.8-1.8-1.7c0-0.9,1-1.5,1.6-1.7C46.1,50.9,46.9,51.7,47,52.7
	C47,52.6,47,52.7,47,52.7z"/>
<path class="stc36" d="M46.4,51.5c0.1,0.2,0.2,0.5,0.2,0.7c0,0.9-0.8,1.7-1.7,1.7c-0.4,0-0.8-0.2-1.1-0.4c0.4,0.8,1.5,1.1,2.3,0.7
	s1.1-1.5,0.7-2.3C46.6,51.7,46.5,51.5,46.4,51.5L46.4,51.5z"/>
<path class="stc36" d="M45.4,51.3c-0.2-0.1-1.1,0.3-0.8,0.3s0.7-0.1,1.1,0S45.6,51.4,45.4,51.3z"/>
<path class="stc37" d="M45.2,51.2c0-0.7,0.5-1.2,1.2-1.2C46.3,50.6,45.8,51.2,45.2,51.2z"/>
<path class="stc38" d="M45.2,51.5c0,0-0.1-1.6,0.6-1.8l-0.1-0.3c0,0-0.6,0.2-0.6,2L45.2,51.5z"/>
<path class="stc35" d="M43.3,54.6c0,0.9-0.8,1.7-1.7,1.7c-1,0-1.7-0.8-1.8-1.7c0-0.9,1-1.5,1.6-1.7c0.9-0.1,1.8,0.6,1.8,1.6
	C43.2,54.5,43.2,54.5,43.3,54.6z"/>
<path class="stc36" d="M42.7,53.3c0.1,0.2,0.2,0.5,0.2,0.7c0,0.9-0.7,1.7-1.7,1.7c-0.4,0-0.9-0.2-1.2-0.5c0.4,0.8,1.5,1.1,2.3,0.7
	s1.1-1.5,0.7-2.3C42.9,53.5,42.8,53.4,42.7,53.3L42.7,53.3z"/>
<path class="stc36" d="M41.7,53.1c-0.2-0.1-1.1,0.3-0.8,0.3s0.7-0.1,1.1,0S41.9,53.3,41.7,53.1z"/>
<path class="stc37" d="M41.5,53c0-0.6,0.5-1.2,1.2-1.2C42.6,52.5,42.1,53,41.5,53z"/>
<path class="stc38" d="M41.5,53.3c0,0-0.1-1.6,0.6-1.8L42,51.3c0,0-0.6,0.2-0.6,2L41.5,53.3z"/>
<path class="stc40" d="M49.2,46.2c0.2,2.5,4.3,7,8.7,5.1c0.3-0.1,1-0.6-0.1-1.5s-3.9,1-6.7-4.2C51.1,45.6,49,43.3,49.2,46.2z"/>
<path class="stc41" d="M58.1,50.1c0,0-0.6,0.2-0.5,0.5c0.1,0.2,0.3,0.4,0.4,0.6c0.2-0.2,0.4-0.3,0.6-0.4c0.3,0,1.6-0.2,1.6-0.2
	L60,50.2l-1.5,0.1L58.1,50.1z"/>
<path class="stc42" d="M48,50.5c1.2,2.3,6.6,4.8,10,1.5c0.3-0.3,0.7-1-0.6-1.3s-3.3,2.3-7.8-1.4C49.5,49.4,46.7,48,48,50.5z"/>
<path class="stc41" d="M57.7,50.9c0,0-0.5,0.4-0.3,0.6c0.2,0.2,0.4,0.3,0.6,0.4c0.1-0.2,0.2-0.4,0.4-0.6l1.4-0.8l-0.4-0.3L58.1,51
	L57.7,50.9z"/>
<path class="stc40" d="M49,54.2c1.8,1.8,7.8,2.5,10-1.6c0.2-0.3,0.3-1.1-1-1.1s-2.4,3.3-7.9,1.1C50.1,52.6,46.9,52.2,49,54.2z"/>
<path class="stc41" d="M58.3,51.5c0,0-0.4,0.5-0.1,0.7c0.2,0.1,0.5,0.2,0.7,0.2c0-0.2,0.1-0.5,0.2-0.7c0.2-0.2,1.1-1.2,1.1-1.2
	l-0.5-0.1l-1.1,1.1L58.3,51.5z"/>
<path class="stc43" d="M106.5,8c5.8-1.4,6.6,10.1,2.2,13.4c-0.8,0.6-3.1,0.1-3.3-0.8c-0.7-3.5,4.4-7.2,1.8-10.5
	c-0.2-0.1-0.3-0.3-0.5-0.5C106.3,9.1,105.1,8.5,106.5,8z"/>
<g class="stc0">
	<path d="M111.4,69.4c5.3,3,5.3,7.9,0,11s-13.7,3-19,0s-5.3-8-0.1-11S106.1,66.4,111.4,69.4z"/>
</g>
<path class="stc44" d="M88.4,30.1c0,0,1.3,1.6,0.1,2.7C87.9,32.1,87.8,30.9,88.4,30.1z"/>
<path class="stc13" d="M88.8,30.4c0,0-2-0.5-2.2-0.9s-1-0.2-0.6,0.3c0.3,0.3,0.6,0.6,1,0.8c-0.8-0.1-1.5-0.4-2.2-0.8
	c-0.3-0.4-0.8,1.6,0.2,2.2c1,0.6,1.9,1.5,4.6,0.2C89.5,31.5,89.3,30.9,88.8,30.4z"/>
<path class="stc4" d="M99,17c0,0-2.1-0.3-2.5,2.9s-1,8.6-1,8.6l-0.3,0.8l-6.8,0.8c0.7,0.7,0.8,1.9,0.1,2.7c0,0,8.9,1.5,10.6-1.5
	C99.2,31.3,102.5,17,99,17z"/>
<path class="stc6" d="M99.2,31.3c-1.7,3-10.6,1.5-10.6,1.5c0.3-0.4,0.5-0.8,0.4-1.3c2.8,0,5.6-0.3,8.4-0.8c2-0.6,1.6-11.9,1.5-13.7
	C102.4,17.1,99.2,31.3,99.2,31.3z"/>
<path class="stc4" d="M110.7,22.2c0,0-2.3-4.4-12-5.5c0,0-1.5-0.6-1.4,4.3c-0.2,1-0.6,1.8-1.2,2.6c-0.9,2.1-0.5,4.5,1.1,6.1
	c0,0,1.4,4.7,0.1,7.6c-1.2,2.5,6.4,5.3,10.4,3.8c1.3-0.9,1.9-2.6,1.5-4.1c-0.6-2.3-2.1-4.6-1.1-8.9S111.4,24.3,110.7,22.2z"/>
<path class="stc6" d="M110.7,22.2c0.7,2.2-1.5,1.7-2.6,5.9s0.5,6.6,1.1,8.9c0.3,1.3,0.1,2.6-0.8,3.6c-0.4-1-0.8-3.6-2.5-9.6
	c-2.8-10,2.1-11.3,2.1-11.3C109.1,20.2,110,21.1,110.7,22.2z"/>
<path class="stc7" d="M99.2,40c-1.5-0.8-2.4-1.8-1.9-2.8c1.3-2.8-0.1-7.6-0.1-7.6c-1.6-1.6-2-4-1.1-6.1c0.6-0.7,1-1.6,1.2-2.5v-0.1
	c1.4,1.4,3.4,3.2,5,3.5c2.7,0.5,1.7,3.6,1.7,5.2s0.6,11.9,0.6,11.9l0,0L99.2,40z"/>
<path d="M96.1,71c-0.1,1-0.5,1.9-1,2.7c-0.8,0.9-4.4,3.1-4.1,4s2.8,1.1,4.4-0.5s2-1.8,2.7-2c0.9-0.2,1.4-1.1,1.2-2
	c0-0.2-0.1-0.4-0.2-0.5C98,72.4,96.9,71.8,96.1,71z"/>
<path d="M107.2,71.4c-0.1,1-0.4,2-1,2.9c-0.8,1-4.5,3.4-4.3,4.4s3,1.1,4.7-0.7s2.1-2,2.8-2.2c0.9-0.2,1.5-1.2,1.3-2.1
	c-0.1-0.2-0.1-0.4-0.3-0.6C109.2,72.9,108.1,72.3,107.2,71.4z"/>
<path class="stc45" d="M97,37.9c0-0.1,0-0.2,0.1-0.3c0.3-0.5,0.7-2.2,0.7-2.2c7,4,11.2,0.5,11.2,0.5c3.9,3.2,1.7,20.2,1.7,20.2
	c1.5,5.1,0.3,17.1,0.3,17.1c-3.6,2-5,0.2-5,0.2l-0.4-13.5l-1.8-8c-0.6-2.2-1-4.4-1.2-6.6c-1.3,5.5-3.8,13.7-3.8,13.7
	c1.8,3.8,0.7,13.9,0.7,13.9c-1.1,1.3-3,1.4-4.2,0.4c0,0,0,0,0,0c-1.1-4.6-1.7-15.7-1.7-15.7C93,50.5,96.4,39.8,97,37.9z"/>
<path class="stc45" d="M97,37.9c0-0.1,0-0.2,0.1-0.3c0.3-0.5,0.7-2.2,0.7-2.2c7,4,11.2,0.5,11.2,0.5c3.9,3.2,1.7,20.2,1.7,20.2
	c1.5,5.1,0.3,17.1,0.3,17.1c-3.6,2-5,0.2-5,0.2l-0.4-13.5l-1.8-8c-0.6-2.2-1-4.4-1.2-6.6c-1.3,5.5-3.8,13.7-3.8,13.7
	c1.8,3.8,0.7,13.9,0.7,13.9c-1.1,1.3-3,1.4-4.2,0.4c0,0,0,0,0,0c-1.1-4.6-1.7-15.7-1.7-15.7C93,50.5,96.4,39.8,97,37.9z"/>
<path class="stc46" d="M110.6,56.2c1.5,5.1,0.3,17.1,0.3,17.1c-0.7,0.4-1.5,0.7-2.3,0.9c1.5-7.2-0.2-18.3-0.2-18.3
	c0.9-2.9,2.4-12.7,0.5-19.9C113.1,39.5,110.6,56.2,110.6,56.2z"/>
<path class="stc47" d="M106,73.4l-0.4-13.5l-1.8-8c-0.6-2.2-1-4.4-1.2-6.6c-0.2,0.7-0.3,1.4-0.5,2.1c-0.2-2.5-0.1-4.7-0.1-4.7
	l-4.5-5.9c0.2-0.6,0.4-1.3,0.4-1.3c2.3,1.5,5,2.1,7.7,1.8c0.3,0.5,0.5,1.2,0.8,2c1.3,3.5,0.2,12.2,0,14s1.5,8,1.8,13.8
	c0.2,2.4-0.1,4.8-1.1,7C106.7,74,106.3,73.8,106,73.4z"/>
<path class="stc46" d="M99.5,72.9c-0.3,0.4-0.7,0.7-1.1,0.9C98.1,68.4,96.8,62,96.8,58c0-2.7,3.8-13.1,5.1-15.4l0.7,2.6l-0.4,1.5
	c-1.1,4.8-3.4,12.3-3.4,12.3C100.6,62.8,99.5,72.9,99.5,72.9z"/>
<path class="stc47" d="M93.5,57.6C93,50.5,96.4,39.8,97,37.9c0-0.1,0-0.2,0.1-0.3c0.3-0.5,0.7-2.2,0.7-2.2c0.3,0.2,0.5,0.3,0.8,0.4
	l1.2,1.8c0,0-4.5,10.2-4.6,14.6C95,55.8,95,67.4,95.9,73.7c-0.3-0.1-0.5-0.3-0.7-0.5C94.1,68.7,93.5,57.6,93.5,57.6z"/>
<path class="stc14" d="M85.5,30.4c0,0,0.3,5,5,5c2.6,0.2,4.8-1.7,5-4.3c0-0.2,0-0.5,0-0.7L85.5,30.4z"/>
<path class="stc15" d="M94,28.4c1.9,1.1,2,2.9,0,4.1c-2.2,1.1-4.8,1.1-7,0c-1.9-1.1-2-2.9,0-4.1C89.2,27.3,91.8,27.3,94,28.4z"/>
<path class="stc16" d="M94,32.5c0.2-0.1,0.3-0.2,0.4-0.3c0.6-0.9,0.3-1.9-1-2.6c-1.9-1-4.1-1-6,0c-1.2,0.7-1.5,1.8-0.9,2.6
	c0.1,0.1,0.3,0.2,0.5,0.3C89.2,33.6,91.8,33.6,94,32.5z"/>
<path class="stc44" d="M97.1,32.2c0,0,0.9,1.8-0.4,2.7C96.1,34,96.3,32.9,97.1,32.2z"/>
<path class="stc13" d="M97.4,32.6c0,0-1.8-0.9-2-1.4s-0.9-0.4-0.7,0.1c0.2,0.4,0.5,0.7,0.8,1c-0.7-0.2-1.4-0.7-2-1.2
	c-0.3-0.4-1.1,1.4-0.3,2.2s1.6,1.9,4.4,1.1C97.9,33.8,97.8,33.2,97.4,32.6z"/>
<path class="stc4" d="M110,21.5c0,0-2-0.7-3,2.4l-2.7,8.3l-0.4,0.7l-6.8-0.6c0.6,0.9,0.4,2-0.4,2.7c0,0,8.5,3.2,10.7,0.6
	C107.4,35.5,113.4,22.2,110,21.5z"/>
<path class="stc6" d="M107.4,35.5c-2.2,2.6-10.7-0.6-10.7-0.6c0.4-0.3,0.7-0.7,0.7-1.2c2.5,0.4,6.8,1,8.4,0.9
	c2.1-0.2,3.9-11.4,4.2-13.1C113.4,22.3,107.4,35.5,107.4,35.5z"/>
<path class="stc11" d="M98.9,14.4c0.9,1.2,1.1,2.8,0.6,4.2c-0.3,0.6-1,3,2.8,2.3c0,0,4-1.6,2.9-2.9c-0.7-0.8-1.4-2,0.1-5.9L98.9,14.4
	z"/>
<path class="stc12" d="M105.2,18c0.1,0.1,0.2,0.3,0.2,0.4c-2.2,0.2-4.3-0.6-5.8-2.2l4.9-3.7l0,0c0,0,0.2,0.2,0.6,0.5
	C103.9,16.2,104.5,17.3,105.2,18z"/>
<path class="stc13" d="M100,7.4c0,0-1,0.3-1.3,3.2c0,0.3-0.6,0.7-0.8,1.5s-0.6,4.1,1.2,4.6c2.6,0.4,5.2-1,6.2-3.5
	C106.8,10,104.3,5.6,100,7.4z"/>
<path class="stc48" d="M106.5,8c0.6-0.2,1.3-0.2,1.9,0c0.4,1.2,0.2,2.5-0.5,3.5c-0.1-0.5-0.3-1-0.7-1.4c-0.2-0.1-0.3-0.3-0.5-0.5
	C106.3,9.1,105.1,8.5,106.5,8z"/>
<path class="stc43" d="M100.3,6.1c1.4-1.2,3.1-0.9,4.8-0.4c1.5,0.5,2.7,1.8,2.9,3.4c0.1,2-0.6,4.5-2.9,5.7c-0.9,0.4,0.6-1.7-0.5-1.8
	c-0.4,0-0.5-0.6-0.7-0.7c-0.2,0.1-1.6-0.7-3.2-1.2c-0.1,0-0.3-1-0.4-1s-0.3,0.8-0.4,0.8c-0.5-0.2-0.9-0.4-1.4-0.7
	C98.1,8.6,99.3,6.9,100.3,6.1z"/>
<path class="stc13" d="M104.2,12.4c-0.5,0.5-0.7,1.1-0.4,1.4s1,0.2,1.5-0.3s0.7-1.1,0.4-1.4S104.7,11.9,104.2,12.4z"/>
<path class="stc49" d="M30.3,56.1c0,0-0.7,1.6-3.4,1.1S10.5,54,7.2,52.8s0.2-3.1,3.6-2.9S29.3,51.6,30.3,56.1z"/>
<path class="stc50" d="M27.6,53.4c-1,0.3-1.8,1-2.2,2c0,0-0.7-0.9,0.9-2.6L27.6,53.4z"/>
<path class="stc50" d="M22.2,51.5c0,0-2.2,0.7-2.6,2.2c0,0-0.8-0.9,0.8-2.6L22.2,51.5z"/>
<path class="stc50" d="M15.8,50.4c0,0-2.4,0.9-2.9,2.3c0,0-0.8-0.9,0.8-2.6L15.8,50.4z"/>
<path class="stc33" d="M37.7,45.2c0,0.1,0,0.2,0,0.3c0,0.1,0,0.2-0.1,0.3c0,0.1,0,0.2-0.1,0.3c0,0.1-0.1,0.2-0.1,0.2
	c0,0.1-0.1,0.2-0.1,0.3c0,0.1-0.1,0.1-0.1,0.2L37,47.1c-0.1,0.1-0.2,0.2-0.3,0.3l-0.1,0.1c-0.1,0.1-0.3,0.3-0.4,0.4l-0.3,0.2
	l-0.3,0.2l-0.3,0.2l-0.4,0.3c-0.3,0.2-0.6,0.3-0.9,0.5l-0.3,0.1c-0.3,0.1-0.5,0.2-0.8,0.3l-0.3,0.1L32.2,50l-0.4,0.1l-0.5,0.1
	l-0.4,0.1c-0.4,0.1-0.7,0.1-1.1,0.2h-0.4h-0.6h-1.5h-0.5h-0.5l-0.5-0.1l-0.4-0.1l-0.5-0.1l-0.4-0.1L23.9,50l-0.3-0.1
	c-0.4-0.1-0.7-0.2-1-0.4L22,49.4l-0.2-0.1c-0.3-0.1-0.5-0.2-0.7-0.4c-1.9-1.1-2.9-2.6-2.9-4c0,4,0,7.9,0,11.8c0,1.5,1,2.9,2.9,4
	c0.2,0.1,0.5,0.3,0.7,0.4l0.3,0.1l0.4,0.2h0.1c0.3,0.1,0.7,0.3,1,0.4h0.1l0.3,0.1l0.6,0.2h0.2h0.3l0.5,0.1h0.2h0.2l0.5,0.1h0.2h0.2
	c0.2,0,0.3,0,0.5,0h0.2c0.1,0,0.1,0,0.2,0c0.2,0,0.4,0,0.5,0h0.4h0.7h0.3h0.1c0.4,0,0.8-0.1,1.1-0.2l0,0l0.3-0.1l0.6-0.1l0.4-0.1
	l0.5-0.2h0.1l0.2-0.1c0.3-0.1,0.5-0.2,0.8-0.3l0.3-0.1c0.3-0.1,0.6-0.3,0.9-0.5l0.1-0.1c0.1,0,0.2-0.1,0.3-0.2l0.3-0.2l0.3-0.2
	l0.3-0.2l0.1-0.1c0.1-0.1,0.2-0.2,0.3-0.3l0.1-0.1c0.1-0.1,0.1-0.2,0.2-0.2c0,0,0-0.1,0.1-0.1c0.1-0.1,0.2-0.2,0.2-0.3l0.1-0.2
	c0,0,0,0,0-0.1l0.1-0.3c0-0.1,0.1-0.1,0.1-0.2v-0.1c0-0.1,0.1-0.2,0.1-0.3c0-0.1,0-0.1,0.1-0.2c0,0,0,0,0-0.1c0-0.1,0-0.2,0-0.3
	v-0.2v-0.1V44.7C37.7,45,37.7,45.1,37.7,45.2z"/>
<path class="stc51" d="M34.8,40.8c3.8,2.2,3.9,5.8,0,8c-4.4,2.2-9.5,2.2-13.9,0c-3.8-2.2-3.9-5.8,0-8C25.3,38.6,30.5,38.6,34.8,40.8z
	"/>
<path class="stc34" d="M34.9,48.9c0.4-0.3,0.8-0.6,1.2-0.9c0.8-1.7,0.1-3.5-2.2-4.8c-3.8-1.9-8.2-1.9-12,0c-2.2,1.3-2.9,3.1-2.1,4.8
	c0.4,0.3,0.8,0.6,1.3,0.9C25.4,51.1,30.5,51.1,34.9,48.9z"/>
</svg>
