<svg id="Layer_1" data-name="Layer 1" xmlns="http://www.w3.org/2000/svg" viewBox="0 0 125.07 92.66"><defs><style>.cls-1{fill:#e2e7e8;}.cls-2{fill:#ec6665;}.cls-3{fill:#d75150;}.cls-4{fill:#ff8183;}.cls-5{fill:#bad1de;}.cls-6{fill:#efb185;}.cls-7{fill:#e6a376;}.cls-8{fill:#cee2ea;}.cls-9{fill:#231202;}.cls-10{fill:#301806;}.cls-11{fill:#e8a476;}.cls-12{fill:#db9669;}.cls-13{fill:#f1b287;}.cls-14{fill:#e4f0f4;}.cls-15{fill:#873f1b;}.cls-16{fill:#743617;}.cls-17{fill:#82a31a;}.cls-18{fill:#94af20;}.cls-19{fill:#758c15;}.cls-20{fill:#f0403d;}.cls-21{fill:#fff518;}.cls-22{fill:#a3805a;}.cls-23{fill:#cca376;}.cls-24{fill:#fddbaa;}.cls-25{fill:#90aa24;}.cls-26{fill:#ddb786;}.cls-27{fill:#826243;}.cls-28{fill:#f9ddbb;}.cls-29{fill:#f44440;}.cls-30{fill:#6d8215;}.cls-31{fill:#f95454;}.cls-32{fill:#51ae4b;}.cls-33{fill:#624805;}.cls-34{opacity:0.1;}.cls-35{fill:#ddd4c5;}.cls-36{fill:#7c9920;}.cls-37{fill:#ff9b2d;}.cls-38{fill:#ea821b;}.cls-39{fill:#cadfe8;}.cls-40{fill:#d87600;}.cls-41{fill:#b4cbd3;}.cls-42{fill:#fd3160;}.cls-43{fill:#e52054;}.cls-44{fill:#dfeef4;}.cls-45{fill:#d16809;}.cls-46{fill:#e5a67c;}.cls-47{fill:#ff8500;}.cls-48{fill:#0a182e;}.cls-49{fill:#17a89f;}.cls-50{fill:#31282e;}.cls-51{fill:#231d21;}.cls-52{fill:#dd9569;}.cls-53{fill:#f2b78f;}.cls-54{fill:#954f01;}.cls-55{fill:#7f4103;}.cls-56{fill:#ea7706;}.cls-57{fill:#f9c5a2;}.cls-58{fill:#ff9a36;}</style></defs><title>cc-illustrations</title><path class="cls-1" d="M74.55,48.48c6.23,3.59,6.27,9.43.08,13s-16.26,3.6-22.49,0-6.26-9.43-.08-13S68.32,44.88,74.55,48.48Z"/><path d="M69.4,52.47a4.9,4.9,0,0,0,.78,2.18c.63.76,3.52,2.48,3.32,3.26s-2.24.88-3.55-.4S68.3,56,67.75,55.92a1.31,1.31,0,0,1-.79-2A5.68,5.68,0,0,0,69.4,52.47Z"/><path class="cls-2" d="M65.33,27a5.8,5.8,0,0,0,3.26-1.35s3.33,9.81,2.89,16.06c0,0-.5,9-1.38,12.63a2.38,2.38,0,0,1-3.43-.26s-.88-8.12.57-11.19c0,0-3.53-11.6-3.72-14.48l-.63-1.84A5.32,5.32,0,0,0,65.33,27Z"/><path d="M60.46,52.86a5,5,0,0,0,.76,2.32c.65.82,3.65,2.72,3.42,3.54s-2.39.87-3.74-.52-1.71-1.61-2.29-1.74a1.4,1.4,0,0,1-.78-2.14A6,6,0,0,0,60.46,52.86Z"/><path class="cls-2" d="M59.55,22.85,59,24.28c-3.13,2.57-1.36,16.3-1.36,16.3-1.17,4.12-.28,13.75-.28,13.75,2.89,1.6,4,.14,4,.14l.35-10.88,2-6.61a36.22,36.22,0,0,0,1-8.54c2.4-.49,4.45-1.59,3.87-2.81C67.51,23.33,59.56,22.85,59.55,22.85Z"/><path class="cls-2" d="M59.55,22.85,59,24.28c-3.13,2.57-1.36,16.3-1.36,16.3-1.17,4.12-.28,13.75-.28,13.75,2.89,1.6,4,.14,4,.14l.35-10.88,2-6.61a36.22,36.22,0,0,0,1-8.54c2.4-.49,4.45-1.59,3.87-2.81C67.51,23.33,59.56,22.85,59.55,22.85Z"/><path class="cls-3" d="M57.66,40.58c-1.17,4.12-.28,13.75-.28,13.75a5.61,5.61,0,0,0,1.87.7c-1.2-5.81.14-14.74.14-14.74C58.68,38,58.18,28.57,58,25.78,56.31,30.16,57.66,40.58,57.66,40.58Z"/><path class="cls-4" d="M68.67,25.87a.75.75,0,0,0-.08-.24c-1.08-2.3-7.35,3-8,5.69s-.17,8.46-.5,14.14A40.88,40.88,0,0,0,60.65,55a1.67,1.67,0,0,0,.75-.48l.35-10.88,2-6.61a26.63,26.63,0,0,0,.73-4c1.1,4.37,2.79,9.91,2.79,9.91-1.45,3.07-.57,11.19-.57,11.19a2.38,2.38,0,0,0,3.43.26c.88-3.68,1.38-12.63,1.38-12.63C71.88,36,69.17,27.4,68.67,25.87Z"/><path class="cls-2" d="M66.67,54.06a2.72,2.72,0,0,0,.89.69c.25-4.34,1.25-9.5,1.26-12.68,0-2.19-2.84-10.24-3.92-12L64.45,33h0c.89,3.89,2.79,9.91,2.79,9.91C65.79,45.94,66.67,54.06,66.67,54.06Z"/><path class="cls-5" d="M71.62,26.47a1.93,1.93,0,0,1,1.8-1A1.51,1.51,0,0,1,71.62,26.47Z"/><path class="cls-6" d="M72.93,24.9a12,12,0,0,1,1.24,1.81,3.85,3.85,0,0,1-.2,3.08c-.43.59-.67-.23-.8-1.31a1.51,1.51,0,0,0-.64-1.37,5.78,5.78,0,0,1-1.19-1.53C71.14,25.18,72.93,24.9,72.93,24.9Z"/><path class="cls-7" d="M71.36,25.66a6.4,6.4,0,0,1,.87,1.67c.12.71.89.67.94,1.15.1.84.29,1.53.55,1.51-.12-.63.62-1.11-.19-2.57a10.49,10.49,0,0,0-1.8-2.08C71.41,25.49,71.29,25.51,71.36,25.66Z"/><path class="cls-6" d="M71.81,25.32s.25,2.05.41,2.65.54,1,.61.83-.31-2,.35-1.92C73.53,26.91,71.91,25.61,71.81,25.32Z"/><path class="cls-5" d="M66.82,8.87s2.05-.48,2.91,3.59.86,5.66,1.47,7.06,2.22,5.91,2.22,5.91a2.31,2.31,0,0,0-1.8,1s-3.38-5.58-4.05-8S64.68,10,66.82,8.87Z"/><path class="cls-8" d="M71.2,19.52c-.61-1.4-.68-3-1.47-7.06-.66-3.35-1.67-3.66-2.37-3.76-1.94,1.28.64,7.42,1.3,9.84a49.9,49.9,0,0,0,3.42,7.38,2.34,2.34,0,0,1,1.34-.49S71.8,20.91,71.2,19.52Z"/><path class="cls-8" d="M57.6,13.17s1.9-3.57,9.66-4.46c0,0,1.23-.51,1.11,3.48a4.39,4.39,0,0,0,1,2.08c.4.52,1.47,2.52-.88,4.91,0,0-1.14,3.81-.06,6.11,1,2.06-5.17,4.31-8.41,3.09a2.92,2.92,0,0,1-1.17-3.32c.46-1.85,1.72-3.73.85-7.15S57,14.9,57.6,13.17Z"/><path class="cls-5" d="M57.6,13.17c-.57,1.73,1.22,1.33,2.09,4.74s-.79,5.55-1.26,7.4a2.76,2.76,0,0,0,1,2.64A51.16,51.16,0,0,0,62,18.7c1-5.73-2.13-7.63-2.14-7.63A6.57,6.57,0,0,0,57.6,13.17Z"/><rect class="cls-9" x="60.95" y="6.49" width="2.78" height="3.81" transform="translate(-0.47 5.05) rotate(-4.62)"/><path class="cls-10" d="M67.21,2.53a43.58,43.58,0,0,0-2.7,7.8c-.11.54.3.13,1.34,0,0,0,4.35-2.79,2.73-7.56A4.29,4.29,0,0,0,62.46.55Z"/><path class="cls-11" d="M67.25,7.82A3.71,3.71,0,0,0,66,11c.1.5.24,2.5-2.57,1.26,0,0-2.81-2-1.76-2.78.7-.52,1.43-1.32,1-4.61Z"/><path class="cls-12" d="M61.69,9.5a.48.48,0,0,0-.2.28,5.56,5.56,0,0,0,4.94-.69L63.28,5.32h0s-.2.09-.51.26C63,8.29,62.34,9,61.69,9.5Z"/><path class="cls-13" d="M67.61,2.16s.75.39.42,2.74c0,.25.32.66.33,1.32s-.24,3.29-1.79,3.34a4.72,4.72,0,0,1-4.23-3.83C61.84,3,64.59-.07,67.61,2.16Z"/><path class="cls-9" d="M67.32,3.08s-4.47-.85-5,6c-.07.89.08,3.56.08,3.56A7.78,7.78,0,0,1,60.17,3.3s1.41-4.17,4.91-3C65.08.31,67.32,1.57,67.32,3.08Z"/><path class="cls-10" d="M67.32,3.08s1.21-.05,1.45,2.2c0,0,.73-6.13-5.33-5.15C63.44.13,66.86.81,67.32,3.08Z"/><path class="cls-13" d="M63.61,6.38s-.22-1.36-1-1.07c-.25.08-.55.31-.29,1s.9,1.44,1.5,1.46Z"/><path class="cls-14" d="M68.42,25.29c-1.08-2.3.06-6.11.06-6.11,2.35-2.39,1.28-4.39.88-4.91a4.39,4.39,0,0,1-1-2.08c0-.29,0-.55,0-.79-.83.85-3.15,3-4.77,2.54,0,0-1.41.33-.6,2.16s.13,6.3,0,8.12c-.09,1.15-.28,3.16-.41,4.49C65.7,28.57,69.17,26.87,68.42,25.29Z"/><path class="cls-8" d="M61.08,27.12a1.57,1.57,0,0,1,1.51-1.68A1.68,1.68,0,0,1,61.08,27.12Z"/><path class="cls-15" d="M71.9,27c1.81,1,1.82,2.74,0,3.79a7.2,7.2,0,0,1-6.55,0c-1.81-1.05-1.82-2.75,0-3.79A7.2,7.2,0,0,1,71.9,27Z"/><polygon class="cls-15" points="63.03 21.3 64.01 28.89 73.25 29.2 74.24 21.3 63.03 21.3"/><path class="cls-16" d="M72.59,19c2.19,1.27,2.21,3.32,0,4.59a8.71,8.71,0,0,1-7.92,0c-2.2-1.27-2.21-3.32,0-4.59A8.73,8.73,0,0,1,72.59,19Z"/><path class="cls-17" d="M72,19.34c1.88,1.08,1.89,2.84,0,3.93a7.46,7.46,0,0,1-6.79,0c-1.88-1.08-1.89-2.85,0-3.93A7.46,7.46,0,0,1,72,19.34Z"/><path class="cls-17" d="M63.08,13.57s4,2.84,3.11,9C66.19,22.58,69.86,16.06,63.08,13.57Z"/><path class="cls-18" d="M64.16,11.56s5,5.48,4.16,11.64C68.32,23.2,69.66,14.24,64.16,11.56Z"/><path class="cls-18" d="M78.23,15.8s-7,2.35-9.29,8.16C68.94,24,72.13,15.47,78.23,15.8Z"/><path class="cls-18" d="M72.43,12.05s-5,5.48-4.15,11.65C68.28,23.7,66.94,14.73,72.43,12.05Z"/><path class="cls-19" d="M75.8,18.88s-4,.76-5.6,3.74C70.2,22.62,72.53,18.26,75.8,18.88Z"/><path class="cls-19" d="M76.37,17.6s-4.45,1.78-5.67,5.61C70.7,23.21,72.43,17.62,76.37,17.6Z"/><path class="cls-19" d="M59.37,17.14s5.06.5,6.95,4.95C66.32,22.09,64.87,16.1,59.37,17.14Z"/><path class="cls-19" d="M72.26,15.49s-4.51,2.35-4.61,7.18C67.65,22.67,66.77,16.57,72.26,15.49Z"/><path class="cls-20" d="M67.65,15.49a.65.65,0,0,0-.65-.65.58.58,0,0,0-.18,0,.57.57,0,0,0-.46-.25.58.58,0,0,0-.59.59h0a.63.63,0,1,0,0,1.25.65.65,0,0,0,.2,0,.62.62,0,0,0,.55.33.63.63,0,0,0,.63-.63v0A.63.63,0,0,0,67.65,15.49Z"/><path class="cls-21" d="M66.65,15.72a.23.23,0,1,1-.23-.23A.23.23,0,0,1,66.65,15.72Z"/><path class="cls-20" d="M65.58,18.14a.64.64,0,0,0-.65-.64.57.57,0,0,0-.18,0,.58.58,0,0,0-1,.34h0a.63.63,0,1,0,0,1.25.45.45,0,0,0,.2,0,.63.63,0,0,0,.55.34.64.64,0,0,0,.63-.64h0A.64.64,0,0,0,65.58,18.14Z"/><path class="cls-21" d="M64.58,18.38a.24.24,0,0,1-.23.23.23.23,0,0,1-.23-.23.23.23,0,0,1,.23-.23A.23.23,0,0,1,64.58,18.38Z"/><path class="cls-20" d="M67.65,20.73a.65.65,0,0,0-.65-.64,1.13,1.13,0,0,0-.18,0,.58.58,0,0,0-1,.34h0a.63.63,0,0,0,0,1.26.65.65,0,0,0,.2,0,.63.63,0,0,0,1.18-.31h0A.64.64,0,0,0,67.65,20.73Z"/><path class="cls-21" d="M66.65,21a.23.23,0,0,1-.46,0,.23.23,0,1,1,.46,0Z"/><path class="cls-20" d="M71.94,16.55a.65.65,0,0,0-.65-.64,1.08,1.08,0,0,0-.19,0,.57.57,0,0,0-.46-.24.59.59,0,0,0-.59.58h0a.63.63,0,0,0,0,1.26.65.65,0,0,0,.2,0,.63.63,0,0,0,1.19-.31h0A.64.64,0,0,0,71.94,16.55Z"/><path class="cls-21" d="M70.93,16.79a.23.23,0,0,1-.23.23.24.24,0,0,1-.23-.23.23.23,0,0,1,.23-.23A.23.23,0,0,1,70.93,16.79Z"/><path class="cls-20" d="M70.93,19.21a.65.65,0,0,0-.65-.65.58.58,0,0,0-.18,0,.57.57,0,0,0-.46-.25.58.58,0,0,0-.59.59h0a.63.63,0,1,0,0,1.25.65.65,0,0,0,.2,0,.62.62,0,0,0,.55.33.64.64,0,0,0,.64-.63v0A.63.63,0,0,0,70.93,19.21Z"/><path class="cls-21" d="M69.93,19.44a.23.23,0,1,1-.23-.23A.23.23,0,0,1,69.93,19.44Z"/><path class="cls-20" d="M69.91,17.41a.65.65,0,0,0-.65-.64.57.57,0,0,0-.18,0,.58.58,0,0,0-1,.34h0a.63.63,0,0,0-.63.63.63.63,0,0,0,.63.63.49.49,0,0,0,.2,0,.63.63,0,0,0,.55.34.64.64,0,0,0,.63-.64h0A.64.64,0,0,0,69.91,17.41Z"/><path class="cls-21" d="M68.91,17.65a.24.24,0,0,1-.23.23.23.23,0,0,1-.23-.23.23.23,0,0,1,.23-.23A.23.23,0,0,1,68.91,17.65Z"/><path class="cls-20" d="M71.75,17.94a.65.65,0,0,0-.65-.65.53.53,0,0,0-.18,0,.57.57,0,0,0-.47-.25.58.58,0,0,0-.58.58h-.05a.63.63,0,0,0,0,1.26.59.59,0,0,0,.2,0,.64.64,0,0,0,.55.33.63.63,0,0,0,.64-.64h0A.63.63,0,0,0,71.75,17.94Z"/><path class="cls-21" d="M70.74,18.17a.23.23,0,0,1-.23.23.23.23,0,0,1,0-.46A.23.23,0,0,1,70.74,18.17Z"/><path class="cls-20" d="M65.39,15.28a.65.65,0,0,0-.65-.65.58.58,0,0,0-.18,0,.58.58,0,0,0-1.05.34h0a.63.63,0,1,0,0,1.25.45.45,0,0,0,.2,0,.63.63,0,0,0,.55.34.64.64,0,0,0,.63-.64h0A.64.64,0,0,0,65.39,15.28Z"/><path class="cls-21" d="M64.39,15.51a.23.23,0,0,1-.46,0,.23.23,0,0,1,.46,0Z"/><path class="cls-20" d="M74.24,20a.65.65,0,0,0-.65-.65.58.58,0,0,0-.18,0,.57.57,0,0,0-.46-.25.59.59,0,0,0-.59.59h0a.63.63,0,1,0,0,1.25.65.65,0,0,0,.2,0,.63.63,0,0,0,.55.34.64.64,0,0,0,.63-.64h0A.64.64,0,0,0,74.24,20Z"/><path class="cls-21" d="M73.24,20.26a.23.23,0,1,1-.46,0,.23.23,0,1,1,.46,0Z"/><path class="cls-20" d="M75.05,17.08a.65.65,0,0,0-.65-.65.58.58,0,0,0-.18,0,.57.57,0,0,0-.47-.25.58.58,0,0,0-.58.59h0a.63.63,0,1,0,0,1.25.71.71,0,0,0,.2,0,.64.64,0,0,0,.55.33.63.63,0,0,0,.63-.63v0A.63.63,0,0,0,75.05,17.08Z"/><path class="cls-21" d="M74.05,17.31a.23.23,0,0,1-.23.23.23.23,0,0,1,0-.46A.23.23,0,0,1,74.05,17.31Z"/><path class="cls-20" d="M73.29,22.57a.64.64,0,0,0-.64-.64,1.08,1.08,0,0,0-.19,0,.57.57,0,0,0-.46-.24.59.59,0,0,0-.59.58h0a.63.63,0,0,0-.63.63.61.61,0,0,0,.83.59.63.63,0,0,0,1.19-.31h0A.64.64,0,0,0,73.29,22.57Z"/><path class="cls-21" d="M72.29,22.81a.23.23,0,0,1-.46,0,.23.23,0,0,1,.46,0Z"/><path class="cls-20" d="M70.93,14.42a.65.65,0,0,0-.65-.65.58.58,0,0,0-.18,0,.58.58,0,0,0-1,.34h0a.63.63,0,1,0,0,1.25.45.45,0,0,0,.2,0,.63.63,0,0,0,.55.34.64.64,0,0,0,.64-.64h0A.64.64,0,0,0,70.93,14.42Z"/><path class="cls-21" d="M69.93,14.65a.23.23,0,1,1-.46,0,.23.23,0,1,1,.46,0Z"/><path class="cls-19" d="M64.91,18.67s3.58,1.42,4,5C68.94,23.72,69.13,19.06,64.91,18.67Z"/><path class="cls-13" d="M62.54,25.55s1.66.32,2,.06.82.16.37.42a2.53,2.53,0,0,1-1,.28s1.88.63,2.2.11-.2,1.55-1.17,1.7-2,.5-3.5-1.44A1.87,1.87,0,0,1,62.54,25.55Z"/><path class="cls-8" d="M59.53,11.9s1.71.51.86,3.07-2.26,6.85-2.26,6.85l-.05.7,4.84,2.94s-1.48.64-1,2c0,0-7.26-2-7.48-4.84C54.41,22.63,56.87,10.73,59.53,11.9Z"/><path class="cls-5" d="M54.41,22.63c.22,2.87,7.48,4.84,7.48,4.84A1.39,1.39,0,0,1,62,26.3a43.48,43.48,0,0,1-6.09-3.51c-1.3-1.17,2.93-9.55,3.62-10.89C56.86,10.79,54.41,22.63,54.41,22.63Z"/><polygon class="cls-22" points="62.66 45.59 62.61 58.19 45.28 68.26 45.34 55.66 62.66 45.59"/><polygon class="cls-23" points="45.34 55.66 45.28 68.26 27.9 58.27 27.9 45.59 45.34 55.66"/><polygon class="cls-24" points="62.66 45.59 45.34 55.66 27.9 45.59 45.22 35.52 62.66 45.59"/><polygon class="cls-24" points="62.66 45.59 45.34 55.66 27.9 45.59 45.22 35.52 62.66 45.59"/><polygon class="cls-24" points="62.66 45.59 45.34 55.66 27.9 45.59 45.22 35.52 62.66 45.59"/><polygon class="cls-25" points="61.25 45.59 45.33 54.84 29.31 45.59 45.23 36.34 61.25 45.59"/><polygon class="cls-26" points="62.66 45.59 62.61 58.19 45.28 68.26 45.34 55.66 62.66 45.59"/><polygon class="cls-27" points="55.66 49.7 55.66 53.5 52.28 55.46 52.29 51.66 55.66 49.7"/><path class="cls-28" d="M27.9,45.59,45.34,55.66,62.66,45.59,45.22,35.52Zm17.43,9.25-16-9.25,15.92-9.25,16,9.25Z"/><path class="cls-29" d="M42.57,39a2.71,2.71,0,0,0,2.7,2.71A2.85,2.85,0,0,0,48.1,39c0-1.5-1.56-2.5-2.6-2.71C44,36,42.57,37.51,42.57,39Z"/><path class="cls-30" d="M43.46,37a2.69,2.69,0,0,0,2.45,3.84,2.66,2.66,0,0,0,1.8-.71A2.69,2.69,0,1,1,43.46,37Z"/><path class="cls-31" d="M45.06,36.7c.28-.2,1.76.41,1.23.53s-1.13-.11-1.75.05S44.8,36.89,45.06,36.7Z"/><path class="cls-32" d="M45.45,36.55a1.9,1.9,0,0,0-1.91-1.84A2,2,0,0,0,45.45,36.55Z"/><path class="cls-33" d="M45.36,37s.11-2.63-.91-2.83l.14-.41s.95.37.95,3.24Z"/><path class="cls-31" d="M46.75,40.88a2.7,2.7,0,0,0,2.7,2.7,2.84,2.84,0,0,0,2.83-2.74c0-1.49-1.56-2.49-2.6-2.7C48.21,37.85,46.75,39.39,46.75,40.88Z"/><path class="cls-30" d="M47.65,38.88A2.62,2.62,0,0,0,47.38,40a2.69,2.69,0,0,0,4.51,2,2.69,2.69,0,1,1-4.24-3.14Z"/><path class="cls-29" d="M49.24,38.58c.28-.2,1.76.4,1.23.53s-1.13-.11-1.75,0S49,38.77,49.24,38.58Z"/><path class="cls-32" d="M49.63,38.43a1.9,1.9,0,0,0-1.91-1.84A2,2,0,0,0,49.63,38.43Z"/><path class="cls-33" d="M49.54,38.86s.11-2.62-.91-2.83l.14-.4s.95.37.95,3.23Z"/><path class="cls-31" d="M50.13,43a2.7,2.7,0,0,0,2.7,2.7,2.84,2.84,0,0,0,2.83-2.74c0-1.49-1.56-2.49-2.61-2.7C51.59,40,50.13,41.49,50.13,43Z"/><path class="cls-31" d="M51,41a2.69,2.69,0,0,0,4.25,3.14A2.7,2.7,0,0,1,50.13,43,2.66,2.66,0,0,1,51,41Z"/><path class="cls-29" d="M52.62,40.68c.27-.2,1.76.4,1.23.53s-1.14-.12-1.75,0S52.35,40.87,52.62,40.68Z"/><path class="cls-32" d="M53,40.53a1.91,1.91,0,0,0-1.91-1.84A2,2,0,0,0,53,40.53Z"/><path class="cls-33" d="M52.92,41s.1-2.63-.91-2.83l.13-.4s1,.37,1,3.23Z"/><path class="cls-31" d="M54,45.14a2.7,2.7,0,0,0,2.71,2.7,2.85,2.85,0,0,0,2.83-2.74c0-1.49-1.56-2.49-2.61-2.7C55.44,42.1,54,43.65,54,45.14Z"/><path class="cls-29" d="M54.87,43.14a2.69,2.69,0,0,0,4.25,3.14A2.7,2.7,0,0,1,54,45.14,2.67,2.67,0,0,1,54.87,43.14Z"/><path class="cls-29" d="M56.47,42.84c.27-.2,1.76.4,1.22.53s-1.13-.12-1.74.05S56.2,43,56.47,42.84Z"/><path class="cls-32" d="M56.85,42.69A1.89,1.89,0,0,0,55,40.85,2,2,0,0,0,56.85,42.69Z"/><path class="cls-33" d="M56.77,43.12s.1-2.63-.92-2.83l.14-.4s.95.37,1,3.23Z"/><path class="cls-29" d="M39.24,40.89A2.7,2.7,0,0,0,42,43.59a2.84,2.84,0,0,0,2.83-2.73c0-1.5-1.56-2.5-2.61-2.71C40.71,37.86,39.24,39.4,39.24,40.89Z"/><path class="cls-30" d="M40.14,38.89A2.77,2.77,0,0,0,39.88,40a2.7,2.7,0,0,0,2.7,2.7A2.66,2.66,0,0,0,44.39,42a2.7,2.7,0,1,1-4.25-3.14Z"/><path class="cls-31" d="M41.74,38.59c.27-.2,1.76.41,1.22.53s-1.13-.11-1.74.05S41.47,38.78,41.74,38.59Z"/><path class="cls-32" d="M42.12,38.44a1.9,1.9,0,0,0-1.9-1.84A2,2,0,0,0,42.12,38.44Z"/><path class="cls-33" d="M42,38.88s.1-2.63-.92-2.83l.14-.41s1,.37,1,3.24Z"/><path class="cls-29" d="M43.42,42.77a2.7,2.7,0,0,0,2.71,2.7A2.85,2.85,0,0,0,49,42.73c0-1.49-1.56-2.49-2.61-2.7C44.89,39.74,43.42,41.28,43.42,42.77Z"/><path class="cls-30" d="M44.32,40.77a2.69,2.69,0,0,0,4.25,3.14,2.7,2.7,0,0,1-5.15-1.14A2.67,2.67,0,0,1,44.32,40.77Z"/><path class="cls-31" d="M45.92,40.47c.27-.2,1.76.4,1.22.53s-1.13-.12-1.74,0S45.65,40.66,45.92,40.47Z"/><path class="cls-32" d="M46.3,40.32a1.9,1.9,0,0,0-1.9-1.84A2,2,0,0,0,46.3,40.32Z"/><path class="cls-33" d="M46.22,40.75s.1-2.63-.92-2.83l.14-.4s1,.37,1,3.23Z"/><path class="cls-29" d="M46.8,44.87a2.7,2.7,0,0,0,2.7,2.7,2.84,2.84,0,0,0,2.83-2.74c0-1.49-1.56-2.49-2.6-2.7C48.27,41.83,46.8,43.38,46.8,44.87Z"/><path class="cls-30" d="M47.7,42.87A2.58,2.58,0,0,0,47.44,44,2.7,2.7,0,0,0,52,46a2.7,2.7,0,0,1-5.15-1.14A2.67,2.67,0,0,1,47.7,42.87Z"/><path class="cls-31" d="M49.3,42.57c.27-.2,1.76.4,1.22.52s-1.13-.11-1.75.06S49,42.76,49.3,42.57Z"/><path class="cls-32" d="M49.68,42.42a1.9,1.9,0,0,0-1.9-1.84A2,2,0,0,0,49.68,42.42Z"/><path class="cls-33" d="M49.6,42.85s.1-2.63-.92-2.83l.14-.4s1,.37,1,3.23Z"/><path class="cls-29" d="M50.65,47a2.7,2.7,0,0,0,2.7,2.7A2.85,2.85,0,0,0,56.18,47c0-1.49-1.56-2.49-2.6-2.7C52.11,44,50.65,45.53,50.65,47Z"/><path class="cls-29" d="M51.54,45a2.69,2.69,0,0,0,4.25,3.14A2.7,2.7,0,1,1,51.54,45Z"/><path class="cls-30" d="M53.15,44.72c.27-.19,1.75.41,1.22.53s-1.13-.11-1.75.06S52.88,44.92,53.15,44.72Z"/><path class="cls-32" d="M53.53,44.58a1.9,1.9,0,0,0-1.91-1.84A2,2,0,0,0,53.53,44.58Z"/><path class="cls-33" d="M53.44,45s.11-2.63-.91-2.83l.14-.4s.95.37.95,3.23Z"/><path class="cls-29" d="M35.85,42.78a2.7,2.7,0,0,0,2.71,2.7,2.84,2.84,0,0,0,2.83-2.74c0-1.49-1.56-2.49-2.61-2.7C37.32,39.75,35.85,41.29,35.85,42.78Z"/><path class="cls-29" d="M36.75,40.78a2.76,2.76,0,0,0-.26,1.14,2.69,2.69,0,0,0,4.51,2,2.7,2.7,0,1,1-4.25-3.14Z"/><path class="cls-31" d="M38.35,40.48c.27-.2,1.76.4,1.22.53s-1.13-.12-1.74.05S38.08,40.67,38.35,40.48Z"/><path class="cls-32" d="M38.73,40.33a1.9,1.9,0,0,0-1.9-1.84A2,2,0,0,0,38.73,40.33Z"/><path class="cls-33" d="M38.65,40.77s.1-2.64-.92-2.84l.14-.4s1,.37,1,3.24Z"/><path class="cls-31" d="M40,44.66a2.7,2.7,0,0,0,2.7,2.7,2.85,2.85,0,0,0,2.83-2.74c0-1.49-1.56-2.49-2.61-2.7C41.5,41.63,40,43.17,40,44.66Z"/><path class="cls-31" d="M40.93,42.66a2.69,2.69,0,0,0,4.25,3.14A2.7,2.7,0,0,1,40,44.66,2.66,2.66,0,0,1,40.93,42.66Z"/><path class="cls-31" d="M42.53,42.36c.27-.2,1.76.4,1.22.53s-1.13-.12-1.74,0S42.26,42.55,42.53,42.36Z"/><path class="cls-32" d="M42.91,42.21A1.89,1.89,0,0,0,41,40.37,2,2,0,0,0,42.91,42.21Z"/><path class="cls-33" d="M42.83,42.64s.1-2.63-.92-2.83l.14-.4s1,.37,1,3.23Z"/><path class="cls-31" d="M43.41,46.76a2.7,2.7,0,0,0,2.7,2.7A2.85,2.85,0,0,0,49,46.72c0-1.49-1.56-2.49-2.61-2.7C44.88,43.72,43.41,45.26,43.41,46.76Z"/><path class="cls-31" d="M44.31,44.76a2.69,2.69,0,0,0,4.25,3.14,2.7,2.7,0,0,1-5.15-1.14A2.67,2.67,0,0,1,44.31,44.76Z"/><path class="cls-29" d="M45.91,44.46c.27-.2,1.76.4,1.22.52S46,44.87,45.38,45,45.64,44.65,45.91,44.46Z"/><path class="cls-32" d="M46.29,44.3a1.89,1.89,0,0,0-1.9-1.83A2,2,0,0,0,46.29,44.3Z"/><path class="cls-33" d="M46.21,44.74s.1-2.63-.92-2.83l.14-.4s1,.37,1,3.23Z"/><path class="cls-29" d="M47.26,48.91A2.7,2.7,0,0,0,50,51.62a2.84,2.84,0,0,0,2.83-2.74c0-1.49-1.56-2.49-2.6-2.7C48.73,45.88,47.26,47.42,47.26,48.91Z"/><path class="cls-31" d="M48.15,46.92a2.7,2.7,0,0,0,2.45,3.84,2.66,2.66,0,0,0,1.8-.7A2.67,2.67,0,0,1,50,51.62a2.7,2.7,0,0,1-1.81-4.7Z"/><path class="cls-30" d="M49.76,46.61c.27-.19,1.75.41,1.22.53s-1.13-.11-1.75.06S49.49,46.81,49.76,46.61Z"/><path class="cls-32" d="M50.14,46.46a1.9,1.9,0,0,0-1.91-1.84A2,2,0,0,0,50.14,46.46Z"/><path class="cls-33" d="M50.06,46.9s.1-2.63-.92-2.83l.14-.4s.95.37.95,3.23Z"/><path class="cls-31" d="M31.56,45.11a2.7,2.7,0,0,0,2.71,2.7,2.85,2.85,0,0,0,2.83-2.74c0-1.49-1.56-2.49-2.61-2.7C33,42.07,31.56,43.61,31.56,45.11Z"/><path class="cls-29" d="M32.46,43.11a2.69,2.69,0,0,0,4.25,3.14,2.7,2.7,0,0,1-5.15-1.14A2.67,2.67,0,0,1,32.46,43.11Z"/><path class="cls-29" d="M34.06,42.8c.27-.19,1.76.41,1.22.53s-1.13-.11-1.74.06S33.79,43,34.06,42.8Z"/><path class="cls-32" d="M34.44,42.65a1.89,1.89,0,0,0-1.9-1.84A2,2,0,0,0,34.44,42.65Z"/><path class="cls-33" d="M34.36,43.09s.1-2.63-.92-2.83l.14-.4s1,.37,1,3.23Z"/><path class="cls-31" d="M35.74,47a2.71,2.71,0,0,0,2.71,2.71A2.85,2.85,0,0,0,41.28,47c0-1.49-1.56-2.5-2.61-2.71C37.21,44,35.74,45.49,35.74,47Z"/><path class="cls-29" d="M36.64,45a2.69,2.69,0,0,0,4.25,3.14A2.7,2.7,0,0,1,35.74,47,2.66,2.66,0,0,1,36.64,45Z"/><path class="cls-29" d="M38.24,44.68c.27-.19,1.76.41,1.22.53s-1.13-.11-1.74,0S38,44.88,38.24,44.68Z"/><path class="cls-32" d="M38.62,44.53a1.9,1.9,0,0,0-1.9-1.84A2,2,0,0,0,38.62,44.53Z"/><path class="cls-33" d="M38.54,45s.1-2.63-.91-2.83l.13-.41s1,.37,1,3.24Z"/><path class="cls-29" d="M39.12,49.08a2.71,2.71,0,0,0,2.7,2.71,2.85,2.85,0,0,0,2.84-2.74c0-1.5-1.56-2.5-2.61-2.71C40.59,46.05,39.12,47.59,39.12,49.08Z"/><path class="cls-31" d="M40,47.09a2.55,2.55,0,0,0-.26,1.14,2.7,2.7,0,0,0,2.7,2.7,2.66,2.66,0,0,0,1.81-.71,2.7,2.7,0,0,1-5.15-1.14A2.66,2.66,0,0,1,40,47.09Z"/><path class="cls-31" d="M41.62,46.78c.27-.19,1.76.41,1.22.53s-1.13-.11-1.75,0S41.35,47,41.62,46.78Z"/><path class="cls-32" d="M42,46.63a1.9,1.9,0,0,0-1.9-1.84A2,2,0,0,0,42,46.63Z"/><path class="cls-33" d="M41.92,47.07s.1-2.63-.92-2.83l.14-.41s1,.37,1,3.24Z"/><path class="cls-31" d="M43,51.24A2.71,2.71,0,0,0,45.67,54a2.85,2.85,0,0,0,2.84-2.74c0-1.5-1.57-2.5-2.61-2.71C44.44,48.21,43,49.75,43,51.24Z"/><path class="cls-29" d="M43.87,49.25a2.55,2.55,0,0,0-.27,1.14,2.7,2.7,0,0,0,2.71,2.7,2.66,2.66,0,0,0,1.81-.71A2.7,2.7,0,0,1,43,51.24,2.66,2.66,0,0,1,43.87,49.25Z"/><path class="cls-29" d="M45.47,48.94c.27-.19,1.76.41,1.22.53s-1.13-.11-1.75.05S45.2,49.13,45.47,48.94Z"/><path class="cls-32" d="M45.85,48.79A1.9,1.9,0,0,0,43.94,47,2,2,0,0,0,45.85,48.79Z"/><path class="cls-33" d="M45.77,49.23s.1-2.63-.92-2.83L45,46s.95.37.95,3.24Z"/><g class="cls-34"><path d="M22.74,59.82c5.23,3,5.25,7.91.06,10.93s-13.64,3-18.86,0-5.25-7.91-.06-10.92S17.51,56.81,22.74,59.82Z"/></g><g class="cls-34"><path d="M119.91,56c6.85,4,6.89,10.38.08,14.33s-17.88,4-24.73,0S88.38,59.91,95.18,56,113.06,52,119.91,56Z"/></g><polygon class="cls-35" points="92.13 71.88 71.53 83.84 50.81 71.88 71.4 59.91 92.13 71.88"/><polygon class="cls-35" points="63.71 79.31 40.72 92.66 17.59 79.31 40.58 65.95 63.71 79.31"/><polygon class="cls-22" points="86.77 59.93 86.71 72.53 69.38 82.6 69.44 70 86.77 59.93"/><polygon class="cls-23" points="69.44 70 69.38 82.6 52 72.62 52 59.93 69.44 70"/><polygon class="cls-24" points="86.77 59.93 69.44 70 52 59.93 69.33 49.86 86.77 59.93"/><polygon class="cls-24" points="86.77 59.93 69.44 70 52 59.93 69.33 49.86 86.77 59.93"/><polygon class="cls-24" points="86.77 59.93 69.44 70 52 59.93 69.33 49.86 86.77 59.93"/><polygon class="cls-25" points="85.35 59.93 69.43 69.18 53.41 59.93 69.33 50.68 85.35 59.93"/><polygon class="cls-26" points="86.77 59.93 86.71 72.53 69.38 82.6 69.44 70 86.77 59.93"/><polygon class="cls-27" points="79.76 64.05 79.76 67.84 76.38 69.81 76.4 66.01 79.76 64.05"/><path class="cls-28" d="M52,59.93,69.44,70,86.77,59.93,69.33,49.86Zm17.43,9.25-16-9.25,15.92-9.25,16,9.25Z"/><path class="cls-25" d="M66.67,53.34a2.7,2.7,0,0,0,2.7,2.71,2.85,2.85,0,0,0,2.84-2.74c0-1.49-1.57-2.49-2.61-2.7C68.14,50.31,66.67,51.85,66.67,53.34Z"/><path class="cls-30" d="M67.57,51.35a2.55,2.55,0,0,0-.26,1.14,2.7,2.7,0,0,0,2.7,2.7,2.66,2.66,0,0,0,1.8-.7,2.67,2.67,0,0,1-2.44,1.56,2.7,2.7,0,0,1-2.7-2.71A2.66,2.66,0,0,1,67.57,51.35Z"/><path class="cls-30" d="M69.17,51c.27-.19,1.76.41,1.22.53s-1.13-.11-1.75.06S68.9,51.24,69.17,51Z"/><path class="cls-32" d="M69.55,50.89a1.9,1.9,0,0,0-1.9-1.84A2,2,0,0,0,69.55,50.89Z"/><path class="cls-33" d="M69.47,51.33s.1-2.63-.92-2.83l.14-.4s1,.37,1,3.23Z"/><path class="cls-25" d="M70.85,55.22a2.7,2.7,0,0,0,2.7,2.71,2.84,2.84,0,0,0,2.83-2.74c0-1.49-1.56-2.5-2.6-2.71C72.32,52.19,70.85,53.73,70.85,55.22Z"/><path class="cls-30" d="M71.75,53.23a2.55,2.55,0,0,0-.26,1.14,2.7,2.7,0,0,0,2.7,2.7A2.66,2.66,0,0,0,76,56.36a2.7,2.7,0,0,1-5.15-1.14A2.66,2.66,0,0,1,71.75,53.23Z"/><path class="cls-30" d="M73.35,52.92c.27-.19,1.75.41,1.22.53s-1.13-.11-1.75,0S73.08,53.12,73.35,52.92Z"/><path class="cls-32" d="M73.73,52.77a1.9,1.9,0,0,0-1.91-1.84A2,2,0,0,0,73.73,52.77Z"/><path class="cls-33" d="M73.65,53.21s.1-2.63-.92-2.83l.14-.41s.95.37.95,3.24Z"/><path class="cls-36" d="M74.23,57.32A2.71,2.71,0,0,0,76.93,60a2.85,2.85,0,0,0,2.83-2.74c0-1.5-1.56-2.5-2.6-2.71C75.69,54.29,74.23,55.83,74.23,57.32Z"/><path class="cls-30" d="M75.12,55.33a2.69,2.69,0,0,0,2.45,3.84,2.66,2.66,0,0,0,1.8-.71,2.69,2.69,0,1,1-4.25-3.13Z"/><path class="cls-30" d="M76.72,55c.27-.2,1.76.41,1.23.53s-1.13-.11-1.75.05S76.45,55.21,76.72,55Z"/><path class="cls-32" d="M77.11,54.87A1.9,1.9,0,0,0,75.2,53,2,2,0,0,0,77.11,54.87Z"/><path class="cls-33" d="M77,55.31s.1-2.63-.91-2.83l.14-.41s1,.37,1,3.24Z"/><path class="cls-36" d="M78.08,59.48a2.7,2.7,0,0,0,2.7,2.7,2.84,2.84,0,0,0,2.83-2.73c0-1.5-1.56-2.5-2.61-2.71C79.54,56.45,78.08,58,78.08,59.48Z"/><path class="cls-30" d="M79,57.48a2.77,2.77,0,0,0-.26,1.15,2.7,2.7,0,0,0,2.7,2.7,2.66,2.66,0,0,0,1.81-.71A2.7,2.7,0,1,1,79,57.48Z"/><path class="cls-30" d="M80.57,57.18c.27-.2,1.76.41,1.23.53s-1.14-.11-1.75,0S80.3,57.37,80.57,57.18Z"/><path class="cls-32" d="M81,57a1.9,1.9,0,0,0-1.91-1.84A2,2,0,0,0,81,57Z"/><path class="cls-33" d="M80.87,57.47s.1-2.63-.92-2.83l.14-.41s1,.37,1,3.24Z"/><path class="cls-36" d="M63.35,55.23a2.7,2.7,0,0,0,2.7,2.71,2.85,2.85,0,0,0,2.83-2.74c0-1.49-1.56-2.49-2.61-2.71C64.81,52.2,63.35,53.74,63.35,55.23Z"/><path class="cls-30" d="M64.24,53.24a2.69,2.69,0,0,0,4.25,3.13,2.69,2.69,0,0,1-5.14-1.14A2.65,2.65,0,0,1,64.24,53.24Z"/><path class="cls-30" d="M65.84,52.93c.27-.19,1.76.41,1.23.53s-1.13-.11-1.75,0S65.57,53.13,65.84,52.93Z"/><path class="cls-32" d="M66.23,52.78a1.9,1.9,0,0,0-1.91-1.84A2,2,0,0,0,66.23,52.78Z"/><path class="cls-33" d="M66.14,53.22s.1-2.63-.91-2.83l.13-.41s1,.37,1,3.24Z"/><path class="cls-36" d="M67.53,57.11a2.7,2.7,0,0,0,2.7,2.71,2.85,2.85,0,0,0,2.83-2.74c0-1.49-1.56-2.5-2.61-2.71C69,54.08,67.53,55.62,67.53,57.11Z"/><path class="cls-30" d="M68.42,55.12a2.69,2.69,0,0,0,4.25,3.13,2.69,2.69,0,0,1-5.14-1.14A2.65,2.65,0,0,1,68.42,55.12Z"/><path class="cls-30" d="M70,54.81c.27-.19,1.76.41,1.23.53s-1.14-.11-1.75,0S69.75,55,70,54.81Z"/><path class="cls-32" d="M70.41,54.66a1.9,1.9,0,0,0-1.91-1.84A2,2,0,0,0,70.41,54.66Z"/><path class="cls-33" d="M70.32,55.1s.1-2.63-.91-2.83l.13-.41s1,.37,1,3.24Z"/><path class="cls-25" d="M70.9,59.21a2.71,2.71,0,0,0,2.71,2.71,2.85,2.85,0,0,0,2.83-2.74c0-1.5-1.56-2.5-2.61-2.71C72.37,56.18,70.9,57.72,70.9,59.21Z"/><path class="cls-30" d="M71.8,57.21a2.77,2.77,0,0,0-.26,1.15,2.7,2.7,0,0,0,2.7,2.7,2.66,2.66,0,0,0,1.81-.71,2.7,2.7,0,1,1-4.25-3.14Z"/><path class="cls-30" d="M73.4,56.91c.27-.2,1.76.41,1.22.53s-1.13-.11-1.74.05S73.13,57.1,73.4,56.91Z"/><path class="cls-32" d="M73.78,56.76a1.9,1.9,0,0,0-1.9-1.84A2,2,0,0,0,73.78,56.76Z"/><path class="cls-33" d="M73.7,57.2s.1-2.63-.92-2.83l.14-.41s1,.37,1,3.24Z"/><path class="cls-36" d="M74.75,61.37a2.7,2.7,0,0,0,2.7,2.7,2.84,2.84,0,0,0,2.83-2.74c0-1.49-1.56-2.49-2.6-2.7C76.22,58.34,74.75,59.88,74.75,61.37Z"/><path class="cls-30" d="M75.65,59.37a2.61,2.61,0,0,0-.26,1.14,2.7,2.7,0,0,0,2.7,2.71,2.66,2.66,0,0,0,1.81-.71,2.7,2.7,0,1,1-4.25-3.14Z"/><path class="cls-30" d="M77.25,59.07c.27-.2,1.76.4,1.22.53s-1.13-.11-1.75,0S77,59.26,77.25,59.07Z"/><path class="cls-32" d="M77.63,58.92a1.9,1.9,0,0,0-1.9-1.84A2,2,0,0,0,77.63,58.92Z"/><path class="cls-33" d="M77.55,59.36s.1-2.64-.92-2.84l.14-.4s1,.37,1,3.24Z"/><path class="cls-36" d="M60,57.12a2.7,2.7,0,0,0,2.7,2.71,2.85,2.85,0,0,0,2.83-2.74c0-1.49-1.56-2.5-2.61-2.71C61.42,54.09,60,55.63,60,57.12Z"/><path class="cls-30" d="M60.85,55.13A2.69,2.69,0,0,0,63.3,59a2.66,2.66,0,0,0,1.8-.71,2.69,2.69,0,1,1-4.25-3.13Z"/><path class="cls-30" d="M62.45,54.82c.27-.19,1.76.41,1.23.53s-1.13-.11-1.75,0S62.18,55,62.45,54.82Z"/><path class="cls-32" d="M62.84,54.67a1.9,1.9,0,0,0-1.91-1.84A2,2,0,0,0,62.84,54.67Z"/><path class="cls-33" d="M62.75,55.11s.1-2.63-.91-2.83l.14-.41s1,.37,1,3.24Z"/><path class="cls-25" d="M64.14,59a2.71,2.71,0,0,0,2.7,2.71A2.85,2.85,0,0,0,69.67,59c0-1.5-1.56-2.5-2.61-2.71C65.6,56,64.14,57.51,64.14,59Z"/><path class="cls-30" d="M65,57a2.76,2.76,0,0,0-.26,1.14,2.71,2.71,0,0,0,2.71,2.71,2.66,2.66,0,0,0,1.8-.71A2.7,2.7,0,1,1,65,57Z"/><path class="cls-30" d="M66.63,56.7c.27-.2,1.76.41,1.23.53s-1.13-.11-1.75.05S66.36,56.89,66.63,56.7Z"/><path class="cls-32" d="M67,56.55a1.9,1.9,0,0,0-1.91-1.84A2,2,0,0,0,67,56.55Z"/><path class="cls-33" d="M66.93,57s.1-2.63-.91-2.83l.14-.41s1,.37,1,3.24Z"/><path class="cls-36" d="M67.51,61.1a2.7,2.7,0,0,0,2.71,2.7,2.84,2.84,0,0,0,2.83-2.74c0-1.49-1.56-2.49-2.61-2.7C69,58.07,67.51,59.61,67.51,61.1Z"/><path class="cls-30" d="M68.41,59.1a2.76,2.76,0,0,0-.26,1.14A2.7,2.7,0,0,0,70.85,63a2.66,2.66,0,0,0,1.81-.71,2.7,2.7,0,1,1-4.25-3.14Z"/><path class="cls-30" d="M70,58.8c.27-.2,1.76.4,1.22.53s-1.13-.11-1.74.05S69.74,59,70,58.8Z"/><path class="cls-32" d="M70.39,58.65a1.9,1.9,0,0,0-1.9-1.84A2,2,0,0,0,70.39,58.65Z"/><path class="cls-33" d="M70.31,59.09s.1-2.64-.92-2.83l.14-.41s1,.37,1,3.24Z"/><path class="cls-36" d="M71.36,63.26a2.7,2.7,0,0,0,2.7,2.7,2.85,2.85,0,0,0,2.84-2.74c0-1.49-1.57-2.49-2.61-2.7C72.83,60.23,71.36,61.77,71.36,63.26Z"/><path class="cls-30" d="M72.26,61.26A2.76,2.76,0,0,0,72,62.4a2.69,2.69,0,0,0,4.51,2,2.7,2.7,0,1,1-4.25-3.14Z"/><path class="cls-30" d="M73.86,61c.27-.2,1.76.4,1.22.53s-1.13-.12-1.75,0S73.59,61.15,73.86,61Z"/><path class="cls-32" d="M74.24,60.81A1.9,1.9,0,0,0,72.34,59,2,2,0,0,0,74.24,60.81Z"/><path class="cls-33" d="M74.16,61.25s.1-2.64-.92-2.84l.14-.4s1,.37,1,3.24Z"/><path class="cls-25" d="M55.67,59.45a2.7,2.7,0,0,0,2.7,2.7,2.84,2.84,0,0,0,2.83-2.74c0-1.49-1.56-2.49-2.6-2.7C57.13,56.42,55.67,58,55.67,59.45Z"/><path class="cls-30" d="M56.56,57.45a2.69,2.69,0,0,0,4.25,3.14,2.7,2.7,0,1,1-4.25-3.14Z"/><path class="cls-30" d="M58.16,57.15c.27-.2,1.76.4,1.23.53s-1.13-.12-1.75,0S57.89,57.34,58.16,57.15Z"/><path class="cls-32" d="M58.55,57a1.9,1.9,0,0,0-1.91-1.84A2,2,0,0,0,58.55,57Z"/><path class="cls-33" d="M58.46,57.44s.1-2.64-.91-2.84l.14-.4s1,.37,1,3.24Z"/><path class="cls-25" d="M59.85,61.33a2.7,2.7,0,0,0,2.7,2.7,2.85,2.85,0,0,0,2.83-2.74c0-1.49-1.56-2.49-2.61-2.7C61.31,58.29,59.85,59.84,59.85,61.33Z"/><path class="cls-30" d="M60.74,59.33A2.69,2.69,0,0,0,65,62.47a2.7,2.7,0,1,1-4.25-3.14Z"/><path class="cls-30" d="M62.34,59c.27-.2,1.76.4,1.23.52s-1.13-.11-1.75.06S62.07,59.22,62.34,59Z"/><path class="cls-32" d="M62.73,58.88A1.9,1.9,0,0,0,60.82,57,2,2,0,0,0,62.73,58.88Z"/><path class="cls-33" d="M62.64,59.31s.1-2.63-.91-2.83l.14-.4s1,.37,1,3.23Z"/><path class="cls-36" d="M63.22,63.43a2.7,2.7,0,0,0,2.71,2.7,2.85,2.85,0,0,0,2.83-2.74c0-1.49-1.56-2.49-2.61-2.7C64.69,60.39,63.22,61.93,63.22,63.43Z"/><path class="cls-30" d="M64.12,61.43a2.69,2.69,0,0,0,4.25,3.14,2.7,2.7,0,0,1-5.15-1.14A2.67,2.67,0,0,1,64.12,61.43Z"/><path class="cls-30" d="M65.72,61.13c.27-.2,1.76.4,1.22.52s-1.13-.11-1.74.06S65.45,61.32,65.72,61.13Z"/><path class="cls-32" d="M66.1,61a1.91,1.91,0,0,0-1.9-1.85A2,2,0,0,0,66.1,61Z"/><path class="cls-33" d="M66,61.41s.1-2.63-.92-2.83l.14-.4s1,.37,1,3.23Z"/><path class="cls-25" d="M67.07,65.59a2.7,2.7,0,0,0,2.7,2.7,2.85,2.85,0,0,0,2.84-2.74c0-1.49-1.56-2.49-2.61-2.7C68.54,62.55,67.07,64.09,67.07,65.59Z"/><path class="cls-30" d="M68,63.59a2.58,2.58,0,0,0-.26,1.14,2.7,2.7,0,0,0,4.51,2,2.7,2.7,0,0,1-5.15-1.14A2.67,2.67,0,0,1,68,63.59Z"/><path class="cls-30" d="M69.57,63.28c.27-.19,1.76.41,1.22.53s-1.13-.11-1.75.06S69.3,63.48,69.57,63.28Z"/><path class="cls-32" d="M70,63.13a1.9,1.9,0,0,0-1.9-1.84A2,2,0,0,0,70,63.13Z"/><path class="cls-33" d="M69.87,63.57s.1-2.63-.92-2.83l.14-.4s1,.37,1,3.23Z"/><polygon class="cls-22" points="54.98 67.72 54.93 80.31 37.6 90.39 37.66 77.79 54.98 67.72"/><polygon class="cls-23" points="37.66 77.79 37.6 90.39 20.22 80.4 20.22 67.72 37.66 77.79"/><polygon class="cls-24" points="54.98 67.72 37.66 77.79 20.22 67.72 37.54 57.65 54.98 67.72"/><polygon class="cls-24" points="54.98 67.72 37.66 77.79 20.22 67.72 37.54 57.65 54.98 67.72"/><polygon class="cls-24" points="54.98 67.72 37.66 77.79 20.22 67.72 37.54 57.65 54.98 67.72"/><polygon class="cls-25" points="53.57 67.72 37.65 76.97 21.63 67.72 37.55 58.47 53.57 67.72"/><polygon class="cls-26" points="54.98 67.72 54.93 80.31 37.6 90.39 37.66 77.79 54.98 67.72"/><polygon class="cls-27" points="47.98 71.83 47.98 75.63 44.6 77.59 44.62 73.79 47.98 71.83"/><path class="cls-28" d="M20.22,67.72,37.66,77.79,55,67.72,37.54,57.65ZM37.65,77l-16-9.25,15.92-9.25,16,9.25Z"/><path class="cls-37" d="M44.57,63.12s-5.82,4-10.56-1.21c0,0-.56-1.3,1.42-1S40.18,64,44.57,63.12Z"/><path class="cls-36" d="M30.64,57.29s6,2.77,3.7,3.93C33.23,61.77,34.88,60,30.64,57.29Z"/><path class="cls-36" d="M31.05,58.8s3.18,4,3.64,2.06C34.9,59.93,33.86,61.5,31.05,58.8Z"/><path class="cls-36" d="M30.26,60.74s4.58,2.34,4.17.36C34.23,60.17,33.94,62,30.26,60.74Z"/><path class="cls-38" d="M45.15,67.15s-7,0-8-6.93c0,0,.27-1.4,1.76-.06S41,65.4,45.15,67.15Z"/><path class="cls-36" d="M36.91,54.51s3.42,5.67.84,5.32C36.53,59.67,38.89,59.13,36.91,54.51Z"/><path class="cls-36" d="M36.4,56s.36,5.12,1.85,3.74C38.94,59.08,37.21,59.8,36.4,56Z"/><path class="cls-36" d="M34.65,57.14s2.47,4.51,3.25,2.64C38.26,58.9,37,60.27,34.65,57.14Z"/><path class="cls-37" d="M43.62,66.52s-4.42,3-8-.92c0,0-.42-1,1.08-.79S40.28,67.18,43.62,66.52Z"/><path class="cls-36" d="M33.05,62.1s4.57,2.1,2.8,3C35,65.5,36.26,64.16,33.05,62.1Z"/><path class="cls-36" d="M33.36,63.25s2.41,3.06,2.75,1.56C36.28,64.1,35.49,65.29,33.36,63.25Z"/><path class="cls-36" d="M32.76,64.72s3.47,1.77,3.16.27C35.77,64.28,35.55,65.69,32.76,64.72Z"/><path class="cls-38" d="M44.06,69.59s-5.35,0-6.11-5.27c0,0,.2-1.06,1.33,0S40.93,68.25,44.06,69.59Z"/><path class="cls-36" d="M37.8,60s2.6,4.3.64,4C37.51,63.9,39.31,63.49,37.8,60Z"/><path class="cls-36" d="M37.41,61.11S37.69,65,38.82,64C39.35,63.46,38,64,37.41,61.11Z"/><path class="cls-36" d="M36.09,62s1.87,3.42,2.46,2C38.83,63.32,37.86,64.36,36.09,62Z"/><path class="cls-37" d="M29.82,68.07s-4.42,3-8-.92c0,0-.43-1,1.07-.79S26.49,68.72,29.82,68.07Z"/><path class="cls-36" d="M19.25,63.65s4.57,2.1,2.8,3C21.21,67.05,22.46,65.7,19.25,63.65Z"/><path class="cls-36" d="M19.56,64.79s2.41,3.06,2.76,1.57C22.48,65.65,21.69,66.84,19.56,64.79Z"/><path class="cls-36" d="M19,66.26s3.47,1.78,3.16.28C22,65.83,21.75,67.24,19,66.26Z"/><path class="cls-38" d="M30.26,71.13s-5.35,0-6.11-5.26c0,0,.2-1.06,1.34-.05S27.14,69.8,30.26,71.13Z"/><path class="cls-36" d="M24,61.53s2.59,4.31.63,4C23.72,65.45,25.51,65,24,61.53Z"/><path class="cls-36" d="M23.62,62.65s.28,3.89,1.4,2.85C25.55,65,24.23,65.55,23.62,62.65Z"/><path class="cls-36" d="M22.29,63.53s1.87,3.43,2.46,2C25,64.87,24.06,65.91,22.29,63.53Z"/><path class="cls-37" d="M36.26,67.12s-4.42,3-8-.92c0,0-.43-1,1.08-.79S32.93,67.77,36.26,67.12Z"/><path class="cls-36" d="M25.69,62.7s4.57,2.1,2.8,3C27.65,66.1,28.91,64.75,25.69,62.7Z"/><path class="cls-36" d="M26,63.84s2.42,3.06,2.76,1.57C28.92,64.7,28.13,65.89,26,63.84Z"/><path class="cls-36" d="M25.4,65.31s3.47,1.78,3.16.28C28.41,64.88,28.19,66.29,25.4,65.31Z"/><path class="cls-38" d="M36.7,70.18s-5.34,0-6.11-5.26c0,0,.2-1.06,1.34,0S33.58,68.85,36.7,70.18Z"/><path class="cls-36" d="M30.45,60.58s2.59,4.31.63,4C30.16,64.5,32,64.09,30.45,60.58Z"/><path class="cls-36" d="M30.06,61.7s.28,3.89,1.4,2.85C32,64.05,30.67,64.6,30.06,61.7Z"/><path class="cls-36" d="M28.73,62.58s1.88,3.43,2.46,2C31.47,63.92,30.5,65,28.73,62.58Z"/><path class="cls-37" d="M40.76,73.57s-4.42,3-8-.92c0,0-.43-1,1.08-.79S37.42,74.22,40.76,73.57Z"/><path class="cls-36" d="M30.19,69.15s4.57,2.1,2.8,3C32.15,72.55,33.4,71.2,30.19,69.15Z"/><path class="cls-36" d="M30.49,70.29s2.42,3.06,2.76,1.56C33.42,71.15,32.63,72.34,30.49,70.29Z"/><path class="cls-36" d="M29.9,71.76s3.47,1.78,3.16.28C32.91,71.33,32.69,72.74,29.9,71.76Z"/><path class="cls-37" d="M36.92,70.1s-4.42,3-8-.92c0,0-.43-1,1.08-.79S33.58,70.75,36.92,70.1Z"/><path class="cls-36" d="M26.34,65.67s4.58,2.11,2.81,3C28.31,69.08,29.56,67.73,26.34,65.67Z"/><path class="cls-36" d="M26.65,66.82s2.42,3.06,2.76,1.56C29.58,67.68,28.79,68.87,26.65,66.82Z"/><path class="cls-36" d="M26.05,68.29s3.48,1.78,3.17.28C29.07,67.85,28.85,69.26,26.05,68.29Z"/><path class="cls-37" d="M37.76,67.05s-5.28.85-6.86-4.24c0,0,0-1.08,1.31-.26S34.47,66.22,37.76,67.05Z"/><path class="cls-36" d="M30.07,58.55s3.25,3.85,1.27,3.89C30.4,62.47,32.11,61.78,30.07,58.55Z"/><path class="cls-36" d="M29.87,59.72s.88,3.8,1.83,2.59C32.15,61.74,30.93,62.48,29.87,59.72Z"/><path class="cls-36" d="M28.7,60.8s2.39,3.08,2.74,1.59C31.61,61.68,30.81,62.87,28.7,60.8Z"/><path class="cls-37" d="M35.8,65.15s5.28.86,6.86-4.24c0,0,0-1.07-1.31-.25S39.09,64.33,35.8,65.15Z"/><path class="cls-36" d="M43.49,56.66s-3.25,3.84-1.27,3.89C43.16,60.57,41.45,59.88,43.49,56.66Z"/><path class="cls-36" d="M43.7,57.83s-.89,3.79-1.84,2.58C41.41,59.84,42.63,60.58,43.7,57.83Z"/><path class="cls-36" d="M44.86,58.9S42.47,62,42.12,60.5C42,59.79,42.74,61,44.86,58.9Z"/><path class="cls-38" d="M41.2,76.63s-5.35,0-6.11-5.26c0,0,.2-1.06,1.33-.05S38.07,75.3,41.2,76.63Z"/><path class="cls-36" d="M34.94,67s2.6,4.31.64,4C34.65,71,36.45,70.54,34.94,67Z"/><path class="cls-36" d="M34.55,68.15S34.83,72,36,71C36.49,70.5,35.17,71.05,34.55,68.15Z"/><path class="cls-36" d="M33.23,69s1.87,3.42,2.46,2C36,70.37,35,71.41,33.23,69Z"/><path class="cls-37" d="M33,69.36s4.41,3,8-.92c0,0,.43-1-1.08-.79S36.3,70,33,69.36Z"/><path class="cls-36" d="M43.54,64.94s-4.57,2.1-2.8,3C41.58,68.34,40.32,67,43.54,64.94Z"/><path class="cls-36" d="M43.23,66.09s-2.42,3.06-2.76,1.56C40.31,66.94,41.1,68.13,43.23,66.09Z"/><path class="cls-36" d="M43.83,67.56s-3.47,1.78-3.16.27C40.82,67.12,41,68.53,43.83,67.56Z"/><path class="cls-38" d="M32.53,72.43s5.34,0,6.11-5.27c0,0-.21-1.06-1.34,0S35.65,71.09,32.53,72.43Z"/><path class="cls-36" d="M38.78,62.83s-2.6,4.3-.64,4C39.07,66.75,37.28,66.34,38.78,62.83Z"/><path class="cls-36" d="M39.17,64s-.28,3.89-1.4,2.84C37.24,66.3,38.56,66.84,39.17,64Z"/><path class="cls-36" d="M40.49,64.83s-1.87,3.42-2.46,2C37.76,66.16,38.73,67.21,40.49,64.83Z"/><path class="cls-37" d="M41.12,69.21s5.82,4,10.56-1.21c0,0,.56-1.3-1.43-1S45.51,70.08,41.12,69.21Z"/><path class="cls-36" d="M55,63.39s-6,2.77-3.69,3.93C52.46,67.87,50.81,66.1,55,63.39Z"/><path class="cls-36" d="M54.64,64.9S51.45,68.93,51,67C50.79,66,51.83,67.59,54.64,64.9Z"/><path class="cls-36" d="M55.42,66.84s-4.57,2.34-4.16.36C51.46,66.26,51.74,68.12,55.42,66.84Z"/><path class="cls-38" d="M40.54,73.25s7,0,8.05-6.94c0,0-.27-1.39-1.76-.06S44.65,71.49,40.54,73.25Z"/><path class="cls-36" d="M48.77,60.6s-3.42,5.68-.83,5.33C49.16,65.76,46.8,65.22,48.77,60.6Z"/><path class="cls-36" d="M49.29,62.08s-.37,5.12-1.85,3.75C46.74,65.18,48.48,65.89,49.29,62.08Z"/><path class="cls-36" d="M51,63.24s-2.47,4.51-3.24,2.64C47.43,65,48.71,66.37,51,63.24Z"/><path class="cls-37" d="M38.42,66.82s4.81,3.28,8.72-1c0,0,.47-1.07-1.17-.86S42.05,67.53,38.42,66.82Z"/><path class="cls-36" d="M49.92,62s-5,2.29-3.05,3.25C47.79,65.71,46.42,64.25,49.92,62Z"/><path class="cls-36" d="M49.58,63.26s-2.62,3.32-3,1.7C46.41,64.19,47.27,65.48,49.58,63.26Z"/><path class="cls-36" d="M50.24,64.86s-3.78,1.93-3.44.3C47,64.38,47.2,65.92,50.24,64.86Z"/><path class="cls-38" d="M37.94,70.15s5.82,0,6.65-5.72c0,0-.22-1.15-1.45-.05S41.34,68.7,37.94,70.15Z"/><path class="cls-36" d="M44.75,59.71s-2.83,4.69-.7,4.4C45.06,64,43.11,63.53,44.75,59.71Z"/><path class="cls-36" d="M45.17,60.93s-.3,4.23-1.52,3.09C43.07,63.49,44.5,64.08,45.17,60.93Z"/><path class="cls-36" d="M46.61,61.89s-2,3.72-2.68,2.18C43.63,63.34,44.69,64.47,46.61,61.89Z"/><path class="cls-38" d="M45.28,69.08s-2.43,4.76-7.48,3c0,0-.84-.66.57-1.2S42.66,71.25,45.28,69.08Z"/><path class="cls-36" d="M33.88,70.25s5-.34,3.89,1.28C37.23,72.3,37.69,70.52,33.88,70.25Z"/><path class="cls-36" d="M34.7,71.11s3.59,1.53,3.17,0C37.68,70.46,37.56,71.89,34.7,71.11Z"/><path class="cls-36" d="M34.88,72.69s3.9-.1,2.91-1.27C37.32,70.86,37.8,72.21,34.88,72.69Z"/><path class="cls-6" d="M14.88,49s.42,2-.26,8.61l-.51,4.61a1.64,1.64,0,0,1-2.51-.52s-.16-4.62-.47-7.43a21.26,21.26,0,0,1,0-5Z"/><path class="cls-7" d="M11.6,61.65s-.16-4.62-.47-7.43a21.26,21.26,0,0,1,0-5l1.37-.11L13,62.55A1.6,1.6,0,0,1,11.6,61.65Z"/><path class="cls-6" d="M10.31,50.31s.42,2.21-.26,9.37L9.6,64.93s-1.39.91-2.43-.91c0,0-.3-4.91-.61-8a26.09,26.09,0,0,1,0-5.43Z"/><path class="cls-7" d="M7.17,64s-.3-4.91-.61-8a26.09,26.09,0,0,1,0-5.43l1.19-.1L8.4,65.11A2,2,0,0,1,7.17,64Z"/><path class="cls-39" d="M9.62,64.36s-2,.47-2.47-.65a3.69,3.69,0,0,0,.23,2.92c.78,1.75,2.19,2.53,3.31,2.35a1.29,1.29,0,0,0,1-2A25.31,25.31,0,0,1,9.62,64.36Z"/><path class="cls-40" d="M20.77,43a1.76,1.76,0,0,1,1.38-1.29A1.38,1.38,0,0,1,20.77,43Z"/><path class="cls-6" d="M21.61,41.38a11.55,11.55,0,0,1,1.47,1.35,3.46,3.46,0,0,1,.44,2.78c-.25.62-.64-.07-1-1a1.38,1.38,0,0,0-.84-1.09,4.91,4.91,0,0,1-1.37-1.12C20.08,42,21.61,41.38,21.61,41.38Z"/><path class="cls-7" d="M20.38,42.37a6.42,6.42,0,0,1,1.11,1.31c.24.61.92.41,1.06.83.26.72.57,1.3.8,1.23-.23-.53.32-1.11-.69-2.25a9.57,9.57,0,0,0-2-1.48C20.38,42.21,20.27,42.25,20.38,42.37Z"/><path class="cls-6" d="M20.7,42s.64,1.76.91,2.27.67.75.7.61-.67-1.68-.08-1.77C22.55,43,20.85,42.22,20.7,42Z"/><path class="cls-41" d="M12.92,28.38s1.72-.85,3.31,2.59,1.92,4.86,2.74,6,3.18,4.81,3.18,4.81A2.1,2.1,0,0,0,20.77,43s-4.14-4.27-5.23-6.32S11.25,29.82,12.92,28.38Z"/><path class="cls-39" d="M19,36.94c-.82-1.11-1.2-2.5-2.74-6C15,28.13,14,28.06,13.37,28.11c-1.46,1.53,2.08,6.47,3.15,8.48a45,45,0,0,0,4.54,5.87,2.18,2.18,0,0,1,1.09-.71S19.8,38.06,19,36.94Z"/><path class="cls-39" d="M14.6,43.85s-5.41,2.81-8.73-.77A27.67,27.67,0,0,0,6.8,40c1-3.61.19-4.86,0-7.12s-.41-4,1.7-4.24,6.77-1.57,7.34,1.41-.55,6.31-.59,6.79S14,40.94,14.6,43.85Z"/><path class="cls-42" d="M14.5,41.21s1.74,2.42,1.84,9.31c0,0-3.81,3.49-9.75.62,0,0-1.92-1.14-1.88-1.9s1.58-8.16,1.58-8.16A6.37,6.37,0,0,0,14.5,41.21Z"/><path class="cls-10" d="M15.63,22.19A38.78,38.78,0,0,0,12.57,29c-.15.47-1.53-.74-.59-.76,0,0,5.26-1.14,4.58-5.7A3.56,3.56,0,0,0,11.49,20Z"/><path class="cls-11" d="M15.24,27a3.35,3.35,0,0,0-1.36,2.8c0,.46,0,2.28-2.43.94,0,0-2.39-2-1.37-2.66.68-.42,1.4-1.08,1.28-4.09Z"/><path class="cls-12" d="M10.08,28.06a.39.39,0,0,0-.2.24,5,5,0,0,0,4.52-.24L11.86,24.4h0s-.2.07-.49.2C11.37,27.07,10.71,27.67,10.08,28.06Z"/><path class="cls-13" d="M16,21.89s.65.41.16,2.51c-.05.23.25.62.2,1.22s-.48,3-1.89,2.88A4.28,4.28,0,0,1,11,24.7C10.74,22.16,13.47,19.63,16,21.89Z"/><path class="cls-9" d="M15.69,22.7s-2.88-.46-4.52,3.82a1.73,1.73,0,0,0-.11.35c-2-1.72-1.91-3.41-1.53-4.61s1.83-3.4,4.35-2.25C13.88,20,15.81,21.33,15.69,22.7Z"/><path class="cls-10" d="M15.69,22.7s.66.05.7,2.1c0,0,1.16-5.08-4-5.08C12.42,19.72,15.46,20.61,15.69,22.7Z"/><path class="cls-13" d="M12.07,25.39s-.09-1.25-.84-1.06c-.24.06-.52.25-.35.92s.71,1.38,1.24,1.43Z"/><path class="cls-10" d="M11.55,20.88s-1-2.29-2.91-1.61-1,4.73-.39,6.57.18-5.72,2.74-4.38Z"/><path class="cls-42" d="M11.09,21c-.25.24-.36.54-.24.67s.43,0,.69-.2.36-.54.24-.67S11.35,20.73,11.09,21Z"/><path class="cls-10" d="M14.79,20.26s1.15-2.21,3-1.42.67,4.77,0,6.58.17-5.72-2.47-4.54Z"/><path class="cls-42" d="M15.24,20.38c.24.25.33.56.2.68s-.44,0-.67-.23-.33-.57-.21-.69S15,20.13,15.24,20.38Z"/><path class="cls-43" d="M4.71,49.24c.06-.84,1.58-8.16,1.58-8.16a7,7,0,0,0,2.58,1.36l-.64,9.34a10.63,10.63,0,0,1-1.64-.64S4.67,50,4.71,49.24Z"/><path class="cls-13" d="M10.83,41.29s1.46.24,1.77,0,.72.12.33.36a2.3,2.3,0,0,1-.9.26s1.67.51,1.94,0-.15,1.36-1,1.52S11.24,44,9.87,42.3A1.63,1.63,0,0,1,10.83,41.29Z"/><path class="cls-44" d="M7.88,29.37s1.51.4.82,2.67-1.83,6.07-1.83,6.07l0,.62,4.32,2.46s-1.29.6-.86,1.79c0,0-6.42-1.56-6.68-4.08C3.62,38.9,5.51,28.4,7.88,29.37Z"/><path class="cls-39" d="M3.62,38.9C3.88,41.42,10.3,43,10.3,43a1.22,1.22,0,0,1,0-1,38.25,38.25,0,0,1-5.42-3c-1.17-1,2.36-8.46,2.93-9.65C5.5,28.45,3.62,38.9,3.62,38.9Z"/><path class="cls-39" d="M11.58,61.05a1.83,1.83,0,0,0,.74,2.47c1.57.89,4.62,2.11,5,1.9s1.75-.81.76-1.9-3.89-2.14-3.89-2.14S12.09,62.38,11.58,61.05Z"/><path class="cls-45" d="M96.25,31.18a2.13,2.13,0,0,1,2.29,2A2,2,0,0,1,96.25,31.18Z"/><path class="cls-6" d="M98.48,32.05a13.87,13.87,0,0,0-1,2c-.08.43-1.06,1.14-1.61,1.27s-2,.32-1.72-.45.63-1,.77-1.55A3.5,3.5,0,0,1,96,31.8L97.37,31Z"/><path class="cls-46" d="M96,31.8a5.88,5.88,0,0,0-1.36,1.33c-.24.53-.46,1-.31,1.1.35.18.6-.31.78-.66s.77-.5,1.11-.58,1.61-.79,1.35-1.56l-.51-.32Z"/><path class="cls-47" d="M105.13,15.5s-1.51-.36-2.93,4.59-1.44,5.26-1.44,5.26l-4.51,5.83a2.21,2.21,0,0,1,2.29,2s3.63-3.3,4.1-4.54S109.79,16.46,105.13,15.5Z"/><path class="cls-45" d="M98.54,33.15A2.38,2.38,0,0,0,98,31.89c2.72-2.16,4.94-6.47,4.94-6.47l.78,1.11c-.54,1-1,1.8-1.06,2.08C102.17,29.85,98.54,33.15,98.54,33.15Z"/><path class="cls-48" d="M117.58,57.2s-.79,6.1-2.8,6.27-2.93.29-3-.21,2.36-3.44,2.42-4.43S117.58,57.2,117.58,57.2Z"/><path class="cls-48" d="M103.31,62.78s.07,2.53-2,2.36-7.29,0-7.33-.83,2-1.18,5.71-2.4Z"/><path class="cls-49" d="M100.87,34.74S99.53,45.88,99.66,48.4s0,13.51,0,13.51,2,1.7,4.1.7c0,0,.38-11.57.56-13.21s2.15-8.13,2.64-10.18C107,39.22,101.49,36,100.87,34.74Z"/><path class="cls-50" d="M100.87,34.74S99.53,45.88,99.66,48.4s0,13.51,0,13.51,2,1.7,4.1.7c0,0,.38-11.57.56-13.21s2.15-8.13,2.64-10.18C107,39.22,101.49,36,100.87,34.74Z"/><path class="cls-51" d="M104.32,49.4c.19-1.63,2.15-8.13,2.64-10.18,0,0-.06-.25-1.69-1.37-.36,3.12-2.81,9.45-2.71,11.39.14,2.52,0,13.52,0,13.52l.18.14a3.34,3.34,0,0,0,1-.29S104.14,51,104.32,49.4Z"/><path class="cls-50" d="M106.54,41.56s2.74,7.55,3.55,8.94,4.09,8.33,4.09,8.33,3.19.07,3.6-2.24l-3.89-8.08-1.6-11.58-6.08,1.74Z"/><path class="cls-51" d="M117.78,56.59l-3.89-8.08-1.6-11.58-3.53,1,.28,2.44s2.83,7.79,3.66,9.22,3.69,7.48,4.16,8.46A2.3,2.3,0,0,0,117.78,56.59Z"/><path class="cls-47" d="M110.61,17.12s3.87,2.53,3.24,3.85c0,0,.28,2.11-2.07,8.28-1.23,3.23,0,4.69.59,8.15,0,0-2.14,4-6.47,1.26,0,0-5.16-2.64-5-4.15s.31-8.68,1.19-12.07.88-9,3.65-7.36Z"/><path class="cls-47" d="M110.61,17.12s3.87,2.53,3.24,3.85c0,0-2.07,4.82-2.07,8.28a36.11,36.11,0,0,0,.59,8.15s-2.14,4-6.47,1.26c0,0-5.16-2.64-5-4.15s.31-8.68,1.19-12.07.88-9,3.65-7.36Z"/><path class="cls-6" d="M111.08,12.93s-1.68,2.19-.59,3.82c.61.92-1.11,2.86-3.79,2.51,0,0-1.18-.39-1-.81a2.69,2.69,0,0,0-.38-2.35C104.91,15.31,111.08,12.93,111.08,12.93Z"/><path class="cls-52" d="M110.49,16.75a.81.81,0,0,1,.12.37,5,5,0,0,0-2.87-1.31l2.76-2.65.27-.11.06.26C110.41,14,109.68,15.54,110.49,16.75Z"/><path class="cls-53" d="M105.67,18.45c.36-1.56,0-1.56-.38-2.35-.11-.22.28-.55.9-.93a1.84,1.84,0,0,1,.41.53,4.86,4.86,0,0,1,.66,3.6,3.43,3.43,0,0,1-.56,0C106.38,19.18,105.56,18.93,105.67,18.45Z"/><path class="cls-6" d="M111.73,11.68s-.87,3-3.06,4.22c-1.94,1.1-4.15,1.74-4.39-.5-.2-1.77-.74-6.31.87-7.1,2.09-1,2.92-2.39,5.18-1.38A3.78,3.78,0,0,1,111.73,11.68Z"/><path class="cls-7" d="M111.73,11.68a6.86,6.86,0,0,1-3,4.26,8.7,8.7,0,0,1-1.82.81,8,8,0,0,0,2-1.69c.82-.82-1.08-.61.36-2.77.49-.74-1.72.1-2.2.05-2.84-.27-2.52-1.89-2.52-2.58a4.05,4.05,0,0,1,.29-.83l.31-.5a1.47,1.47,0,0,1,.1-.13,9.6,9.6,0,0,1,1-1c1.22.11,4.69.43,4.75.45s.59.87,1.09,1.68A4.59,4.59,0,0,1,111.73,11.68Z"/><path class="cls-54" d="M110.27,14.53a5.49,5.49,0,0,0,1.87-5,3.55,3.55,0,0,0-3-3,4.07,4.07,0,0,0-4.75,2.35c-.37.79-.28,3,3,2.36.47-.08,1.48-.67,1.89-.25a1.67,1.67,0,0,1,.14,1.76c-.21.53.26.62.34.51s.79-1.62,1.34-1S110.33,14.43,110.27,14.53Z"/><path class="cls-55" d="M110.27,14.53c.06-.1,1.35-1.7.87-2.28s-1.27.86-1.34,1-.55,0-.34-.51a1.67,1.67,0,0,0-.14-1.76c-.37-.38-1.24.07-1.75.22a4.11,4.11,0,0,0,1.71-1.69,3.18,3.18,0,0,1,2-1.82,3.7,3.7,0,0,1,.83,1.82A5.49,5.49,0,0,1,110.27,14.53Z"/><path class="cls-56" d="M112.37,37.4a50.43,50.43,0,0,1-.61-7.63,53.58,53.58,0,0,0,2.29-8.84c.39-.81-1.16-2.17-2.29-3a7.13,7.13,0,0,0-1.86,5c.15,3.36-2.28,12.94-1.16,16.71A4.36,4.36,0,0,0,112.37,37.4Z"/><path class="cls-57" d="M100.86,34a5.88,5.88,0,0,0-1.79.86c-.42.44-.8.86-.68,1,.29.3.71-.1,1-.39s.92-.24,1.3-.2,1.86-.24,1.85-1.09l-.39-.5Z"/><path class="cls-45" d="M101,33.42a2.22,2.22,0,0,1,2,2.43A2.08,2.08,0,0,1,101,33.42Z"/><path class="cls-57" d="M103.14,34.71a14.75,14.75,0,0,0-1.37,1.9,2.85,2.85,0,0,1-1.87,1c-.59,0-2.17,0-1.71-.77s1.07-1.05,1.3-1.55A3,3,0,0,1,100.63,34l1.54-.58Z"/><path class="cls-7" d="M101.77,36.61a2.85,2.85,0,0,1-1.87,1c-.53,0-1.87,0-1.78-.58.27,0,.69,0,1.32,0,1.49-.06,2.91-2,3.38-2.76l.32.42A14.75,14.75,0,0,0,101.77,36.61Z"/><path class="cls-47" d="M112.9,18.8s-1.5-.63-3.83,4.22-2.42,5.18-2.42,5.18L101,33.42a2.31,2.31,0,0,1,2,2.43s4.33-2.76,5-4S117.54,20.6,112.9,18.8Z"/><path class="cls-58" d="M101,33.42l5.66-5.22s.08-.33,2.42-5.18,3.83-4.22,3.83-4.22a2.25,2.25,0,0,1,.41.21c-.9,1.89-2.32,1.83-6.06,9.86-1.1,2.38-4.22,3.91-5.27,4.93A2.39,2.39,0,0,0,101,33.42Z"/><path class="cls-45" d="M103,35.85a2.74,2.74,0,0,0-.16-1l4.18-3c.49-.35,3.11-3.28,4.69-5.08-1.58,2.44-3.38,4.59-3.68,5.11C107.33,33.09,103,35.85,103,35.85Z"/></svg>