<?xml version="1.0" encoding="utf-8"?>
<!-- Generator: Adobe Illustrator 24.1.1, SVG Export Plug-In . SVG Version: 6.00 Build 0)  -->
<svg version="1.1" id="layer1" xmlns="http://www.w3.org/2000/svg" xmlns:xlink="http://www.w3.org/1999/xlink" x="0px" y="0px"
	 viewBox="0 0 120.6 118.1" style="enable-background:new 0 0 120.6 118.1;" xml:space="preserve">
<style type="text/css">
	.stb0{opacity:0.1;enable-background:new    ;}
	.stb1{fill:#131C24;}
	.stb2{fill:#EFB185;}
	.stb3{fill:#E6A376;}
	.stb4{fill:#2D1420;}
	.stb5{fill:#401E2C;}
	.stb6{fill:#111114;}
	.stb7{fill:#0A0A0A;}
	.stb8{fill:#2A3D4C;}
	.stb9{fill:#1D2833;}
	.stb10{fill:#DD9569;}
	.stb11{fill:#341C09;}
	.stb12{fill:#221101;}
	.stb13{fill:#59253B;}
	.stb14{fill:#DFEAEA;}
	.stb15{fill:#93B9C1;}
	.stb16{fill:#2B0D04;}
	.stb17{fill:#CEE2EA;}
	.stb18{opacity:0.1;}
	.stb19{fill:#231D21;}
	.stb20{fill:#31282E;}
	.stb21{fill:#BAD1DE;}
	.stb22{fill:#DDEDF2;}
	.stb23{fill:#E8A476;}
	.stb24{fill:#DB9669;}
	.stb25{fill:#F1B287;}
	.stb26{fill:#EFF3FC;}
	.stb27{fill:#BEAF84;}
	.stb28{fill:#A39772;}
	.stb29{fill:#E6DAB0;}
	.stb30{fill:#885937;}
	.stb31{fill:#6B4125;}
	.stb32{fill:#936F44;}
	.stb33{fill:#C3DBEB;}
	.stb34{fill:#80BBD9;}
	.stb35{fill:#B1CDDD;}
	.stb36{fill:#EAF3FA;}
	.stb37{fill:#D7E9F4;}
	.stb38{fill:#C4DAE1;}
	.stb39{fill:#AFCCD3;}
	.stb40{fill:#CADBDA;}
	.stb41{fill:#E3EDEF;}
	.stb42{fill:#C5D8E4;}
	.stb43{fill:#FFA015;}
	.stb44{fill:#EA7D06;}
	.stb45{fill:#F09700;}
	.stb46{fill:#F8C963;}
	.stb47{fill:#F7FDFD;}
	.stb48{fill:#F4F4F4;}
	.stb49{fill:#EDEFEF;}
	.stb50{fill:#94C4D3;}
	.stb51{fill:#89B7C9;}
	.stb52{fill:#C6DBE5;}
	.stb53{fill:#256272;}
	.stb54{fill:#3EA2BD;}
	.stb55{fill:#F1F7F7;}
	.stb56{fill:#07101A;}
	.stb57{fill:#12293A;}
	.stb58{fill:#0D1D2B;}
	.stb59{fill:#1A3C51;}
	.stb60{fill:#2CC2E5;}
	.stb61{fill:#52D9FE;}
	.stb62{fill:#E5770A;}
	.stb63{fill:#E5A67C;}
	.stb64{fill:#FF8500;}
	.stb65{fill:#17A89F;}
	.stb66{fill:#F2B78F;}
	.stb67{fill:#E3E5E3;}
	.stb68{fill:#EA7500;}
	.stb69{fill:#EA7706;}
</style>
<path class="stb0" d="M44.2,69.7c-6.7,3.9-6.8,10.2-0.1,14.1s17.6,3.9,24.3,0s6.8-10.2,0.1-14.1S50.9,65.8,44.2,69.7z"/>
<path class="stb1" d="M45.9,38.3c-0.5-1-1.6-1.6-2.7-1.5C43.6,37.9,44.8,38.6,45.9,38.3z"/>
<path class="stb2" d="M44,36c-0.7,0.8-1.3,1.7-1.8,2.7c-0.2,0.6-0.9,3,0.3,4.6c0.6,0.9,1-0.3,1.2-2c-0.1-0.8,0.3-1.5,0.9-2
	c0.7-0.7,1.3-1.4,1.7-2.3C46.6,36.4,44,36,44,36z"/>
<path class="stb3" d="M46.3,37.1c-0.6,0.8-1,1.6-1.3,2.5c-0.2,1.1-1.3,1-1.4,1.7c-0.1,1.3-0.4,2.3-0.8,2.3c0.2-0.9-0.9-1.7,0.3-3.8
	c0.8-1.1,1.7-2.2,2.7-3.1C46.2,36.8,46.4,36.8,46.3,37.1z"/>
<path class="stb2" d="M45.6,36.6c0,0-0.4,3-0.6,4s-0.8,1.4-0.9,1.2s0.5-2.9-0.5-2.9C43.1,39,45.5,37,45.6,36.6z"/>
<path class="stb4" d="M53,12c0,0-3-0.7-4.3,5.4s-1.3,8.5-2.2,10.5s-3.3,8.8-3.3,8.8c1.1,0.1,2.1,0.6,2.7,1.5c0,0,5-8.3,6-12
	S56.2,13.7,53,12z"/>
<path class="stb5" d="M46.5,27.9c0.9-2.1,0.9-4.5,2.2-10.5c0.7-3.3,1.9-4.6,2.9-5.1c2.9,1.9-0.3,10.5-1.3,14.2
	c-0.7,2.8-3.7,8.4-5.1,11c-0.6-0.4-1.3-0.7-2-0.7C43.2,36.7,45.6,30,46.5,27.9z"/>
<path class="stb6" d="M56.1,70.8c0,0,0.8,1.9,0,2.4s-0.9,1-2.2,0.9s-1.1,0.3-1.6,0.8s-5,2.5-5.9,1.5s1.6-2.1,2.4-2.7s2.9-2.8,3-3.5
	S56.1,70.8,56.1,70.8z"/>
<path class="stb7" d="M56.1,73.2c-0.8,0.5-0.9,1-2.2,0.9s-1.1,0.3-1.6,0.8s-5,2.5-5.9,1.5c-0.3-0.3-0.2-0.7,0.1-1l1.3,0.2
	c1.4,0.2,3.1-1.3,3.8-1.9s1.5-0.4,2.7-0.6s1-2,1-2l0.9-0.3C56.3,71.3,56.8,72.8,56.1,73.2z"/>
<path class="stb6" d="M64.3,77c0,0,0.3,2.2-0.5,3.4s-2.8,3.3-3.6,3.2s-1-0.5-1-0.5c-0.2-1.2-0.1-2.5,0.3-3.6c0.3-0.8,0.6-1.7,0.7-2.5
	H64.3z"/>
<path class="stb7" d="M63.8,80.4c-0.8,1.3-1.9,2.3-3.2,3.2c1.2-1.6-0.6-1.2,0.8-2c1.9-1,0.7-1.9,1.5-2.1s0.2-2.3,0.2-2.3l0.5-0.2h0.8
	C64.3,76.9,64.6,79.2,63.8,80.4z"/>
<path class="stb1" d="M54.3,40.5c0,0-3.9-0.4-5.2-3.3c-0.2,4.6-0.1,9.1,0.4,13.7c0.8,7.3,1.4,20.2,1.4,20.2c1.4,1.3,3.7,1.3,5.1,0
	c0,0,0.7-8.5,0-13.2c0,0,0.5-8.3-0.3-12.4S54.3,40.5,54.3,40.5z"/>
<path class="stb8" d="M51,71.1c0,0-0.6-12.9-1.4-20.2c-0.5-4.9-0.6-9.7-0.5-14.6c0.9,1.9,2.6,3.4,4.5,4.1c-0.1,2.8-0.4,11-0.3,13.8
	s0.6,13.4,0.8,17.9C52.9,72.2,51.8,71.8,51,71.1z"/>
<path class="stb9" d="M63.4,40c0,0,0.4,4.3,0.5,10.9c0,3.4,0.2,6.8,0.7,10.2c0.4,5.1,0.5,10.3,0.4,15.5c0,0-2.1,3.3-5.4,0
	c0,0-0.6-11.4-1.1-14s-3.7-15.2-5-19.8c-0.6-2-0.7-2.8-0.7-2.8S58.3,44,63.4,40z"/>
<path class="stb8" d="M59.6,76.6c0,0-0.6-11.4-1.1-14s-3.7-15.2-5-19.8c-0.4-1.3-1-2.5-1.9-3.5c0,0,3.7,2.6,6.8,2.6
	c0.1,1,1.5,10.3,1.8,14.4s3.1,18.2,2.3,21.8C61.4,78,60.3,77.5,59.6,76.6z"/>
<path class="stb5" d="M59.8,13.4c0,0,5.7,3.4,5.8,3.9s1.6,1.7-1,6.7c0,0-3.3,5.4-2.3,11.2c0.3,1.7,0.7,3.4,1.3,5.1
	c0,0-2.9,3.7-10.1,0.5c-1.9-1-3.5-2.6-4.4-4.5c0.6-3.5,0.8-7,0.5-10.5C49,20.1,49,12.8,52.3,12C52.3,12,53.2,11.1,59.8,13.4z"/>
<path class="stb2" d="M59.4,8.8c0,0-1.4,3,0.3,4.6c1,0.9-0.5,3.6-3.8,3.9c0,0-1.5-0.1-1.4-0.7c0.1-1-0.3-2-1.1-2.6
	C52.9,13.3,59.4,8.8,59.4,8.8z"/>
<path class="stb10" d="M59.8,13.4c0.1,0.1,0.2,0.2,0.2,0.4c-1.1-0.6-2.4-0.9-3.7-0.8l2.5-3.8l0.3-0.2l0.1,0.3
	C58.9,10.3,58.5,12.2,59.8,13.4z"/>
<path class="stb2" d="M59.9,7.2c0,0-0.2,3.7-2.4,5.7c-2,1.8-4.4,3.1-5.3,0.6c-0.7-2-2.5-7.2-0.9-8.5c2.2-1.7,2.8-3.6,5.7-3
	C57,2,60.3,3,59.9,7.2z"/>
<path class="stb3" d="M59.9,7.2c0,2.2-0.9,4.3-2.4,5.8c-0.6,0.5-1.2,1-1.9,1.4c0.7-0.7,1.4-1.6,1.8-2.5c0.7-1.2-1.4-0.4-0.3-3.3
	c0.4-1-2,0.6-2.5,0.6c-3.4,0.4-3.4-1.5-3.6-2.3c0-0.3,0.1-0.7,0.1-1l0.2-0.7c0-0.1,0.1-0.2,0.1-0.3c0.3-0.5,0.6-0.9,0.9-1.4
	c1.5-0.2,5.6-0.7,5.7-0.7s0.9,0.9,1.7,1.7C59.9,5.4,60,6.3,59.9,7.2z"/>
<path class="stb11" d="M58.9,10.9c1.4-1.8,1.7-4.3,0.8-6.4c-0.7-1.7-2.4-2.8-4.2-2.7c-2.4-0.1-4.5,1.6-4.9,4c-0.2,1,0.1,3,3.7,1.4
	C54.9,7,56.3,6.6,56.9,7c0.6,0.5,0.8,1.3,0.6,2C57.4,9.7,58,9.7,58,9.5s0.5-2.1,1.3-1.5S59,10.8,58.9,10.9z"/>
<path class="stb12" d="M58.9,10.9c0-0.1,1.1-2.4,0.4-2.9S58.1,9.4,58,9.5S57.4,9.7,57.5,9c0.2-0.7-0.1-1.5-0.6-2
	c-0.5-0.3-1.8,0.1-2.5,0.3c0.6-0.5,1.8-0.8,2.1-1.9c0.2-1.1,0.9-2.1,1.9-2.7c0.6,0.5,1.1,1.1,1.5,1.9C60.6,6.7,60.3,9.1,58.9,10.9z"
	/>
<path class="stb11" d="M48.8,5.4c0,0,1.5,3.8,5.8,1.9c1.3-0.6,2.3-1.7,2.7-3.1c0.1-0.7,0.6-1.2,1.3-1.5c0,0-1.5-1.5-4.5-0.8
	c-1.4,0.3-2.7,2-3,2.2S50,5.5,48.8,5.4z"/>
<path class="stb4" d="M65.6,17.3c0.1,0.5,1.6,1.7-1,6.7c0,0-3.3,5.4-2.3,11.2c0.3,1.7,0.7,3.4,1.3,5.1c-1.2,1.3-3,1.9-4.8,1.8
	c-0.8-4.9,0.1-13.6,0.6-19.6c0.1-2.8,1.4-5.3,3.7-6.9C64,16,64.8,16.6,65.6,17.3z"/>
<path class="stb13" d="M49.1,36.2c0.6-3.5,0.8-7,0.5-10.5c-0.4-4.3-0.5-9.6,0.9-12.3c1,0.2,2.5,1.2,4.1,5.2c0.6,1.4,1.7,2.5,3,3.2
	c1.4,0.8,0.9,3-0.5,6.3c-1.6,4.3-1.9,9-1,13.5c-0.9-0.2-1.8-0.6-2.7-0.9C51.6,39.8,50.1,38.2,49.1,36.2z"/>
<path class="stb14" d="M50.9,11.6c0.9,0,1.9,0.1,2.8,0.4c0.8,0.4,1.3,1.1,1.6,1.9c0.5,1.2-0.4,4.4-1.2,4.4s-0.7-1.3-1.6-2
	s-1.9-3.2-1.9-3.2S49.8,11.6,50.9,11.6z"/>
<path class="stb3" d="M53.3,18.4c0,0,0.1-2.4,0.6-2.8s0-1.2-0.5-0.6c-0.3,0.4-0.5,0.9-0.6,1.4c0-1,0.1-2.1,0.3-3.1
	c0.3-0.9-2.2-0.1-2.6,1.2s-1.1,2.7,1.2,5.2C52.4,19.5,53,19,53.3,18.4z"/>
<path class="stb5" d="M62.7,17.1c1.6-0.9,4.7-0.2,3,3.8s-8.6,13-10.8,12.8s-1.4-4.5,0.3-7S61.3,18,62.7,17.1z"/>
<path class="stb5" d="M54.4,33.6c0,0-4-5-3.5-14.8c0.9,0.3,1.9,0.1,2.6-0.6C53.5,18.2,59.6,35.2,54.4,33.6z"/>
<path class="stb15" d="M49.3,13c0,0-1.2,0.2-1.1,0.6S48.9,13.7,49.3,13z"/>
<path class="stb15" d="M48.5,15.7c0,0-1.2,0.3-1,0.7S48.2,16.5,48.5,15.7z"/>
<path class="stb15" d="M48.6,11.7c0,0-1.1-0.6-1.2-0.2S47.8,12,48.6,11.7z"/>
<path class="stb15" d="M55.4,17.6c0,0,0.5,1.1,0.1,1.2S55,18.3,55.4,17.6z"/>
<path class="stb16" d="M11.1,16.1c-6.1-1.5-6.9,10.5-2.3,14c0.8,0.6,3.3,0.1,3.4-0.8c0.7-3.6-4.6-7.5-1.9-11c0.2-0.1,0.4-0.3,0.5-0.5
	C11.3,17.2,12.5,16.6,11.1,16.1z"/>
<path class="stb2" d="M34.6,39c0,0,2.7,1.3,4.1,1s3.3-1.3,2.5-1.7s-2.9-0.3-3-0.9s1.2-0.5,0.6-0.8s-1.9-0.4-4.2,0.8
	C34.2,37.8,34.2,38.5,34.6,39z"/>
<path class="stb17" d="M20.5,25.1c0,0-2.2-0.8-2.2,1.7c0.5,2.9,1.5,5.6,2.9,8.1c0,0,2.5,4.7,3.7,5s10.4,0,10.4,0c-0.3-1-0.3-2,0-3
	c0,0-8-0.9-8.6-1.5S22.2,25.6,20.5,25.1z"/>
<g class="stb18">
	<path d="M4.1,83.9C-1.3,87-1.4,92.1,4,95.2s14.1,3.1,19.5,0s5.4-8.2,0.1-11.3S9.5,80.8,4.1,83.9z"/>
</g>
<path d="M20,82.3c0.1,0.9,0.4,1.9,0.9,2.7c0.8,0.9,4.3,3,4,4s-2.7,1.1-4.3-0.5s-2-1.8-2.7-1.9c-0.9-0.2-1.4-1-1.2-1.9
	c0-0.2,0.1-0.4,0.2-0.5C18.1,83.8,19.2,83.1,20,82.3z"/>
<path class="stb19" d="M20.8,43.2c0,0,2.9,14.2,1.3,22c0,0-0.7,6.2-1.1,7.9s-0.3,11-0.3,11s-2.6,1.1-3.9-0.1c0,0-1.7-9.5,0.2-15.6
	c0,0-2.2-11.6-2.2-15.4c0-2.3-0.2-4.7-0.5-7L20.8,43.2z"/>
<path class="stb20" d="M22.1,65.2c0,0-0.7,6.2-1.1,7.9s-0.3,11-0.3,11c-0.3,0.1-0.7,0.2-1,0.3c-0.2-2.8-0.5-7.6-0.7-8.7
	c-0.2-1.5,1.5-10,1.7-13.2s-3.4-14.9-3.4-14.9l1-3.4l2.5-1C20.9,43.3,23.7,57.4,22.1,65.2z"/>
<path d="M12.1,85.8c0.1,1,0.4,1.9,0.9,2.7c0.7,0.9,4.2,3.1,3.9,4.1s-2.8,1-4.3-0.6s-2-1.8-2.6-2c-0.9-0.2-1.4-1.1-1.1-2
	c0-0.2,0.1-0.3,0.2-0.5C10.2,87.2,11.2,86.6,12.1,85.8z"/>
<path class="stb20" d="M9.1,47.9c0,0-2.8,4-1.4,12.1l0.6,9.7c0,0-1.9,3.1-0.5,12.6L9,88c0,0,1.6,1.2,3.3-1.2c0,0-0.1-14,0.5-16.2
	c1.6-4.7,2.7-9.6,3.5-14.5c0.3-2.3,3.9-6.2,3.7-8.2L9.1,47.9z"/>
<path class="stb19" d="M9,88l-1.3-5.7c-1.3-9.5,0.5-12.6,0.5-12.6L7.6,60c-1.3-8.1,1.4-12.1,1.4-12.1h0.3l3,2c0,0-3,15.4-2.8,19.3
	s-0.9,8.5-0.7,10.9c0.1,1.6,0.8,5.5,1.3,8.2C9.7,88.3,9.3,88.2,9,88z"/>
<path class="stb17" d="M7.2,30.8c0,0,2.5-4.7,12.6-5.8c0,0,1.6-0.7,1.5,4.5c0.2,1,0.6,1.9,1.3,2.7c0.5,0.7,1.9,3.3-1.1,6.4
	c0,0-1.2,4.6,0.2,7.6c1.3,2.7-5.4,5.3-11,4.8c-1.3-0.1-2.2-1.2-2.1-2.5c0-0.2,0.1-0.4,0.1-0.6C9.2,45.5,11,41.5,9.9,37
	S6.4,33.1,7.2,30.8z"/>
<path class="stb21" d="M7.2,30.6c-0.8,2.3,1.6,1.7,2.7,6.2s-0.7,8.6-1.3,11s0.9,3,1.6,3.1c1,0.1,2,0.2,3,0.1c-2-4.3,0.8-12.3,1-16.7
	c0-2.7-1.5-5.2-4-6.4C9,28.6,8,29.5,7.2,30.6z"/>
<path class="stb22" d="M21.6,46.3c-1.4-3-0.2-7.6-0.2-7.6c3.1-3.1,1.7-5.7,1.1-6.4c-0.7-0.8-1.1-1.7-1.3-2.7c0.1-1.3,0-2.6-0.4-3.8
	c-0.6,0.7-1.8,0.4-1.4,2.8c0.2,1.4-0.2,3.5-2.4,3.5s-1,3.5-0.8,4.5c0.9,6.8-2.8,10-1.6,14.3C18.9,50.3,22.6,48.3,21.6,46.3z"/>
<path class="stb2" d="M21.8,43.3c0,0,3,0.7,4.3,0.1s2.9-2,2-2.3s-2.9,0.4-3.2-0.2s1.1-0.7,0.4-0.9s-1.9,0-3.9,1.7
	C21.1,42.3,21.3,43,21.8,43.3z"/>
<path class="stb17" d="M7.8,30.1c0,0,2.1-0.9,3.4,2.4s3.4,8.8,3.4,8.8l0.5,0.8l7.3-1.1c0,0-1,1.9,0.6,2.9c0,0-8.9,4.1-11.5,1.3
	C11.5,45.1,4.1,31.1,7.8,30.1z"/>
<path class="stb23" d="M19,22.8c0,0-1.6,2.2-0.6,4.4c0.3,0.6,1,3.1-2.9,2.4c0,0-4.2-1.7-3.1-3c0.7-0.9,1.4-2.1-0.1-6.1L19,22.8z"/>
<path class="stb24" d="M12.4,26.6c-0.1,0.1-0.2,0.3-0.2,0.4c2.3,0.2,4.5-0.6,6.1-2.3l-5.1-3.9l0,0c0,0-0.2,0.2-0.6,0.5
	C13.8,24.7,13.1,25.8,12.4,26.6z"/>
<path class="stb25" d="M17.8,15.5c0,0,1.1,0.3,1.3,3.4c0,0.3,0.6,0.8,0.8,1.6s0.7,4.3-1.3,4.8c-2.7,0.4-5.4-1.1-6.5-3.6
	C10.7,18.3,13.3,13.6,17.8,15.5z"/>
<path class="stb25" d="M14,22.1c0,0-0.7-1.7-1.6-1.1c-0.3,0.2-0.6,0.6-0.1,1.4c0.5,0.9,1.4,1.4,2.3,1.4L14,22.1z"/>
<path class="stb26" d="M11.1,16.1c-0.7-0.2-1.3-0.2-2,0c-0.5,1.2-0.3,2.6,0.6,3.6c0.1-0.5,0.4-1,0.7-1.4c0.2-0.1,0.4-0.3,0.5-0.5
	C11.3,17.2,12.5,16.6,11.1,16.1z"/>
<path class="stb16" d="M17.6,14.1c-1.5-1.3-3.3-1-5-0.4c-1.6,0.5-2.7,1.9-3,3.6c-0.1,2,0.6,4.7,3.1,5.9c0.9,0.5-0.6-1.7,0.6-1.9
	c0.4,0,0.5-0.7,0.8-0.8c1.1-0.4,2.2-0.8,3.3-1.3c0.1,0,0.3-1,0.4-1.1s0.3,0.8,0.4,0.8c0.5-0.2,1-0.4,1.5-0.7
	C19.9,16.8,18.6,15,17.6,14.1z"/>
<path class="stb25" d="M13.4,20.7c0.6,0.5,0.8,1.2,0.5,1.5s-1,0.2-1.6-0.3s-0.8-1.2-0.4-1.5S12.9,20.2,13.4,20.7z"/>
<polygon class="stb0" points="105.7,99.4 70.4,119.9 34.9,99.4 70.2,78.9 "/>
<g>
	<polygon class="stb27" points="71.4,116.6 68.9,115.2 68.8,78.8 71.3,80.2 	"/>
	<polygon class="stb28" points="71.3,80.2 68.8,78.8 72.1,76.8 74.6,78.3 	"/>
	<polygon class="stb29" points="74.6,78.3 74.7,114.7 71.4,116.6 71.3,80.2 	"/>
</g>
<g>
	<polygon class="stb27" points="44,100.9 41.5,99.5 41.3,63 43.8,64.5 	"/>
	<polygon class="stb28" points="43.8,64.5 41.3,63 44.7,61.1 47.2,62.6 	"/>
	<polygon class="stb29" points="47.2,62.6 47.3,99 44,100.9 43.8,64.5 	"/>
</g>
<g>
	<polygon class="stb27" points="97.1,101.9 94.6,100.4 94.5,64 97,65.5 	"/>
	<polygon class="stb28" points="97,65.5 94.5,64 97.8,62.1 100.4,63.6 	"/>
	<polygon class="stb29" points="100.4,63.6 100.5,100 97.1,101.9 97,65.5 	"/>
</g>
<g>
	<polygon class="stb30" points="101,63 101,64.2 71.3,81.4 71.3,80.3 	"/>
	<polygon class="stb31" points="71.3,80.3 71.3,81.4 41.3,64.2 41.4,63 	"/>
	<polygon class="stb32" points="101,63 71.3,80.3 41.4,63 71.1,45.8 	"/>
</g>
<path class="stb33" d="M60.6,62.5c-0.4,0.2-0.4,0.6,0,0.8l10.2,5.9c0.4,0.2,0.9,0.2,1.4,0l3.8-2.2c0.2-0.1,0.3-0.3,0.3-0.5
	c0-0.1-0.1-0.2-0.3-0.3l-10.2-5.9c-0.4-0.2-1-0.2-1.4,0L60.6,62.5z"/>
<path class="stb34" d="M76.3,66.7c0,0.2-0.1,0.3-0.3,0.4l-3.8,2.2c0,0-0.1,0.1-0.1,0.1l0,0h-0.1l0,0h-0.2h-0.4h-0.1h-0.1H71
	c-0.1,0-0.1-0.1-0.2-0.1l-10.3-5.9h-0.1l-0.1,0l-0.1-0.1l0,0c0,0,0-0.1,0-0.1l0,0c0,0,0-0.1,0-0.1v0.2l0,0v0.1l0,0l0,0
	c0,0,0,0,0,0.1l0,0l0,0l0,0l0.1,0.1l0,0h0.1l0,0l0,0l10.2,5.9c0.1,0,0.1,0.1,0.2,0.1H71h0.1l0,0h0.1h0.6h0.1l0,0l0.1-0.1l4-2.1
	c0.2-0.1,0.3-0.2,0.3-0.4L76.3,66.7z"/>
<path class="stb35" d="M63.7,62.7c0.2,0.1,0.4,0.3,0.3,0.6c0,0.1-0.2,0.3-0.3,0.3c-0.5,0.2-1,0.2-1.5,0c-0.4-0.3-0.4-0.6,0-0.9
	C62.6,62.5,63.2,62.5,63.7,62.7z"/>
<path class="stb34" d="M63.8,62.7L63.8,62.7C63.8,62.7,63.8,62.7,63.8,62.7L63.8,62.7l-0.1,0.2l-0.1,0.1h-0.1L63.4,63l0,0h-0.1h-0.1
	H63h-0.5c-0.1,0-0.1,0-0.2,0l0,0h-0.2l0,0c-0.1,0-0.2,0-0.3,0c-0.2-0.1-0.3-0.2-0.3-0.4V63c0,0.2,0.1,0.4,0.3,0.5l0.2,0.1l0,0h0.1
	h0.1h0.1h0.1h0.6h0.1h0l0,0l0,0l0.2-0.1l0,0h0.1l0.1-0.1l0,0l0.1-0.1l0,0l0,0l0,0v-0.1l0,0l0,0c0,0,0,0,0-0.1l0,0v-0.5
	C63.6,62.7,63.7,62.7,63.8,62.7z"/>
<path class="stb36" d="M63.5,62.1c0.4,0.3,0.4,0.6,0,0.9c-0.5,0.3-1,0.3-1.5,0c-0.2-0.1-0.4-0.4-0.3-0.6c0-0.1,0.1-0.2,0.3-0.3
	C62.5,61.9,63,61.9,63.5,62.1z"/>
<path class="stb37" d="M63.5,63c0.4-0.2,0.4-0.6,0-0.8c-0.3-0.1-0.7,0-1,0.2c-0.2,0.1-0.3,0.4-0.2,0.6c0,0.1,0.1,0.2,0.2,0.2
	C62.9,63.2,63.2,63.2,63.5,63z"/>
<path class="stb35" d="M66.1,61.5c0.2,0.1,0.4,0.3,0.3,0.6c0,0.1-0.2,0.3-0.3,0.3c-0.5,0.2-1,0.2-1.5,0c-0.2-0.1-0.4-0.3-0.3-0.6
	c0-0.1,0.2-0.3,0.3-0.3C65.1,61.2,65.6,61.2,66.1,61.5z"/>
<path class="stb34" d="M66.2,61.4L66.2,61.4C66.2,61.4,66.2,61.5,66.2,61.4L66.2,61.4l-0.1,0.2l-0.1,0.1H66l-0.2,0.1l0,0
	c0,0-0.1,0-0.1,0h-0.1h-0.1H65h-0.2l0,0h-0.2l0,0l-0.2-0.1c-0.2-0.1-0.3-0.3-0.3-0.5v0.5c0,0.2,0.1,0.4,0.3,0.5l0.2,0.1l0,0h0.1h0.1
	H65h0.6h0.1h0.1l0,0l0,0l0.2-0.1l0,0H66l0.1-0.1l0,0l0.1-0.1l0,0l0,0l0,0v-0.1l0,0l0,0v-0.1l0,0v-0.5C66.2,61.4,66.2,61.4,66.2,61.4
	z"/>
<path class="stb36" d="M66,60.8c0.4,0.2,0.4,0.6,0,0.9c-0.5,0.2-1,0.2-1.5,0c-0.4-0.3-0.4-0.6,0-0.9C65,60.6,65.5,60.6,66,60.8z"/>
<path class="stb37" d="M66,61.7c0.4-0.2,0.4-0.6,0-0.8c-0.3-0.1-0.7,0-1,0.1c-0.4,0.2-0.4,0.6,0,0.8C65.3,61.9,65.7,61.9,66,61.7z"/>
<path class="stb35" d="M66.3,64.2c0.2,0.1,0.4,0.3,0.3,0.6c0,0.1-0.2,0.3-0.3,0.3c-0.5,0.2-1,0.2-1.5,0c-0.2-0.1-0.4-0.3-0.3-0.6
	c0-0.1,0.2-0.3,0.3-0.3C65.3,64,65.9,64,66.3,64.2z"/>
<path class="stb34" d="M66.5,64.2L66.5,64.2C66.5,64.2,66.5,64.2,66.5,64.2L66.5,64.2l-0.1,0.2h-0.1h-0.1l-0.2,0.1l0,0H66h-0.1h-0.1
	h-0.6H65l0,0h-0.2l0,0l-0.2-0.1c-0.2-0.1-0.3-0.3-0.3-0.5v0.5c0,0.2,0.1,0.4,0.3,0.4l0.2,0.1l0,0H65h0.1h0.1h0.6h0.1l0,0l0,0l0,0
	l0.2-0.1l0,0h0.1l0.1-0.1l0,0l0.1-0.1l0,0l0,0l0,0v-0.1l0,0l0,0c0,0,0,0,0-0.1l0,0v-0.4C66.3,64.1,66.4,64.1,66.5,64.2z"/>
<path class="stb36" d="M66.2,63.6c0.4,0.2,0.4,0.6,0,0.9c-0.5,0.2-1,0.2-1.5,0c-0.4-0.3-0.4-0.6,0-0.9C65.1,63.4,65.7,63.4,66.2,63.6
	z"/>
<path class="stb37" d="M66.2,64.5c0.4-0.2,0.4-0.6,0-0.8c-0.3-0.1-0.7,0-1,0.2c-0.4,0.2-0.4,0.6,0,0.9C65.5,64.7,65.9,64.7,66.2,64.5
	z"/>
<path class="stb35" d="M68.8,63c0.2,0.1,0.4,0.3,0.3,0.6c0,0.1-0.2,0.3-0.3,0.3c-0.5,0.2-1,0.2-1.5,0c-0.2-0.1-0.4-0.3-0.3-0.6
	c0-0.1,0.2-0.3,0.3-0.3C67.7,62.8,68.3,62.8,68.8,63z"/>
<path class="stb34" d="M68.9,62.9L68.9,62.9C68.9,63,68.9,63,68.9,62.9L68.9,62.9c-0.1,0.1-0.1,0.2-0.1,0.2l-0.1,0h-0.1l-0.2,0.1l0,0
	h-0.1h-0.1h-0.1h-0.4h-0.2l0,0h-0.2l0,0l-0.2-0.1c-0.2-0.1-0.3-0.2-0.3-0.4v0.5c0,0.2,0.1,0.4,0.3,0.4l0.2,0.1l0,0h0.1h0.7h0.1l0,0
	h0.1h0.1l0,0l0,0l0.2-0.1l0,0h0.1h0.1l0,0l0.1-0.1l0,0l0,0l0,0c0,0,0,0,0-0.1l0,0l0,0l0,0v-0.1l0,0V63
	C68.8,62.9,68.9,62.9,68.9,62.9z"/>
<path class="stb36" d="M68.6,62.4c0.2,0.1,0.4,0.3,0.3,0.6c0,0.1-0.2,0.3-0.3,0.3c-0.5,0.2-1,0.2-1.5,0c-0.2-0.1-0.4-0.3-0.3-0.6
	c0-0.1,0.2-0.3,0.3-0.3C67.6,62.1,68.1,62.1,68.6,62.4z"/>
<path class="stb37" d="M68.6,63.3c0.2-0.1,0.3-0.4,0.2-0.6c0-0.1-0.1-0.2-0.2-0.2c-0.3-0.1-0.7,0-1,0.2c-0.4,0.2-0.4,0.6,0,0.8
	C68,63.5,68.3,63.4,68.6,63.3z"/>
<path class="stb35" d="M69.1,65.8c0.2,0.1,0.4,0.3,0.3,0.6c0,0.1-0.2,0.3-0.3,0.3c-0.5,0.2-1,0.2-1.5,0c-0.2-0.1-0.4-0.3-0.3-0.6
	c0-0.1,0.2-0.3,0.3-0.3C68.1,65.6,68.6,65.6,69.1,65.8z"/>
<path class="stb34" d="M69.3,65.7L69.3,65.7C69.3,65.8,69.3,65.8,69.3,65.7L69.3,65.7L69.1,66H69h-0.1l-0.2,0.1l0,0h-0.1h-0.1h-0.1
	H68c-0.1,0-0.1,0-0.2,0l0,0h-0.1l0,0L67.5,66c-0.2-0.1-0.3-0.3-0.3-0.4V66c0,0.2,0.1,0.4,0.3,0.4l0.2,0.1l0,0h0.1l0,0h0.1h0.1l0,0
	l0,0h0.6h0.1h0.1l0,0l0,0l0.2-0.1l0,0l0,0l0.1-0.1l0,0l0.1-0.1l0,0l0,0l0,0v-0.1l0,0l0,0v-0.1l0,0v-0.4C69,65.7,69.1,65.7,69.3,65.7
	z"/>
<path class="stb36" d="M69,65.2c0.2,0.1,0.4,0.4,0.3,0.6c0,0.1-0.2,0.2-0.3,0.3c-0.5,0.2-1,0.2-1.5,0c-0.2-0.1-0.4-0.4-0.3-0.6
	c0-0.1,0.2-0.2,0.3-0.3C68,64.9,68.5,64.9,69,65.2z"/>
<path class="stb37" d="M69,66.1c0.4-0.2,0.4-0.6,0-0.8c-0.3-0.1-0.7,0-1,0.2c-0.4,0.2-0.4,0.6,0,0.8C68.3,66.3,68.7,66.2,69,66.1z"/>
<path class="stb35" d="M71.6,64.6c0.4,0.2,0.4,0.6,0,0.9c-0.5,0.2-1,0.2-1.5,0c-0.4-0.2-0.4-0.6,0-0.9C70.5,64.3,71.1,64.3,71.6,64.6
	z"/>
<path class="stb34" d="M71.7,64.5L71.7,64.5C71.7,64.5,71.6,64.5,71.7,64.5L71.7,64.5l-0.1,0.2l-0.1,0.1h-0.1l-0.2,0.1l0,0
	c0,0-0.1,0-0.1,0c0,0-0.1,0-0.1,0h-0.1h-0.4h-0.2l0,0h-0.1l0,0L70,64.7c-0.2-0.1-0.3-0.3-0.3-0.4v0.4c0,0.2,0.1,0.4,0.3,0.4l0.2,0.1
	l0,0h0.1h0.1h0.1H71h0.1h0.1l0,0l0,0c0.1,0,0.1,0,0.2-0.1l0,0l0,0l0.1-0.1l0,0l0.1-0.1l0,0l0,0V65l0,0l0,0c0,0,0,0,0-0.1l0,0v-0.4
	C71.5,64.5,71.6,64.5,71.7,64.5z"/>
<path class="stb36" d="M71.4,63.9c0.2,0.1,0.4,0.4,0.3,0.6c0,0.1-0.1,0.2-0.3,0.3c-0.5,0.2-1,0.2-1.5,0c-0.4-0.3-0.4-0.6,0-0.9
	C70.3,63.7,70.9,63.7,71.4,63.9z"/>
<path class="stb37" d="M71.4,64.8c0.4-0.2,0.4-0.6,0-0.8c-0.3-0.1-0.7,0-1,0.2c-0.4,0.2-0.4,0.6,0,0.8C70.7,65,71.1,65,71.4,64.8z"/>
<path class="stb35" d="M72,67.5c0.2,0.1,0.4,0.4,0.3,0.6c0,0.1-0.1,0.2-0.3,0.3c-0.5,0.2-1,0.2-1.5,0c-0.4-0.3-0.4-0.6,0-0.9
	C71,67.3,71.5,67.3,72,67.5z"/>
<path class="stb34" d="M72.1,67.5L72.1,67.5C72.1,67.5,72.1,67.5,72.1,67.5L72.1,67.5L72,67.6l-0.1,0.1l-0.1,0.1l-0.2,0.1l0,0h-0.1
	h-0.1h-0.1h-0.4c-0.1,0-0.1,0-0.2,0l0,0h-0.1l0,0l-0.2-0.1c-0.2-0.1-0.3-0.3-0.3-0.4v0.4c0,0.2,0.1,0.4,0.3,0.4l0.2,0.1l0,0
	c0,0,0.1,0,0.1,0l0,0h0.1h0.1h0.6h0.1h0.1l0,0l0,0l0.2-0.1l0,0l0,0l0.1-0.1l0,0l0.1-0.1l0,0l0,0l0,0V68l0,0l0,0V68l0,0v-0.4
	C72,67.5,72,67.5,72.1,67.5z"/>
<path class="stb36" d="M71.8,66.9c0.2,0.1,0.4,0.4,0.3,0.6c0,0.1-0.2,0.2-0.3,0.3c-0.5,0.2-1,0.2-1.5,0c-0.2-0.1-0.4-0.4-0.3-0.6
	c0-0.1,0.2-0.2,0.3-0.3C70.7,66.7,71.3,66.7,71.8,66.9z"/>
<path class="stb37" d="M71.8,67.8c0.4-0.2,0.4-0.6,0-0.8c-0.3-0.1-0.7,0-1,0.2c-0.2,0.1-0.3,0.4-0.2,0.6c0,0.1,0.1,0.2,0.2,0.2
	C71.1,68,71.5,67.9,71.8,67.8z"/>
<path class="stb35" d="M74.4,66.3c0.2,0.1,0.4,0.4,0.3,0.6c0,0.1-0.1,0.2-0.3,0.3c-0.5,0.2-1,0.2-1.5,0c-0.4-0.2-0.4-0.6,0-0.9
	C73.3,66,73.9,66,74.4,66.3z"/>
<path class="stb34" d="M74.5,66.2L74.5,66.2C74.5,66.2,74.5,66.3,74.5,66.2L74.5,66.2l-0.1,0.2l-0.1,0.1l-0.1,0.1l-0.2,0.1l0,0
	c0,0-0.1,0-0.1,0c0,0-0.1,0-0.1,0h-0.1h-0.4h-0.2l0,0H73l0,0l-0.2-0.1c-0.2-0.1-0.3-0.3-0.3-0.4v0.4c0,0.2,0.1,0.4,0.3,0.4L73,67
	l0,0h0.1h0.1h0.1H74h0.1h0.1l0,0l0,0c0.1,0,0.1,0,0.2-0.1l0,0h0.1l0.1-0.1l0,0c0,0,0,0,0.1-0.1l0,0l0,0l0,0v-0.1l0,0l0,0
	c0,0,0,0,0-0.1l0,0v-0.6C74.5,66.1,74.5,66.2,74.5,66.2z"/>
<path class="stb36" d="M74.2,65.7c0.2,0.1,0.4,0.4,0.3,0.6c0,0.1-0.1,0.2-0.3,0.3c-0.5,0.2-1,0.2-1.5,0c-0.4-0.3-0.4-0.6,0-0.9
	C73.2,65.4,73.7,65.4,74.2,65.7z"/>
<path class="stb37" d="M74.2,66.5c0.4-0.2,0.4-0.6,0-0.8c-0.3-0.1-0.7,0-1,0.2c-0.4,0.2-0.4,0.6,0,0.8C73.6,66.8,73.9,66.7,74.2,66.5
	z"/>
<path class="stb38" d="M53.4,58.8c1.1-0.6,2.5-0.6,3.7,0c0.4,0.2,0.7,0.6,0.8,1.1l0,0v4.8l0,0c-0.1,0.4-0.4,0.8-0.8,1
	c-1.1,0.6-2.5,0.6-3.7,0c-0.4-0.2-0.7-0.6-0.8-1l0,0v-4.8l0,0C52.6,59.4,52.9,59,53.4,58.8z"/>
<path class="stb39" d="M53.4,58.8c1.1-0.6,2.5-0.6,3.7,0c0.4,0.2,0.7,0.6,0.8,1.1l0,0v4.8l0,0c-0.1,0.4-0.4,0.8-0.8,1
	c-1.1,0.6-2.5,0.6-3.7,0c-0.4-0.2-0.7-0.6-0.8-1l0,0v-4.8l0,0C52.6,59.4,52.9,59,53.4,58.8z"/>
<path class="stb40" d="M53.3,65.7c-0.4-0.2-0.7-0.6-0.8-1l0,0v-4.8c0-0.5,0.3-0.9,0.8-1.1c0.3-0.1,0.6-0.3,0.9-0.3
	c0.5,0.1,1,0.2,1.5,0.5c0.6,0.2,0.9,0.8,1,1.3v5.5C55.6,66.2,54.4,66.2,53.3,65.7z"/>
<path class="stb14" d="M53.3,65.7c-0.4-0.2-0.7-0.6-0.8-1l0,0v-4.8c0-0.5,0.3-0.9,0.8-1.1c0.1,0,0.1-0.1,0.2-0.1
	c0.3,0.1,0.5,0.2,0.8,0.3c0.6,0.3,1,0.8,1,1.4v5.6C54.6,66.1,53.9,66,53.3,65.7z"/>
<path class="stb41" d="M53.9,58.2c-0.7,0.4-0.7,1.1,0,1.5c0.8,0.4,1.7,0.4,2.5,0c0.4-0.1,0.6-0.6,0.5-1c-0.1-0.2-0.3-0.4-0.5-0.5
	C55.7,57.8,54.7,57.8,53.9,58.2z"/>
<rect x="53.4" y="58.3" class="stb41" width="3.6" height="0.6"/>
<path class="stb42" d="M53.9,57.7c-0.4,0.1-0.6,0.6-0.5,1c0.1,0.2,0.3,0.4,0.5,0.5c0.8,0.4,1.7,0.4,2.5,0c0.4-0.1,0.6-0.6,0.5-1
	c-0.1-0.2-0.3-0.4-0.5-0.5C55.7,57.2,54.7,57.2,53.9,57.7z"/>
<path class="stb43" d="M53.1,56.8h4.2V58l0,0c0,0.4-0.3,0.7-0.6,0.8c-0.9,0.5-2.1,0.5-3,0c-0.3-0.1-0.6-0.5-0.6-0.8l0,0L53.1,56.8z"
	/>
<path class="stb44" d="M57.3,58L57.3,58c0,0.4-0.3,0.7-0.6,0.8L56.4,59v-2.2h0.8V58z"/>
<path class="stb45" d="M55.2,56.8h1.3V59c-0.4,0.2-0.8,0.3-1.3,0.3V56.8z"/>
<path class="stb46" d="M53.7,56c-0.8,0.5-0.8,1.3,0,1.7c0.9,0.5,2.1,0.5,3,0c0.5-0.2,0.7-0.7,0.6-1.2c-0.1-0.3-0.3-0.5-0.6-0.6
	C55.8,55.5,54.6,55.5,53.7,56z"/>
<path class="stb47" d="M53.3,61.4c1.1,0.6,2.5,0.6,3.7,0c0.4-0.2,0.7-0.6,0.8-1l0,0v3.3l0,0c-0.1,0.4-0.4,0.8-0.8,1
	c-1.1,0.6-2.5,0.6-3.7,0c-0.4-0.2-0.7-0.6-0.8-1l0,0v-3.3l0,0C52.7,60.8,52.9,61.2,53.3,61.4z"/>
<path class="stb48" d="M57.8,60.4L57.8,60.4v3.3l0,0c-0.1,0.4-0.4,0.8-0.8,1c-0.5,0.3-1.1,0.4-1.7,0.4v-3.3c0.6,0,1.2-0.1,1.7-0.4
	C57.4,61.2,57.7,60.8,57.8,60.4z"/>
<path class="stb49" d="M57.8,60.4L57.8,60.4v3.3l0,0c-0.1,0.4-0.4,0.8-0.8,1c-0.1,0.1-0.2,0.1-0.3,0.2v-3.3l0.3-0.2
	C57.4,61.2,57.7,60.8,57.8,60.4z"/>
<path class="stb38" d="M70.6,46.6c1.4-0.7,2.9-0.7,4.3,0c0.5,0.2,0.8,0.7,0.9,1.3l0,0v5.7l0,0c-0.1,0.5-0.4,1-0.9,1.2
	c-1.4,0.7-2.9,0.7-4.3,0c-0.5-0.2-0.8-0.7-0.9-1.2l0,0v-5.7l0,0C69.7,47.3,70.1,46.8,70.6,46.6z"/>
<path class="stb39" d="M70.6,46.6c1.4-0.7,2.9-0.7,4.3,0c0.5,0.2,0.8,0.7,0.9,1.3l0,0v5.7l0,0c-0.1,0.5-0.4,1-0.9,1.2
	c-1.4,0.7-2.9,0.7-4.3,0c-0.5-0.2-0.8-0.7-0.9-1.2l0,0v-5.7l0,0C69.7,47.3,70.1,46.8,70.6,46.6z"/>
<path class="stb40" d="M70.6,54.7c-0.5-0.2-0.8-0.7-0.9-1.2l0,0v-5.7c0.1-0.5,0.4-1,0.9-1.3c0.3-0.2,0.7-0.3,1-0.4
	c0.6,0.1,1.2,0.3,1.8,0.6c0.6,0.3,1.1,0.9,1.1,1.6v6.5C73.2,55.3,71.8,55.3,70.6,54.7z"/>
<path class="stb14" d="M70.6,54.7c-0.5-0.2-0.8-0.7-0.9-1.2l0,0v-5.7c0.1-0.5,0.4-1,0.9-1.3l0.2-0.1c0.3,0.1,0.6,0.2,0.9,0.4
	c0.7,0.3,1.1,1,1.2,1.7v6.6C72.1,55.2,71.3,55,70.6,54.7z"/>
<path class="stb41" d="M71.2,45.8c-0.5,0.2-0.7,0.7-0.6,1.2c0.1,0.3,0.3,0.5,0.6,0.6c0.9,0.5,2.1,0.5,3,0c0.5-0.2,0.7-0.7,0.6-1.2
	c-0.1-0.3-0.3-0.5-0.6-0.6C73.3,45.4,72.2,45.4,71.2,45.8z"/>
<rect x="70.6" y="46" class="stb41" width="4.2" height="0.7"/>
<path class="stb42" d="M71.2,45.2c-0.5,0.2-0.7,0.7-0.6,1.2c0.1,0.3,0.3,0.5,0.6,0.6c0.9,0.5,2.1,0.5,3,0c0.5-0.2,0.7-0.7,0.6-1.2
	c-0.1-0.3-0.3-0.5-0.6-0.6C73.3,44.7,72.2,44.7,71.2,45.2z"/>
<path class="stb43" d="M70.2,44.2h5v1.5l0,0c-0.1,0.4-0.3,0.8-0.7,1c-1.1,0.6-2.4,0.6-3.5,0c-0.4-0.2-0.7-0.6-0.7-1l0,0L70.2,44.2z"
	/>
<path class="stb44" d="M75.2,45.7L75.2,45.7c-0.1,0.4-0.3,0.8-0.7,1l-0.3,0.1v-2.6h1L75.2,45.7z"/>
<path class="stb45" d="M72.7,44.2h1.5v2.6c-0.5,0.2-1,0.3-1.5,0.3V44.2z"/>
<path class="stb46" d="M71,43.3c-0.6,0.2-0.8,0.8-0.6,1.4c0.1,0.3,0.3,0.5,0.6,0.6c1.1,0.6,2.4,0.6,3.5,0c0.6-0.2,0.8-0.8,0.6-1.4
	c-0.1-0.3-0.3-0.5-0.6-0.6C73.4,42.7,72.1,42.7,71,43.3z"/>
<path class="stb47" d="M70.6,49.7c1.4,0.7,2.9,0.7,4.3,0c0.5-0.2,0.8-0.7,0.9-1.2l0,0v3.9l0,0c-0.1,0.5-0.4,1-0.9,1.2
	c-1.4,0.7-2.9,0.7-4.3,0c-0.5-0.2-0.8-0.7-0.9-1.2l0,0v-3.9l0,0C69.7,49,70.1,49.4,70.6,49.7z"/>
<path class="stb48" d="M75.7,48.5L75.7,48.5v3.9l0,0c-0.1,0.5-0.4,1-0.9,1.2c-0.6,0.3-1.3,0.5-2,0.5v-3.9c0.7,0,1.4-0.2,2-0.5
	C75.3,49.4,75.7,49,75.7,48.5z"/>
<path class="stb49" d="M75.7,48.5L75.7,48.5v3.9l0,0c-0.1,0.5-0.4,1-0.9,1.2c-0.1,0.1-0.3,0.1-0.4,0.2v-3.9c0.1-0.1,0.3-0.1,0.4-0.2
	C75.3,49.4,75.7,49,75.7,48.5z"/>
<g>
	<polygon class="stb50" points="89,56.8 89,60.5 78.4,66.7 78.4,63 	"/>
	<polygon class="stb51" points="78.4,63 78.4,66.7 70,61.8 70,58.1 	"/>
	<polygon class="stb21" points="89,56.8 78.4,63 70,58.1 80.6,52 	"/>
</g>
<polygon class="stb21" points="70.4,59.2 78.4,63.8 78.4,66.1 70.4,61.5 "/>
<polygon class="stb52" points="78.4,63.8 89,57.7 89,59.9 78.4,66.1 "/>
<path class="stb33" d="M76.6,67.3c0.2,0.1,0.3,0.3,0.2,0.5c0,0.1-0.1,0.2-0.2,0.2l-9.7,5.6c-0.4,0.2-0.9,0.2-1.3,0L62,71.7
	c-0.4-0.2-0.4-0.6,0-0.8l9.7-5.6c0.4-0.2,0.9-0.2,1.3,0L76.6,67.3z"/>
<path class="stb34" d="M61.7,71.3c0,0.2,0.1,0.3,0.3,0.4l3.6,2.1l0.1,0.1l0,0h0.1l0,0H66h0.4h0.1h0.1h0.1c0.1,0,0.1,0,0.2-0.1
	l9.7-5.6l0.1-0.1h0.1l0.1-0.1l0,0c0,0,0-0.1,0-0.1l0,0c0,0,0-0.1,0-0.1v0.2l0,0l0,0l0,0l0,0c0,0,0,0,0,0.1l0,0l0,0l0,0
	c0,0,0,0-0.1,0.1l0,0h-0.1l0,0l0,0l-9.7,5.6c-0.1,0-0.1,0.1-0.2,0.1l0,0l0,0h-0.1H66h-0.1h-0.1h-0.1l0,0l-0.1-0.1L62,71.8
	c-0.2-0.1-0.3-0.2-0.3-0.4L61.7,71.3z"/>
<path class="stb35" d="M73.6,67.5c-0.2,0.1-0.4,0.3-0.3,0.6c0,0.1,0.2,0.2,0.3,0.3c0.5,0.2,1,0.2,1.4,0c0.2-0.1,0.4-0.3,0.3-0.6
	c0-0.1-0.2-0.2-0.3-0.3C74.6,67.3,74.1,67.3,73.6,67.5z"/>
<path class="stb34" d="M73.5,67.5L73.5,67.5C73.5,67.5,73.5,67.5,73.5,67.5L73.5,67.5l0.1,0.2h0.1l0.1,0.1l0.1,0.1l0,0H74h0.1h0.1
	h0.4h0.2l0,0h0.1l0,0l0.2-0.1c0.2-0.1,0.3-0.2,0.3-0.4v0.4c0,0.2-0.1,0.3-0.3,0.4c0,0-0.1,0.1-0.1,0.1l0,0h-0.1h-0.1h-0.1h-0.6H74
	h-0.1l0,0l0,0l-0.2-0.1l0,0h-0.1h-0.1l0,0c0,0,0,0-0.1-0.1l0,0l0,0l0,0c0,0,0,0,0-0.1l0,0l0,0v-0.1l0,0L73.5,67.5
	C73.6,67.5,73.5,67.5,73.5,67.5z"/>
<path class="stb36" d="M73.8,67c-0.4,0.2-0.4,0.6,0,0.8c0.5,0.2,1,0.2,1.4,0c0.4-0.2,0.4-0.6,0-0.8C74.8,66.8,74.2,66.8,73.8,67z"/>
<path class="stb37" d="M73.8,67.8c-0.4-0.2-0.4-0.6,0-0.8c0.3-0.1,0.7,0,1,0.2c0.4,0.2,0.4,0.6,0,0.8C74.4,68,74.1,68,73.8,67.8z"/>
<path class="stb35" d="M71.3,66.4c-0.4,0.2-0.4,0.6,0,0.8c0.5,0.2,1,0.2,1.4,0c0.2-0.1,0.3-0.3,0.3-0.6c0-0.1-0.1-0.2-0.3-0.3
	C72.3,66.1,71.8,66.1,71.3,66.4z"/>
<path class="stb34" d="M71.2,66.3L71.2,66.3L71.2,66.3L71.2,66.3c0,0.1,0,0.2,0.1,0.2l0.1,0.1h0.1l0.1,0.1l0,0h0.1h0.1h0.1h0.4h0.2
	l0,0h0.1l0,0c0.1,0,0.1,0,0.2-0.1c0.2-0.1,0.3-0.2,0.3-0.4v0.4c0,0.2-0.1,0.3-0.3,0.4c0,0-0.1,0.1-0.1,0.1l0,0h-0.1h-0.1h-0.1H72
	h-0.1l0,0h-0.1l0,0l0,0l0,0l-0.4,0l0,0l0,0c0,0,0,0-0.1,0l0,0l-0.1-0.1l0,0l0,0l0,0v-0.1l0,0v-0.1l0,0v-0.4
	C71.3,66.3,71.2,66.3,71.2,66.3z"/>
<path class="stb36" d="M71.5,65.8c-0.2,0.1-0.3,0.3-0.3,0.6c0,0.1,0.1,0.2,0.3,0.3c0.5,0.2,1,0.2,1.4,0c0.4-0.2,0.4-0.6,0-0.8
	C72.5,65.5,71.9,65.5,71.5,65.8z"/>
<path class="stb37" d="M71.5,66.6c-0.4-0.2-0.4-0.6,0-0.8c0.3-0.1,0.7,0,1,0.2c0.2,0.1,0.3,0.4,0.2,0.6c0,0.1-0.1,0.2-0.2,0.2
	C72.1,66.8,71.8,66.8,71.5,66.6z"/>
<path class="stb35" d="M71.1,69c-0.4,0.2-0.4,0.6,0,0.8c0.5,0.2,1,0.2,1.4,0c0.2-0.1,0.3-0.3,0.3-0.6c0-0.1-0.1-0.2-0.3-0.3
	C72.1,68.8,71.5,68.8,71.1,69z"/>
<path class="stb34" d="M71,68.9L71,68.9L71,68.9L71,68.9l0.1,0.2l0.1,0.1h0.1l0.2,0.1l0,0h0.1h0.1h0.1h0.4c0.1,0,0.1,0,0.2,0l0,0h0.2
	l0,0l0.2-0.1c0.2-0.1,0.3-0.2,0.3-0.4v0.4c0,0.2-0.1,0.3-0.3,0.4l-0.2,0.1l0,0h-0.1h-0.7h-0.1l0,0h-0.1l0,0l0,0l0,0l-0.2-0.1l0,0
	l0,0h-0.1l0,0L71,69.5l0,0l0,0l0,0v-0.1l0,0l0,0c0,0,0,0,0-0.1l0,0V68.9C71,68.9,71,68.9,71,68.9z"/>
<path class="stb36" d="M71.3,68.4c-0.4,0.2-0.4,0.6,0,0.8c0.5,0.2,1,0.2,1.4,0c0.4-0.2,0.4-0.6,0-0.8C72.2,68.2,71.7,68.2,71.3,68.4z
	"/>
<path class="stb37" d="M71.2,69.2c-0.4-0.2-0.4-0.6,0-0.8c0.3-0.1,0.7,0,0.9,0.2c0.4,0.2,0.4,0.6,0,0.8
	C71.9,69.4,71.5,69.4,71.2,69.2z"/>
<path class="stb35" d="M68.8,67.8c-0.2,0.1-0.3,0.3-0.3,0.6c0,0.1,0.1,0.2,0.3,0.3c0.5,0.2,1,0.2,1.4,0c0.2-0.1,0.4-0.3,0.3-0.6
	c0-0.1-0.2-0.2-0.3-0.3C69.8,67.6,69.2,67.6,68.8,67.8z"/>
<path class="stb34" d="M68.7,67.7L68.7,67.7C68.7,67.8,68.7,67.8,68.7,67.7L68.7,67.7l0.1,0.2h0.1h0.1L69,68l0,0h0.1h0.1h0.1h0.4h0.2
	l0,0h0.1l0,0l0.2-0.1c0.2-0.1,0.3-0.2,0.3-0.4v0.4c0,0.2-0.1,0.4-0.3,0.4l-0.2,0.1l0,0H70h0h-0.1h-0.6h-0.1h-0.1l0,0l0,0L69,68.3
	l0,0H69l-0.1-0.1l0,0c0,0-0.1,0-0.1-0.1l0,0l0,0l0,0c0,0,0,0,0-0.1l0,0l0,0l0,0c0,0,0,0,0-0.1l0,0v-0.4
	C68.8,67.7,68.7,67.7,68.7,67.7z"/>
<path class="stb36" d="M68.9,67.2c-0.2,0.1-0.4,0.3-0.3,0.6c0,0.1,0.2,0.2,0.3,0.3c0.5,0.2,1,0.2,1.4,0c0.2-0.1,0.4-0.3,0.3-0.6
	c0-0.1-0.2-0.2-0.3-0.3C69.9,67,69.4,67,68.9,67.2z"/>
<path class="stb37" d="M68.9,68.1c-0.2-0.1-0.3-0.4-0.2-0.6c0-0.1,0.1-0.2,0.2-0.2c0.3,0,0.7,0,0.9,0.2c0.4,0.2,0.4,0.6,0,0.8
	C69.6,68.3,69.2,68.2,68.9,68.1z"/>
<path class="stb35" d="M68.5,70.5c-0.2,0.1-0.3,0.3-0.3,0.6c0,0.1,0.1,0.2,0.3,0.3c0.5,0.2,1,0.2,1.4,0c0.2-0.1,0.3-0.3,0.3-0.6
	c0-0.1-0.1-0.2-0.3-0.3C69.4,70.2,68.9,70.2,68.5,70.5z"/>
<path class="stb34" d="M68.3,70.4L68.3,70.4C68.3,70.4,68.3,70.5,68.3,70.4L68.3,70.4l0.1,0.2h0.1h0.1l0.2,0.1l0,0h0.1h0.1H69h0.4
	h0.2l0,0h0.1l0,0c0.1,0,0.1,0,0.2-0.1c0.2-0.1,0.3-0.2,0.3-0.4v0.4c0,0.2-0.1,0.3-0.3,0.4l-0.2,0.1l0,0h-0.1H69h-0.1l0,0h-0.1l0,0
	l0,0l0,0c0,0-0.1,0-0.1-0.1l0,0l0,0h-0.1l0,0l-0.2,0l0,0l0,0l0,0v-0.1l0,0l0,0l0,0c0,0,0,0,0-0.1l0,0L68.3,70.4
	C68.4,70.4,68.4,70.4,68.3,70.4z"/>
<path class="stb36" d="M68.6,69.9c-0.4,0.2-0.4,0.6,0,0.8c0.5,0.2,1,0.2,1.4,0c0.2-0.1,0.4-0.3,0.3-0.6c0-0.1-0.2-0.2-0.3-0.3
	C69.6,69.6,69.1,69.6,68.6,69.9z"/>
<path class="stb37" d="M68.6,70.7c-0.2-0.1-0.3-0.4-0.2-0.6c0-0.1,0.1-0.2,0.2-0.2c0.3,0,0.7,0,0.9,0.2c0.4,0.2,0.4,0.6,0,0.8
	C69.2,70.9,68.9,70.9,68.6,70.7z"/>
<path class="stb35" d="M66.2,69.3c-0.2,0.1-0.3,0.3-0.3,0.6c0,0.1,0.1,0.2,0.3,0.3c0.5,0.2,1,0.2,1.4,0c0.4-0.2,0.4-0.6,0-0.8
	C67.1,69,66.6,69,66.2,69.3z"/>
<path class="stb34" d="M66,69.2L66,69.2C66,69.2,66,69.3,66,69.2L66,69.2l0.1,0.2h0.1h0.1c0,0,0.1,0.1,0.1,0.1l0,0h0.1h0.1h0.1h0.4
	h0.2l0,0h0.1l0,0c0.1,0,0.1,0,0.2-0.1c0.2-0.1,0.3-0.2,0.3-0.4v0.4c0,0.2-0.1,0.3-0.3,0.4l0,0.2l0,0h-0.1h-0.1h-0.1h-0.6h-0.1h-0.1
	l0,0l0,0c0,0-0.1,0-0.1-0.1l0,0h-0.1l-0.1-0.1l0,0c0,0,0,0-0.1-0.1l0,0l0,0l0,0c0,0,0,0,0-0.1l0,0l0,0l0,0l0,0v-0.4
	C66.2,69.2,66.1,69.2,66,69.2z"/>
<path class="stb36" d="M66.3,68.7C66.1,68.8,66,69,66,69.3c0,0.1,0.1,0.2,0.3,0.3c0.4,0.2,1,0.2,1.4,0c0.2-0.1,0.3-0.3,0.3-0.6
	c0-0.1-0.1-0.2-0.3-0.3C67.3,68.5,66.8,68.5,66.3,68.7z"/>
<path class="stb37" d="M66.3,69.5c-0.2-0.1-0.3-0.3-0.2-0.6c0-0.1,0.1-0.2,0.2-0.2c0.3-0.1,0.7,0,1,0.2c0.4,0.2,0.4,0.6,0,0.8
	C67,69.7,66.6,69.7,66.3,69.5z"/>
<path class="stb35" d="M65.8,72.1c-0.2,0.1-0.3,0.3-0.3,0.6c0,0.1,0.1,0.2,0.3,0.3c0.5,0.2,1,0.2,1.4,0c0.2-0.1,0.3-0.3,0.3-0.6
	c0-0.1-0.1-0.2-0.3-0.3C66.7,71.9,66.2,71.9,65.8,72.1z"/>
<path class="stb34" d="M65.6,72L65.6,72L65.6,72L65.6,72l0.1,0.2l0.1,0.1h0.1c0,0,0.1,0.1,0.1,0.1l0,0h0.1h0.1h0.1h0.4h0.2l0,0h0.1
	l0,0l0.2-0.1c0.2-0.1,0.3-0.2,0.3-0.4v0.4c0,0.2-0.1,0.3-0.3,0.4l-0.1,0.1l0,0H67h0l0,0h-0.6h-0.1l0,0h-0.1l0,0h-0.1l0,0l-0.1-0.1
	l0,0l0,0H66l0,0l-0.1-0.1l0,0l0,0l0,0c0,0,0,0,0-0.1l0,0v-0.1l0,0V72C65.8,72,65.7,72,65.6,72z"/>
<path class="stb36" d="M65.9,71.5c-0.4,0.2-0.4,0.6,0,0.8c0.5,0.2,1,0.2,1.4,0c0.2-0.1,0.3-0.3,0.3-0.6c0-0.1-0.1-0.2-0.3-0.3
	C66.9,71.3,66.4,71.3,65.9,71.5z"/>
<path class="stb37" d="M65.9,72.3c-0.2-0.1-0.3-0.4-0.2-0.6c0-0.1,0.1-0.2,0.2-0.2c0.3-0.1,0.7,0,1,0.2c0.2,0.1,0.3,0.4,0.2,0.6
	c0,0.1-0.1,0.2-0.2,0.2C66.6,72.6,66.2,72.5,65.9,72.3z"/>
<path class="stb35" d="M63.5,70.9c-0.2,0.1-0.4,0.3-0.3,0.6c0,0.1,0.2,0.2,0.3,0.3c0.5,0.2,1,0.2,1.4,0c0.2-0.1,0.4-0.3,0.3-0.6
	c0-0.1-0.2-0.2-0.3-0.3C64.4,70.7,63.9,70.7,63.5,70.9z"/>
<path class="stb34" d="M63.3,70.9L63.3,70.9C63.3,70.9,63.3,70.9,63.3,70.9L63.3,70.9l0.1,0.2l0.1,0.1h0.1l0.2,0.1l0,0h0.1h0.1H64
	l0,0h0.4h0.2l0,0h0.1l0,0l0.2-0.1c0.2-0.1,0.3-0.2,0.3-0.4v0.4c0,0.2-0.1,0.3-0.3,0.4l-0.2,0.1l0,0h-0.1h-0.1h-0.1H64h-0.1h-0.1l0,0
	l-0.2-0.1l0,0h0h-0.1l0,0l-0.1-0.1l0,0l0,0l0,0l0,0l0,0l0,0l0,0c0,0,0,0,0-0.1l0,0v-0.4C63.4,70.9,63.4,70.9,63.3,70.9z"/>
<path class="stb36" d="M63.6,70.3c-0.2,0.1-0.3,0.3-0.3,0.6c0,0.1,0.1,0.2,0.3,0.3c0.5,0.2,1,0.2,1.4,0c0.2-0.1,0.3-0.3,0.3-0.6
	c0-0.1-0.1-0.2-0.3-0.3C64.6,70.1,64.1,70.1,63.6,70.3z"/>
<path class="stb37" d="M63.6,71.2c-0.4-0.2-0.4-0.6,0-0.8c0.3,0,0.7,0,0.9,0.2c0.4,0.2,0.4,0.6,0,0.8C64.2,71.4,63.9,71.3,63.6,71.2z
	"/>
<path class="stb38" d="M88.3,58.1c1.1-0.6,2.5-0.6,3.7,0c0.4,0.2,0.7,0.6,0.8,1.1l0,0v4.8l0,0c0,0.5-0.3,0.9-0.7,1.1
	c-1.1,0.6-2.5,0.6-3.7,0c-0.4-0.2-0.7-0.6-0.8-1l0,0v-4.8l0,0C87.6,58.7,87.9,58.3,88.3,58.1z"/>
<path class="stb39" d="M88.3,58.1c1.1-0.6,2.5-0.6,3.7,0c0.4,0.2,0.7,0.6,0.8,1.1l0,0v4.8l0,0c0,0.5-0.3,0.9-0.7,1.1
	c-1.1,0.6-2.5,0.6-3.7,0c-0.4-0.2-0.7-0.6-0.8-1l0,0v-4.8l0,0C87.6,58.7,87.9,58.3,88.3,58.1z"/>
<path class="stb40" d="M88.3,65c-0.4-0.2-0.7-0.6-0.8-1l0,0v-4.8c0-0.5,0.3-0.9,0.8-1.1c0.3-0.2,0.6-0.3,0.9-0.3
	c0.5,0.1,1,0.2,1.5,0.5c0.6,0.2,0.9,0.8,1,1.3v5.5C90.6,65.6,89.4,65.5,88.3,65z"/>
<path class="stb14" d="M88.3,65c-0.4-0.2-0.7-0.6-0.8-1l0,0v-4.8c0-0.5,0.3-0.9,0.8-1.1l0.2-0.1c0.3,0.1,0.5,0.2,0.8,0.3
	c0.6,0.3,0.9,0.8,1,1.4v5.6C89.6,65.4,88.9,65.3,88.3,65z"/>
<path class="stb41" d="M88.9,57.5c-0.4,0.1-0.6,0.6-0.5,1c0.1,0.2,0.3,0.4,0.5,0.5c0.8,0.4,1.7,0.4,2.6,0c0.4-0.1,0.6-0.6,0.5-1
	c-0.1-0.2-0.3-0.4-0.5-0.5C90.6,57.1,89.7,57.1,88.9,57.5z"/>
<rect x="88.4" y="57.6" class="stb41" width="3.6" height="0.6"/>
<path class="stb42" d="M88.9,57c-0.7,0.4-0.7,1.1,0,1.5c0.8,0.4,1.7,0.4,2.6,0c0.4-0.1,0.6-0.6,0.5-1c-0.1-0.2-0.3-0.4-0.5-0.5
	C90.6,56.6,89.7,56.6,88.9,57z"/>
<path class="stb43" d="M88.1,56.1h4.2v1.3l0,0c0,0.4-0.3,0.7-0.6,0.8c-0.9,0.5-2.1,0.5-3,0c-0.3-0.1-0.6-0.5-0.6-0.8l0,0L88.1,56.1z"
	/>
<path class="stb44" d="M92.3,57.3L92.3,57.3c0,0.4-0.3,0.7-0.6,0.8l-0.2,0.1v-2.2h0.8L92.3,57.3z"/>
<path class="stb45" d="M90.2,56.1h1.3v2.2c-0.4,0.2-0.8,0.3-1.3,0.3V56.1z"/>
<path class="stb46" d="M88.7,55.3c-0.5,0.2-0.7,0.7-0.6,1.2c0.1,0.3,0.3,0.5,0.6,0.6c0.9,0.5,2.1,0.5,3,0c0.5-0.2,0.7-0.7,0.6-1.2
	c-0.1-0.3-0.3-0.5-0.6-0.6C90.7,54.8,89.6,54.8,88.7,55.3z"/>
<path class="stb47" d="M88.3,60.7c1.1,0.6,2.5,0.6,3.7,0c0.4-0.2,0.7-0.6,0.8-1l0,0V63l0,0c-0.1,0.4-0.3,0.8-0.7,1
	c-1.1,0.6-2.5,0.6-3.7,0c-0.4-0.2-0.7-0.6-0.8-1l0,0v-3.3l0,0C87.7,60.1,87.9,60.5,88.3,60.7z"/>
<path class="stb48" d="M92.7,59.7L92.7,59.7V63l0,0c-0.1,0.4-0.3,0.8-0.7,1c-0.5,0.3-1.1,0.4-1.7,0.4v-3.3c0.6,0,1.2-0.2,1.7-0.4
	C92.4,60.5,92.7,60.1,92.7,59.7z"/>
<path class="stb49" d="M92.7,59.7L92.7,59.7V63l0,0c-0.1,0.4-0.3,0.8-0.7,1c-0.1,0.1-0.2,0.1-0.3,0.2v-3.3l0.3-0.2
	C92.4,60.5,92.7,60.1,92.7,59.7z"/>
<path class="stb53" d="M67.1,49.6c0,0.1,0,0.2,0,0.3l0,0c0,0.1-0.1,0.2-0.1,0.2l0,0c-0.1,0.1-0.1,0.1-0.2,0.2l-0.2,0.1
	c0,0-0.1,0.1-0.2,0.1c-0.1,0.1-0.3,0.2-0.5,0.2l-0.2,0.1h-0.2l-0.3,0h-0.1c-0.1,0-0.3,0-0.4,0h-0.1c-0.1,0-0.3,0-0.4,0h-0.1
	l-0.4-0.1h-0.1l-0.3-0.1h-0.1c-0.1,0-0.2-0.1-0.4-0.2c-0.4-0.2-0.7-0.6-0.7-1v7.5c0,0.4,0.3,0.8,0.7,1l0.3,0.2l0,0h0.1
	c0.1,0,0.1,0.1,0.2,0.1h0.1h0.1H64h0.2h0.2h0.2h0.3h0.3h0.1h0.2h0.1c0.1,0,0.2,0,0.3-0.1h0.1l0,0c0.2-0.1,0.3-0.1,0.5-0.2l0,0
	l0.1-0.1c0.1,0,0.1-0.1,0.2-0.1l0,0l0.2-0.2l0,0l0,0v-0.1l0.1-0.1l0,0v-0.1c0,0,0-0.1,0-0.1l0,0v-7v-0.5L67.1,49.6z"/>
<path class="stb54" d="M66.4,48.6c0.9,0.5,1,1.4,0,2c-1.1,0.5-2.3,0.5-3.4,0c-0.5-0.1-0.9-0.7-0.8-1.2c0.1-0.4,0.4-0.7,0.8-0.8
	C64.1,48.1,65.3,48.1,66.4,48.6z"/>
<path class="stb53" d="M65.6,44.9L65.6,44.9c-0.1,0.1-0.1,0.1-0.2,0.2c-0.1,0.1-0.2,0.1-0.3,0.1l0,0c-0.1,0-0.2,0-0.3,0l0,0
	c-0.1,0-0.2,0-0.4,0l0,0c-0.1,0-0.3-0.1-0.4-0.1c-0.2-0.1-0.3-0.2-0.3-0.4v4.8c0,0.2,0.1,0.3,0.3,0.4l0.2,0.1h0.1h0.1l0,0h0.1H65V50
	l0,0h0.1l0.2-0.1l0,0l0.1-0.1c0,0,0.1,0,0.1-0.1l0,0l0,0l0,0v-0.1l0,0c0,0,0,0,0-0.1v-4.9l0,0C65.6,44.7,65.6,44.8,65.6,44.9z"/>
<path class="stb54" d="M65.4,44.3c0.2,0.1,0.3,0.3,0.3,0.6c0,0.1-0.1,0.2-0.3,0.3c-0.5,0.2-1,0.2-1.4,0c-0.4-0.2-0.4-0.6,0-0.8
	C64.4,44,64.9,44,65.4,44.3z"/>
<path class="stb38" d="M63.3,59.4c-1.6-0.8-3.4-0.8-5,0c-0.6,0.3-0.9,0.8-1,1.5l0,0v6.6l0,0c0.1,0.6,0.5,1.1,1,1.4
	c1.6,0.8,3.4,0.8,5,0c0.5-0.3,0.9-0.8,1-1.4l0,0v-6.6l0,0C64.3,60.3,63.9,59.7,63.3,59.4z"/>
<path class="stb38" d="M63.3,59.4c-1.6-0.8-3.4-0.8-5,0c-0.6,0.3-0.9,0.8-1,1.5l0,0v6.6l0,0c0.1,0.6,0.5,1.1,1,1.4
	c1.6,0.8,3.4,0.8,5,0c0.5-0.3,0.9-0.8,1-1.4l0,0v-6.6l0,0C64.3,60.3,63.9,59.7,63.3,59.4z"/>
<path class="stb14" d="M63.3,68.9c0.5-0.3,0.9-0.8,1-1.4l0,0v-6.6c-0.1-0.6-0.4-1.2-1-1.5c-0.4-0.2-0.8-0.4-1.2-0.4
	c-0.7,0.1-1.4,0.3-2,0.7c-0.7,0.3-1.3,1-1.3,1.8v7.6C60.3,69.7,61.9,69.6,63.3,68.9z"/>
<path class="stb55" d="M63.3,68.9c0.5-0.3,0.9-0.8,1-1.4l0,0v-6.6c-0.1-0.6-0.4-1.2-1-1.5l-0.2-0.1c-0.4,0.1-0.7,0.3-1.1,0.5
	c-0.8,0.4-1.3,1.1-1.4,2v7.7C61.6,69.5,62.5,69.3,63.3,68.9z"/>
<path class="stb41" d="M62.6,58.6c0.6,0.2,0.8,0.8,0.6,1.4c-0.1,0.3-0.3,0.5-0.6,0.6c-1.1,0.6-2.4,0.6-3.5,0
	c-0.6-0.2-0.8-0.8-0.6-1.4c0.1-0.3,0.3-0.5,0.6-0.6C60.2,58,61.5,58,62.6,58.6z"/>
<rect x="58.4" y="58.8" class="stb41" width="4.9" height="0.8"/>
<path class="stb42" d="M62.6,57.9c0.6,0.2,0.8,0.8,0.6,1.4c-0.1,0.3-0.3,0.5-0.6,0.6c-1.1,0.6-2.4,0.6-3.5,0c-1-0.6-1-1.5,0-2
	C60.2,57.3,61.5,57.3,62.6,57.9z"/>
<path class="stb56" d="M63.7,56.7h-5.8v1.7l0,0c0.1,0.5,0.4,1,0.8,1.2c1.3,0.7,2.8,0.7,4.1,0c0.5-0.2,0.8-0.7,0.8-1.2l0,0L63.7,56.7z
	"/>
<path class="stb57" d="M57.9,58.4L57.9,58.4c0.1,0.5,0.4,1,0.8,1.2l0.3,0.2v-3.1h-1.1V58.4z"/>
<path class="stb58" d="M60.8,56.7h-1.7v3.1c0.6,0.2,1.1,0.3,1.7,0.3V56.7z"/>
<path class="stb59" d="M62.9,55.6c0.7,0.2,1,0.9,0.8,1.6c-0.1,0.4-0.4,0.6-0.8,0.8c-1.3,0.7-2.8,0.7-4.1,0c-0.7-0.2-1-0.9-0.8-1.6
	c0.1-0.4,0.4-0.6,0.8-0.8C60.1,54.9,61.6,54.9,62.9,55.6z"/>
<path class="stb47" d="M63.3,63c-1.6,0.8-3.4,0.8-5,0c-0.5-0.3-0.9-0.8-1-1.4l0,0v4.5l0,0c0.1,0.6,0.5,1.1,1,1.4c1.6,0.8,3.4,0.8,5,0
	c0.5-0.3,0.9-0.8,1-1.4l0,0v-4.5l0,0C64.3,62.2,63.9,62.7,63.3,63z"/>
<path class="stb48" d="M57.3,61.7L57.3,61.7v4.5l0,0c0.1,0.6,0.5,1.1,1,1.4c0.7,0.4,1.5,0.6,2.3,0.6v-4.5c-0.8,0-1.6-0.2-2.3-0.6
	C57.7,62.8,57.4,62.2,57.3,61.7z"/>
<path class="stb49" d="M57.3,61.7L57.3,61.7v4.5l0,0c0.1,0.6,0.5,1.1,1,1.4c0.1,0.1,0.3,0.2,0.4,0.2v-4.5L58.3,63
	C57.8,62.8,57.4,62.2,57.3,61.7z"/>
<path class="stb60" d="M86.2,60.7c0,0.1,0,0.2-0.1,0.3l0,0c0,0.1-0.1,0.2-0.1,0.2l0,0c-0.1,0.1-0.1,0.1-0.2,0.2l-0.2,0.1l-0.2,0.1
	c-0.1,0.1-0.3,0.2-0.5,0.2l-0.2,0.1h-0.2c-0.1,0-0.2,0-0.3,0.1h-0.1c-0.1,0-0.3,0-0.4,0h-0.1c-0.1,0-0.3,0-0.4,0h-0.1
	c-0.1,0-0.3,0-0.4-0.1h-0.1c-0.1,0-0.2-0.1-0.3-0.1h-0.1c-0.1,0-0.3-0.1-0.4-0.2c-0.4-0.2-0.7-0.6-0.7-1v7.6c0,0.4,0.3,0.8,0.7,1
	c0.1,0.1,0.2,0.1,0.4,0.2l0,0h0.1l0.2,0.1h0.1h0.1h0.1h0.2h0.1h1c0.1,0,0.1,0,0.2,0h0.1l0.3-0.1h0.1l0,0c0.2,0,0.3-0.1,0.5-0.2l0,0
	l0.1-0.1l0.2-0.1l0,0l0.2-0.2l0,0l0,0v-0.1c0,0,0-0.1,0.1-0.1l0,0l0,0v-0.1c0,0,0-0.1,0-0.1l0,0v-7.1v-0.5L86.2,60.7z"/>
<path class="stb61" d="M85.4,59.7c1,0.6,1,1.4,0,2c-1.1,0.6-2.4,0.6-3.4,0c-0.6-0.2-0.9-0.8-0.7-1.3c0.1-0.3,0.4-0.6,0.7-0.7
	C83.1,59.1,84.3,59.1,85.4,59.7z"/>
<path class="stb60" d="M84.7,55.9L84.7,55.9c-0.1,0.1-0.1,0.1-0.2,0.2c-0.1,0.1-0.2,0.1-0.3,0.1l0,0c-0.1,0-0.2,0-0.4,0l0,0
	c-0.1,0-0.2,0-0.4,0l0,0c-0.1,0-0.2-0.1-0.3-0.1c-0.2-0.1-0.3-0.2-0.3-0.4v4.9c0,0.2,0.1,0.4,0.2,0.5l0.2,0.1h0.1h0.2h0.1H84h0.1
	l0,0c0,0,0.1,0,0.1,0c0.1,0,0.2,0,0.2-0.1l0,0l0.1-0.1l0.1-0.1l0,0l0,0l0,0c0,0,0,0,0-0.1c0,0,0,0,0-0.1v-0.1v-4.9l0,0
	C84.6,55.8,84.6,55.8,84.7,55.9z"/>
<path class="stb54" d="M84.4,55.3c0.2,0.1,0.4,0.3,0.3,0.6c0,0.1-0.1,0.2-0.3,0.3c-0.5,0.2-1,0.2-1.5,0c-0.2-0.1-0.4-0.3-0.3-0.6
	c0-0.1,0.2-0.2,0.3-0.3C83.4,55,84,55,84.4,55.3z"/>
<path class="stb62" d="M89.8,48.9c1.6-0.2,3.1,1,3.2,2.6c0,0,0,0,0,0c-1.5,0.3-2.9-0.7-3.2-2.2C89.8,49.2,89.8,49.1,89.8,48.9z"/>
<path class="stb2" d="M92.9,50c-0.5,0.9-0.9,1.8-1.3,2.8c-0.1,0.6-1.4,1.6-2.1,1.8s-2.8,0.5-2.4-0.5c0.4-0.7,0.7-1.4,1-2.2
	c0.3-0.8,0.7-1.6,1.4-2.2l1.8-1.2L92.9,50z"/>
<path class="stb63" d="M89.5,49.8c-0.7,0.5-1.3,1.2-1.8,1.9c-0.3,0.7-0.6,1.4-0.4,1.5c0.5,0.2,0.8-0.5,1-1s1-0.7,1.5-0.9
	s2.2-1.1,1.8-2.2l-0.7-0.4L89.5,49.8z"/>
<path class="stb64" d="M101.2,26.9c0,0-2.1-0.4-3.8,6.5s-1.7,7.3-1.7,7.3l-5.9,8.3c1.6-0.1,3,1,3.2,2.6c0,0,4.8-4.7,5.4-6.5
	S107.7,27.9,101.2,26.9z"/>
<path class="stb62" d="M93,51.5c-0.1-0.6-0.4-1.2-0.8-1.7c3.7-3.1,9.3-16.3,9.3-16.3l1.1,2.7c-0.7,1.5-4,8.5-4.2,8.9
	C97.8,46.8,93,51.5,93,51.5z"/>
<path class="stb6" d="M111.2,85.1c0,0,0.8,2,0,2.5s-1,1.1-2.3,1s-1.2,0.3-1.6,0.8S102,92,101.1,91s1.6-2.2,2.5-2.8s3.1-3,3.1-3.6
	S111.2,85.1,111.2,85.1z"/>
<path class="stb7" d="M111.2,87.6c-0.8,0.5-1,1.1-2.3,1s-1.2,0.3-1.6,0.8S102,92,101.1,91c-0.3-0.3-0.2-0.8,0.1-1.1l1.4,0.3
	c1.4,0.3,3.2-1.4,3.9-2s1.6-0.4,2.8-0.6s1-2.1,1-2.1l0.9-0.3C111.4,85.7,111.9,87.2,111.2,87.6z"/>
<path class="stb6" d="M119.8,91.5c0,0,0.4,2.3-0.5,3.6s-2.9,3.5-3.7,3.4s-1-0.5-1-0.5c-0.2-1.3-0.1-2.6,0.3-3.8
	c0.3-0.9,0.6-1.8,0.7-2.7H119.8z"/>
<path class="stb7" d="M119.2,95.1c-0.8,1.1-2.4,2.9-3.4,3.3c1.3-1.6-0.6-1.3,0.8-2.1c2-1.1,0.7-2,1.6-2.2s0.2-2.4,0.2-2.4l0.5-0.2
	h0.8C119.8,91.5,120.1,93.9,119.2,95.1z"/>
<path class="stb19" d="M109.7,54c0,0-4.3-0.9-5.6-3.9c-0.2,4.7,0,9.5,0.4,14.2c0.8,7.7,1.5,21.1,1.5,21.1c1.5,1.4,3.8,1.4,5.3,0
	c0,0,0.8-8.9,0-13.8c0,0,0.5-8.6-0.3-12.9S109.7,54,109.7,54z"/>
<path class="stb20" d="M106,85.4c0,0-0.7-13.4-1.5-21.1c-0.5-5-0.6-10-0.4-15c1,2,2.7,3.5,4.8,4.2c-0.1,2.9-0.6,11.3-0.5,14.2
	c0,2.7,0.6,14,0.8,18.7C108,86.5,106.9,86.2,106,85.4z"/>
<path class="stb19" d="M118.8,52.6c0,0,0.4,4.9,0.5,11.9c0,3.6,0.2,7.1,0.8,10.6c0.4,5.3,0.6,10.7,0.4,16.1c0,0-2.2,3.4-5.7,0
	c0,0-0.6-11.9-1.2-14.6s-3.9-15.9-5.2-20.6c-0.6-2.1-0.7-2.9-0.7-2.9S113.5,56.8,118.8,52.6z"/>
<path class="stb20" d="M114.9,91.2c0,0-0.6-11.9-1.2-14.6s-3.9-15.9-5.2-20.6c-0.5-1.4-1.2-2.7-2.2-3.9c0,0,4.1,2.8,7.4,2.8
	c0.2,1,1.6,10.8,1.9,15s3.2,19,2.4,22.8C116.8,92.6,115.7,92.1,114.9,91.2z"/>
<path class="stb65" d="M108.5,26.4c1.8,0.5,6.6,2,6.9,2.5s2,1.3,0.7,7c0,0-2,6.3,0.5,11.9c1.5,3.2,2.1,3.2,2.2,4.5
	c0.2,2.6-5.9,4.3-9.7,3.3c-1.6-0.4-4.1-1.3-5.2-2.8c-0.5-3.9-1.4-7.7-2.6-11.4c-2-5.6-3.8-13.1-0.7-14.6
	C100.6,26.8,103,25,108.5,26.4z"/>
<path class="stb2" d="M108.6,21.8c0,0-1.1,3.2,0.8,4.8c1.1,0.9-0.2,3.8-3.5,4.4c0,0-1.5,0-1.5-0.6c0-1.3-0.6-1.9-1.4-2.6
	S108.6,21.8,108.6,21.8z"/>
<path class="stb10" d="M109.3,26.5c0.1,0.1,0.2,0.2,0.3,0.4c-1.2-0.6-2.6-0.7-3.9-0.5l2.3-4.2l0.3-0.2l0.2,0.3
	C108.2,23.3,107.9,25.4,109.3,26.5z"/>
<path class="stb66" d="M104.3,30.4c-0.2-2-0.6-1.9-1.4-2.6c-0.2-0.2,0.1-0.8,0.7-1.5c0.2,0.1,0.5,0.3,0.7,0.5c1.2,1,2,2.4,2.2,4
	c-0.2,0.1-0.4,0.1-0.7,0.2C105.4,31,104.3,31,104.3,30.4z"/>
<path class="stb2" d="M108.9,20c0,0,0.1,3.9-2,6.2c-1.9,2-4.3,3.7-5.4,1.1c-0.9-2-3.3-7.2-1.7-8.8c2.1-2,2.5-4,5.6-3.6
	C105.4,14.9,108.9,15.6,108.9,20z"/>
<path class="stb3" d="M108.9,20c0.2,2.3-0.5,4.5-2,6.2c-0.6,0.6-1.2,1.2-1.9,1.7c0.7-0.8,1.3-1.8,1.7-2.8c0.7-1.3-1.5-0.3-0.6-3.4
	c0.3-1.1-2,0.8-2.6,0.9c-3.5,0.8-3.7-1.3-4-2.1c0-0.4,0-0.7,0-1.1l0.2-0.7c0-0.1,0-0.1,0.1-0.2c0.2-0.5,0.5-1,0.8-1.5
	c1.5-0.3,5.7-1.3,5.8-1.3s1,0.8,1.9,1.6C108.7,18.2,108.9,19.1,108.9,20z"/>
<path class="stb67" d="M108.2,24c1.3-2,1.4-4.6,0.3-6.7c-0.9-1.7-2.7-2.7-4.6-2.4c-2.5,0.2-4.5,2.2-4.6,4.7c-0.1,1.1,0.7,3.5,4.4,1.5
	c0.5-0.3,1.5-1.4,2.1-1c0.6,0.5,1,1.2,0.8,2c-0.1,0.7,0.5,0.6,0.6,0.5s0.3-2.2,1.2-1.7S108.3,23.8,108.2,24z"/>
<path class="stb67" d="M108.2,24c0-0.1,0.9-2.5,0.1-3s-1.2,1.5-1.2,1.7s-0.7,0.2-0.6-0.5c0.1-0.8-0.2-1.5-0.8-2
	c-0.6-0.3-1.4,0.6-2,0.9c0.7-0.7,1.2-1.6,1.4-2.6c0.1-1.2,0.7-2.3,1.7-2.9c0.7,0.4,1.3,1.1,1.7,1.8C109.5,19.5,109.5,22,108.2,24z"
	/>
<path class="stb2" d="M111.2,54c0,0-1.8,3.3-3.3,3.4s-1.8,0-2.4-1.2c-0.4-0.7,0.4-1.5,0.8-1.1c0.7,0.7,1.8-0.4,2-0.9s1.5-1.5,1.8-1.7
	S112,53.3,111.2,54z"/>
<path class="stb2" d="M108.7,53.1c-0.5,0.2-1.1,0.4-1.5,0.7c-0.4,0.4-0.7,0.7-0.6,0.8c0.3,0.3,0.6-0.1,0.9-0.3s0.8-0.2,1.1-0.2
	s1.6-0.2,1.6-0.9l-0.3-0.4L108.7,53.1z"/>
<path class="stb68" d="M114.3,45.4c-0.7-1.8-1.2-3.6-1.6-5.4c-1.4-6-2-10.7,0.3-11.6c0,0,3.3-1.3,4.3,5.2c0.8,5.3,2.2,11.6,1.3,13.8
	c-0.8,3.5-7.8,7.6-7.8,7.6c0.1-1-0.6-1.9-1.5-2.1C110.8,50.2,112.4,47.7,114.3,45.4z"/>
<path class="stb69" d="M109.4,52.8c1.4-2.6,3-5.1,4.9-7.4c-0.7-1.8-1.2-3.6-1.6-5.4c-1.4-5.9-2-10.5,0.2-11.6c1,0.4,2.3,1.6,2.8,5.1
	c0.8,5.3,2.2,11.6,1.3,13.8c-0.6,2.5-4.2,5.2-6.3,6.6C110.5,53.4,110,53,109.4,52.8z"/>
</svg>
