<svg id="Layer_1" data-name="Layer 1" xmlns="http://www.w3.org/2000/svg" viewBox="0 0 90.61 90.75"><defs><style>.cls-1,.cls-8{opacity:0.1;}.cls-2{fill:#a3805a;}.cls-3{fill:#ddb786;}.cls-4{fill:#826243;}.cls-5{fill:#bf9b71;}.cls-6{fill:#fddbaa;}.cls-7{fill:#ddb787;}.cls-9{fill:#bad1de;}.cls-10{fill:#efb185;}.cls-11{fill:#e6a376;}.cls-12{fill:#8d5b8b;}.cls-13{fill:#aa6fad;}.cls-14{fill:#111114;}.cls-15{fill:#0a0a0a;}.cls-16{fill:#1a74c2;}.cls-17{fill:#278dd8;}.cls-18{fill:#dd9569;}.cls-19{fill:#f2b78f;}.cls-20{fill:#231202;}.cls-21{fill:#f9cbac;}.cls-22{fill:#17a89f;}.cls-23{fill:#149386;}.cls-24{fill:#1772cc;}.cls-25{fill:#2180f2;}.cls-26{fill:#221101;}.cls-27{fill:#341c09;}</style></defs><title>cc-illustrations</title><polygon class="cls-1" points="90.61 49.95 63.02 34.02 42.01 46.23 27.41 37.8 0 53.73 27.59 69.66 56.73 53.22 72.53 60.94 90.61 49.95"/><polygon class="cls-2" points="56.77 38.28 56.73 53.22 43.45 60.94 43.5 45.99 56.77 38.28"/><polygon class="cls-3" points="56.77 38.28 56.73 53.22 43.45 60.94 43.5 45.99 56.77 38.28"/><polygon class="cls-4" points="51.41 41.43 51.4 44.34 48.82 45.84 48.83 42.93 51.41 41.43"/><polygon class="cls-5" points="43.5 45.99 43.45 60.94 30.09 53.22 30.13 38.28 43.5 45.99"/><polygon class="cls-6" points="56.77 38.28 43.5 45.99 30.13 38.28 43.41 30.56 56.77 38.28"/><polygon class="cls-7" points="30.09 53.22 43.5 45.99 30.13 38.28 30.09 53.22"/><polygon class="cls-2" points="35.46 42.24 35.41 57.18 22.14 64.9 22.18 49.95 35.46 42.24"/><polygon class="cls-3" points="35.46 42.24 35.41 57.18 22.14 64.9 22.18 49.95 35.46 42.24"/><polygon class="cls-4" points="30.09 45.39 30.09 48.3 27.5 49.8 27.51 46.89 30.09 45.39"/><polygon class="cls-5" points="22.18 49.95 22.14 64.9 8.78 57.18 8.82 42.24 22.18 49.95"/><polygon class="cls-6" points="35.46 42.24 22.18 49.95 8.82 42.24 22.09 34.52 35.46 42.24"/><polygon class="cls-7" points="8.78 57.18 22.18 49.95 8.82 42.24 8.78 57.18"/><polygon class="cls-2" points="89.74 35.7 89.7 50.64 76.42 58.35 76.47 43.41 89.74 35.7"/><polygon class="cls-3" points="89.74 35.7 89.7 50.64 76.42 58.35 76.47 43.41 89.74 35.7"/><polygon class="cls-4" points="84.38 38.84 84.37 41.75 81.79 43.26 81.79 40.35 84.38 38.84"/><polygon class="cls-5" points="76.47 43.41 76.42 58.35 63.06 50.64 63.1 35.7 76.47 43.41"/><polygon class="cls-6" points="89.74 35.7 76.47 43.41 63.1 35.7 76.38 27.98 89.74 35.7"/><polygon class="cls-7" points="63.06 50.64 76.47 43.41 63.1 35.7 63.06 50.64"/><g class="cls-8"><path d="M32.71,75.08c6.21,3.58,6.24,9.4.07,13s-16.2,3.59-22.41,0-6.25-9.4-.08-13S26.5,71.49,32.71,75.08Z"/></g><g class="cls-8"><path d="M66.3,68.2c5.49,3.17,5.52,8.31.06,11.48s-14.32,3.17-19.81,0S41,71.37,46.49,68.2,60.82,65,66.3,68.2Z"/></g><path class="cls-9" d="M72.82,35.23a2.61,2.61,0,0,1,2.42-1.4A2,2,0,0,1,72.82,35.23Z"/><path class="cls-10" d="M74.59,33.12a16.72,16.72,0,0,1,1.66,2.44c.15.51.79,2.67-.27,4.15-.57.79-.9-.31-1.07-1.76a2.1,2.1,0,0,0-.86-1.86A7.57,7.57,0,0,1,72.44,34C72.17,33.5,74.59,33.12,74.59,33.12Z"/><path class="cls-11" d="M72.47,34.14a8.57,8.57,0,0,1,1.17,2.26c.16,1,1.19.89,1.27,1.55.13,1.12.39,2.06.74,2-.16-.85.83-1.5-.25-3.47A14.37,14.37,0,0,0,73,33.7C72.53,33.91,72.37,33.94,72.47,34.14Z"/><path class="cls-10" d="M73.07,33.69s.33,2.75.55,3.57.73,1.3.83,1.11-.43-2.64.47-2.58C75.4,35.82,73.21,34.07,73.07,33.69Z"/><path class="cls-12" d="M66.34,11.51s2.76-.65,3.92,4.84,1.17,7.62,2,9.51,3,8,3,8a3.09,3.09,0,0,0-2.42,1.4s-4.56-7.52-5.46-10.84S63.46,13,66.34,11.51Z"/><path class="cls-13" d="M72.25,25.86c-.82-1.89-.91-4-2-9.51-.88-4.52-2.24-4.94-3.19-5.08-2.61,1.73.87,10,1.75,13.27.68,2.48,3.32,7.55,4.61,10a3.2,3.2,0,0,1,1.81-.67S73.06,27.73,72.25,25.86Z"/><path class="cls-14" d="M57.58,67.63s-.82,1.91,0,2.4.92,1,2.23.92,1.11.33,1.56.81,5.07,2.51,5.94,1.53-1.58-2.13-2.45-2.7-2.93-2.85-3-3.5S57.58,67.63,57.58,67.63Z"/><path class="cls-15" d="M57.58,70c.81.48.92,1,2.23.92s1.11.33,1.56.81,5.07,2.51,5.94,1.53a.73.73,0,0,0-.08-1l-1.35.24c-1.36.23-3.11-1.33-3.79-1.92s-1.53-.35-2.69-.55-1-2-1-2l-.86-.3C57.37,68.18,56.88,69.61,57.58,70Z"/><path class="cls-14" d="M49.34,73.81s-.35,2.25.51,3.47,2.77,3.32,3.59,3.22,1-.46,1-.46a8.08,8.08,0,0,0-.26-3.65,11.79,11.79,0,0,1-.64-2.58Z"/><path class="cls-15" d="M49.85,77.28c.77,1.06,2.33,2.82,3.25,3.17-1.22-1.57.61-1.25-.76-2-1.89-1-.69-1.88-1.53-2.12S50.58,74,50.58,74l-.45-.21h-.79S49,76.06,49.85,77.28Z"/><path class="cls-16" d="M59.09,37.7s4.12-.89,5.42-3.77a94,94,0,0,1-.43,13.7C63.3,55,62.65,67.91,62.65,67.91a3.72,3.72,0,0,1-5.11,0s-.73-8.54,0-13.27c0,0-.49-8.28.32-12.43S59.09,37.7,59.09,37.7Z"/><path class="cls-17" d="M62.65,67.91S63.3,55,64.08,47.63a104,104,0,0,0,.43-14.43,8.4,8.4,0,0,1-4.63,4.06c.09,2.81.52,10.92.48,13.67s-.55,13.45-.77,18A4.11,4.11,0,0,0,62.65,67.91Z"/><path class="cls-16" d="M50.25,36.33s-.41,4.75-.49,11.44A60.22,60.22,0,0,1,49,58a146.53,146.53,0,0,0-.41,15.47s2.11,3.26,5.43,0c0,0,.57-11.46,1.14-14.07s3.74-15.28,5-19.83c.57-2,.7-2.78.7-2.78S55.36,40.36,50.25,36.33Z"/><path class="cls-17" d="M54.05,73.46S54.62,62,55.19,59.39s3.74-15.28,5-19.83a10.63,10.63,0,0,1,2.15-3.72s-3.94,2.74-7.12,2.73c-.14,1-1.49,10.34-1.81,14.43s-3.08,18.33-2.34,21.91A4.11,4.11,0,0,0,54.05,73.46Z"/><path class="cls-12" d="M60.17,11.13c-1.7.44-6.38,2-6.61,2.38s-1.93,1.25-.66,6.77c0,0,1.92,6.1-.51,11.43-1.42,3.09-2,3-2.14,4.36-.22,2.52,5.66,4.18,9.37,3.19,1.54-.41,3.94-1.2,5-2.68a57.18,57.18,0,0,1,2.51-11C69,20.18,70.78,13,67.78,11.52,67.78,11.52,65.53,9.75,60.17,11.13Z"/><path class="cls-13" d="M64.59,36.58a57.18,57.18,0,0,1,2.51-11c1.58-4.51,3.07-10.22,1.79-12.88a7.82,7.82,0,0,0-3.29,3.45c-.89,2.32-3.85,3.21-5.25,3.3s-3,2.21-2.3,5.7c1.76,8.27-.38,11.06-3.92,14a11.1,11.1,0,0,0,5.46.18C61.16,39.07,63.56,38.06,64.59,36.58Z"/><path class="cls-17" d="M52.25,32s-2,1.42-2.1,5.77c0,0,3.37,2.91,9.85,2.21.36,0,.15,1.38.5,1.34a5.43,5.43,0,0,0,4.09-2.82l.24-3.63S54.72,38.42,52.25,32Z"/><path class="cls-16" d="M52.5,31.45a5.71,5.71,0,0,0,3.93,3.67l-1.37,4.7a11,11,0,0,1-4.91-2C50,33.4,52.5,31.45,52.5,31.45Z"/><path class="cls-10" d="M60.13,6.69s1.1,3.12-.75,4.58c-1,.82.22,3.67,3.41,4.26,0,0,1.48,0,1.47-.54a3.21,3.21,0,0,1,1.31-2.54C66.28,11.69,60.13,6.69,60.13,6.69Z"/><path class="cls-18" d="M59.38,11.27a.94.94,0,0,0-.27.38,6.06,6.06,0,0,1,3.76-.44l-2.16-4L60.44,7l-.16.27C60.5,8.17,60.76,10.18,59.38,11.27Z"/><path class="cls-19" d="M64.26,15c.16-1.91.59-1.78,1.31-2.54.2-.21-.13-.73-.7-1.39a2.12,2.12,0,0,0-.65.45,5.85,5.85,0,0,0-2.09,3.86,3.53,3.53,0,0,0,.66.16C63.18,15.57,64.21,15.58,64.26,15Z"/><path class="cls-10" d="M59.85,5s-.11,3.74,1.92,6c1.82,2,4.1,3.51,5.2,1,.89-2,3.18-6.93,1.63-8.43-2-1.93-2.44-3.81-5.39-3.48C63.21.12,59.77.77,59.85,5Z"/><path class="cls-11" d="M59.85,5a8.15,8.15,0,0,0,1.91,6,10.85,10.85,0,0,0,1.77,1.6A10.11,10.11,0,0,1,61.92,10c-.63-1.25,1.47-.31.62-3.3-.29-1,1.93.74,2.49.87,3.35.74,3.57-1.23,3.84-2a5.26,5.26,0,0,0,0-1.06l-.16-.68a1.07,1.07,0,0,0-.07-.19,11,11,0,0,0-.79-1.46C66.38,1.82,62.31.91,62.22.91s-1,.77-1.86,1.51A5.72,5.72,0,0,0,59.85,5Z"/><path class="cls-20" d="M60.46,8.82a6.62,6.62,0,0,1-.27-6.46A4.28,4.28,0,0,1,64.66,0a5.17,5.17,0,0,1,4.46,4.54C69.38,5.93,68.45,8.85,65,7c-.51-.28-1.46-2.2-2.08-1.87a2,2,0,0,0-.82,2c.05.68-.52.61-.57.46s-.31-2.15-1.16-1.6S60.42,8.68,60.46,8.82Z"/><path class="cls-20" d="M60.56,9.12c0-.13-1-2.74-.24-3.22s1.12,1.45,1.16,1.6.62.22.57-.46a2,2,0,0,1,.82-2c.56-.3,1.38.54,1.9.9a5,5,0,0,1-1.32-2.56A3.78,3.78,0,0,0,61.81.6a4.38,4.38,0,0,0-1.62,1.76A5.74,5.74,0,0,0,60.56,9.12Z"/><polygon class="cls-2" points="84.02 27.53 83.97 42.47 70.7 50.18 70.74 35.24 84.02 27.53"/><polygon class="cls-3" points="84.02 27.53 83.97 42.47 70.7 50.18 70.74 35.24 84.02 27.53"/><polygon class="cls-4" points="78.65 30.67 78.65 33.58 76.06 35.09 76.07 32.18 78.65 30.67"/><polygon class="cls-5" points="70.74 35.24 70.7 50.18 57.34 42.47 57.38 27.53 70.74 35.24"/><polygon class="cls-6" points="84.02 27.53 70.74 35.24 57.38 27.53 70.66 19.81 84.02 27.53"/><polygon class="cls-7" points="57.34 42.47 70.74 35.24 57.38 27.53 57.34 42.47"/><path class="cls-21" d="M59.75,33.8s2.46.47,3,.1,1.21.23.54.62a3.83,3.83,0,0,1-1.53.41s2.79.93,3.27.16-.31,2.3-1.74,2.52-2.94.74-5.19-2.13A2.79,2.79,0,0,1,59.75,33.8Z"/><path class="cls-13" d="M55.29,13.58s2.53.75,1.27,4.55L53.21,28.28l-.07,1,7.17,4.34s-2.2,1-1.52,3c0,0-10.77-2.91-11.09-7.16C47.7,29.48,51.34,11.84,55.29,13.58Z"/><path class="cls-12" d="M47.7,29.48c.32,4.25,11.09,7.16,11.09,7.16a2.06,2.06,0,0,1,.13-1.73c-2.81-1.41-7.57-3.91-9-5.2C48,28,54.24,15.55,55.26,13.57,51.32,11.93,47.7,29.48,47.7,29.48Z"/><path class="cls-22" d="M15.64,16.62s2.45-1.87,5.23,1.51A75.43,75.43,0,0,1,26,25.27L36,25.86s1,1.66.26,2.77c0,0-9.65,2.06-13.07.34C23.22,29,9.65,20.06,15.64,16.62Z"/><path class="cls-10" d="M36.21,26.21a9.24,9.24,0,0,1,2.87-1.29,3.89,3.89,0,0,1,1.92.27c.25.13-.89.41-1.26.49s-1,.77,1.33,1.08,1.75.46,1.61.61-3.73,1.78-6.27,1A3.23,3.23,0,0,0,36.21,26.21Z"/><path class="cls-23" d="M23.22,29c3.42,1.72,13.07-.34,13.07-.34a1.73,1.73,0,0,0,.25-1c-2,.2-7.84.77-11.19.75-4.08,0-10.7-10.88-10.65-11C11.41,21.21,23.22,29,23.22,29Z"/><polygon class="cls-2" points="23.78 23.12 23.82 37.38 36.49 44.75 36.45 30.48 23.78 23.12"/><polygon class="cls-3" points="23.78 23.12 23.82 37.38 36.49 44.75 36.45 30.48 23.78 23.12"/><polygon class="cls-4" points="28.9 26.13 28.9 28.9 31.37 30.34 31.36 27.56 28.9 26.13"/><polygon class="cls-5" points="36.45 30.48 36.49 44.75 49.24 37.38 49.2 23.12 36.45 30.48"/><polygon class="cls-6" points="23.78 23.12 36.45 30.48 49.2 23.12 36.53 15.76 23.78 23.12"/><polygon class="cls-7" points="49.24 37.38 36.45 30.48 49.2 23.12 49.24 37.38"/><path class="cls-14" d="M17.2,75.73s1.63.25,1.24,1.19-2.27,2.37-2.52,3-1.78,2.72-2.27,2.52-1.78.1-1.63-2.32S15,75.63,17.2,75.73Z"/><path class="cls-14" d="M20.31,84.62s-.79,2.32,1.19,2.87,1.38-.7,5.68.39,4.79-1.13,4.69-1.63-3-1.38-3.9-1.63l-2.72-.69H20.16Z"/><path class="cls-24" d="M12.2,43.87s0,14,0,15.59-1.76,14-.7,19.46c0,0,3,3.06,5.76,0,0,0,.86-15.58,1.65-19.09s.51-14.27.51-14.27Z"/><path class="cls-24" d="M17.56,45.86s.7,9,1.42,18c0,0,.44,17.82.87,20.38,0,0,5.74,1.42,6.32-1.28,0,0-.14-15.68,0-19s.93-13.54-.37-18.82S17.56,45.86,17.56,45.86Z"/><path class="cls-25" d="M19.85,84.27C19.42,81.71,19,63.89,19,63.89c-.49-6-1-13.13-1.3-16.45l3.9.75a62.09,62.09,0,0,1,1.9,17.91c-.3,7.8-.43,15.47-.47,18.54A14.25,14.25,0,0,1,19.85,84.27Z"/><path class="cls-25" d="M11.47,78.92c-1.06-5.43.7-17.88.7-19.46s0-14.28,0-15.49l3.08,2.37s1,10,0,15.73c-.89,5.2-.32,15.31-.75,18.21A4.92,4.92,0,0,1,11.47,78.92Z"/><path class="cls-22" d="M16.3,16.43s-3.43,1-2.66,6.63,1.35,9.33.87,11.29-2.38,9.2-3,10.47c0,0-.67,2.23,7.61,5,0,0,7.5,2.35,7.17-3.32s1.85-11.4,2.45-13.44,2.65-6-2-9.79S19.67,16.86,16.3,16.43Z"/><path class="cls-10" d="M20.5,14.51A9.2,9.2,0,0,1,19,18.91c-1.16,1.41,5.11,4.1,5.54,2.66a6.43,6.43,0,0,1,1.37-5.32C27,14.93,20.5,14.51,20.5,14.51Z"/><path class="cls-18" d="M19,19a8.36,8.36,0,0,0,1.43-3.9l4.32,3.27v0c-.18,0-3.57.21-4.7,2.4C19.17,20.21,18.61,19.53,19,19Z"/><path class="cls-10" d="M28.79,8.44a12.08,12.08,0,0,1-.08,4.85c-.66,2.3-.4,2.84-.75,3.85a2.48,2.48,0,0,1-.82,1.43c-.85.56-2.39.53-4.26-.59-2.27-1.35-4.2-5.19-2.59-8S25.59,5.29,28.79,8.44Z"/><path class="cls-11" d="M19.79,13.25c1.49-2.52,4.53-5.31,4.54-5.49a7.73,7.73,0,0,1,1.93-.82,5.6,5.6,0,0,1,2.53,1.5,14.91,14.91,0,0,1,.2,1.72c-.71.54-2,1.06-2.31,1.58a7,7,0,0,0-.58,4.17c.22.94-1.59,1.92-1.41,2.75a.11.11,0,0,1,0,.1,6.76,6.76,0,0,1-1.8-.78A7.14,7.14,0,0,1,19.79,13.25Z"/><path class="cls-26" d="M29.71,7.55a3.17,3.17,0,0,1-2.39,2.86c-1.4.39-1.68,2.47-1.69,2.87a9.43,9.43,0,0,1-.16,2.39c-.38.38-1.13-1.16-1.62-1.15-1.26,0-1,1.22-.12,2.62s-2.25,1.41-3.48.1c-.65-.7-.87-1.08-1.49-3.25-.89-3.16-.31-6.63,3.45-7.83S27.43,8,29.71,7.55Z"/><path class="cls-27" d="M20.25,17.24c-.65-.7-.87-1.08-1.49-3.25-.89-3.16-.31-6.63,3.45-7.83S27.43,8,29.71,7.55a3,3,0,0,1-.19.86c-1.11,0-4.18,0-5.18,1.12-1.23,1.38-2.18.68-2.47,2.64s-1.23,4.25,1.71,5.91A3.24,3.24,0,0,1,20.25,17.24Z"/><path class="cls-22" d="M24.35,20.64l1.79,2.2s-7,.64-8.32-3a1.91,1.91,0,0,1,1.65-2.06S19.19,20.48,24.35,20.64Z"/><path class="cls-23" d="M26.24,46.49c-.32-5.68,1.85-11.4,2.45-13.44s2.6-5.9-1.9-9.67c-2,.73-4.93,2.54-4.22,6.69.86,5.13-.52,15.63-1,20.2C23.69,50.43,26.44,50,26.24,46.49Z"/><path class="cls-22" d="M24.86,24.47s2.54-1.15,4.3,2.39a68.13,68.13,0,0,1,3.07,7.31L41,36.72s.52,1.66-.33,2.49c0,0-8.92-.13-11.58-2.34C29.05,36.87,18.89,26.29,24.86,24.47Z"/><path class="cls-10" d="M41,37.06a8.34,8.34,0,0,1,2.79-.55,3.5,3.5,0,0,1,1.64.62c.19.16-.87.18-1.21.18s-1,.48,1,1.21,1.44.76,1.29.87-3.65.81-5.73-.35A2.91,2.91,0,0,0,41,37.06Z"/><path class="cls-23" d="M29.05,36.87c2.66,2.21,11.58,2.34,11.58,2.34a1.62,1.62,0,0,0,.43-.84c-1.81-.22-7.07-.9-10-1.6C27.46,35.93,23.82,25,23.87,25,20.21,27.66,29.05,36.87,29.05,36.87Z"/></svg>