<svg id="Layer_1" data-name="Layer 1" xmlns="http://www.w3.org/2000/svg" viewBox="0 0 120.63 118.12"><defs><style>.cls-1,.cls-19{opacity:0.1;}.cls-2{fill:#131c24;}.cls-3{fill:#efb185;}.cls-4{fill:#e6a376;}.cls-5{fill:#2d1420;}.cls-6{fill:#401e2c;}.cls-7{fill:#111114;}.cls-8{fill:#0a0a0a;}.cls-9{fill:#2a3d4c;}.cls-10{fill:#1d2833;}.cls-11{fill:#dd9569;}.cls-12{fill:#341c09;}.cls-13{fill:#221101;}.cls-14{fill:#59253b;}.cls-15{fill:#dfeaea;}.cls-16{fill:#93b9c1;}.cls-17{fill:#2b0d04;}.cls-18{fill:#cee2ea;}.cls-20{fill:#231d21;}.cls-21{fill:#31282e;}.cls-22{fill:#bad1de;}.cls-23{fill:#ddedf2;}.cls-24{fill:#e8a476;}.cls-25{fill:#db9669;}.cls-26{fill:#f1b287;}.cls-27{fill:#eff3fc;}.cls-28{isolation:isolate;}.cls-29{fill:#beaf84;}.cls-30{fill:#a39772;}.cls-31{fill:#e6dab0;}.cls-32{fill:#885937;}.cls-33{fill:#6b4125;}.cls-34{fill:#936f44;}.cls-35{fill:#c3dbeb;}.cls-36{fill:#80bbd9;}.cls-37{fill:#b1cddd;}.cls-38{fill:#eaf3fa;}.cls-39{fill:#d7e9f4;}.cls-40{fill:#c4dae1;}.cls-41{fill:#afccd3;}.cls-42{fill:#cadbda;}.cls-43{fill:#e3edef;}.cls-44{fill:#c5d8e4;}.cls-45{fill:#ffa015;}.cls-46{fill:#ea7d06;}.cls-47{fill:#f09700;}.cls-48{fill:#f8c963;}.cls-49{fill:#f7fdfd;}.cls-50{fill:#f4f4f4;}.cls-51{fill:#edefef;}.cls-52{fill:#94c4d3;}.cls-53{fill:#89b7c9;}.cls-54{fill:#c6dbe5;}.cls-55{fill:#256272;}.cls-56{fill:#3ea2bd;}.cls-57{fill:#f1f7f7;}.cls-58{fill:#07101a;}.cls-59{fill:#12293a;}.cls-60{fill:#0d1d2b;}.cls-61{fill:#1a3c51;}.cls-62{fill:#2cc2e5;}.cls-63{fill:#52d9fe;}.cls-64{fill:#e5770a;}.cls-65{fill:#e5a67c;}.cls-66{fill:#ff8500;}.cls-67{fill:#17a89f;}.cls-68{fill:#f2b78f;}.cls-69{fill:#e3e5e3;}.cls-70{fill:#ea7500;}.cls-71{fill:#ea7706;}</style></defs><title>cc-illustrations</title><path class="cls-1" d="M44.21,69.65c-6.73,3.88-6.76,10.19-.08,14.07s17.56,3.89,24.29,0,6.77-10.19.08-14.07S50.94,65.77,44.21,69.65Z"/><path class="cls-2" d="M45.92,38.29a2.89,2.89,0,0,0-2.68-1.55A2.25,2.25,0,0,0,45.92,38.29Z"/><path class="cls-3" d="M44,36a18.57,18.57,0,0,0-1.84,2.7c-.15.57-.86,3,.32,4.59.64.88,1-.35,1.18-2a2.29,2.29,0,0,1,.94-2A8.63,8.63,0,0,0,46.34,37C46.63,36.37,44,36,44,36Z"/><path class="cls-4" d="M46.3,37.09A9.69,9.69,0,0,0,45,39.58c-.16,1.06-1.31,1-1.39,1.72-.14,1.25-.43,2.29-.82,2.26.18-.94-.91-1.67.28-3.85a15.67,15.67,0,0,1,2.68-3.11C46.23,36.83,46.41,36.85,46.3,37.09Z"/><path class="cls-3" d="M45.64,36.58s-.36,3.05-.61,4-.79,1.44-.9,1.24.46-2.92-.53-2.86C43.08,39,45.49,37,45.64,36.58Z"/><path class="cls-5" d="M53,12s-3.05-.71-4.33,5.36-1.27,8.45-2.16,10.53-3.29,8.83-3.29,8.83a3.42,3.42,0,0,1,2.68,1.55s5-8.34,6-12S56.2,13.7,53,12Z"/><path class="cls-6" d="M46.53,27.91c.89-2.08.89-4.45,2.16-10.53.7-3.3,1.91-4.6,2.88-5.09,2.89,1.91-.29,10.55-1.26,14.16-.74,2.75-3.65,8.36-5.07,11a3.56,3.56,0,0,0-2-.74S45.63,30,46.53,27.91Z"/><path class="cls-7" d="M56.08,70.79s.81,1.9,0,2.38-.92,1-2.22.92-1.12.33-1.56.82-5,2.49-5.92,1.51S48,74.3,48.81,73.73s2.93-2.83,3-3.49S56.08,70.79,56.08,70.79Z"/><path class="cls-8" d="M56.08,73.17c-.82.49-.92,1-2.22.92s-1.12.33-1.56.82-5,2.49-5.92,1.51a.72.72,0,0,1,.07-1l1.35.24c1.36.24,3.1-1.32,3.78-1.9s1.52-.36,2.68-.55,1-2,1-2l.86-.3C56.29,71.33,56.77,72.76,56.08,73.17Z"/><path class="cls-7" d="M64.29,77s.35,2.23-.52,3.45S61,83.71,60.2,83.62s-1-.47-1-.47a8.21,8.21,0,0,1,.26-3.64A11.68,11.68,0,0,0,60.15,77Z"/><path class="cls-8" d="M63.77,80.4a10.94,10.94,0,0,1-3.23,3.16c1.22-1.57-.61-1.24.76-2,1.88-1,.68-1.88,1.52-2.12s.22-2.31.22-2.31l.46-.2h.79S64.64,79.18,63.77,80.4Z"/><path class="cls-2" d="M54.32,40.48s-3.86-.42-5.15-3.29a94.18,94.18,0,0,0,.42,13.66C50.38,58.17,51,71.07,51,71.07a3.71,3.71,0,0,0,5.09,0s.73-8.52,0-13.23c0,0,.49-8.26-.32-12.39S54.32,40.48,54.32,40.48Z"/><path class="cls-9" d="M51,71.07s-.64-12.9-1.43-20.22a116.8,116.8,0,0,1-.51-14.61,8.39,8.39,0,0,0,4.54,4.11c-.1,2.8-.36,11-.32,13.79s.56,13.41.77,17.94A4.12,4.12,0,0,1,51,71.07Z"/><path class="cls-10" d="M63.42,40s.37,4.28.45,10.94a60.11,60.11,0,0,0,.73,10.2A143.16,143.16,0,0,1,65,76.6s-2.1,3.25-5.41,0c0,0-.57-11.43-1.13-14s-3.73-15.23-5-19.77c-.57-2-.7-2.76-.7-2.76S58.33,44.05,63.42,40Z"/><path class="cls-9" d="M59.59,76.6s-.57-11.43-1.13-14-3.73-15.23-5-19.77a10.72,10.72,0,0,0-1.87-3.54s3.66,2.57,6.83,2.56c.14,1,1.48,10.3,1.8,14.38S63.29,74.47,62.54,78A4.08,4.08,0,0,1,59.59,76.6Z"/><path class="cls-6" d="M59.78,13.44s5.7,3.43,5.81,3.9,1.57,1.67-1,6.71c0,0-3.33,5.43-2.26,11.17a35.46,35.46,0,0,0,1.26,5.09s-2.89,3.71-10.08.48a10.67,10.67,0,0,1-4.44-4.55,38.4,38.4,0,0,0,.5-10.47c-.52-5.7-.52-13,2.74-13.79C52.32,12,53.21,11.06,59.78,13.44Z"/><path class="cls-3" d="M59.44,8.83s-1.37,3,.34,4.61c.95.9-.54,3.63-3.76,3.92,0,0-1.48-.13-1.42-.66a3.19,3.19,0,0,0-1.07-2.64C52.89,13.25,59.44,8.83,59.44,8.83Z"/><path class="cls-11" d="M59.78,13.44a.84.84,0,0,1,.23.4,6.06,6.06,0,0,0-3.69-.77l2.51-3.82.28-.2.14.29C58.94,10.27,58.51,12.24,59.78,13.44Z"/><path class="cls-3" d="M59.87,7.2s-.22,3.72-2.44,5.74c-2,1.78-4.38,3.13-5.26.58-.69-2-2.53-7.17-.86-8.51C53.47,3.27,54.07,1.44,57,2,57,2,60.32,3,59.87,7.2Z"/><path class="cls-4" d="M59.87,7.2A8.18,8.18,0,0,1,57.44,13a10.17,10.17,0,0,1-1.9,1.43,9.93,9.93,0,0,0,1.83-2.49c.74-1.18-1.43-.43-.32-3.33.38-1-2,.57-2.55.65-3.39.43-3.44-1.54-3.63-2.35a4.85,4.85,0,0,1,.13-1l.22-.66A1.5,1.5,0,0,1,51.31,5a11,11,0,0,1,.91-1.38c1.45-.19,5.57-.74,5.66-.73s.91.86,1.71,1.67A5.59,5.59,0,0,1,59.87,7.2Z"/><path class="cls-12" d="M58.93,10.92a6.62,6.62,0,0,0,.84-6.39,4.27,4.27,0,0,0-4.23-2.71,4.89,4.89,0,0,0-4.93,4c-.21,1,.08,3,3.73,1.42C54.87,7,56.28,6.6,56.86,7a2,2,0,0,1,.64,2c-.11.68.47.66.52.51s.5-2.1,1.31-1.49S59,10.78,58.93,10.92Z"/><path class="cls-13" d="M58.93,10.92c0-.14,1.12-2.35.4-2.9S58.08,9.36,58,9.51s-.63.17-.52-.51a2,2,0,0,0-.64-2c-.52-.35-1.76.06-2.52.25.57-.49,1.81-.83,2.09-1.95a3.78,3.78,0,0,1,1.89-2.66,4.46,4.46,0,0,1,1.45,1.9A6.62,6.62,0,0,1,58.93,10.92Z"/><path class="cls-12" d="M48.78,5.43s1.53,3.84,5.75,1.9a5.14,5.14,0,0,0,2.68-3.11,2,2,0,0,1,1.26-1.46S57,1.27,54,2c-1.42.33-2.68,2-3,2.23S50,5.53,48.78,5.43Z"/><path class="cls-5" d="M65.59,17.34c.12.47,1.57,1.67-1,6.71,0,0-3.33,5.43-2.26,11.17a35.46,35.46,0,0,0,1.26,5.09,6,6,0,0,1-4.79,1.79c-.83-4.93.14-13.64.61-19.65a8.76,8.76,0,0,1,3.69-6.93A12.29,12.29,0,0,1,65.59,17.34Z"/><path class="cls-14" d="M49.08,36.24a38.4,38.4,0,0,0,.5-10.47c-.4-4.34-.49-9.64.94-12.25,1,.2,2.52,1.24,4.07,5.17a7.29,7.29,0,0,0,3,3.23c1.38.8.89,3-.47,6.34a24.14,24.14,0,0,0-.95,13.47,16.74,16.74,0,0,1-2.65-.94A10.67,10.67,0,0,1,49.08,36.24Z"/><path class="cls-15" d="M50.87,11.64a12.43,12.43,0,0,1,2.79.35,3.32,3.32,0,0,1,1.59,1.95c.54,1.19-.36,4.38-1.17,4.43s-.7-1.31-1.64-2-1.88-3.24-1.88-3.24S49.8,11.64,50.87,11.64Z"/><path class="cls-4" d="M53.34,18.38s.14-2.39.57-2.83,0-1.17-.5-.61a3.64,3.64,0,0,0-.62,1.38,13.69,13.69,0,0,1,.35-3.1c.35-.86-2.2-.06-2.63,1.24s-1.14,2.66,1.21,5.21A2.4,2.4,0,0,0,53.34,18.38Z"/><path class="cls-6" d="M62.73,17.14c1.58-.91,4.66-.19,3.05,3.76S57.2,33.9,55,33.69s-1.37-4.53.34-7S61.25,18,62.73,17.14Z"/><path class="cls-6" d="M54.42,33.56s-4-5-3.55-14.8a2.46,2.46,0,0,0,2.59-.57S59.59,35.16,54.42,33.56Z"/><path class="cls-16" d="M49.33,13s-1.23.24-1.06.64S48.93,13.72,49.33,13Z"/><path class="cls-16" d="M48.51,15.67s-1.2.34-1,.73S48.17,16.45,48.51,15.67Z"/><path class="cls-16" d="M48.62,11.74s-1.07-.64-1.23-.23S47.82,12,48.62,11.74Z"/><path class="cls-16" d="M55.39,17.56s.55,1.12.13,1.24S55,18.33,55.39,17.56Z"/><path class="cls-17" d="M11.06,16.1C5,14.65,4.12,26.61,8.74,30.12c.8.62,3.28.06,3.45-.83.73-3.65-4.62-7.48-1.89-10.95a2.49,2.49,0,0,0,.51-.51C11.26,17.21,12.53,16.59,11.06,16.1Z"/><path class="cls-3" d="M34.59,39s2.72,1.35,4.12,1,3.31-1.29,2.52-1.74-2.92-.3-3-.88,1.23-.45.59-.77-1.86-.43-4.15.78A1.22,1.22,0,0,0,34.59,39Z"/><path class="cls-18" d="M20.47,25.09s-2.16-.81-2.16,1.68a24,24,0,0,0,2.94,8.1s2.46,4.74,3.73,5,10.43,0,10.43,0a4.46,4.46,0,0,1,0-3s-8-.88-8.64-1.5S22.22,25.56,20.47,25.09Z"/><g class="cls-19"><path d="M4.07,83.92C-1.33,87-1.36,92.1,4,95.22s14.08,3.11,19.48,0,5.43-8.18.07-11.29S9.47,80.81,4.07,83.92Z"/></g><path d="M20,82.29a6,6,0,0,0,.94,2.65c.77.92,4.28,3,4,4s-2.73,1.07-4.32-.49-2-1.8-2.67-1.93a1.6,1.6,0,0,1-1-2.44A6.9,6.9,0,0,0,20,82.29Z"/><path class="cls-20" d="M20.84,43.21s2.88,14.15,1.3,22c0,0-.73,6.18-1.08,7.89s-.29,11-.29,11-2.6,1.11-3.91-.1c0,0-1.68-9.53.16-15.6,0,0-2.17-11.6-2.22-15.37a59.13,59.13,0,0,0-.53-7Z"/><path class="cls-21" d="M22.14,65.21s-.73,6.18-1.08,7.89-.29,11-.29,11a7,7,0,0,1-1,.31c-.19-2.75-.54-7.56-.69-8.65-.21-1.54,1.54-10,1.68-13.16s-3.35-14.94-3.35-14.94l1-3.36,2.49-1S23.72,57.36,22.14,65.21Z"/><path d="M12.07,85.83A6,6,0,0,0,13,88.5c.74.94,4.19,3.12,3.93,4.07s-2.75,1-4.3-.6-2-1.85-2.63-2a1.6,1.6,0,0,1-.89-2.46A6.8,6.8,0,0,0,12.07,85.83Z"/><path class="cls-21" d="M9.07,47.87S6.28,51.86,7.62,60l.6,9.74S6.37,72.87,7.7,82.33L9,88s1.57,1.16,3.32-1.2c0,0-.13-14,.53-16.16a92,92,0,0,0,3.53-14.51c.32-2.32,3.9-6.15,3.72-8.16Z"/><path class="cls-20" d="M9,88,7.7,82.33c-1.33-9.46.52-12.58.52-12.58L7.62,60C6.28,51.86,9.07,47.87,9.07,47.87h.32l3,2s-3,15.41-2.8,19.33-.89,8.49-.74,10.93c.09,1.57.8,5.54,1.28,8.18A1.83,1.83,0,0,1,9,88Z"/><path class="cls-18" d="M7.21,30.79S9.68,26.13,19.8,25c0,0,1.6-.67,1.45,4.53a5.8,5.8,0,0,0,1.28,2.72c.53.67,1.93,3.28-1.13,6.4,0,0-1.19,4.64.23,7.64,1.26,2.68-5.36,5.29-11,4.75a2.33,2.33,0,0,1-2-3.15c.6-2.42,2.41-6.43,1.28-10.89S6.45,33.06,7.21,30.79Z"/><path class="cls-22" d="M7.21,30.63c-.76,2.26,1.58,1.73,2.71,6.19s-.68,8.63-1.28,11,.87,3,1.56,3.06a18.73,18.73,0,0,0,3,.13c-2-4.32.82-12.35,1-16.68a7,7,0,0,0-4-6.38A8.91,8.91,0,0,0,7.21,30.63Z"/><path class="cls-23" d="M21.63,46.27c-1.42-3-.23-7.64-.23-7.64,3.06-3.12,1.66-5.73,1.13-6.4a5.8,5.8,0,0,1-1.28-2.72,9.44,9.44,0,0,0-.43-3.81c-.59.68-1.76.43-1.37,2.83.23,1.42-.24,3.53-2.44,3.53s-1,3.54-.83,4.53c.89,6.82-2.75,10-1.58,14.34C18.92,50.35,22.6,48.33,21.63,46.27Z"/><path class="cls-3" d="M21.78,43.32s2.95.69,4.25.07,2.92-2,2-2.27-2.92.37-3.16-.17,1.1-.72.41-.88-1.91,0-3.87,1.7A1.22,1.22,0,0,0,21.78,43.32Z"/><path class="cls-18" d="M7.78,30.08s2.14-.9,3.41,2.38,3.41,8.77,3.41,8.77l.53.75,7.3-1.06s-1,1.87.64,2.87c0,0-8.94,4.06-11.54,1.34C11.53,45.13,4.13,31.11,7.78,30.08Z"/><path class="cls-24" d="M19,22.82s-1.63,2.24-.62,4.43c.28.6,1,3.1-2.9,2.36,0,0-4.16-1.72-3.05-3,.74-.87,1.42-2.1-.08-6.15Z"/><path class="cls-25" d="M12.44,26.59a.63.63,0,0,0-.17.42,7.25,7.25,0,0,0,6.07-2.34l-5.11-3.86h0s-.23.18-.57.48C13.76,24.67,13.12,25.78,12.44,26.59Z"/><path class="cls-26" d="M17.8,15.52s1.06.28,1.34,3.35c0,.34.61.75.82,1.58s.66,4.26-1.3,4.78a6.14,6.14,0,0,1-6.5-3.62C10.71,18.25,13.31,13.57,17.8,15.52Z"/><path class="cls-26" d="M14,22.06S13.29,20.4,12.35,21c-.29.2-.6.57-.07,1.41a2.74,2.74,0,0,0,2.34,1.41Z"/><path class="cls-27" d="M11.06,16.1a3.61,3.61,0,0,0-2,0,3.66,3.66,0,0,0,.57,3.62,3.46,3.46,0,0,1,.69-1.42,2.49,2.49,0,0,0,.51-.51C11.26,17.21,12.53,16.59,11.06,16.1Z"/><path class="cls-17" d="M17.56,14.11c-1.47-1.25-3.27-1-5-.42a4.48,4.48,0,0,0-3,3.56c-.06,2.05.62,4.71,3.05,5.93.9.45-.64-1.74.55-1.85.38,0,.5-.67.77-.78a35.54,35.54,0,0,0,3.33-1.28c.12,0,.27-1,.39-1.07s.27.84.42.79a6.36,6.36,0,0,0,1.45-.72C19.85,16.77,18.61,15,17.56,14.11Z"/><path class="cls-26" d="M13.45,20.68c.55.5.76,1.18.46,1.5s-1,.19-1.55-.31-.75-1.18-.45-1.51S12.9,20.17,13.45,20.68Z"/><polygon class="cls-1" points="105.71 99.4 70.43 119.9 34.92 99.4 70.2 78.9 105.71 99.4"/><g class="cls-28"><polygon class="cls-29" points="71.41 116.63 68.9 115.18 68.8 78.76 71.3 80.21 71.41 116.63"/><polygon class="cls-30" points="71.3 80.21 68.8 78.76 72.13 76.84 74.63 78.29 71.3 80.21"/><polygon class="cls-31" points="74.63 78.29 74.73 114.72 71.41 116.63 71.3 80.21 74.63 78.29"/></g><g class="cls-28"><polygon class="cls-29" points="43.96 100.92 41.45 99.46 41.35 63.04 43.85 64.5 43.96 100.92"/><polygon class="cls-30" points="43.85 64.5 41.35 63.04 44.67 61.12 47.18 62.58 43.85 64.5"/><polygon class="cls-31" points="47.18 62.58 47.28 99 43.96 100.92 43.85 64.5 47.18 62.58"/></g><g class="cls-28"><polygon class="cls-29" points="97.13 101.91 94.63 100.45 94.53 64.03 97.03 65.48 97.13 101.91"/><polygon class="cls-30" points="97.03 65.48 94.53 64.03 97.85 62.11 100.36 63.57 97.03 65.48"/><polygon class="cls-31" points="100.36 63.57 100.46 99.99 97.13 101.91 97.03 65.48 100.36 63.57"/></g><g class="cls-28"><polygon class="cls-32" points="101.01 63.02 101.01 64.17 71.28 81.45 71.28 80.3 101.01 63.02"/><polygon class="cls-33" points="71.28 80.3 71.28 81.45 41.35 64.17 41.36 63.02 71.28 80.3"/><polygon class="cls-34" points="101.01 63.02 71.28 80.3 41.36 63.02 71.08 45.75 101.01 63.02"/></g><path class="cls-35" d="M60.57,62.52c-.39.22-.39.58,0,.8l10.21,5.93a1.5,1.5,0,0,0,1.38,0L76,67.05a.42.42,0,0,0,0-.8l-10.2-5.93a1.52,1.52,0,0,0-1.39,0Z"/><path class="cls-36" d="M76.26,66.65a.5.5,0,0,1-.29.4l-3.82,2.2a.61.61,0,0,1-.14.07h0l-.14,0h0l-.16,0h-.41l-.12,0-.1,0-.07,0a1.11,1.11,0,0,1-.19-.09L60.56,63.32l-.06,0-.07-.05-.08-.09h0a.3.3,0,0,1,0-.1h0a.31.31,0,0,1,0-.1v.16h0v.06a0,0,0,0,1,0,0h0s0,0,0,.06l0,0h0v0l.07.06h0l.07,0,0,0h0l10.21,5.93a1.11,1.11,0,0,0,.19.09H71l.1,0h0l.08,0h.64l.09,0h0l.14-.07L76,67.21a.5.5,0,0,0,.29-.4Z"/><path class="cls-37" d="M63.68,62.72a.46.46,0,0,1,0,.88,1.69,1.69,0,0,1-1.52,0c-.42-.25-.42-.64,0-.88A1.67,1.67,0,0,1,63.68,62.72Z"/><path class="cls-36" d="M63.81,62.65h0a.47.47,0,0,1-.05.1v0l-.09.09-.07.06-.07,0-.15.08h0l-.1,0-.11,0-.13,0h-.45a.51.51,0,0,1-.17,0h0l-.15,0h0A.8.8,0,0,1,62,63a.54.54,0,0,1-.32-.44V63a.57.57,0,0,0,.32.45l.15.07h0l.09,0,.06,0h.06l.1,0h.62l.11,0h.05l0,0h0l.15-.07h0l.06,0,.07-.06h0l.06-.08h0v0l0,0,0-.06h0a.06.06,0,0,0,0,0,.13.13,0,0,0,0-.06h0v-.45A.52.52,0,0,1,63.81,62.65Z"/><path class="cls-38" d="M63.51,62.09c.42.25.43.64,0,.88A1.63,1.63,0,0,1,62,63a.47.47,0,0,1,0-.88A1.69,1.69,0,0,1,63.51,62.09Z"/><path class="cls-39" d="M63.52,63c.4-.23.41-.6,0-.84a1.59,1.59,0,0,0-1,.16.46.46,0,0,0,0,.85A1.6,1.6,0,0,0,63.52,63Z"/><path class="cls-37" d="M66.12,61.47a.46.46,0,0,1,0,.88,1.69,1.69,0,0,1-1.52,0,.46.46,0,0,1,0-.88A1.69,1.69,0,0,1,66.12,61.47Z"/><path class="cls-36" d="M66.24,61.4h0a.31.31,0,0,1,0,.1v0l-.09.09-.07.06-.07,0-.15.07h0a.38.38,0,0,1-.1,0l-.11,0-.13,0H65l-.18,0h0l-.15,0s0,0,0,0l-.17-.07a.53.53,0,0,1-.31-.45v.45a.55.55,0,0,0,.32.45l.16.07h0l.1,0h.11l.1,0h.62l.11,0,.06,0,0,0h0l.15-.07h0l.06,0,.07-.06h0l.06-.07,0,0v0l0,0,0-.06h0s0,0,0,0v-.06h0v-.45A.22.22,0,0,1,66.24,61.4Z"/><path class="cls-38" d="M66,60.85c.42.24.42.63,0,.88a1.69,1.69,0,0,1-1.52,0c-.42-.25-.42-.64,0-.88A1.63,1.63,0,0,1,66,60.85Z"/><path class="cls-39" d="M66,61.73c.4-.24.41-.61,0-.85A1.66,1.66,0,0,0,65,61c-.4.24-.41.61,0,.85A1.66,1.66,0,0,0,66,61.73Z"/><path class="cls-37" d="M66.35,64.24a.46.46,0,0,1,0,.88,1.69,1.69,0,0,1-1.52,0,.46.46,0,0,1,0-.88A1.69,1.69,0,0,1,66.35,64.24Z"/><path class="cls-36" d="M66.47,64.17h0a.31.31,0,0,1,0,.1v0l-.09.1-.07,0-.07,0-.15.07h0l-.1,0-.11,0-.13,0H65.2l-.17,0h0l-.15,0s0,0,0,0l-.17-.07a.54.54,0,0,1-.32-.45v.46a.57.57,0,0,0,.32.44l.15.07h0l.1,0h.11l.1,0h.62l.11,0,0,0,0,0h0l.15-.07h0l.06,0,.07-.06h0l.06-.07,0,0s0,0,0,0,0,0,0,0l0-.06h0a.06.06,0,0,0,0,0,.13.13,0,0,0,0-.06h0v-.45A.2.2,0,0,1,66.47,64.17Z"/><path class="cls-38" d="M66.18,63.62c.42.24.42.63,0,.88a1.69,1.69,0,0,1-1.52,0c-.42-.25-.42-.64,0-.88A1.63,1.63,0,0,1,66.18,63.62Z"/><path class="cls-39" d="M66.18,64.5c.4-.24.41-.61,0-.85a1.66,1.66,0,0,0-1,.16c-.4.24-.41.61,0,.85A1.66,1.66,0,0,0,66.18,64.5Z"/><path class="cls-37" d="M68.78,63a.46.46,0,0,1,0,.88,1.67,1.67,0,0,1-1.51,0,.46.46,0,0,1,0-.88A1.69,1.69,0,0,1,68.78,63Z"/><path class="cls-36" d="M68.91,62.92h0a.31.31,0,0,1-.05.1v0a.41.41,0,0,1-.09.1l-.07.05-.07,0-.15.07,0,0-.1,0-.11,0-.13,0h-.44l-.18,0h0l-.15,0h0l-.17-.08a.53.53,0,0,1-.31-.44v.45a.54.54,0,0,0,.32.44l.16.07h0l.1,0h.7l.09,0h0l.11,0,.06,0h0l0,0,.15-.07h0l.06,0,.07,0h0l.07-.07v0a0,0,0,0,0,0,0l0,0a.33.33,0,0,1,0-.06h0v0a.08.08,0,0,1,0,0v-.06h0v-.45A.36.36,0,0,1,68.91,62.92Z"/><path class="cls-38" d="M68.61,62.37a.46.46,0,0,1,0,.88,1.69,1.69,0,0,1-1.52,0,.46.46,0,0,1,0-.88A1.69,1.69,0,0,1,68.61,62.37Z"/><path class="cls-39" d="M68.61,63.25a.46.46,0,0,0,0-.85,1.6,1.6,0,0,0-1,.17c-.4.23-.41.6,0,.84A1.59,1.59,0,0,0,68.61,63.25Z"/><path class="cls-37" d="M69.12,65.8a.46.46,0,0,1,0,.88,1.67,1.67,0,0,1-1.51,0,.46.46,0,0,1,0-.88A1.66,1.66,0,0,1,69.12,65.8Z"/><path class="cls-36" d="M69.25,65.73h0a.47.47,0,0,1,0,.1v0L69.1,66,69,66l-.07,0-.15.07h0l-.1,0-.11,0-.13,0H68a.57.57,0,0,1-.18,0h0l-.14,0h0l-.17-.07a.55.55,0,0,1-.31-.45v.45a.53.53,0,0,0,.31.45l.16.07h0l.09,0,0,0h.06l.11,0h0s0,0,0,0h.55l.11,0h.06l0,0h0l.15-.07h0l0,0,.07-.06h0l.07-.08h0v0l0,0,0-.06h0a.06.06,0,0,1,0,0v-.06h0v-.45A.52.52,0,0,1,69.25,65.73Z"/><path class="cls-38" d="M69,65.17a.47.47,0,0,1,0,.89,1.69,1.69,0,0,1-1.52,0,.47.47,0,0,1,0-.89A1.69,1.69,0,0,1,69,65.17Z"/><path class="cls-39" d="M69,66.06c.4-.24.41-.61,0-.85a1.59,1.59,0,0,0-1,.16c-.4.24-.41.61,0,.85A1.66,1.66,0,0,0,69,66.06Z"/><path class="cls-37" d="M71.55,64.55c.42.24.43.64,0,.88a1.69,1.69,0,0,1-1.52,0c-.42-.24-.43-.64,0-.88A1.69,1.69,0,0,1,71.55,64.55Z"/><path class="cls-36" d="M71.68,64.48h0a.93.93,0,0,1-.05.1l0,0-.08.09-.08.06-.06,0-.16.07h0a.17.17,0,0,1-.1,0,.38.38,0,0,1-.1,0l-.14,0h-.44l-.18,0h0l-.14,0h0l-.16-.07a.54.54,0,0,1-.32-.45v.45a.54.54,0,0,0,.31.45l.16.07h0l.09,0h.11l.11,0H71l.11,0,.06,0,0,0h0a.52.52,0,0,0,.15-.07h0l0,0,.08-.06h0l.07-.07v0l0,0,0-.06h0s0,0,0,0,0,0,0-.06h0v-.45A.43.43,0,0,1,71.68,64.48Z"/><path class="cls-38" d="M71.38,63.93a.47.47,0,0,1,0,.88,1.69,1.69,0,0,1-1.52,0c-.42-.25-.43-.64,0-.88A1.63,1.63,0,0,1,71.38,63.93Z"/><path class="cls-39" d="M71.39,64.81c.4-.24.41-.61,0-.85a1.66,1.66,0,0,0-1,.16c-.41.24-.42.61,0,.85A1.68,1.68,0,0,0,71.39,64.81Z"/><path class="cls-37" d="M72,67.53a.47.47,0,0,1,0,.88,1.69,1.69,0,0,1-1.52,0c-.43-.25-.43-.64,0-.88A1.63,1.63,0,0,1,72,67.53Z"/><path class="cls-36" d="M72.09,67.46h0a.47.47,0,0,1,0,.1s0,0,0,0l-.08.09-.08.06-.07.05-.15.07h0l-.1,0-.11,0-.13,0h-.44a.57.57,0,0,1-.18,0h0l-.14,0h0l-.17-.07a.55.55,0,0,1-.31-.45v.45a.55.55,0,0,0,.31.45l.16.07h0a.32.32,0,0,0,.09,0l0,0h.06l.11,0h.61l.11,0h.06l0,0h0l.15-.07h0l0,0,.07-.06h0l.07-.07a0,0,0,0,1,0,0v0s0,0,0,0l0-.06h0a.06.06,0,0,1,0,0v-.06h0v-.45A.43.43,0,0,1,72.09,67.46Z"/><path class="cls-38" d="M71.79,66.9a.47.47,0,0,1,0,.89,1.69,1.69,0,0,1-1.52,0,.47.47,0,0,1,0-.89A1.69,1.69,0,0,1,71.79,66.9Z"/><path class="cls-39" d="M71.79,67.79c.4-.24.41-.61,0-.85a1.61,1.61,0,0,0-1,.16.46.46,0,0,0,0,.85A1.66,1.66,0,0,0,71.79,67.79Z"/><path class="cls-37" d="M74.39,66.28a.47.47,0,0,1,0,.88,1.69,1.69,0,0,1-1.52,0c-.42-.24-.43-.64,0-.88A1.69,1.69,0,0,1,74.39,66.28Z"/><path class="cls-36" d="M74.52,66.21h0a.93.93,0,0,1,0,.1l0,0-.08.09-.08.06-.06.05-.15.07h0a.17.17,0,0,1-.1,0,.38.38,0,0,1-.1,0l-.14,0h-.44l-.17,0h0l-.15,0h0l-.16-.07a.53.53,0,0,1-.32-.45v.45a.54.54,0,0,0,.31.45l.16.07h0l.09,0h.11l.11,0h.61l.11,0,.06,0,0,0h0a.52.52,0,0,0,.15-.07h0l.05,0,.08-.06h0a.46.46,0,0,0,.07-.07s0,0,0,0v0s0,0,0,0l0-.06h0v0s0,0,0-.06h0V66.1A.43.43,0,0,1,74.52,66.21Z"/><path class="cls-38" d="M74.22,65.66a.47.47,0,0,1,0,.88,1.69,1.69,0,0,1-1.52,0c-.43-.25-.43-.64,0-.88A1.63,1.63,0,0,1,74.22,65.66Z"/><path class="cls-39" d="M74.23,66.54c.4-.24.41-.61,0-.85a1.59,1.59,0,0,0-1,.16c-.41.24-.42.61,0,.85A1.68,1.68,0,0,0,74.23,66.54Z"/><path class="cls-40" d="M53.36,58.78a4,4,0,0,1,3.65,0,1.3,1.3,0,0,1,.75,1.06h0v4.81h0a1.31,1.31,0,0,1-.76,1,4,4,0,0,1-3.65,0,1.3,1.3,0,0,1-.75-1h0V59.84h0A1.3,1.3,0,0,1,53.36,58.78Z"/><path class="cls-41" d="M53.36,58.78a4,4,0,0,1,3.65,0,1.3,1.3,0,0,1,.75,1.06h0v4.81h0a1.31,1.31,0,0,1-.76,1,4,4,0,0,1-3.65,0,1.3,1.3,0,0,1-.75-1h0V59.84h0A1.3,1.3,0,0,1,53.36,58.78Z"/><path class="cls-42" d="M53.35,65.65a1.3,1.3,0,0,1-.75-1h0V59.84a1.3,1.3,0,0,1,.76-1.06,3.58,3.58,0,0,1,.87-.33,4.44,4.44,0,0,1,1.49.5,1.64,1.64,0,0,1,1,1.35v5.51A4.06,4.06,0,0,1,53.35,65.65Z"/><path class="cls-15" d="M53.35,65.65a1.3,1.3,0,0,1-.75-1h0V59.84a1.3,1.3,0,0,1,.76-1.06.8.8,0,0,1,.16-.08,3.59,3.59,0,0,1,.77.34,1.72,1.72,0,0,1,1,1.44v5.61A3.73,3.73,0,0,1,53.35,65.65Z"/><path class="cls-43" d="M53.91,58.18c-.7.41-.71,1.07,0,1.47a2.8,2.8,0,0,0,2.55,0,.78.78,0,0,0,0-1.47A2.84,2.84,0,0,0,53.91,58.18Z"/><rect class="cls-43" x="53.38" y="58.35" width="3.6" height="0.62"/><path class="cls-44" d="M53.91,57.65a.78.78,0,0,0,0,1.48,2.86,2.86,0,0,0,2.55,0,.78.78,0,0,0,0-1.48A2.84,2.84,0,0,0,53.91,57.65Z"/><path class="cls-45" d="M53.08,56.78h4.2v1.27h0a1.07,1.07,0,0,1-.62.85,3.3,3.3,0,0,1-3,0,1,1,0,0,1-.61-.85h0Z"/><path class="cls-46" d="M57.28,58.05h0a1.07,1.07,0,0,1-.62.85l-.22.11V56.78h.84Z"/><path class="cls-47" d="M55.18,56.78h1.26V59a3.26,3.26,0,0,1-1.26.25Z"/><path class="cls-48" d="M53.7,56c-.83.48-.83,1.25,0,1.72a3.24,3.24,0,0,0,3,0,.91.91,0,0,0,0-1.72A3.3,3.3,0,0,0,53.7,56Z"/><path class="cls-49" d="M53.35,61.41a4,4,0,0,0,3.65,0,1.34,1.34,0,0,0,.76-1h0v3.3h0a1.33,1.33,0,0,1-.76,1,4,4,0,0,1-3.65,0,1.31,1.31,0,0,1-.75-1h0V60.4h0A1.33,1.33,0,0,0,53.35,61.41Z"/><path class="cls-50" d="M57.76,60.4h0v3.3h0a1.33,1.33,0,0,1-.76,1,3.68,3.68,0,0,1-1.69.43v-3.3A3.68,3.68,0,0,0,57,61.41,1.34,1.34,0,0,0,57.76,60.4Z"/><path class="cls-51" d="M57.76,60.4h0v3.3h0a1.33,1.33,0,0,1-.76,1,1.87,1.87,0,0,1-.32.15V61.57l.32-.16A1.34,1.34,0,0,0,57.76,60.4Z"/><path class="cls-40" d="M70.56,46.56a4.72,4.72,0,0,1,4.3,0,1.54,1.54,0,0,1,.89,1.25h0v5.66h0a1.54,1.54,0,0,1-.89,1.19,4.72,4.72,0,0,1-4.3,0,1.57,1.57,0,0,1-.89-1.19h0V47.81h0A1.53,1.53,0,0,1,70.56,46.56Z"/><path class="cls-41" d="M70.56,46.56a4.72,4.72,0,0,1,4.3,0,1.54,1.54,0,0,1,.89,1.25h0v5.66h0a1.54,1.54,0,0,1-.89,1.19,4.72,4.72,0,0,1-4.3,0,1.57,1.57,0,0,1-.89-1.19h0V47.81h0A1.53,1.53,0,0,1,70.56,46.56Z"/><path class="cls-42" d="M70.55,54.66a1.57,1.57,0,0,1-.89-1.19h0V47.81a1.53,1.53,0,0,1,.9-1.25,4,4,0,0,1,1-.39,5.08,5.08,0,0,1,1.76.59,1.92,1.92,0,0,1,1.13,1.59v6.49A4.77,4.77,0,0,1,70.55,54.66Z"/><path class="cls-15" d="M70.55,54.66a1.57,1.57,0,0,1-.89-1.19h0V47.81a1.53,1.53,0,0,1,.9-1.25l.19-.1a5,5,0,0,1,.91.4,2,2,0,0,1,1.2,1.7v6.61A4.47,4.47,0,0,1,70.55,54.66Z"/><path class="cls-43" d="M71.21,45.85a.92.92,0,0,0,0,1.74,3.3,3.3,0,0,0,3,0,.92.92,0,0,0,0-1.74A3.37,3.37,0,0,0,71.21,45.85Z"/><rect class="cls-43" x="70.59" y="46.05" width="4.24" height="0.73"/><path class="cls-44" d="M71.21,45.23a.92.92,0,0,0,0,1.74,3.3,3.3,0,0,0,3,0,.92.92,0,0,0,0-1.74A3.3,3.3,0,0,0,71.21,45.23Z"/><path class="cls-45" d="M70.23,44.21h5V45.7h0a1.26,1.26,0,0,1-.73,1,3.86,3.86,0,0,1-3.5,0,1.22,1.22,0,0,1-.72-1h0Z"/><path class="cls-46" d="M75.18,45.7h0a1.26,1.26,0,0,1-.73,1l-.26.13V44.21h1Z"/><path class="cls-47" d="M72.7,44.21h1.49v2.62a3.81,3.81,0,0,1-1.49.29Z"/><path class="cls-48" d="M71,43.25a1.07,1.07,0,0,0,0,2,3.86,3.86,0,0,0,3.5,0,1.07,1.07,0,0,0,0-2A3.86,3.86,0,0,0,71,43.25Z"/><path class="cls-49" d="M70.55,49.65a4.72,4.72,0,0,0,4.3,0,1.53,1.53,0,0,0,.89-1.18h0v3.89h0a1.55,1.55,0,0,1-.89,1.18,4.72,4.72,0,0,1-4.3,0,1.57,1.57,0,0,1-.89-1.18h0V48.47h0A1.55,1.55,0,0,0,70.55,49.65Z"/><path class="cls-50" d="M75.74,48.47h0v3.89h0a1.55,1.55,0,0,1-.89,1.18,4.28,4.28,0,0,1-2,.51V50.16a4.28,4.28,0,0,0,2-.51A1.53,1.53,0,0,0,75.74,48.47Z"/><path class="cls-51" d="M75.74,48.47h0v3.89h0a1.55,1.55,0,0,1-.89,1.18c-.12.07-.25.13-.38.19V49.84c.13-.06.26-.12.38-.19A1.53,1.53,0,0,0,75.74,48.47Z"/><g class="cls-28"><polygon class="cls-52" points="89.04 56.83 89.03 60.48 78.39 66.67 78.4 63.01 89.04 56.83"/><polygon class="cls-53" points="78.4 63.01 78.39 66.67 69.96 61.8 69.96 58.14 78.4 63.01"/><polygon class="cls-22" points="89.04 56.83 78.4 63.01 69.96 58.14 80.61 51.96 89.04 56.83"/></g><polygon class="cls-22" points="70.37 59.17 78.39 63.76 78.4 66.11 70.4 61.47 70.37 59.17"/><polygon class="cls-54" points="78.39 63.76 89.04 57.66 89.04 59.87 78.4 66.11 78.39 63.76"/><path class="cls-35" d="M76.57,67.35a.41.41,0,0,1,0,.77l-9.68,5.62a1.44,1.44,0,0,1-1.31,0L62,71.65c-.37-.21-.37-.55,0-.76l9.68-5.63a1.46,1.46,0,0,1,1.32,0Z"/><path class="cls-36" d="M61.68,71.27a.45.45,0,0,0,.28.38l3.62,2.09.14.07h0l.13,0h0l.15,0h.38l.12,0,.09,0,.07,0a.49.49,0,0,0,.18-.08l9.68-5.62.06-.05.07,0,.07-.09h0a.41.41,0,0,0,0-.09h0a.29.29,0,0,0,0-.09v.15h0a.11.11,0,0,1,0,0v0h0a.14.14,0,0,1,0,.06l0,0v0a0,0,0,0,1,0,0,.17.17,0,0,1-.06.06h0l-.07,0,0,0h0l-9.68,5.62a.49.49,0,0,1-.18.08h0l0,0-.1,0H66l-.09,0h-.1l-.08,0h0l-.13-.07L62,71.81a.47.47,0,0,1-.28-.39Z"/><path class="cls-37" d="M73.61,67.54a.44.44,0,0,0,0,.84,1.59,1.59,0,0,0,1.44,0,.44.44,0,0,0,0-.84A1.59,1.59,0,0,0,73.61,67.54Z"/><path class="cls-36" d="M73.49,67.48h0a.41.41,0,0,0,.05.09v0l.08.09.08,0,.06.05.14.06,0,0,.1,0,.1,0,.12,0h.42l.17,0h0l.14,0h0l.15-.07a.52.52,0,0,0,.3-.43v.43a.51.51,0,0,1-.31.42.37.37,0,0,1-.14.07h0l-.09,0h-.1l-.11,0h-.58l-.1,0-.06,0h0l0,0-.15-.07h0l-.05,0-.07,0h0a.13.13,0,0,1-.06-.07h0v0l0,0a.14.14,0,0,1,0-.06h0s0,0,0,0v-.06h0v-.43A.43.43,0,0,0,73.49,67.48Z"/><path class="cls-38" d="M73.77,67c-.4.23-.4.6,0,.84a1.59,1.59,0,0,0,1.44,0c.4-.24.4-.61,0-.84A1.61,1.61,0,0,0,73.77,67Z"/><path class="cls-39" d="M73.77,67.79c-.38-.23-.39-.58,0-.81a1.59,1.59,0,0,1,1,.16c.38.22.39.57,0,.8A1.52,1.52,0,0,1,73.77,67.79Z"/><path class="cls-37" d="M71.3,66.36c-.39.23-.4.6,0,.83a1.59,1.59,0,0,0,1.44,0,.44.44,0,0,0,0-.83A1.59,1.59,0,0,0,71.3,66.36Z"/><path class="cls-36" d="M71.18,66.29h0l0,.1,0,0a.3.3,0,0,0,.08.08l.07.06.06,0,.14.07h0l.1,0,.1,0,.12,0h.43l.16,0h0l.14,0h0a.69.69,0,0,0,.15-.07.49.49,0,0,0,.3-.42v.43a.51.51,0,0,1-.31.42.61.61,0,0,1-.14.07h0l-.09,0h-.1l-.1,0H72l-.08,0h0l-.1,0h0l0,0h0L71.46,67h0l0,0a.18.18,0,0,1-.07,0h0l-.06-.07v0s0,0,0,0a0,0,0,0,1,0,0l0-.06h0v-.1h0v-.42A.36.36,0,0,0,71.18,66.29Z"/><path class="cls-38" d="M71.47,65.77a.44.44,0,0,0,0,.83,1.59,1.59,0,0,0,1.44,0c.4-.23.41-.6,0-.83A1.59,1.59,0,0,0,71.47,65.77Z"/><path class="cls-39" d="M71.46,66.6c-.38-.22-.39-.57,0-.8a1.51,1.51,0,0,1,1,.15.44.44,0,0,1,0,.81A1.59,1.59,0,0,1,71.46,66.6Z"/><path class="cls-37" d="M71.09,69c-.4.23-.41.6,0,.83a1.59,1.59,0,0,0,1.44,0,.44.44,0,0,0,0-.83A1.59,1.59,0,0,0,71.09,69Z"/><path class="cls-36" d="M71,68.92h0l0,.1a0,0,0,0,0,0,0l.08.09.07.06.06,0,.15.07h0l.09,0,.1,0,.13,0h.42a.51.51,0,0,0,.17,0h0l.15,0h0l.16-.08a.51.51,0,0,0,.3-.42v.43a.52.52,0,0,1-.3.42l-.15.07h0l-.09,0h-.67l-.09,0h0l-.11,0h0l0,0h0l-.15-.07h0l0,0-.07,0h0L71,69.49v0h0l0,0,0-.06h0a.08.08,0,0,1,0,0,.13.13,0,0,1,0-.06h0v-.42A.18.18,0,0,0,71,68.92Z"/><path class="cls-38" d="M71.25,68.39c-.4.24-.4.61,0,.84a1.61,1.61,0,0,0,1.45,0c.4-.23.4-.6,0-.84A1.62,1.62,0,0,0,71.25,68.39Z"/><path class="cls-39" d="M71.24,69.23c-.38-.22-.39-.57,0-.8a1.48,1.48,0,0,1,.94.15c.39.22.4.58,0,.81A1.59,1.59,0,0,1,71.24,69.23Z"/><path class="cls-37" d="M68.78,67.8a.45.45,0,0,0,0,.84,1.61,1.61,0,0,0,1.45,0,.44.44,0,0,0,0-.84A1.59,1.59,0,0,0,68.78,67.8Z"/><path class="cls-36" d="M68.66,67.74h0a.41.41,0,0,0,0,.09s0,0,0,0l.08.09.07,0,.07,0,.14.07h0l.1,0,.1,0,.12,0h.42l.17,0h0l.14,0h0l.16-.07a.52.52,0,0,0,.3-.42v.42a.52.52,0,0,1-.3.43l-.15.06h0l-.09,0H70l-.1,0h-.58l-.1,0-.06,0h0l0,0-.14-.06h0l-.06,0-.07-.05h0a.23.23,0,0,1-.07-.07h0v0l0,0a.11.11,0,0,1,0-.06h0v0a0,0,0,0,1,0,0,.13.13,0,0,1,0-.06h0v-.43A.43.43,0,0,0,68.66,67.74Z"/><path class="cls-38" d="M68.94,67.21a.44.44,0,0,0,0,.84,1.59,1.59,0,0,0,1.44,0,.44.44,0,0,0,0-.84A1.59,1.59,0,0,0,68.94,67.21Z"/><path class="cls-39" d="M68.94,68.05a.44.44,0,0,1,0-.81,1.59,1.59,0,0,1,.95.16c.38.22.39.57,0,.8A1.51,1.51,0,0,1,68.94,68.05Z"/><path class="cls-37" d="M68.46,70.46a.45.45,0,0,0,0,.84,1.59,1.59,0,0,0,1.44,0,.45.45,0,0,0,0-.84A1.59,1.59,0,0,0,68.46,70.46Z"/><path class="cls-36" d="M68.33,70.4h0a.41.41,0,0,0,0,.09s0,0,0,0l.08.09.07,0,.06,0,.15.07h0l.1,0,.11,0,.12,0h.42l.16,0h0l.14,0h0a.52.52,0,0,0,.15-.07.51.51,0,0,0,.31-.42v.43a.49.49,0,0,1-.3.41l-.15.08h0l-.08,0h-.67l-.09,0h0l-.11,0,0,0h0l0,0a.61.61,0,0,1-.14-.07h0l0,0-.07,0h0L68.41,71v0s0,0,0,0l0,0,0-.05h0v0a0,0,0,0,1,0,0,.13.13,0,0,1,0-.06h0v-.43A.41.41,0,0,0,68.33,70.4Z"/><path class="cls-38" d="M68.62,69.87c-.4.24-.4.61,0,.84a1.59,1.59,0,0,0,1.44,0,.44.44,0,0,0,0-.84A1.59,1.59,0,0,0,68.62,69.87Z"/><path class="cls-39" d="M68.61,70.71a.44.44,0,0,1,0-.81,1.55,1.55,0,0,1,.94.16c.39.22.4.57,0,.81A1.59,1.59,0,0,1,68.61,70.71Z"/><path class="cls-37" d="M66.15,69.28a.44.44,0,0,0,0,.83,1.55,1.55,0,0,0,1.45,0c.39-.23.4-.6,0-.83A1.59,1.59,0,0,0,66.15,69.28Z"/><path class="cls-36" d="M66,69.21v0a.41.41,0,0,0,0,.09v0l.08.09.07,0,.07,0a.61.61,0,0,0,.14.07l0,0,.1,0,.09,0,.13,0h.42l.17,0h0l.14,0h0a.8.8,0,0,0,.16-.08.49.49,0,0,0,.3-.42v.43a.51.51,0,0,1-.3.42L67.6,70h0l-.09,0h-.11l-.1,0h-.58l-.1,0h-.06l0,0h0a.61.61,0,0,1-.14-.07h0l-.06,0-.07-.06h0a.46.46,0,0,1-.07-.07,0,0,0,0,0,0,0h0s0,0,0,0a.14.14,0,0,1,0-.06h0s0,0,0,0a.43.43,0,0,1,0,0h0v-.43A.3.3,0,0,0,66,69.21Z"/><path class="cls-38" d="M66.31,68.69a.44.44,0,0,0,0,.83,1.53,1.53,0,0,0,1.44,0,.44.44,0,0,0,0-.83A1.59,1.59,0,0,0,66.31,68.69Z"/><path class="cls-39" d="M66.31,69.52a.43.43,0,0,1,0-.8,1.59,1.59,0,0,1,1,.15c.38.23.39.58,0,.81A1.55,1.55,0,0,1,66.31,69.52Z"/><path class="cls-37" d="M65.76,72.11a.44.44,0,0,0,0,.83,1.59,1.59,0,0,0,1.44,0,.44.44,0,0,0,0-.83A1.56,1.56,0,0,0,65.76,72.11Z"/><path class="cls-36" d="M65.64,72h0l0,.1h0l.08.09.08.06.06,0a.61.61,0,0,0,.14.07h0l.1,0,.1,0,.12,0h.43l.16,0h0l.14,0h0l.15-.07a.52.52,0,0,0,.3-.42v.43a.52.52,0,0,1-.3.42l-.14.07h0l-.09,0H67s0,0,0,0h-.57l-.08,0h0l-.1,0h0l-.05,0h0l-.14-.07h0a.1.1,0,0,1,0,0l-.07,0h0l-.06-.06v0l0,0v0a.09.09,0,0,1,0-.06h0v-.1h0v-.42A.36.36,0,0,0,65.64,72Z"/><path class="cls-38" d="M65.93,71.51c-.41.24-.41.61,0,.84a1.59,1.59,0,0,0,1.44,0,.45.45,0,0,0,0-.84A1.62,1.62,0,0,0,65.93,71.51Z"/><path class="cls-39" d="M65.92,72.35a.44.44,0,0,1,0-.81,1.59,1.59,0,0,1,1,.16.44.44,0,0,1,0,.81A1.59,1.59,0,0,1,65.92,72.35Z"/><path class="cls-37" d="M63.45,70.92a.44.44,0,0,0,0,.84,1.59,1.59,0,0,0,1.44,0,.44.44,0,0,0,0-.84A1.59,1.59,0,0,0,63.45,70.92Z"/><path class="cls-36" d="M63.33,70.86h0a.36.36,0,0,0,0,.09s0,0,0,0l.09.09.07.05.06,0,.15.06,0,0,.1,0,.1,0,.13,0s0,0,0,0h.39l.16,0h0l.14,0h0l.15-.07a.5.5,0,0,0,.3-.42v.42a.49.49,0,0,1-.29.42l-.15.07h0l-.09,0h-.1l-.1,0H64l-.1,0H63.8l0,0-.15-.07h0l-.05,0-.07,0h0l-.06-.07h0v0s0,0,0,0l0,0h0v0a0,0,0,0,0,0,0,.13.13,0,0,0,0-.06h0v-.43A.43.43,0,0,0,63.33,70.86Z"/><path class="cls-38" d="M63.62,70.33a.45.45,0,0,0,0,.84,1.59,1.59,0,0,0,1.44,0,.45.45,0,0,0,0-.84A1.59,1.59,0,0,0,63.62,70.33Z"/><path class="cls-39" d="M63.61,71.17c-.38-.23-.39-.58,0-.81a1.56,1.56,0,0,1,.95.16c.38.22.39.57,0,.8A1.52,1.52,0,0,1,63.61,71.17Z"/><path class="cls-40" d="M88.34,58.08a4,4,0,0,1,3.65,0,1.29,1.29,0,0,1,.75,1.06h0v4.8h0A1.33,1.33,0,0,1,92,65a4,4,0,0,1-3.65,0,1.31,1.31,0,0,1-.75-1h0v-4.8h0A1.28,1.28,0,0,1,88.34,58.08Z"/><path class="cls-41" d="M88.34,58.08a4,4,0,0,1,3.65,0,1.29,1.29,0,0,1,.75,1.06h0v4.8h0A1.33,1.33,0,0,1,92,65a4,4,0,0,1-3.65,0,1.31,1.31,0,0,1-.75-1h0v-4.8h0A1.28,1.28,0,0,1,88.34,58.08Z"/><path class="cls-42" d="M88.33,65a1.31,1.31,0,0,1-.75-1h0v-4.8a1.28,1.28,0,0,1,.76-1.06,3,3,0,0,1,.87-.33,4.16,4.16,0,0,1,1.49.5,1.64,1.64,0,0,1,1,1.35v5.51A4.06,4.06,0,0,1,88.33,65Z"/><path class="cls-15" d="M88.33,65a1.31,1.31,0,0,1-.75-1h0v-4.8a1.28,1.28,0,0,1,.76-1.06L88.5,58a4.17,4.17,0,0,1,.77.34,1.75,1.75,0,0,1,1,1.44v5.62A3.84,3.84,0,0,1,88.33,65Z"/><path class="cls-43" d="M88.89,57.48a.78.78,0,0,0,0,1.47,2.8,2.8,0,0,0,2.55,0,.78.78,0,0,0,0-1.47A2.78,2.78,0,0,0,88.89,57.48Z"/><rect class="cls-43" x="88.36" y="57.64" width="3.6" height="0.62"/><path class="cls-44" d="M88.89,57c-.7.41-.71,1.06,0,1.47a2.8,2.8,0,0,0,2.55,0,.78.78,0,0,0,0-1.47A2.78,2.78,0,0,0,88.89,57Z"/><path class="cls-45" d="M88.06,56.08h4.2v1.27h0a1.08,1.08,0,0,1-.62.85,3.3,3.3,0,0,1-3,0,1,1,0,0,1-.61-.85h0Z"/><path class="cls-46" d="M92.26,57.35h0a1.08,1.08,0,0,1-.62.85l-.22.1V56.08h.84Z"/><path class="cls-47" d="M90.16,56.08h1.26V58.3a3.08,3.08,0,0,1-1.26.25Z"/><path class="cls-48" d="M88.68,55.27a.91.91,0,0,0,0,1.72,3.24,3.24,0,0,0,3,0,.91.91,0,0,0,0-1.72A3.24,3.24,0,0,0,88.68,55.27Z"/><path class="cls-49" d="M88.33,60.7a4,4,0,0,0,3.65,0,1.33,1.33,0,0,0,.76-1h0V63h0A1.33,1.33,0,0,1,92,64a4,4,0,0,1-3.65,0,1.31,1.31,0,0,1-.75-1h0V59.69h0A1.31,1.31,0,0,0,88.33,60.7Z"/><path class="cls-50" d="M92.74,59.69h0V63h0A1.33,1.33,0,0,1,92,64a3.55,3.55,0,0,1-1.68.44v-3.3A3.67,3.67,0,0,0,92,60.7,1.33,1.33,0,0,0,92.74,59.69Z"/><path class="cls-51" d="M92.74,59.69h0V63h0A1.33,1.33,0,0,1,92,64a3.18,3.18,0,0,1-.32.16v-3.3L92,60.7A1.33,1.33,0,0,0,92.74,59.69Z"/><path class="cls-55" d="M67.07,49.59a1.09,1.09,0,0,1,0,.25v0a.76.76,0,0,1-.11.22l0,0a1.68,1.68,0,0,1-.18.21l-.16.11a.91.91,0,0,1-.16.11,2.4,2.4,0,0,1-.46.21l-.19.06-.23,0-.29.05h-.07a2.68,2.68,0,0,1-.4,0h-.06a2.61,2.61,0,0,1-.4,0h-.06l-.38-.07-.07,0-.33-.1-.06,0a2,2,0,0,1-.36-.17,1.17,1.17,0,0,1-.7-1l0,7.47a1.2,1.2,0,0,0,.7,1l.35.17h0l.06,0a.86.86,0,0,0,.21.07l.12,0,.06,0,.07,0,.24,0h.23l.23,0h.25l.26,0h.09l.21,0,.08,0a1,1,0,0,0,.25-.06l.12,0,0,0a2.89,2.89,0,0,0,.47-.2l0,0,.11-.08a1.09,1.09,0,0,0,.17-.13h0l.15-.16s0,0,0,0l0,0,0-.06.07-.14v0l0-.09s0-.09,0-.14v0l0-7v-.5Z"/><path class="cls-56" d="M66.36,48.6c.94.55,1,1.42,0,1.95a3.69,3.69,0,0,1-3.36,0,1,1,0,0,1,0-1.95A3.73,3.73,0,0,1,66.36,48.6Z"/><path class="cls-55" d="M65.63,44.9h0a.65.65,0,0,1-.21.19,1.66,1.66,0,0,1-.31.12h0a1.39,1.39,0,0,1-.35,0h0a1.47,1.47,0,0,1-.36,0h0A1.62,1.62,0,0,1,64,45.1a.52.52,0,0,1-.3-.42v4.76a.52.52,0,0,0,.3.42l.15.07.12,0,.06,0h0l.1,0H65L65,50h0l.09,0,.22-.1h0l.13-.1a.23.23,0,0,0,.07-.07v0h0l0,0,0-.06a.43.43,0,0,1,0,0,.13.13,0,0,1,0-.06V44.69h0A.36.36,0,0,1,65.63,44.9Z"/><path class="cls-56" d="M65.4,44.27a.44.44,0,0,1,0,.83,1.59,1.59,0,0,1-1.44,0c-.39-.23-.4-.6,0-.83A1.57,1.57,0,0,1,65.4,44.27Z"/><path class="cls-40" d="M63.33,59.43a5.55,5.55,0,0,0-5,0,1.76,1.76,0,0,0-1,1.45h0v6.6h0a1.84,1.84,0,0,0,1,1.39,5.55,5.55,0,0,0,5,0,1.8,1.8,0,0,0,1-1.39h0v-6.6h0A1.81,1.81,0,0,0,63.33,59.43Z"/><path class="cls-40" d="M63.33,59.43a5.55,5.55,0,0,0-5,0,1.76,1.76,0,0,0-1,1.45h0v6.6h0a1.84,1.84,0,0,0,1,1.39,5.55,5.55,0,0,0,5,0,1.8,1.8,0,0,0,1-1.39h0v-6.6h0A1.81,1.81,0,0,0,63.33,59.43Z"/><path class="cls-15" d="M63.35,68.87a1.8,1.8,0,0,0,1-1.39h0v-6.6a1.81,1.81,0,0,0-1-1.45A4.14,4.14,0,0,0,62.14,59a5.7,5.7,0,0,0-2,.68,2.23,2.23,0,0,0-1.32,1.85v7.57A5.61,5.61,0,0,0,63.35,68.87Z"/><path class="cls-57" d="M63.35,68.87a1.8,1.8,0,0,0,1-1.39h0v-6.6a1.81,1.81,0,0,0-1-1.45l-.22-.12a6.08,6.08,0,0,0-1.07.47,2.38,2.38,0,0,0-1.4,2v7.7A5.16,5.16,0,0,0,63.35,68.87Z"/><path class="cls-43" d="M62.57,58.6a1.07,1.07,0,0,1,0,2,3.84,3.84,0,0,1-3.49,0,1.07,1.07,0,0,1,0-2A3.86,3.86,0,0,1,62.57,58.6Z"/><rect class="cls-43" x="58.36" y="58.83" width="4.94" height="0.85"/><path class="cls-44" d="M62.57,57.88a1.07,1.07,0,0,1,0,2,3.84,3.84,0,0,1-3.49,0c-1-.56-1-1.46,0-2A3.86,3.86,0,0,1,62.57,57.88Z"/><path class="cls-58" d="M63.72,56.68H57.94v1.74h0a1.45,1.45,0,0,0,.85,1.17,4.53,4.53,0,0,0,4.09,0,1.45,1.45,0,0,0,.84-1.17h0Z"/><path class="cls-59" d="M57.94,58.42h0a1.45,1.45,0,0,0,.85,1.17l.3.15V56.68H57.94Z"/><path class="cls-60" d="M60.83,56.68H59.09v3.06a4.54,4.54,0,0,0,1.74.34Z"/><path class="cls-61" d="M62.86,55.57a1.25,1.25,0,0,1,0,2.36,4.47,4.47,0,0,1-4.09,0,1.25,1.25,0,0,1,0-2.36A4.45,4.45,0,0,1,62.86,55.57Z"/><path class="cls-49" d="M63.35,63a5.55,5.55,0,0,1-5,0,1.83,1.83,0,0,1-1-1.38h0v4.53h0a1.84,1.84,0,0,0,1,1.39,5.55,5.55,0,0,0,5,0,1.8,1.8,0,0,0,1-1.39h0V61.65h0A1.78,1.78,0,0,1,63.35,63Z"/><path class="cls-50" d="M57.28,61.65h0v4.53h0a1.84,1.84,0,0,0,1,1.39,4.94,4.94,0,0,0,2.31.59V63.63a5.07,5.07,0,0,1-2.31-.6A1.83,1.83,0,0,1,57.28,61.65Z"/><path class="cls-51" d="M57.28,61.65h0v4.53h0a1.84,1.84,0,0,0,1,1.39,3.55,3.55,0,0,0,.44.21V63.25L58.33,63A1.83,1.83,0,0,1,57.28,61.65Z"/><path class="cls-62" d="M86.15,60.68a.74.74,0,0,1-.05.25v0a1,1,0,0,1-.12.23l0,0a1.2,1.2,0,0,1-.19.21l-.16.12-.16.11a2.24,2.24,0,0,1-.47.21l-.19.06-.24,0a1.59,1.59,0,0,1-.3.06h-.07a2.69,2.69,0,0,1-.4,0H83.7a2.6,2.6,0,0,1-.4,0h-.06a2.44,2.44,0,0,1-.39-.07h-.07a2.27,2.27,0,0,1-.34-.11l-.06,0a2.09,2.09,0,0,1-.37-.17,1.22,1.22,0,0,1-.72-1l0,7.62a1.23,1.23,0,0,0,.71,1,2.92,2.92,0,0,0,.36.17h0l.06,0,.21.07.13,0,.06,0h.07l.24,0,.09,0h1a1.52,1.52,0,0,0,.21,0l.08,0,.26-.06.12,0,0,0a2.06,2.06,0,0,0,.48-.21h0l.11-.08.18-.13a0,0,0,0,1,0,0l.15-.16a.08.08,0,0,0,0,0l0,0,0-.06s0-.1.07-.14v0a0,0,0,0,0,0,0l0-.09a.66.66,0,0,0,0-.14v0l0-7.11v-.51Z"/><path class="cls-63" d="M85.42,59.67c1,.56,1,1.44,0,2a3.77,3.77,0,0,1-3.43,0,1.05,1.05,0,0,1,0-2A3.75,3.75,0,0,1,85.42,59.67Z"/><path class="cls-62" d="M84.67,55.89h0a.71.71,0,0,1-.22.2,1.52,1.52,0,0,1-.32.12h0a1.37,1.37,0,0,1-.36,0h0a2.1,2.1,0,0,1-.37,0h0a1.73,1.73,0,0,1-.34-.14.51.51,0,0,1-.3-.42l0,4.86A.53.53,0,0,0,83,61l.15.08.13,0h.21l.1,0H84l.06,0a.05.05,0,0,0,0,0,.16.16,0,0,0,.1,0,.85.85,0,0,0,.22-.09h0l.13-.1.06-.07s0,0,0,0h0l0,0s0,0,0-.06a.14.14,0,0,0,0-.06v-.06l0-4.86h0A.37.37,0,0,1,84.67,55.89Z"/><path class="cls-56" d="M84.44,55.25a.45.45,0,0,1,0,.85,1.62,1.62,0,0,1-1.47,0,.44.44,0,0,1,0-.84A1.6,1.6,0,0,1,84.44,55.25Z"/><path class="cls-64" d="M89.76,48.93A2.92,2.92,0,0,1,93,51.53,2.75,2.75,0,0,1,89.76,48.93Z"/><path class="cls-3" d="M92.88,50a19.35,19.35,0,0,0-1.25,2.82c-.09.6-1.39,1.64-2.14,1.84s-2.81.54-2.41-.53a20.88,20.88,0,0,0,1-2.19,4.78,4.78,0,0,1,1.4-2.16l1.82-1.17Z"/><path class="cls-65" d="M89.46,49.8a7.72,7.72,0,0,0-1.81,1.9c-.31.74-.59,1.44-.38,1.54.5.23.82-.47,1-1s1-.73,1.51-.86S92,50.25,91.6,49.21l-.72-.43Z"/><path class="cls-66" d="M101.21,26.86s-2.1-.42-3.81,6.48-1.73,7.33-1.73,7.33l-5.91,8.26A3,3,0,0,1,93,51.53s4.84-4.73,5.43-6.47S107.68,27.94,101.21,26.86Z"/><path class="cls-64" d="M93,51.53a3.2,3.2,0,0,0-.84-1.71c3.65-3.11,9.32-16.32,9.32-16.32l1.11,2.65c-.69,1.45-4,8.52-4.16,8.91C97.85,46.8,93,51.53,93,51.53Z"/><path class="cls-7" d="M111.22,85.11s.84,2,0,2.49-1,1.07-2.32,1-1.16.34-1.63.84S102,92,101.1,91s1.64-2.2,2.54-2.8,3.06-3,3.12-3.64S111.22,85.11,111.22,85.11Z"/><path class="cls-8" d="M111.22,87.6c-.85.5-1,1.07-2.32,1s-1.16.34-1.63.84S102,92,101.1,91a.76.76,0,0,1,.08-1.07l1.41.25c1.41.25,3.23-1.38,3.93-2s1.59-.37,2.81-.57,1-2.06,1-2.06l.9-.31C111.44,85.68,111.94,87.16,111.22,87.6Z"/><path class="cls-7" d="M119.78,91.53s.36,2.34-.54,3.6-2.87,3.46-3.72,3.36-1-.49-1-.49a8.45,8.45,0,0,1,.27-3.79,12,12,0,0,0,.67-2.68Z"/><path class="cls-8" d="M119.24,95.13c-.79,1.11-2.41,2.94-3.37,3.3,1.27-1.63-.63-1.3.8-2.07,2-1.06.71-2,1.58-2.2s.24-2.41.24-2.41l.47-.22h.82S120.14,93.87,119.24,95.13Z"/><path class="cls-20" d="M109.65,54s-4.29-.93-5.64-3.92a98,98,0,0,0,.45,14.23C105.27,72,106,85.4,106,85.4a3.86,3.86,0,0,0,5.31,0s.75-8.87,0-13.79c0,0,.5-8.61-.34-12.92S109.65,54,109.65,54Z"/><path class="cls-21" d="M106,85.4s-.68-13.44-1.49-21.09a108.49,108.49,0,0,1-.45-15,8.75,8.75,0,0,0,4.82,4.22c-.1,2.92-.55,11.35-.5,14.21,0,2.71.57,14,.79,18.71A4.26,4.26,0,0,1,106,85.4Z"/><path class="cls-20" d="M118.83,52.58s.43,4.93.52,11.88a63.77,63.77,0,0,0,.75,10.63,151.76,151.76,0,0,1,.43,16.08s-2.19,3.39-5.65,0c0,0-.59-11.92-1.18-14.63s-3.89-15.88-5.22-20.61c-.59-2.09-.73-2.88-.73-2.88S113.52,56.76,118.83,52.58Z"/><path class="cls-21" d="M114.88,91.17s-.59-11.92-1.18-14.63-3.89-15.88-5.22-20.61a11,11,0,0,0-2.24-3.87s4.1,2.85,7.41,2.84c.15,1,1.55,10.75,1.88,15s3.21,19,2.43,22.77A4.25,4.25,0,0,1,114.88,91.17Z"/><path class="cls-67" d="M108.52,26.38c1.77.46,6.63,2,6.87,2.48s2,1.29.69,7c0,0-2,6.34.53,11.88,1.47,3.21,2.1,3.17,2.22,4.53.23,2.62-5.87,4.35-9.73,3.32-1.6-.43-4.1-1.25-5.17-2.79a59.1,59.1,0,0,0-2.61-11.41c-2-5.63-3.82-13.06-.71-14.64C100.61,26.78,103,25,108.52,26.38Z"/><path class="cls-3" d="M108.56,21.77s-1.14,3.24.78,4.76c1.07.85-.22,3.81-3.54,4.42,0,0-1.54,0-1.53-.56,0-1.29-.61-1.85-1.36-2.64S108.56,21.77,108.56,21.77Z"/><path class="cls-11" d="M109.34,26.53a.85.85,0,0,1,.28.39,6.33,6.33,0,0,0-3.9-.46l2.25-4.2.27-.23.17.28C108.18,23.3,107.91,25.39,109.34,26.53Z"/><path class="cls-68" d="M104.27,30.39c-.17-2-.61-1.85-1.36-2.64-.2-.21.13-.76.73-1.45a2.43,2.43,0,0,1,.67.47,6.07,6.07,0,0,1,2.17,4,3.75,3.75,0,0,1-.68.16C105.4,31,104.32,31,104.27,30.39Z"/><path class="cls-3" d="M108.86,20s.11,3.88-2,6.18c-1.88,2-4.25,3.66-5.4,1.1-.91-2-3.3-7.21-1.69-8.77,2.08-2,2.54-4,5.61-3.62C105.37,14.93,108.94,15.61,108.86,20Z"/><path class="cls-4" d="M108.86,20a8.52,8.52,0,0,1-2,6.23A10.83,10.83,0,0,1,105,27.93a10.66,10.66,0,0,0,1.67-2.76c.65-1.3-1.52-.32-.64-3.43.3-1.06-2,.78-2.59.91-3.48.77-3.71-1.28-4-2.1a5.56,5.56,0,0,1,0-1.09l.17-.71a1.18,1.18,0,0,1,.07-.2,11.13,11.13,0,0,1,.82-1.51c1.49-.34,5.72-1.29,5.81-1.29s1,.81,1.93,1.58A5.8,5.8,0,0,1,108.86,20Z"/><path class="cls-69" d="M108.23,24a6.86,6.86,0,0,0,.27-6.71,4.43,4.43,0,0,0-4.64-2.42,5.12,5.12,0,0,0-4.64,4.72c-.13,1.09.71,3.53,4.36,1.55.52-.28,1.5-1.37,2.14-1a2.12,2.12,0,0,1,.85,2c-.06.71.54.64.59.48s.32-2.23,1.21-1.67S108.26,23.84,108.23,24Z"/><path class="cls-69" d="M108.23,24c0-.14.94-2.53.14-3s-1.17,1.51-1.21,1.67-.65.23-.59-.48a2.12,2.12,0,0,0-.85-2c-.58-.31-1.44.56-2,.93a5,5,0,0,0,1.38-2.65,3.93,3.93,0,0,1,1.71-2.94,4.58,4.58,0,0,1,1.68,1.84A6.86,6.86,0,0,1,108.23,24Z"/><path class="cls-3" d="M111.24,54s-1.83,3.25-3.29,3.37-1.77,0-2.44-1.24c-.41-.73.4-1.52.77-1.14.72.73,1.83-.38,2-.9s1.54-1.5,1.82-1.72S112,53.26,111.24,54Z"/><path class="cls-3" d="M108.71,53.12a5.15,5.15,0,0,0-1.53.73c-.36.38-.69.74-.59.84.25.25.61-.09.86-.34s.79-.2,1.11-.16,1.59-.2,1.58-.93l-.33-.42Z"/><path class="cls-70" d="M114.33,45.4A37.28,37.28,0,0,1,112.74,40c-1.44-6-2-10.68.28-11.65,0,0,3.31-1.29,4.34,5.2.84,5.28,2.18,11.65,1.35,13.8-.82,3.47-7.81,7.56-7.81,7.56a2.07,2.07,0,0,0-1.5-2.12A42,42,0,0,1,114.33,45.4Z"/><path class="cls-71" d="M109.4,52.78a42,42,0,0,1,4.93-7.38A37.28,37.28,0,0,1,112.74,40c-1.42-5.91-2-10.51.17-11.59,1,.38,2.25,1.6,2.81,5.14.84,5.28,2.18,11.65,1.35,13.8-.58,2.46-4.24,5.21-6.34,6.62A2.18,2.18,0,0,0,109.4,52.78Z"/></svg>