<svg id="Layer_1" data-name="Layer 1" xmlns="http://www.w3.org/2000/svg" viewBox="0 0 115.32 101.69"><defs><style>.cls-1{opacity:0.1;}.cls-2{fill:#231d21;}.cls-3{fill:#31282e;}.cls-4{fill:#efb185;}.cls-5{fill:#cee2ea;}.cls-6{fill:#231202;}.cls-7{fill:#bad1de;}.cls-8{fill:#ddedf2;}.cls-9{fill:#cd2f30;}.cls-10{fill:#ba252c;}.cls-11{fill:#301806;}.cls-12{fill:#e8a476;}.cls-13{fill:#db9669;}.cls-14{fill:#f1b287;}.cls-15{fill:#888;}.cls-16{fill:#bdc4c5;}.cls-17{fill:#ffe8a6;}.cls-18{isolation:isolate;}.cls-19{fill:#beaf84;}.cls-20{fill:#e6dab0;}.cls-21{fill:#56320f;}.cls-22{fill:#4d2d0d;}.cls-23{fill:#361f09;}.cls-24{fill:#6b4125;}.cls-25{fill:#885937;}.cls-26{fill:#936f44;}.cls-27{fill:#a59b7e;}.cls-28{fill:#c1b99b;}.cls-29{fill:#d3cbaf;}.cls-30{fill:#cc720e;}.cls-31{fill:#dc8010;}.cls-32{fill:#d1c195;}.cls-33{fill:#e0d1aa;}.cls-34{fill:#9e9e9e;}.cls-35{fill:#646464;}.cls-36{fill:#f4903c;}.cls-37{fill:#90aa24;}.cls-38{fill:#6d8215;}.cls-39{fill:#51ae4b;}.cls-40{fill:#624805;}.cls-41{fill:#7c9920;}.cls-42{fill:#f4dd26;}.cls-43{fill:#5b462e;}.cls-44{fill:#e5c613;}.cls-45{fill:#2b0d04;}.cls-46{fill:#f18b03;}.cls-47{fill:#ec6665;}.cls-48{fill:#d75150;}.cls-49{fill:#ff8183;}.cls-50{fill:#eff3fc;}.cls-51{fill:#f1b35d;}.cls-52{fill:#fcd799;}.cls-53{fill:#a6a6a6;}</style></defs><title>cc-illustrations</title><g class="cls-1"><path d="M5.94,61.12c-4.46,2.58-4.48,6.75-.05,9.32S17.51,73,22,70.44s4.48-6.74.06-9.31S10.39,58.55,5.94,61.12Z"/></g><path d="M26.07,62.58A5.25,5.25,0,0,0,26.92,65c.69.83,3.84,2.7,3.62,3.56s-2.44,1-3.87-.44-1.8-1.61-2.4-1.73a1.44,1.44,0,0,1-.86-2.19A6.15,6.15,0,0,0,26.07,62.58Z"/><path class="cls-2" d="M26.84,27.5S29.43,40.2,28,47.24c0,0-.65,5.55-1,7.08s-.27,9.83-.27,9.83-2.33,1-3.51-.09c0,0-1.51-8.55.15-14,0,0-2-10.41-2-13.8A55.19,55.19,0,0,0,21,30Z"/><path class="cls-3" d="M28,47.24s-.65,5.55-1,7.08-.27,9.83-.27,9.83a5.93,5.93,0,0,1-.92.28c-.17-2.47-.48-6.78-.61-7.76-.2-1.39,1.37-9,1.5-11.81s-3-13.41-3-13.41l.86-3,2.23-.93S29.43,40.2,28,47.24Z"/><path d="M19,65.75a5.24,5.24,0,0,0,.79,2.39c.67.85,3.76,2.8,3.53,3.66s-2.47.89-3.87-.54-1.76-1.66-2.36-1.8a1.45,1.45,0,0,1-.8-2.21A6.19,6.19,0,0,0,19,65.75Z"/><path class="cls-3" d="M16.29,31.68s-2.51,3.58-1.3,10.9l.54,8.73s-1.66,2.8-.47,11.3l1.14,5.11s1.42,1,3-1.08c0,0-.11-12.57.48-14.5a82.86,82.86,0,0,0,3.17-13c.28-2.08,3.5-5.52,3.33-7.32Z"/><path class="cls-2" d="M16.2,67.72l-1.14-5.11c-1.19-8.5.47-11.3.47-11.3L15,42.58c-1.21-7.32,1.3-10.9,1.3-10.9h.28l2.74,1.77S16.6,47.29,16.79,50.81s-.79,7.62-.66,9.81c.09,1.4.72,5,1.16,7.34A1.68,1.68,0,0,1,16.2,67.72Z"/><path class="cls-4" d="M39.64,25.63s2.1,1.73,3.4,1.74,3.15-.46,2.55-1-2.5-.86-2.48-1.39,1.17-.14.68-.55-1.54-.75-3.79-.16A1.1,1.1,0,0,0,39.64,25.63Z"/><path class="cls-5" d="M30.11,10.62a1.37,1.37,0,0,0-2.23,1,21.44,21.44,0,0,0,.93,7.68S30,24,31.06,24.44s9.12,2.11,9.12,2.11a4,4,0,0,1,.63-2.6s-6.86-2.4-7.25-3.06S31.55,11.39,30.11,10.62Z"/><rect class="cls-6" x="22.01" y="8.08" width="4.46" height="3.26" transform="translate(13.03 33.29) rotate(-86.38)"/><path class="cls-5" d="M18,14.44s2.8-3.82,11.94-3.54c0,0,1.51-.39.7,4.21a5.26,5.26,0,0,0,.79,2.58c.38.67,1.29,3.17-1.83,5.54,0,0-1.65,4-.78,6.82.78,2.54-5.44,4-10.37,2.8A2.09,2.09,0,0,1,17,29.79c.85-2.06,3-5.4,2.54-9.5S17,16.36,18,14.44Z"/><path class="cls-7" d="M18,14.3c-1,1.91,1.18,1.74,1.61,5.85S17.88,27.73,17,29.79s.39,2.77,1,2.92a16.64,16.64,0,0,0,2.64.51c-1.2-4.09,2.32-10.87,3-14.69a6.26,6.26,0,0,0-2.75-6.19A8,8,0,0,0,18,14.3Z"/><path class="cls-8" d="M28.77,30.05c-.87-2.85.78-6.82.78-6.82,3.12-2.37,2.21-4.87,1.83-5.54a5.26,5.26,0,0,1-.79-2.58,8.23,8.23,0,0,0,.11-3.44c-.61.53-1.61.16-1.57,2.34,0,1.29-.68,3.1-2.63,2.83s-1.31,3-1.32,3.91c-.09,6.18-3.74,8.55-3.24,12.53C25.84,33.32,29.37,32,28.77,30.05Z"/><path class="cls-9" d="M20.91,12.34s4.61,3.52,4.25,8.94l-.9.16s.5-5.63-4.33-8.61Z"/><path class="cls-9" d="M28.24,11a11,11,0,0,1,2.7,8.38l-.55-.08s.35-5.11-3-7.89Z"/><path class="cls-9" d="M24.23,20.16l6.73-2s.66,2.61-1.43,10.1a96.53,96.53,0,0,1-1.15,11.19S26,43.11,20.13,42.3a8.69,8.69,0,0,1-4.89-2.07S14,31.68,19.62,26.63C19.62,26.63,24.44,27.68,24.23,20.16Z"/><path class="cls-10" d="M18.68,26.07c-5.61,5.05-4.12,14-4.12,14a10.85,10.85,0,0,0,3.57,1.78c-.41-4,.21-10.75,3.91-12.74,3.33-1.79,3.93-7,4-9.52l-1.83.56C24.44,27.68,18.68,26.07,18.68,26.07Z"/><path class="cls-11" d="M28.9,2.71a50.53,50.53,0,0,0-2.38,9.37c-.08.64.37.12,1.56-.11,0,0,4.81-3.69,2.45-9.08a5,5,0,0,0-7.36-2Z"/><path class="cls-12" d="M29.46,8.88a4.33,4.33,0,0,0-1.11,3.86c.16.57.52,2.89-2.88,1.72,0,0-3.48-2.06-2.32-3.08.77-.67,1.53-1.67.72-5.46Z"/><path class="cls-13" d="M23.15,11.38a.57.57,0,0,0-.21.35,6.47,6.47,0,0,0,5.69-1.29l-4-4.09h0s-.23.13-.57.36C24.57,9.85,23.86,10.76,23.15,11.38Z"/><path class="cls-14" d="M29.33,2.25s.91.38.76,3.14c0,.31.45.75.52,1.51s0,3.87-1.76,4.08a5.52,5.52,0,0,1-5.31-4.06C22.68,3.75,25.59-.06,29.33,2.25Z"/><path class="cls-6" d="M29.08,3.34s-4.47-.51-5.26,7.54l0,4.07c-5.44-4.17-3-10.64-3-10.64S22-.7,26.2.33C26.2.33,28.94,1.59,29.08,3.34Z"/><path class="cls-11" d="M29.08,3.34S30.49,3.17,31,5.77c0,0,.24-7.23-6.72-5.49C24.28.28,28.33.75,29.08,3.34Z"/><path class="cls-14" d="M25.08,7.56S24.7,6,23.79,6.4c-.29.14-.61.43-.24,1.25s1.19,1.59,1.89,1.55Z"/><path class="cls-15" d="M34.48,22s.35,5.35,5.38,5.3a5,5,0,0,0,5.27-5.41Z"/><path class="cls-16" d="M43.53,19.73c2.1,1.19,2.13,3.14.07,4.37a8.3,8.3,0,0,1-7.52.08C34,23,34,21,36,19.82A8.29,8.29,0,0,1,43.53,19.73Z"/><path class="cls-17" d="M43.6,24.1l.47-.32c.63-1,.27-2.08-1.07-2.83a7.1,7.1,0,0,0-6.44.07c-1.3.78-1.62,1.89-1,2.83l.5.33A8.3,8.3,0,0,0,43.6,24.1Z"/><path class="cls-4" d="M30.6,26.63s2.6.8,3.8.31,2.73-1.63,2-1.91-2.63.16-2.82-.34,1-.58.42-.76-1.71-.11-3.57,1.3A1.09,1.09,0,0,0,30.6,26.63Z"/><path class="cls-5" d="M18.82,14s2-.68,2.91,2.33,2.56,8,2.56,8l.43.7,6.6-.53a2,2,0,0,0,.41,2.61s-8.24,3.12-10.42.55C21.31,27.68,15.49,14.7,18.82,14Z"/><g class="cls-1"><polygon points="0 83.64 31.06 101.69 94.47 65.08 63.41 47.03 0 83.64"/></g><g class="cls-18"><polygon class="cls-19" points="29.01 73.21 29.09 100.39 31.08 101.55 31 74.36 29.01 73.21"/><polygon class="cls-20" points="31 74.36 31.08 101.55 33.08 100.39 33 73.21 31 74.36"/><polygon class="cls-21" points="29.01 73.21 31 74.36 33 73.21 31.01 72.05 29.01 73.21"/></g><g class="cls-18"><polygon class="cls-19" points="90.33 37.7 90.4 64.89 92.39 66.04 92.31 38.85 90.33 37.7"/><polygon class="cls-20" points="92.31 38.85 92.39 66.04 94.39 64.89 94.32 37.7 92.31 38.85"/><polygon class="cls-21" points="90.33 37.7 92.31 38.85 94.32 37.7 92.33 36.54 90.33 37.7"/></g><g class="cls-18"><polygon class="cls-19" points="0.12 56.64 0.2 83.83 2.19 84.98 2.11 57.8 0.12 56.64"/><polygon class="cls-20" points="2.11 57.8 2.19 84.98 4.19 83.83 4.11 56.64 2.11 57.8"/><polygon class="cls-21" points="0.12 56.64 2.11 57.8 4.11 56.64 2.12 55.48 0.12 56.64"/></g><g class="cls-18"><polygon class="cls-22" points="61.44 19.8 61.52 46.99 63.5 48.14 63.43 20.95 61.44 19.8"/><polygon class="cls-23" points="63.43 20.95 63.5 48.14 65.51 46.99 65.43 19.8 63.43 20.95"/><polygon class="cls-21" points="61.44 19.8 63.43 20.95 65.43 19.8 63.44 18.64 61.44 19.8"/></g><g class="cls-18"><polygon class="cls-24" points="0 54.33 0.02 62.48 31.08 80.53 31.06 72.38 0 54.33"/><polygon class="cls-25" points="31.06 72.38 31.08 80.53 94.5 43.92 94.47 35.77 31.06 72.38"/><polygon class="cls-26" points="0 54.33 31.06 72.38 94.47 35.77 63.41 17.71 0 54.33"/></g><path class="cls-25" d="M63.62,26.83c3.45,2,3.47,5.22.05,7.21a13.73,13.73,0,0,1-12.45,0c-3.45-2-3.47-5.22,0-7.21A13.71,13.71,0,0,1,63.62,26.83Z"/><path class="cls-25" d="M34.35,53.44c4.16,2.41,4.18,6.3,0,8.7a16.51,16.51,0,0,1-15,0c-4.16-2.4-4.19-6.29-.05-8.7A16.57,16.57,0,0,1,34.35,53.44Z"/><path class="cls-25" d="M51.48,36.1c4.64,2.67,4.66,7,.06,9.68s-12.09,2.68-16.72,0-4.66-7-.06-9.68S46.85,33.42,51.48,36.1Z"/><path class="cls-27" d="M52.89,36.1c4.64,2.67,4.66,7,.06,9.68s-12.09,2.68-16.72,0-4.66-7,0-9.68S48.26,33.42,52.89,36.1Z"/><path class="cls-28" d="M52.89,35c4.64,2.68,4.66,7,.06,9.69s-12.09,2.67-16.72,0-4.66-7,0-9.69S48.26,32.36,52.89,35Z"/><path class="cls-29" d="M53,44.72c4.19-2.43,4.53-6.24,1.07-8.92-4.38-1.18-9.73-.73-13.33,1.36-4.19,2.43-4.53,6.24-1.07,8.92C44,47.26,49.35,46.81,53,44.72Z"/><path class="cls-27" d="M44.6,46.22a15.29,15.29,0,0,1-7.5-1.8c-2.08-1.2-3.22-2.82-3.22-4.56s1.12-3.33,3.18-4.53a15.09,15.09,0,0,1,7.47-1.8A15.23,15.23,0,0,1,52,35.33c2.08,1.2,3.23,2.82,3.23,4.56s-1.13,3.34-3.18,4.53A15.12,15.12,0,0,1,44.6,46.22Zm-.07-12A14.46,14.46,0,0,0,37.42,36C35.6,37,34.6,38.4,34.61,39.86s1,2.86,2.86,3.93a14.49,14.49,0,0,0,7.13,1.7,14.34,14.34,0,0,0,7.1-1.7c1.82-1.06,2.82-2.44,2.82-3.9S53.5,37,51.65,36A14.45,14.45,0,0,0,44.53,34.26Z"/><path class="cls-30" d="M41.14,35.05a1.21,1.21,0,0,1,0,2.3,4.41,4.41,0,0,1-4,0c-1.1-.64-1.11-1.67,0-2.3A4.34,4.34,0,0,1,41.14,35.05Z"/><path class="cls-31" d="M41.14,34.52c1.1.64,1.11,1.67,0,2.3a4.34,4.34,0,0,1-4,0,1.21,1.21,0,0,1,0-2.3A4.41,4.41,0,0,1,41.14,34.52Z"/><path class="cls-32" d="M41.14,34c1.1.64,1.11,1.67,0,2.3a4.34,4.34,0,0,1-4,0,1.21,1.21,0,0,1,0-2.3A4.34,4.34,0,0,1,41.14,34Z"/><path class="cls-33" d="M41.14,33.48a1.21,1.21,0,0,1,0,2.3,4.41,4.41,0,0,1-4,0c-1.1-.64-1.11-1.67,0-2.3A4.34,4.34,0,0,1,41.14,33.48Z"/><path class="cls-30" d="M41.14,33a1.22,1.22,0,0,1,0,2.31,4.41,4.41,0,0,1-4,0,1.22,1.22,0,0,1,0-2.31A4.41,4.41,0,0,1,41.14,33Z"/><path class="cls-31" d="M41.14,32.43c1.1.64,1.11,1.67,0,2.3a4.34,4.34,0,0,1-4,0,1.21,1.21,0,0,1,0-2.3A4.34,4.34,0,0,1,41.14,32.43Z"/><path class="cls-30" d="M47.51,34.78a1.22,1.22,0,0,1,0,2.31,4.43,4.43,0,0,1-4,0,1.22,1.22,0,0,1,0-2.31A4.41,4.41,0,0,1,47.51,34.78Z"/><path class="cls-31" d="M47.51,34.26c1.11.64,1.11,1.67,0,2.3a4.37,4.37,0,0,1-4,0,1.22,1.22,0,0,1,0-2.3A4.34,4.34,0,0,1,47.51,34.26Z"/><path class="cls-32" d="M47.51,33.74a1.21,1.21,0,0,1,0,2.3,4.37,4.37,0,0,1-4,0,1.22,1.22,0,0,1,0-2.3A4.34,4.34,0,0,1,47.51,33.74Z"/><path class="cls-33" d="M47.51,33.21a1.22,1.22,0,0,1,0,2.31,4.43,4.43,0,0,1-4,0,1.22,1.22,0,0,1,0-2.31A4.41,4.41,0,0,1,47.51,33.21Z"/><path class="cls-30" d="M47.51,32.69c1.11.64,1.11,1.67,0,2.3a4.37,4.37,0,0,1-4,0,1.22,1.22,0,0,1,0-2.3A4.41,4.41,0,0,1,47.51,32.69Z"/><path class="cls-31" d="M47.51,32.17a1.21,1.21,0,0,1,0,2.3,4.37,4.37,0,0,1-4,0,1.22,1.22,0,0,1,0-2.3A4.34,4.34,0,0,1,47.51,32.17Z"/><path class="cls-30" d="M53.14,36.15c1.1.64,1.11,1.67,0,2.3a4.37,4.37,0,0,1-4,0,1.22,1.22,0,0,1,0-2.3A4.43,4.43,0,0,1,53.14,36.15Z"/><path class="cls-31" d="M53.14,35.63a1.21,1.21,0,0,1,0,2.3,4.37,4.37,0,0,1-4,0,1.22,1.22,0,0,1,0-2.3A4.37,4.37,0,0,1,53.14,35.63Z"/><path class="cls-32" d="M53.14,35.1a1.22,1.22,0,0,1,0,2.31,4.43,4.43,0,0,1-4,0,1.22,1.22,0,0,1,0-2.31A4.43,4.43,0,0,1,53.14,35.1Z"/><path class="cls-33" d="M53.14,34.58c1.1.64,1.11,1.67,0,2.3a4.37,4.37,0,0,1-4,0,1.22,1.22,0,0,1,0-2.3A4.43,4.43,0,0,1,53.14,34.58Z"/><path class="cls-30" d="M53.14,34.06a1.21,1.21,0,0,1,0,2.3,4.37,4.37,0,0,1-4,0,1.22,1.22,0,0,1,0-2.3A4.37,4.37,0,0,1,53.14,34.06Z"/><path class="cls-31" d="M53.14,33.54a1.21,1.21,0,0,1,0,2.3,4.37,4.37,0,0,1-4,0,1.22,1.22,0,0,1,0-2.3A4.37,4.37,0,0,1,53.14,33.54Z"/><path class="cls-30" d="M38.07,38.77a1.21,1.21,0,0,1,0,2.3,4.43,4.43,0,0,1-4,0,1.22,1.22,0,0,1,0-2.3A4.37,4.37,0,0,1,38.07,38.77Z"/><path class="cls-31" d="M38.07,38.24a1.22,1.22,0,0,1,0,2.31,4.43,4.43,0,0,1-4,0,1.22,1.22,0,0,1,0-2.31A4.43,4.43,0,0,1,38.07,38.24Z"/><path class="cls-32" d="M38.07,37.72c1.1.64,1.11,1.66,0,2.3a4.37,4.37,0,0,1-4,0,1.22,1.22,0,0,1,0-2.3A4.37,4.37,0,0,1,38.07,37.72Z"/><path class="cls-33" d="M38.07,37.2a1.21,1.21,0,0,1,0,2.3,4.37,4.37,0,0,1-4,0,1.22,1.22,0,0,1,0-2.3A4.37,4.37,0,0,1,38.07,37.2Z"/><path class="cls-30" d="M38.07,36.67a1.22,1.22,0,0,1,0,2.31,4.43,4.43,0,0,1-4,0,1.22,1.22,0,0,1,0-2.31A4.43,4.43,0,0,1,38.07,36.67Z"/><path class="cls-31" d="M38.07,36.15c1.1.64,1.11,1.67,0,2.3a4.37,4.37,0,0,1-4,0,1.22,1.22,0,0,1,0-2.3A4.43,4.43,0,0,1,38.07,36.15Z"/><path class="cls-30" d="M46.76,39a1.21,1.21,0,0,1,0,2.3,4.37,4.37,0,0,1-4,0,1.22,1.22,0,0,1,0-2.3A4.34,4.34,0,0,1,46.76,39Z"/><path class="cls-31" d="M46.76,38.5a1.22,1.22,0,0,1,0,2.31,4.43,4.43,0,0,1-4,0,1.22,1.22,0,0,1,0-2.31A4.41,4.41,0,0,1,46.76,38.5Z"/><path class="cls-32" d="M46.76,38c1.11.64,1.11,1.67,0,2.3a4.37,4.37,0,0,1-4,0,1.22,1.22,0,0,1,0-2.3A4.41,4.41,0,0,1,46.76,38Z"/><path class="cls-33" d="M46.76,37.46a1.21,1.21,0,0,1,0,2.3,4.37,4.37,0,0,1-4,0,1.22,1.22,0,0,1,0-2.3A4.34,4.34,0,0,1,46.76,37.46Z"/><path class="cls-30" d="M46.76,36.94a1.21,1.21,0,0,1,0,2.3,4.43,4.43,0,0,1-4,0,1.22,1.22,0,0,1,0-2.3A4.34,4.34,0,0,1,46.76,36.94Z"/><path class="cls-31" d="M46.76,36.41c1.11.64,1.11,1.67,0,2.3a4.37,4.37,0,0,1-4,0,1.22,1.22,0,0,1,0-2.3A4.41,4.41,0,0,1,46.76,36.41Z"/><path class="cls-30" d="M41.14,42.55a1.21,1.21,0,0,1,0,2.3,4.41,4.41,0,0,1-4,0c-1.1-.64-1.11-1.67,0-2.3A4.34,4.34,0,0,1,41.14,42.55Z"/><path class="cls-31" d="M41.14,42c1.1.64,1.11,1.67,0,2.3a4.34,4.34,0,0,1-4,0,1.21,1.21,0,0,1,0-2.3A4.41,4.41,0,0,1,41.14,42Z"/><path class="cls-32" d="M41.14,41.5a1.21,1.21,0,0,1,0,2.3,4.34,4.34,0,0,1-4,0,1.21,1.21,0,0,1,0-2.3A4.34,4.34,0,0,1,41.14,41.5Z"/><path class="cls-33" d="M41.14,41a1.21,1.21,0,0,1,0,2.3,4.34,4.34,0,0,1-4,0c-1.1-.64-1.11-1.67,0-2.3A4.34,4.34,0,0,1,41.14,41Z"/><path class="cls-30" d="M41.14,40.45a1.22,1.22,0,0,1,0,2.31,4.41,4.41,0,0,1-4,0,1.22,1.22,0,0,1,0-2.31A4.41,4.41,0,0,1,41.14,40.45Z"/><path class="cls-31" d="M41.14,39.93c1.1.64,1.11,1.67,0,2.3a4.34,4.34,0,0,1-4,0,1.21,1.21,0,0,1,0-2.3A4.34,4.34,0,0,1,41.14,39.93Z"/><path class="cls-30" d="M47.51,43.39a1.21,1.21,0,0,1,0,2.3,4.37,4.37,0,0,1-4,0,1.22,1.22,0,0,1,0-2.3A4.34,4.34,0,0,1,47.51,43.39Z"/><path class="cls-31" d="M47.51,42.87a1.21,1.21,0,0,1,0,2.3,4.37,4.37,0,0,1-4,0,1.22,1.22,0,0,1,0-2.3A4.34,4.34,0,0,1,47.51,42.87Z"/><path class="cls-32" d="M47.51,42.34a1.22,1.22,0,0,1,0,2.31,4.43,4.43,0,0,1-4,0,1.22,1.22,0,0,1,0-2.31A4.41,4.41,0,0,1,47.51,42.34Z"/><path class="cls-33" d="M47.51,41.82c1.11.64,1.11,1.67,0,2.3a4.37,4.37,0,0,1-4,0,1.22,1.22,0,0,1,0-2.3A4.34,4.34,0,0,1,47.51,41.82Z"/><path class="cls-30" d="M47.51,41.3a1.21,1.21,0,0,1,0,2.3,4.37,4.37,0,0,1-4,0,1.22,1.22,0,0,1,0-2.3A4.34,4.34,0,0,1,47.51,41.3Z"/><path class="cls-31" d="M47.51,40.77a1.22,1.22,0,0,1,0,2.31,4.43,4.43,0,0,1-4,0,1.22,1.22,0,0,1,0-2.31A4.41,4.41,0,0,1,47.51,40.77Z"/><path class="cls-30" d="M53.14,36.15c1.1.64,1.11,1.67,0,2.3a4.37,4.37,0,0,1-4,0,1.22,1.22,0,0,1,0-2.3A4.43,4.43,0,0,1,53.14,36.15Z"/><path class="cls-31" d="M53.14,35.63a1.21,1.21,0,0,1,0,2.3,4.37,4.37,0,0,1-4,0,1.22,1.22,0,0,1,0-2.3A4.37,4.37,0,0,1,53.14,35.63Z"/><path class="cls-32" d="M53.14,35.1a1.22,1.22,0,0,1,0,2.31,4.43,4.43,0,0,1-4,0,1.22,1.22,0,0,1,0-2.31A4.43,4.43,0,0,1,53.14,35.1Z"/><path class="cls-33" d="M53.14,34.58c1.1.64,1.11,1.67,0,2.3a4.37,4.37,0,0,1-4,0,1.22,1.22,0,0,1,0-2.3A4.43,4.43,0,0,1,53.14,34.58Z"/><path class="cls-30" d="M53.14,34.06a1.21,1.21,0,0,1,0,2.3,4.37,4.37,0,0,1-4,0,1.22,1.22,0,0,1,0-2.3A4.37,4.37,0,0,1,53.14,34.06Z"/><path class="cls-31" d="M53.14,33.54a1.21,1.21,0,0,1,0,2.3,4.37,4.37,0,0,1-4,0,1.22,1.22,0,0,1,0-2.3A4.37,4.37,0,0,1,53.14,33.54Z"/><path class="cls-30" d="M54.14,41.18a1.22,1.22,0,0,1,0,2.3,4.37,4.37,0,0,1-4,0,1.21,1.21,0,0,1,0-2.3A4.34,4.34,0,0,1,54.14,41.18Z"/><path class="cls-31" d="M54.14,40.66a1.22,1.22,0,0,1,0,2.3,4.43,4.43,0,0,1-4,0c-1.1-.64-1.11-1.67,0-2.3A4.34,4.34,0,0,1,54.14,40.66Z"/><path class="cls-32" d="M54.14,40.13a1.22,1.22,0,0,1,0,2.31,4.43,4.43,0,0,1-4,0,1.22,1.22,0,0,1,0-2.31A4.41,4.41,0,0,1,54.14,40.13Z"/><path class="cls-33" d="M54.14,39.61c1.1.64,1.11,1.67,0,2.3a4.37,4.37,0,0,1-4,0,1.21,1.21,0,0,1,0-2.3A4.34,4.34,0,0,1,54.14,39.61Z"/><path class="cls-30" d="M54.14,39.09a1.22,1.22,0,0,1,0,2.3,4.37,4.37,0,0,1-4,0c-1.1-.64-1.11-1.67,0-2.3A4.34,4.34,0,0,1,54.14,39.09Z"/><path class="cls-31" d="M54.14,38.56a1.22,1.22,0,0,1,0,2.31,4.43,4.43,0,0,1-4,0,1.22,1.22,0,0,1,0-2.31A4.41,4.41,0,0,1,54.14,38.56Z"/><path class="cls-34" d="M66.7,20.41l0,.26a1.46,1.46,0,0,0,0,.2,2.17,2.17,0,0,1-.07.24c0,.07-.06.13-.08.19l-.12.26-.11.17c0,.09-.12.19-.18.28a2.75,2.75,0,0,1-.22.26l0,.06q-.15.17-.33.33a2.43,2.43,0,0,1-.25.2L65,23l-.28.19-.31.2c-.24.13-.49.26-.75.38l-.23.09a6.62,6.62,0,0,1-.62.24l-.23.08-.41.11-.31.09-.44.09a2.84,2.84,0,0,1-.31.06,8.47,8.47,0,0,1-.9.13l-.29,0-.53,0H58.24l-.41,0-.37,0-.39,0-.36-.06-.42-.07L56,24.47a4.54,4.54,0,0,1-.5-.12l-.27-.07a8.51,8.51,0,0,1-.85-.29l-.41-.17-.2-.09a5.28,5.28,0,0,1-.58-.3c-1.57-.91-2.36-2.1-2.35-3.29l0,9.61A4,4,0,0,0,53.12,33c.19.1.38.21.58.3l.2.09.37.16h0c.28.11.56.2.85.29l.07,0,.21.05a3.89,3.89,0,0,0,.49.12l.13,0,.2,0,.42.07a1,1,0,0,0,.17,0l.19,0,.4,0,.18,0h.18l.41,0h1.14l.54,0h.28a9.06,9.06,0,0,0,.91-.13h0l.25-.06.45-.09.31-.09.41-.11.09,0,.14,0q.31-.11.63-.24l.22-.1a5.85,5.85,0,0,0,.75-.38l.1-.05.21-.14.28-.19.23-.18.24-.2,0,0a4,4,0,0,0,.29-.29l0-.06A1.29,1.29,0,0,0,66,31.7s0-.06.06-.08a2.2,2.2,0,0,0,.18-.28l.08-.12s0,0,0-.06.08-.16.12-.24l.07-.15a.11.11,0,0,1,0-.05,2.17,2.17,0,0,0,.07-.24c0-.05,0-.1,0-.16s0,0,0,0l0-.25a.78.78,0,0,1,0-.16V29.8c0-3.2,0-6.41,0-9.61C66.71,20.26,66.7,20.34,66.7,20.41Z"/><path class="cls-35" d="M64.37,16.91c3.11,1.8,3.13,4.71,0,6.52a12.39,12.39,0,0,1-11.25,0c-3.12-1.8-3.14-4.72,0-6.52A12.41,12.41,0,0,1,64.37,16.91Z"/><path class="cls-36" d="M64.4,23.43a6.75,6.75,0,0,0,1-.68c.64-1.34,0-2.84-1.77-3.9a10.74,10.74,0,0,0-9.72,0c-1.8,1-2.38,2.52-1.76,3.85a7.29,7.29,0,0,0,1,.73A12.39,12.39,0,0,0,64.4,23.43Z"/><path class="cls-25" d="M80.09,30.94c1.62.94,1.63,2.46,0,3.4a6.48,6.48,0,0,1-5.88,0c-1.63-.94-1.64-2.46,0-3.4A6.48,6.48,0,0,1,80.09,30.94Z"/><path class="cls-15" d="M74.11,29.74s.24,4.4,4.37,4.4a4.12,4.12,0,0,0,4.37-4.4Z"/><path class="cls-16" d="M81.56,28c1.71,1,1.72,2.59,0,3.58a6.8,6.8,0,0,1-6.18,0c-1.71-1-1.72-2.59,0-3.58A6.83,6.83,0,0,1,81.56,28Z"/><path class="cls-17" d="M81.58,31.53c.14-.08.26-.17.38-.25.53-.78.24-1.7-.85-2.33a5.79,5.79,0,0,0-5.28,0c-1.08.62-1.35,1.54-.83,2.31a3.1,3.1,0,0,0,.4.27A6.8,6.8,0,0,0,81.58,31.53Z"/><path class="cls-25" d="M72.52,35.11c1.63.94,1.63,2.47,0,3.41a6.48,6.48,0,0,1-5.88,0c-1.63-.94-1.64-2.47,0-3.41A6.48,6.48,0,0,1,72.52,35.11Z"/><path class="cls-15" d="M66.54,33.91s.24,4.4,4.37,4.4a4.12,4.12,0,0,0,4.37-4.4Z"/><path class="cls-16" d="M74,32.12c1.71,1,1.72,2.6,0,3.58a6.8,6.8,0,0,1-6.18,0c-1.71-1-1.72-2.59,0-3.57A6.83,6.83,0,0,1,74,32.12Z"/><path class="cls-17" d="M74,35.7a3.57,3.57,0,0,0,.38-.25c.53-.78.24-1.7-.85-2.33a5.79,5.79,0,0,0-5.28,0c-1.08.63-1.35,1.54-.83,2.31a2.33,2.33,0,0,0,.4.27A6.8,6.8,0,0,0,74,35.7Z"/><path class="cls-25" d="M64.49,39c1.63.94,1.64,2.47,0,3.41a6.49,6.49,0,0,1-5.87,0C57,41.5,57,40,58.62,39A6.46,6.46,0,0,1,64.49,39Z"/><path class="cls-15" d="M58.52,37.83s.23,4.4,4.37,4.4a4.12,4.12,0,0,0,4.37-4.4Z"/><path class="cls-16" d="M66,36c1.71,1,1.72,2.59,0,3.58a6.78,6.78,0,0,1-6.17,0c-1.71-1-1.72-2.59,0-3.58A6.86,6.86,0,0,1,66,36Z"/><path class="cls-17" d="M66,39.62a3.77,3.77,0,0,0,.39-.26c.52-.77.24-1.69-.85-2.32a5.81,5.81,0,0,0-5.29,0c-1.07.62-1.34,1.54-.82,2.31a2.33,2.33,0,0,0,.4.27A6.78,6.78,0,0,0,66,39.62Z"/><path class="cls-25" d="M79.54,40.44c1.63.94,1.64,2.46,0,3.4a6.46,6.46,0,0,1-5.87,0c-1.63-.94-1.64-2.46,0-3.4A6.46,6.46,0,0,1,79.54,40.44Z"/><path class="cls-15" d="M73.57,39.24s.23,4.39,4.36,4.39a4.1,4.1,0,0,0,4.37-4.39Z"/><path class="cls-16" d="M81,37.45c1.72,1,1.72,2.59,0,3.58a6.86,6.86,0,0,1-6.18,0c-1.71-1-1.71-2.59,0-3.58A6.8,6.8,0,0,1,81,37.45Z"/><path class="cls-17" d="M81,41a4.17,4.17,0,0,0,.38-.26c.53-.78.25-1.7-.84-2.33a5.87,5.87,0,0,0-5.29,0c-1.07.63-1.35,1.54-.82,2.32l.39.27A6.86,6.86,0,0,0,81,41Z"/><path class="cls-25" d="M71.52,44.35c1.63.94,1.63,2.47,0,3.41a6.48,6.48,0,0,1-5.88,0c-1.63-.94-1.64-2.47,0-3.41A6.54,6.54,0,0,1,71.52,44.35Z"/><path class="cls-25" d="M42.23,54.85c.77.45.77,1.16,0,1.6a3.05,3.05,0,0,1-2.76,0,.85.85,0,0,1,0-1.6A3,3,0,0,1,42.23,54.85Z"/><path class="cls-25" d="M46.16,52.71a.85.85,0,0,1,0,1.6,3.05,3.05,0,0,1-2.76,0,.85.85,0,0,1,0-1.6A3.05,3.05,0,0,1,46.16,52.71Z"/><path class="cls-15" d="M65.54,43.16s.24,4.39,4.37,4.39a4.11,4.11,0,0,0,4.37-4.39Z"/><path class="cls-16" d="M73,41.37c1.71,1,1.72,2.59,0,3.58a6.83,6.83,0,0,1-6.18,0c-1.71-1-1.72-2.58,0-3.57A6.8,6.8,0,0,1,73,41.37Z"/><path class="cls-17" d="M73,45l.38-.26c.53-.78.25-1.7-.85-2.33a5.82,5.82,0,0,0-5.28,0c-1.08.63-1.35,1.54-.83,2.31a2.8,2.8,0,0,0,.4.27A6.83,6.83,0,0,0,73,45Z"/><path class="cls-37" d="M43.88,52.45a1.69,1.69,0,0,1-1.69,1.68,1.76,1.76,0,0,1-1.76-1.7,2,2,0,0,1,1.62-1.69A1.72,1.72,0,0,1,43.88,52.45Z"/><path class="cls-38" d="M43.32,51.2a1.71,1.71,0,0,1,.16.71,1.68,1.68,0,0,1-2.81,1.25,1.68,1.68,0,1,0,2.65-2Z"/><path class="cls-38" d="M42.32,51c-.17-.12-1.09.26-.76.33s.71-.07,1.09,0S42.49,51.13,42.32,51Z"/><path class="cls-39" d="M42.08,50.92a1.2,1.2,0,0,1,1.19-1.15A1.24,1.24,0,0,1,42.08,50.92Z"/><path class="cls-40" d="M42.14,51.19s-.07-1.64.57-1.76l-.09-.25s-.59.23-.6,2Z"/><path class="cls-41" d="M47,52.71a1.68,1.68,0,0,1-1.68,1.68,1.78,1.78,0,0,1-1.77-1.71c0-.92,1-1.55,1.63-1.68A1.72,1.72,0,0,1,47,52.71Z"/><path class="cls-38" d="M46.42,51.46a1.71,1.71,0,0,1,.16.71,1.69,1.69,0,0,1-1.69,1.69,1.67,1.67,0,0,1-1.12-.44,1.68,1.68,0,1,0,2.65-2Z"/><path class="cls-38" d="M45.42,51.27c-.17-.12-1.1.26-.76.33s.7-.07,1.08,0S45.59,51.39,45.42,51.27Z"/><path class="cls-39" d="M45.18,51.18A1.19,1.19,0,0,1,46.37,50,1.25,1.25,0,0,1,45.18,51.18Z"/><path class="cls-40" d="M45.23,51.45s-.06-1.64.57-1.76l-.08-.25s-.6.23-.6,2Z"/><path class="cls-37" d="M43.25,54.56a1.69,1.69,0,0,1-1.69,1.69,1.77,1.77,0,0,1-1.76-1.71c0-.93,1-1.55,1.62-1.68A1.71,1.71,0,0,1,43.25,54.56Z"/><path class="cls-38" d="M42.69,53.32a1.71,1.71,0,0,1,.16.71A1.69,1.69,0,0,1,40,55.28a1.68,1.68,0,1,0,2.65-2Z"/><path class="cls-38" d="M41.69,53.13c-.17-.12-1.09.25-.76.33s.71-.07,1.09,0S41.86,53.25,41.69,53.13Z"/><path class="cls-39" d="M41.45,53a1.19,1.19,0,0,1,1.19-1.15A1.24,1.24,0,0,1,41.45,53Z"/><path class="cls-40" d="M41.51,53.31s-.07-1.64.57-1.77L42,51.29s-.59.23-.6,2Z"/><path class="cls-42" d="M49.22,46.15c.23,2.51,4.34,7,8.68,5.14.33-.14,1-.64-.08-1.45s-3.91,1-6.74-4.2C51.08,45.64,49,43.31,49.22,46.15Z"/><path class="cls-43" d="M58.11,50.11s-.63.17-.48.48a3.49,3.49,0,0,0,.42.62,1.44,1.44,0,0,1,.57-.38c.27,0,1.64-.23,1.64-.23L60,50.2l-1.55.13Z"/><path class="cls-44" d="M48,50.53c1.15,2.25,6.61,4.85,10,1.55.26-.26.65-.95-.61-1.32s-3.27,2.35-7.81-1.39C49.54,49.37,46.7,48,48,50.53Z"/><path class="cls-43" d="M57.73,50.9s-.53.4-.27.63a3.83,3.83,0,0,0,.61.42,1.54,1.54,0,0,1,.39-.57l1.44-.82-.4-.27L58.11,51Z"/><path class="cls-42" d="M49,54.2c1.79,1.78,7.79,2.54,9.95-1.63.17-.33.32-1.11-1-1.07s-2.38,3.26-7.86,1.13C50.06,52.63,46.94,52.19,49,54.2Z"/><path class="cls-43" d="M58.32,51.52s-.37.54-.06.68a3.69,3.69,0,0,0,.72.21,1.41,1.41,0,0,1,.19-.66c.17-.21,1.11-1.22,1.11-1.22l-.46-.14-1.11,1.09Z"/><path class="cls-45" d="M106.5,8c5.81-1.39,6.64,10.06,2.22,13.43-.77.59-3.14.06-3.31-.79-.7-3.51,4.42-7.17,1.81-10.49a2.93,2.93,0,0,1-.49-.49C106.31,9.05,105.09,8.46,106.5,8Z"/><g class="cls-1"><path d="M111.37,69.43c5.25,3,5.28,7.95,0,11s-13.71,3-19,0-5.28-8-.06-11S106.11,66.4,111.37,69.43Z"/></g><path class="cls-46" d="M88.44,30.1s1.26,1.62.11,2.72A2.12,2.12,0,0,1,88.44,30.1Z"/><path class="cls-14" d="M88.8,30.39s-2-.48-2.23-.94-1-.24-.61.27a3,3,0,0,0,1,.83,5.45,5.45,0,0,1-2.2-.78c-.34-.37-.82,1.59.16,2.24s1.92,1.54,4.55.18A2.25,2.25,0,0,0,88.8,30.39Z"/><path class="cls-5" d="M99,17s-2.12-.3-2.48,2.93-1,8.62-1,8.62l-.3.79-6.76.77a2.05,2.05,0,0,1,.11,2.72s8.93,1.5,10.61-1.52C99.16,31.3,102.46,17.05,99,17Z"/><path class="cls-7" d="M99.16,31.3c-1.68,3-10.61,1.52-10.61,1.52A1.71,1.71,0,0,0,89,31.5a52.13,52.13,0,0,0,8.42-.78c2-.62,1.6-11.91,1.52-13.72C102.44,17.13,99.16,31.3,99.16,31.3Z"/><path class="cls-5" d="M110.71,22.16s-2.35-4.43-12-5.53c0,0-1.53-.64-1.38,4.32a5.56,5.56,0,0,1-1.22,2.58,5.44,5.44,0,0,0,1.08,6.1s1.42,4.73.07,7.58c-1.2,2.55,6.43,5.34,10.44,3.83a3.63,3.63,0,0,0,1.46-4.11c-.58-2.3-2.13-4.64-1.06-8.87S111.43,24.32,110.71,22.16Z"/><path class="cls-7" d="M110.71,22.16c.72,2.16-1.5,1.66-2.59,5.9s.48,6.57,1.06,8.87a3.91,3.91,0,0,1-.79,3.58c-.41-1-.83-3.61-2.5-9.62C103.12,20.94,108,19.56,108,19.56A8.19,8.19,0,0,1,110.71,22.16Z"/><path class="cls-8" d="M99.18,40c-1.49-.8-2.37-1.83-1.9-2.83,1.35-2.85-.07-7.58-.07-7.58a5.44,5.44,0,0,1-1.08-6.1A5.56,5.56,0,0,0,97.35,21v-.07c1.41,1.44,3.42,3.23,5,3.52,2.7.51,1.7,3.64,1.66,5.17s.59,11.89.59,11.89h0Z"/><path d="M96.07,71a6,6,0,0,1-1,2.7c-.78.94-4.36,3.07-4.12,4s2.79,1.09,4.41-.5,2-1.84,2.73-2a1.64,1.64,0,0,0,1-2.49A7,7,0,0,1,96.07,71Z"/><path d="M107.17,71.43a6.26,6.26,0,0,1-1,2.88c-.8,1-4.53,3.37-4.25,4.39s3,1.08,4.65-.65,2.12-2,2.84-2.16a1.72,1.72,0,0,0,1-2.65A7.42,7.42,0,0,1,107.17,71.43Z"/><path class="cls-47" d="M97,37.91a.83.83,0,0,1,.09-.28c.25-.53.71-2.17.71-2.17,7,4,11.18.5,11.18.5,3.88,3.19,1.68,20.22,1.68,20.22,1.46,5.12.35,17.08.35,17.08-3.58,2-5,.17-5,.17l-.44-13.51-1.79-8a46.79,46.79,0,0,1-1.2-6.63C101.25,50.83,98.76,59,98.76,59c1.79,3.81.7,13.88.7,13.88a3,3,0,0,1-4.26.33c-1.09-4.56-1.71-15.67-1.71-15.67C93,50.49,96.37,39.76,97,37.91Z"/><path class="cls-47" d="M97,37.91a.83.83,0,0,1,.09-.28c.25-.53.71-2.17.71-2.17,7,4,11.18.5,11.18.5,3.88,3.19,1.68,20.22,1.68,20.22,1.46,5.12.35,17.08.35,17.08-3.58,2-5,.17-5,.17l-.44-13.51-1.79-8a46.79,46.79,0,0,1-1.2-6.63C101.25,50.83,98.76,59,98.76,59c1.79,3.81.7,13.88.7,13.88a3,3,0,0,1-4.26.33c-1.09-4.56-1.71-15.67-1.71-15.67C93,50.49,96.37,39.76,97,37.91Z"/><path class="cls-48" d="M110.64,56.18c1.46,5.12.35,17.08.35,17.08a7.46,7.46,0,0,1-2.32.86c1.48-7.21-.18-18.29-.18-18.29.88-2.9,2.36-12.74.47-19.87C113.09,39.45,110.64,56.18,110.64,56.18Z"/><path class="cls-49" d="M106,73.43l-.44-13.51-1.79-8a46.79,46.79,0,0,1-1.2-6.63c-.16.67-.33,1.37-.52,2.09-.18-2.5-.14-4.7-.14-4.7L97.37,36.8c.21-.64.41-1.34.41-1.34a12.14,12.14,0,0,0,7.7,1.85c.25.54.53,1.2.83,2,1.28,3.52.23,12.15,0,14s1.47,8,1.85,13.79a14.28,14.28,0,0,1-1.05,7A2.24,2.24,0,0,1,106,73.43Z"/><path class="cls-48" d="M99.46,72.91a3.49,3.49,0,0,1-1.1.86C98.05,68.38,96.8,62,96.8,58c0-2.71,3.77-13.14,5.11-15.38l.66,2.61-.36,1.47c-1.1,4.82-3.45,12.3-3.45,12.3C100.55,62.84,99.46,72.91,99.46,72.91Z"/><path class="cls-49" d="M93.49,57.57C93,50.49,96.37,39.76,97,37.91a.83.83,0,0,1,.09-.28c.25-.53.71-2.17.71-2.17.27.16.54.3.81.44l1.17,1.75s-4.47,10.2-4.61,14.61C95,55.84,95,67.4,95.94,73.7a3.21,3.21,0,0,1-.74-.46C94.11,68.68,93.49,57.57,93.49,57.57Z"/><path class="cls-15" d="M85.49,30.44s.27,5,5,5a4.66,4.66,0,0,0,5-5Z"/><path class="cls-16" d="M94,28.4c1.94,1.13,2,2.94,0,4.07a7.73,7.73,0,0,1-7,0c-1.95-1.13-2-2.94,0-4.07A7.75,7.75,0,0,1,94,28.4Z"/><path class="cls-17" d="M94,32.47a2.74,2.74,0,0,0,.43-.3c.6-.88.28-1.92-1-2.64a6.61,6.61,0,0,0-6,0c-1.22.71-1.53,1.75-.94,2.63a4.1,4.1,0,0,0,.46.31A7.73,7.73,0,0,0,94,32.47Z"/><path class="cls-46" d="M97.09,32.24s.92,1.84-.43,2.69A2.13,2.13,0,0,1,97.09,32.24Z"/><path class="cls-14" d="M97.39,32.6s-1.84-.86-2-1.36-.9-.42-.65.15a3,3,0,0,0,.81,1,5.3,5.3,0,0,1-2-1.2c-.27-.42-1.12,1.4-.29,2.23s1.59,1.89,4.43,1.07A2.26,2.26,0,0,0,97.39,32.6Z"/><path class="cls-5" d="M110,21.45s-2-.71-3,2.38l-2.65,8.26-.45.72-6.78-.57a2.05,2.05,0,0,1-.43,2.69s8.47,3.22,10.71.58C107.37,35.51,113.39,22.19,110,21.45Z"/><path class="cls-7" d="M107.37,35.51c-2.24,2.64-10.71-.58-10.71-.58a1.66,1.66,0,0,0,.74-1.2c2.53.4,6.84,1,8.41.88,2.09-.21,3.91-11.37,4.19-13.15C113.36,22.26,107.37,35.51,107.37,35.51Z"/><path class="cls-12" d="M98.89,14.42a4.64,4.64,0,0,1,.59,4.24c-.27.58-1,3,2.77,2.26,0,0,4-1.64,2.93-2.89-.71-.83-1.37-2,.07-5.89Z"/><path class="cls-13" d="M105.18,18a.62.62,0,0,1,.16.4,7,7,0,0,1-5.81-2.24l4.88-3.7h0s.23.17.55.46C103.91,16.19,104.52,17.26,105.18,18Z"/><path class="cls-14" d="M100,7.43s-1,.26-1.28,3.21c0,.32-.59.71-.78,1.51s-.64,4.08,1.24,4.57a5.86,5.86,0,0,0,6.22-3.46C106.83,10,104.34,5.56,100,7.43Z"/><path class="cls-50" d="M106.5,8a3.48,3.48,0,0,1,1.93,0,3.53,3.53,0,0,1-.54,3.47,3.2,3.2,0,0,0-.67-1.36,2.93,2.93,0,0,1-.49-.49C106.31,9.05,105.09,8.46,106.5,8Z"/><path class="cls-45" d="M100.27,6.08c1.41-1.2,3.13-.94,4.79-.4A4.27,4.27,0,0,1,108,9.09c.06,2-.59,4.5-2.91,5.67-.87.43.6-1.66-.54-1.77-.36,0-.47-.64-.73-.74-.19.09-1.64-.69-3.2-1.23-.11,0-.26-1-.37-1s-.26.8-.4.76a6.66,6.66,0,0,1-1.38-.69C98.08,8.63,99.27,6.93,100.27,6.08Z"/><path class="cls-14" d="M104.21,12.37c-.53.48-.73,1.12-.44,1.44s1,.18,1.48-.3.72-1.13.43-1.44S104.73,11.88,104.21,12.37Z"/><path class="cls-51" d="M30.26,56.09s-.74,1.58-3.43,1.1S10.47,54,7.24,52.79s.24-3.1,3.59-2.93S29.34,51.63,30.26,56.09Z"/><path class="cls-52" d="M27.58,53.4a3.41,3.41,0,0,0-2.22,2s-.74-.9.85-2.57Z"/><path class="cls-52" d="M22.24,51.55s-2.17.68-2.62,2.16c0,0-.75-.91.84-2.57Z"/><path class="cls-52" d="M15.81,50.37s-2.43.87-2.88,2.34c0,0-.75-.91.84-2.57Z"/><path class="cls-35" d="M37.7,45.16a3.11,3.11,0,0,1,0,.32,1.83,1.83,0,0,1-.06.25c0,.1-.05.2-.09.3a2.29,2.29,0,0,1-.1.23,2.12,2.12,0,0,1-.14.31c0,.07-.09.14-.13.22l-.23.34a4,4,0,0,1-.26.32l-.07.08a5.28,5.28,0,0,1-.41.41l-.3.24-.27.22-.35.23-.38.25a8.93,8.93,0,0,1-.93.46l-.28.12a6.43,6.43,0,0,1-.77.29l-.28.1-.5.14-.39.11-.54.11-.37.08c-.37.07-.74.12-1.11.16l-.37,0-.65,0H27.27l-.5,0-.45,0-.49-.06-.44-.06-.51-.09-.42-.08-.6-.15-.34-.09c-.36-.11-.71-.22-1.05-.36L22,49.36l-.24-.11c-.25-.11-.49-.24-.72-.37-1.93-1.12-2.9-2.59-2.89-4.05,0,4,0,7.89,0,11.84,0,1.46,1,2.93,2.9,4,.23.13.47.25.72.37l.25.11.44.19.06,0c.34.14.69.25,1,.36l.08,0,.26.06.6.15.16,0,.25,0,.52.09.21,0,.22,0,.5.06.23,0h.22a4.19,4.19,0,0,0,.5,0h.24a1.47,1.47,0,0,0,.21,0c.18,0,.36,0,.54,0h.42l.66,0,.27,0h.08c.38,0,.75-.1,1.12-.16h0l.3-.06.56-.12.38-.1.51-.15.11,0,.17-.06c.26-.09.52-.19.77-.3l.28-.12a8.1,8.1,0,0,0,.93-.47l.12-.07c.09,0,.16-.11.25-.17l.35-.23.28-.22.3-.24.06-.06a3.85,3.85,0,0,0,.35-.35l.06-.07c.07-.08.14-.15.2-.23a.61.61,0,0,1,.07-.1c.08-.11.15-.23.22-.34l.1-.15s0,0,0-.07l.14-.3c0-.06.06-.12.08-.18l0-.06a1.67,1.67,0,0,0,.08-.3,1.39,1.39,0,0,0,.06-.19.13.13,0,0,1,0-.06c0-.1,0-.21,0-.31l0-.2v-.08l0-11.84C37.72,45,37.7,45.07,37.7,45.16Z"/><path class="cls-53" d="M34.83,40.84c3.84,2.22,3.86,5.82,0,8a15.31,15.31,0,0,1-13.87,0c-3.84-2.22-3.86-5.82,0-8A15.31,15.31,0,0,1,34.83,40.84Z"/><path class="cls-36" d="M34.87,48.88A8.73,8.73,0,0,0,36.05,48c.8-1.65.07-3.5-2.19-4.8a13.16,13.16,0,0,0-12,0C19.68,44.52,19,46.34,19.73,48a8.61,8.61,0,0,0,1.27.9A15.31,15.31,0,0,0,34.87,48.88Z"/></svg>