<?xml version="1.0" encoding="utf-8"?>
<!-- Generator: Adobe Illustrator 24.1.1, SVG Export Plug-In . SVG Version: 6.00 Build 0)  -->
<svg version="1.1" id="layer1" xmlns="http://www.w3.org/2000/svg" xmlns:xlink="http://www.w3.org/1999/xlink" x="0px" y="0px"
	 viewBox="0 0 90.6 90.8" style="enable-background:new 0 0 90.6 90.8;" xml:space="preserve">
<style type="text/css">
	.sta0{opacity:0.1;enable-background:new    ;}
	.sta1{fill:#A3805A;}
	.sta2{fill:#DDB786;}
	.sta3{fill:#826243;}
	.sta4{fill:#BF9B71;}
	.sta5{fill:#FDDBAA;}
	.sta6{fill:#DDB787;}
	.sta7{opacity:0.1;}
	.sta8{fill:#BAD1DE;}
	.sta9{fill:#EFB185;}
	.sta10{fill:#E6A376;}
	.sta11{fill:#8D5B8B;}
	.sta12{fill:#AA6FAD;}
	.sta13{fill:#111114;}
	.sta14{fill:#0A0A0A;}
	.sta15{fill:#1A74C2;}
	.sta16{fill:#278DD8;}
	.sta17{fill:#DD9569;}
	.sta18{fill:#F2B78F;}
	.sta19{fill:#231202;}
	.sta20{fill:#F9CBAC;}
	.sta21{fill:#17A89F;}
	.sta22{fill:#149386;}
	.sta23{fill:#1772CC;}
	.sta24{fill:#2180F2;}
	.sta25{fill:#221101;}
	.sta26{fill:#341C09;}
</style>
<polygon class="sta0" points="90.6,50 63,34 42,46.2 27.4,37.8 0,53.7 27.6,69.7 56.7,53.2 72.5,60.9 "/>
<polygon class="sta1" points="56.8,38.3 56.7,53.2 43.5,60.9 43.5,46 "/>
<polygon class="sta2" points="56.8,38.3 56.7,53.2 43.5,60.9 43.5,46 "/>
<polygon class="sta3" points="51.4,41.4 51.4,44.3 48.8,45.8 48.8,42.9 "/>
<polygon class="sta4" points="43.5,46 43.5,60.9 30.1,53.2 30.1,38.3 "/>
<polygon class="sta5" points="56.8,38.3 43.5,46 30.1,38.3 43.4,30.6 "/>
<polygon class="sta6" points="30.1,53.2 43.5,46 30.1,38.3 "/>
<polygon class="sta1" points="35.5,42.2 35.4,57.2 22.1,64.9 22.2,50 "/>
<polygon class="sta2" points="35.5,42.2 35.4,57.2 22.1,64.9 22.2,50 "/>
<polygon class="sta3" points="30.1,45.4 30.1,48.3 27.5,49.8 27.5,46.9 "/>
<polygon class="sta4" points="22.2,50 22.1,64.9 8.8,57.2 8.8,42.2 "/>
<polygon class="sta5" points="35.5,42.2 22.2,50 8.8,42.2 22.1,34.5 "/>
<polygon class="sta6" points="8.8,57.2 22.2,50 8.8,42.2 "/>
<polygon class="sta1" points="89.7,35.7 89.7,50.6 76.4,58.3 76.5,43.4 "/>
<polygon class="sta2" points="89.7,35.7 89.7,50.6 76.4,58.3 76.5,43.4 "/>
<polygon class="sta3" points="84.4,38.8 84.4,41.8 81.8,43.3 81.8,40.3 "/>
<polygon class="sta4" points="76.5,43.4 76.4,58.3 63.1,50.6 63.1,35.7 "/>
<polygon class="sta5" points="89.7,35.7 76.5,43.4 63.1,35.7 76.4,28 "/>
<polygon class="sta6" points="63.1,50.6 76.5,43.4 63.1,35.7 "/>
<g class="sta7">
	<path d="M32.7,75.1c6.2,3.6,6.2,9.4,0.1,13s-16.2,3.6-22.4,0s-6.3-9.4-0.1-13S26.5,71.5,32.7,75.1z"/>
</g>
<g class="sta7">
	<path d="M66.3,68.2c5.5,3.2,5.5,8.3,0.1,11.5s-14.3,3.2-19.8,0s-5.6-8.3-0.1-11.5S60.8,65,66.3,68.2z"/>
</g>
<path class="sta8" d="M72.8,35.2c0.5-0.9,1.4-1.4,2.4-1.4C74.9,34.9,73.9,35.5,72.8,35.2z"/>
<path class="sta9" d="M74.6,33.1c0.6,0.8,1.2,1.6,1.7,2.4c0.2,0.5,0.8,2.7-0.3,4.2c-0.6,0.8-0.9-0.3-1.1-1.8c0.1-0.7-0.3-1.4-0.9-1.9
	c-0.7-0.6-1.2-1.3-1.6-2.1C72.2,33.5,74.6,33.1,74.6,33.1z"/>
<path class="sta10" d="M72.5,34.1c0.5,0.7,0.9,1.5,1.2,2.3c0.2,1,1.2,0.9,1.3,1.5c0.1,1.1,0.4,2.1,0.7,2c-0.2-0.8,0.8-1.5-0.3-3.5
	c-0.7-1-1.5-2-2.4-2.8C72.5,33.9,72.4,33.9,72.5,34.1z"/>
<path class="sta9" d="M73.1,33.7c0,0,0.3,2.8,0.6,3.6s0.7,1.3,0.8,1.1s-0.4-2.6,0.5-2.6C75.4,35.8,73.2,34.1,73.1,33.7z"/>
<path class="sta11" d="M66.3,11.5c0,0,2.8-0.6,3.9,4.8s1.2,7.6,2,9.5s3,8,3,8c-1,0.1-1.9,0.6-2.4,1.4c0,0-4.6-7.5-5.5-10.8
	S63.5,13,66.3,11.5z"/>
<path class="sta12" d="M72.3,25.9c-0.8-1.9-0.9-4-2-9.5c-0.9-4.5-2.2-4.9-3.2-5.1c-2.6,1.7,0.9,10,1.8,13.3c0.7,2.5,3.3,7.5,4.6,10
	c0.5-0.4,1.2-0.6,1.8-0.7C75.2,33.9,73.1,27.7,72.3,25.9z"/>
<path class="sta13" d="M57.6,67.6c0,0-0.8,1.9,0,2.4s0.9,1,2.2,0.9s1.1,0.3,1.6,0.8s5.1,2.5,5.9,1.5s-1.6-2.1-2.4-2.7s-2.9-2.8-3-3.5
	S57.6,67.6,57.6,67.6z"/>
<path class="sta14" d="M57.6,70c0.8,0.5,0.9,1,2.2,0.9s1.1,0.3,1.6,0.8s5.1,2.5,5.9,1.5c0.2-0.3,0.2-0.7-0.1-1l-1.3,0.2
	c-1.4,0.2-3.1-1.3-3.8-1.9s-1.5-0.3-2.7-0.6s-1-2-1-2l-0.9-0.3C57.4,68.2,56.9,69.6,57.6,70z"/>
<path class="sta13" d="M49.3,73.8c0,0-0.3,2.3,0.5,3.5s2.8,3.3,3.6,3.2s1-0.5,1-0.5c0.2-1.2,0.1-2.5-0.3-3.7
	c-0.3-0.8-0.5-1.7-0.6-2.6H49.3z"/>
<path class="sta14" d="M49.8,77.3c0.8,1.1,2.3,2.8,3.3,3.2c-1.2-1.6,0.6-1.3-0.8-2c-1.9-1-0.7-1.9-1.5-2.1S50.6,74,50.6,74l-0.5-0.2
	h-0.8C49.3,73.8,49,76.1,49.8,77.3z"/>
<path class="sta15" d="M59.1,37.7c0,0,4.1-0.9,5.4-3.8c0.2,4.6,0,9.1-0.4,13.7c-0.8,7.4-1.4,20.3-1.4,20.3c-1.4,1.4-3.7,1.4-5.1,0
	c0,0-0.7-8.5,0-13.3c0,0-0.5-8.3,0.3-12.4S59.1,37.7,59.1,37.7z"/>
<path class="sta16" d="M62.7,67.9c0,0,0.6-12.9,1.4-20.3c0.5-4.8,0.6-9.6,0.4-14.4c-1,1.9-2.6,3.3-4.6,4.1c0.1,2.8,0.5,10.9,0.5,13.7
	s-0.5,13.4-0.8,18C60.7,69,61.8,68.7,62.7,67.9z"/>
<path class="sta15" d="M50.3,36.3c0,0-0.4,4.8-0.5,11.4c0,3.4-0.2,6.8-0.8,10.2c-0.4,5.1-0.5,10.3-0.4,15.5c0,0,2.1,3.3,5.4,0
	c0,0,0.6-11.5,1.1-14.1s3.7-15.3,5-19.8c0.6-2,0.7-2.8,0.7-2.8S55.4,40.4,50.3,36.3z"/>
<path class="sta16" d="M54,73.5c0,0,0.6-11.5,1.1-14.1s3.7-15.3,5-19.8c0.5-1.4,1.2-2.6,2.2-3.7c0,0-3.9,2.7-7.1,2.7
	c-0.1,1-1.5,10.3-1.8,14.4s-3.1,18.3-2.3,21.9C52.2,74.9,53.3,74.3,54,73.5z"/>
<path class="sta11" d="M60.2,11.1c-1.7,0.4-6.4,2-6.6,2.4s-1.9,1.3-0.7,6.8c0,0,1.9,6.1-0.5,11.4c-1.4,3.1-2,3-2.1,4.4
	c-0.2,2.5,5.7,4.2,9.4,3.2c1.5-0.4,3.9-1.2,5-2.7c0.5-3.7,1.3-7.4,2.5-11c1.9-5.4,3.7-12.6,0.7-14.1C67.8,11.5,65.5,9.8,60.2,11.1z"
	/>
<path class="sta12" d="M64.6,36.6c0.5-3.7,1.3-7.4,2.5-11c1.6-4.5,3.1-10.2,1.8-12.9c-1.4,0.8-2.6,2-3.3,3.4
	c-0.9,2.3-3.8,3.2-5.3,3.3s-3,2.2-2.3,5.7c1.8,8.3-0.4,11.1-3.9,14c1.8,0.5,3.7,0.6,5.5,0.2C61.2,39.1,63.6,38.1,64.6,36.6z"/>
<path class="sta16" d="M52.3,32c0,0-2,1.4-2.1,5.8c0,0,3.4,2.9,9.8,2.2c0.4,0,0.2,1.4,0.5,1.3c1.7-0.2,3.3-1.3,4.1-2.8l0.2-3.6
	C64.8,34.9,54.7,38.4,52.3,32z"/>
<path class="sta15" d="M52.5,31.5c0.6,1.8,2.1,3.2,3.9,3.7l-1.4,4.7c-1.8-0.3-3.5-0.9-4.9-2C50,33.4,52.5,31.5,52.5,31.5z"/>
<path class="sta9" d="M60.1,6.7c0,0,1.1,3.1-0.8,4.6c-1,0.8,0.2,3.7,3.4,4.3c0,0,1.5,0,1.5-0.5c0-1,0.5-1.9,1.3-2.5
	C66.3,11.7,60.1,6.7,60.1,6.7z"/>
<path class="sta17" d="M59.4,11.3c-0.1,0.1-0.2,0.2-0.3,0.4c1.2-0.5,2.5-0.7,3.8-0.4l-2.2-4L60.4,7l-0.2,0.3
	C60.5,8.2,60.8,10.2,59.4,11.3z"/>
<path class="sta18" d="M64.3,15c0.2-1.9,0.6-1.8,1.3-2.5c0.2-0.2-0.1-0.7-0.7-1.4c-0.2,0.1-0.5,0.3-0.7,0.4c-1.2,1-1.9,2.4-2.1,3.9
	c0.2,0.1,0.4,0.1,0.7,0.2C63.2,15.6,64.2,15.6,64.3,15z"/>
<path class="sta9" d="M59.8,5c0,0-0.1,3.7,1.9,6c1.8,2,4.1,3.5,5.2,1c0.9-2,3.2-6.9,1.6-8.4c-2-1.9-2.4-3.8-5.4-3.5
	C63.2,0.1,59.8,0.8,59.8,5z"/>
<path class="sta10" d="M59.8,5c-0.2,2.2,0.5,4.3,1.9,6c0.5,0.6,1.1,1.1,1.8,1.6c-0.7-0.8-1.2-1.7-1.6-2.6c-0.6-1.3,1.5-0.3,0.6-3.3
	c-0.3-1,1.9,0.7,2.5,0.9c3.3,0.7,3.6-1.2,3.8-2c0-0.4,0-0.7,0-1.1l-0.2-0.7c0-0.1,0-0.1-0.1-0.2c-0.2-0.5-0.5-1-0.8-1.5
	c-1.5-0.4-5.5-1.3-5.6-1.3s-1,0.8-1.9,1.5C60,3.2,59.8,4.1,59.8,5z"/>
<path class="sta19" d="M60.5,8.8c-1.2-2-1.3-4.4-0.3-6.5C61,0.7,62.8-0.3,64.7,0c2.4,0.3,4.2,2.2,4.5,4.5C69.4,5.9,68.4,8.9,65,7
	c-0.5-0.3-1.5-2.2-2.1-1.9c-0.6,0.4-1,1.2-0.8,2c0,0.7-0.5,0.6-0.6,0.5S61.2,5.4,60.4,6S60.4,8.7,60.5,8.8z"/>
<path class="sta19" d="M60.6,9.1c0-0.1-1-2.7-0.2-3.2s1.1,1.4,1.2,1.6S62.1,7.7,62,7c-0.1-0.8,0.2-1.6,0.8-2c0.6-0.3,1.4,0.5,1.9,0.9
	c-0.7-0.7-1.1-1.6-1.3-2.6c-0.1-1.1-0.7-2.1-1.6-2.8c-0.7,0.4-1.3,1-1.6,1.8C58.8,4.5,59,7.2,60.6,9.1z"/>
<polygon class="sta1" points="84,27.5 84,42.5 70.7,50.2 70.7,35.2 "/>
<polygon class="sta2" points="84,27.5 84,42.5 70.7,50.2 70.7,35.2 "/>
<polygon class="sta3" points="78.7,30.7 78.7,33.6 76.1,35.1 76.1,32.2 "/>
<polygon class="sta4" points="70.7,35.2 70.7,50.2 57.3,42.5 57.4,27.5 "/>
<polygon class="sta5" points="84,27.5 70.7,35.2 57.4,27.5 70.7,19.8 "/>
<polygon class="sta6" points="57.3,42.5 70.7,35.2 57.4,27.5 "/>
<path class="sta20" d="M59.8,33.8c0,0,2.5,0.5,3,0.1s1.2,0.2,0.5,0.6c-0.5,0.2-1,0.4-1.5,0.4c0,0,2.8,0.9,3.3,0.2s-0.3,2.3-1.7,2.5
	s-2.9,0.7-5.2-2.1C58.4,34.7,59,34.1,59.8,33.8z"/>
<path class="sta12" d="M55.3,13.6c0,0,2.5,0.8,1.3,4.6l-3.4,10.1l-0.1,1l7.2,4.3c0,0-2.2,1-1.5,3c0,0-10.8-2.9-11.1-7.2
	C47.7,29.5,51.3,11.8,55.3,13.6z"/>
<path class="sta11" d="M47.7,29.5c0.3,4.3,11.1,7.2,11.1,7.2c-0.2-0.6-0.2-1.2,0.1-1.7c-2.8-1.4-7.6-3.9-9-5.2
	C48,28,54.2,15.6,55.3,13.6C51.3,11.9,47.7,29.5,47.7,29.5z"/>
<path class="sta21" d="M15.6,16.6c0,0,2.4-1.9,5.2,1.5c1.8,2.3,3.6,4.7,5.1,7.1l10,0.6c0,0,1,1.7,0.3,2.8c0,0-9.6,2.1-13.1,0.3
	C23.2,29,9.6,20.1,15.6,16.6z"/>
<path class="sta9" d="M36.2,26.2c0.9-0.6,1.8-1,2.9-1.3c0.7-0.1,1.3,0,1.9,0.3c0.3,0.1-0.9,0.4-1.3,0.5s-1,0.8,1.3,1.1
	s1.8,0.5,1.6,0.6s-3.7,1.8-6.3,1C36.6,27.6,36.5,26.9,36.2,26.2z"/>
<path class="sta22" d="M23.2,29c3.4,1.7,13.1-0.3,13.1-0.3c0.2-0.3,0.3-0.6,0.3-1c-2,0.2-7.8,0.8-11.2,0.8c-4.1,0-10.7-10.9-10.6-11
	C11.4,21.2,23.2,29,23.2,29z"/>
<polygon class="sta1" points="23.8,23.1 23.8,37.4 36.5,44.8 36.5,30.5 "/>
<polygon class="sta2" points="23.8,23.1 23.8,37.4 36.5,44.8 36.5,30.5 "/>
<polygon class="sta3" points="28.9,26.1 28.9,28.9 31.4,30.3 31.4,27.6 "/>
<polygon class="sta4" points="36.5,30.5 36.5,44.8 49.2,37.4 49.2,23.1 "/>
<polygon class="sta5" points="23.8,23.1 36.5,30.5 49.2,23.1 36.5,15.8 "/>
<polygon class="sta6" points="49.2,37.4 36.5,30.5 49.2,23.1 "/>
<path class="sta13" d="M17.2,75.7c0,0,1.6,0.3,1.2,1.2s-2.3,2.4-2.5,3s-1.8,2.7-2.3,2.5s-1.8,0.1-1.6-2.3S15,75.6,17.2,75.7z"/>
<path class="sta13" d="M20.3,84.6c0,0-0.8,2.3,1.2,2.9s1.4-0.7,5.7,0.4s4.8-1.1,4.7-1.6s-3-1.4-3.9-1.6l-2.7-0.7h-5.1L20.3,84.6z"/>
<path class="sta23" d="M12.2,43.9c0,0,0,14,0,15.6s-1.8,14-0.7,19.5c0,0,3,3.1,5.8,0c0,0,0.9-15.6,1.6-19.1s0.5-14.3,0.5-14.3
	L12.2,43.9z"/>
<path class="sta23" d="M17.6,45.9c0,0,0.7,9,1.4,18c0,0,0.4,17.8,0.9,20.4c0,0,5.7,1.4,6.3-1.3c0,0-0.1-15.7,0-19s0.9-13.5-0.4-18.8
	S17.6,45.9,17.6,45.9z"/>
<path class="sta24" d="M19.9,84.3C19.4,81.7,19,63.9,19,63.9c-0.5-6-1-13.1-1.3-16.5l3.9,0.8c1.5,5.8,2.1,11.9,1.9,17.9
	c-0.3,7.8-0.4,15.5-0.5,18.5C22,84.6,20.9,84.5,19.9,84.3z"/>
<path class="sta24" d="M11.5,78.9c-1.1-5.4,0.7-17.9,0.7-19.5s0-14.3,0-15.5l3.1,2.4c0,0,1,10,0,15.7c-0.9,5.2-0.3,15.3-0.8,18.2
	C13.4,80.2,12.3,79.7,11.5,78.9z"/>
<path class="sta21" d="M16.3,16.4c0,0-3.4,1-2.7,6.6s1.4,9.3,0.9,11.3s-2.4,9.2-3,10.5c0,0-0.7,2.2,7.6,5c0,0,7.5,2.3,7.2-3.3
	s1.9-11.4,2.5-13.4s2.6-6-2-9.8S19.7,16.9,16.3,16.4z"/>
<path class="sta9" d="M20.5,14.5c-0.1,1.6-0.6,3.1-1.5,4.4c-1.2,1.4,5.1,4.1,5.5,2.7c-0.4-1.9,0.1-3.8,1.4-5.3
	C27,14.9,20.5,14.5,20.5,14.5z"/>
<path class="sta17" d="M19,19c0.8-1.2,1.3-2.5,1.4-3.9l4.3,3.3l0,0c-0.2,0-3.6,0.2-4.7,2.4C19.2,20.2,18.6,19.5,19,19z"/>
<path class="sta9" d="M28.8,8.4c0.3,1.6,0.3,3.3-0.1,4.8c-0.7,2.3-0.4,2.8-0.8,3.9c-0.1,0.6-0.4,1.1-0.8,1.4
	c-0.9,0.6-2.4,0.5-4.3-0.6c-2.3-1.4-4.2-5.2-2.6-8S25.6,5.3,28.8,8.4z"/>
<path class="sta10" d="M19.8,13.3c1.5-2.5,4.5-5.3,4.5-5.5c0.6-0.4,1.3-0.6,1.9-0.8c1,0.3,1.8,0.8,2.5,1.5C28.9,9,29,9.6,29,10.2
	c-0.7,0.5-2,1.1-2.3,1.6c-0.6,1.3-0.8,2.8-0.6,4.2c0.2,0.9-1.6,1.9-1.4,2.7c0,0,0,0.1,0,0.1c-0.6-0.2-1.2-0.4-1.8-0.8
	C21.2,16.9,20.1,15.2,19.8,13.3z"/>
<path class="sta25" d="M29.7,7.6c-0.1,1.4-1.1,2.5-2.4,2.9c-1.4,0.4-1.7,2.5-1.7,2.9c0,0.8,0,1.6-0.2,2.4c-0.4,0.4-1.1-1.2-1.6-1.1
	c-1.3,0-1,1.2-0.1,2.6s-2.3,1.4-3.5,0.1c-0.6-0.7-0.9-1.1-1.5-3.3c-0.9-3.2-0.3-6.6,3.5-7.8S27.4,8,29.7,7.6z"/>
<path class="sta26" d="M20.3,17.2c-0.6-0.7-0.9-1.1-1.5-3.3c-0.9-3.2-0.3-6.6,3.5-7.8s5.2,1.8,7.5,1.4c0,0.3-0.1,0.6-0.2,0.9
	c-1.1,0-4.2,0-5.2,1.1c-1.2,1.4-2.2,0.7-2.5,2.6s-1.2,4.3,1.7,5.9C22.4,18.5,21.1,18.1,20.3,17.2z"/>
<path class="sta21" d="M24.4,20.6l1.8,2.2c0,0-7,0.6-8.3-3c-0.1-1,0.6-1.9,1.6-2.1C19.5,17.8,19.2,20.5,24.4,20.6z"/>
<path class="sta22" d="M26.2,46.5c-0.3-5.7,1.9-11.4,2.5-13.4s2.6-5.9-1.9-9.7c-2,0.7-4.9,2.5-4.2,6.7c0.9,5.1-0.5,15.6-1,20.2
	C23.7,50.4,26.4,50,26.2,46.5z"/>
<path class="sta21" d="M24.9,24.5c0,0,2.5-1.1,4.3,2.4c1.2,2.4,2.2,4.8,3.1,7.3l8.8,2.6c0,0,0.5,1.7-0.3,2.5c0,0-8.9-0.1-11.6-2.3
	C29,36.9,18.9,26.3,24.9,24.5z"/>
<path class="sta9" d="M41,37.1c0.9-0.3,1.8-0.5,2.8-0.5c0.6,0.1,1.2,0.3,1.6,0.6c0.2,0.2-0.9,0.2-1.2,0.2s-1,0.5,1,1.2
	s1.4,0.8,1.3,0.9s-3.7,0.8-5.7-0.3C41.1,38.4,41.2,37.7,41,37.1z"/>
<path class="sta22" d="M29,36.9c2.7,2.2,11.6,2.3,11.6,2.3c0.2-0.2,0.4-0.5,0.4-0.8c-1.8-0.2-7.1-0.9-10-1.6
	C27.5,35.9,23.8,25,23.9,25C20.2,27.7,29,36.9,29,36.9z"/>
</svg>
