<svg width="85" height="80" viewBox="0 0 85 80" fill="none" xmlns="http://www.w3.org/2000/svg">
<path fill-rule="evenodd" clip-rule="evenodd" d="M42.4998 4.13989C64.0159 4.13989 81.4582 20.3178 81.4582 40.2743C81.4582 60.2309 64.0159 76.4088 42.4998 76.4088C20.9837 76.4088 3.5415 60.2309 3.5415 40.2743C3.5415 20.3178 20.9837 4.13989 42.4998 4.13989ZM10.8574 36.6852C11.8899 37.9109 14.7609 39.4793 19.1541 40.7589C20.8839 41.2627 22.7784 41.7056 24.8112 42.0818C24.7981 41.4828 24.7915 40.8802 24.7915 40.2743C24.7915 29.3432 26.9362 19.4718 30.6514 12.8197C20.0603 16.7555 12.2763 25.8107 10.8574 36.6852ZM25.2489 48.8508C19.5616 47.9339 14.6851 46.5462 10.9895 44.7608C12.7086 55.2346 20.353 63.902 30.6514 67.729C27.9389 62.8722 26.0635 56.2993 25.2489 48.8508ZM32.5085 49.7262C35.6857 49.9917 39.0321 50.1292 42.4998 50.1292C45.9116 50.1292 49.2731 49.9498 52.506 49.6172C50.9085 61.435 46.4913 69.8389 42.4998 69.8389C38.5207 69.8389 34.1184 61.4867 32.5085 49.7262ZM53.0763 42.9171C49.7133 43.3211 46.1408 43.5593 42.4998 43.5593C38.8015 43.5593 35.2515 43.3894 31.9291 43.0673C31.8933 42.1486 31.8748 41.217 31.8748 40.2743C31.8748 23.797 37.5188 10.7098 42.4998 10.7098C47.4808 10.7098 53.1248 23.797 53.1248 40.2743C53.1248 41.1657 53.1083 42.0471 53.0763 42.9171ZM59.7804 48.575C58.9822 56.137 57.0942 62.8124 54.3483 67.729C64.8285 63.8344 72.5601 54.9271 74.0957 44.2045C70.3409 46.016 65.3957 47.5307 59.7804 48.575ZM74.1216 36.5299C72.4551 38.265 67.1983 40.326 60.1948 41.7661C60.2037 41.2712 60.2082 40.7739 60.2082 40.2743C60.2082 29.3432 58.0635 19.4718 54.3483 12.8197C64.889 16.7367 72.6492 25.7245 74.1216 36.5299Z" fill="#056839"/>
</svg>
