<svg width="85" height="79" viewBox="0 0 85 79" fill="none" xmlns="http://www.w3.org/2000/svg">
<path fill-rule="evenodd" clip-rule="evenodd" d="M77.9168 65.6989V42.7043H70.8335V65.6989H14.1668V13.1397H38.9585V6.56982H14.1668C10.2548 6.56982 7.0835 9.51127 7.0835 13.1397V65.6989C7.0835 69.3274 10.2548 72.2688 14.1668 72.2688H70.8335C74.7455 72.2688 77.9168 69.3274 77.9168 65.6989ZM67.9226 8.94623C66.2992 7.42858 64.0763 6.56982 61.7574 6.56982C59.4412 6.56982 57.2207 7.42664 55.588 8.95019L25.9482 36.4413C23.2996 38.6058 21.5634 41.8267 21.2617 45.2905L21.2502 55.8517V59.1367H35.8935C39.9109 58.8811 43.4175 57.2549 45.8913 54.6081L75.3633 27.2842C76.9984 25.7676 77.917 23.7107 77.917 21.5659C77.917 19.4211 76.9984 17.3642 75.3633 15.8476L67.9226 8.94623ZM35.6434 52.575C37.5355 52.4507 39.2967 51.634 40.7109 50.1336L62.1803 30.2204L52.4255 21.1722L30.7989 41.2247C29.3639 42.4018 28.4763 44.0486 28.3335 45.555V52.5688L35.6434 52.575ZM57.435 16.5273L67.1889 25.5748L70.3546 22.6386C70.6614 22.3541 70.8337 21.9682 70.8337 21.5659C70.8337 21.1636 70.6614 20.7777 70.3546 20.4932L62.9041 13.5827C62.6009 13.2992 62.1881 13.1397 61.7574 13.1397C61.3268 13.1397 60.914 13.2992 60.6107 13.5827L57.435 16.5273Z" fill="#056839"/>
</svg>
