<svg width="86" height="81" viewBox="0 0 86 81" fill="none" xmlns="http://www.w3.org/2000/svg">
<path fill-rule="evenodd" clip-rule="evenodd" d="M43.0002 77.3701C21.2309 77.3701 3.5835 61.0019 3.5835 40.8106C3.5835 20.6193 21.2309 4.25098 43.0002 4.25098C64.7694 4.25098 82.4168 20.6193 82.4168 40.8106C82.4168 61.0019 64.7694 77.3701 43.0002 77.3701ZM69.515 57.8428C73.1311 53.0092 75.2502 47.1394 75.2502 40.8106C75.2502 24.2904 60.8113 10.8982 43.0002 10.8982C25.189 10.8982 10.7502 24.2904 10.7502 40.8106C10.7502 47.1394 12.8693 53.0092 16.4853 57.8428C20.5182 52.902 29.9948 50.7814 43.0002 50.7814C56.0055 50.7814 65.4822 52.902 69.515 57.8428ZM64.3736 63.2108C63.3248 59.713 55.7905 57.4285 43.0002 57.4285C30.2099 57.4285 22.6755 59.713 21.6267 63.2108C27.317 67.8852 34.8013 70.7229 43.0002 70.7229C51.1991 70.7229 58.6834 67.8852 64.3736 63.2108ZM43.0002 20.869C34.3253 20.869 28.6668 26.7044 28.6668 34.1634C28.6668 45.5546 34.9766 50.7814 43.0002 50.7814C50.9483 50.7814 57.3335 45.7282 57.3335 34.8281C57.3335 27.2555 51.651 20.869 43.0002 20.869ZM35.8335 34.1634C35.8335 41.7055 38.7654 44.1342 43.0002 44.1342C47.2203 44.1342 50.1668 41.8023 50.1668 34.8281C50.1668 30.675 47.3563 27.5162 43.0002 27.5162C38.4627 27.5162 35.8335 30.2276 35.8335 34.1634Z" fill="#056839"/>
</svg>
